<svg id="_01_gray" data-name="01 gray" xmlns="http://www.w3.org/2000/svg" width="119" height="85" viewBox="0 0 119 85">
  <path id="Trazado_43" data-name="Trazado 43" d="M3747.453,4825.512q0-20.139,6.49-29.07t22.44-8.931q15.948,0,22.22,8.821t6.27,29.067q0,20.251-6.325,29.182t-22.385,8.931q-16.062,0-22.385-8.931T3747.453,4825.512Zm30.58-16.588a3.429,3.429,0,0,0-3.74,0,4.683,4.683,0,0,0-1.1,2.441q-.771,3.327-.77,14.146t.715,13.979q.714,3.163,3.025,3.163t3.025-3.163a61.029,61.029,0,0,0,.715-11.483q0-8.321-.165-11.538a30.474,30.474,0,0,0-.6-5.1A4.7,4.7,0,0,0,3778.033,4808.924Z" transform="translate(-3740.453 -4779.511)" fill="none" stroke="#f2f2f7" stroke-width="2"/>
  <path id="Trazado_44" data-name="Trazado 44" d="M3857.892,4788.941v73.141h-24.971v-46.171l-15.179,6.105-6.6-17.98,25.739-15.1Z" transform="translate(-3739.892 -4779.512)" fill="none" stroke="#f2f2f7" stroke-width="2"/>
  <path id="Trazado_45" data-name="Trazado 45" d="M3740.453,4817.512q0-20.139,6.49-29.07t22.44-8.932q15.948,0,22.22,8.821t6.27,29.067q0,20.251-6.325,29.181t-22.385,8.931q-16.062,0-22.385-8.931T3740.453,4817.512Zm30.58-16.588a3.427,3.427,0,0,0-3.74,0,4.679,4.679,0,0,0-1.1,2.44q-.771,3.328-.77,14.147t.715,13.979q.714,3.162,3.025,3.162t3.025-3.162a61.046,61.046,0,0,0,.715-11.483q0-8.321-.165-11.538a30.481,30.481,0,0,0-.6-5.1A4.694,4.694,0,0,0,3771.033,4800.924Z" transform="translate(-3740.453 -4779.511)" fill="#f2f2f7"/>
  <path id="Trazado_46" data-name="Trazado 46" d="M3850.892,4780.941v73.141h-24.971v-46.171l-15.179,6.106-6.6-17.98,25.739-15.1Z" transform="translate(-3739.892 -4779.511)" fill="#f2f2f7"/>
</svg>
