<svg id="_01_small" data-name="01 small" xmlns="http://www.w3.org/2000/svg" width="79.025" height="56" viewBox="0 0 79.025 56">
  <path id="Trazado_43" data-name="Trazado 43" d="M3747.453,4812.512q0-13.25,4.27-19.125t14.763-5.875q10.492,0,14.618,5.8t4.125,19.124q0,13.323-4.161,19.2t-14.727,5.875q-10.567,0-14.727-5.875T3747.453,4812.512Zm20.119-10.913a2.257,2.257,0,0,0-2.461,0,3.081,3.081,0,0,0-.723,1.606,52.313,52.313,0,0,0-.507,9.307,54.046,54.046,0,0,0,.47,9.2q.47,2.082,1.99,2.081t1.99-2.081a40.152,40.152,0,0,0,.47-7.555q0-5.475-.108-7.59a20.086,20.086,0,0,0-.4-3.358A3.093,3.093,0,0,0,3767.572,4801.6Z" transform="translate(-3742.453 -4782.511)" fill="none" stroke="#f2f2f7" stroke-width="2"/>
  <path id="Trazado_44" data-name="Trazado 44" d="M3841.9,4788.941v48.119H3825.47v-30.375l-9.986,4.017-4.342-11.829,16.934-9.932Z" transform="translate(-3763.873 -4783.001)" fill="none" stroke="#f2f2f7" stroke-width="2"/>
  <path id="Trazado_45" data-name="Trazado 45" d="M3740.453,4804.512q0-13.25,4.27-19.125t14.763-5.876q10.492,0,14.619,5.8t4.125,19.124q0,13.323-4.161,19.2t-14.727,5.875q-10.567,0-14.727-5.875T3740.453,4804.512Zm20.118-10.913a2.255,2.255,0,0,0-2.461,0,3.085,3.085,0,0,0-.723,1.606,52.318,52.318,0,0,0-.507,9.307,54.014,54.014,0,0,0,.47,9.2q.47,2.081,1.99,2.08t1.99-2.08a40.159,40.159,0,0,0,.47-7.555q0-5.475-.108-7.59a20.076,20.076,0,0,0-.4-3.358A3.087,3.087,0,0,0,3760.572,4793.6Z" transform="translate(-3740.453 -4779.511)" fill="#f2f2f7"/>
  <path id="Trazado_46" data-name="Trazado 46" d="M3834.9,4780.941v48.119H3818.47v-30.375l-9.986,4.017-4.342-11.83,16.934-9.931Z" transform="translate(-3761.873 -4780)" fill="#f2f2f7"/>
</svg>
