<svg id="_01" data-name="01" xmlns="http://www.w3.org/2000/svg" width="118.439" height="84.35" viewBox="0 0 118.439 84.35">
  <path id="Trazado_43" data-name="Trazado 43" d="M3747.453,4825.187q0-19.967,6.49-28.821t22.44-8.855q15.948,0,22.22,8.746t6.27,28.818q0,20.077-6.325,28.932t-22.385,8.854q-16.062,0-22.385-8.854T3747.453,4825.187Zm30.58-16.446a3.452,3.452,0,0,0-3.74,0,4.624,4.624,0,0,0-1.1,2.42q-.771,3.3-.77,14.026t.715,13.859q.714,3.135,3.025,3.135t3.025-3.135a60.006,60.006,0,0,0,.715-11.385q0-8.25-.165-11.439a29.973,29.973,0,0,0-.6-5.061A4.64,4.64,0,0,0,3778.033,4808.741Z" transform="translate(-3740.453 -4779.511)" fill="none" stroke="#fff" stroke-width="2"/>
  <path id="Trazado_44" data-name="Trazado 44" d="M3857.892,4788.941v72.49h-24.971v-45.76l-15.179,6.051-6.6-17.82,25.739-14.961Z" transform="translate(-3740.453 -4779.511)" fill="none" stroke="#fff" stroke-width="2"/>
  <path id="Trazado_45" data-name="Trazado 45" d="M3740.453,4817.187q0-19.967,6.49-28.821t22.44-8.855q15.948,0,22.22,8.746t6.27,28.818q0,20.077-6.325,28.932t-22.385,8.854q-16.062,0-22.385-8.854T3740.453,4817.187Zm30.58-16.446a3.452,3.452,0,0,0-3.74,0,4.624,4.624,0,0,0-1.1,2.42q-.771,3.3-.77,14.026t.715,13.859q.714,3.135,3.025,3.135t3.025-3.135a60.006,60.006,0,0,0,.715-11.385q0-8.25-.165-11.439a29.973,29.973,0,0,0-.6-5.061A4.64,4.64,0,0,0,3771.033,4800.741Z" transform="translate(-3740.453 -4779.511)" fill="#fff"/>
  <path id="Trazado_46" data-name="Trazado 46" d="M3850.892,4780.941v72.49h-24.971v-45.76l-15.179,6.051-6.6-17.82,25.739-14.961Z" transform="translate(-3740.453 -4779.511)" fill="#fff"/>
</svg>
