<svg id="_02_gray" data-name="02 gray" xmlns="http://www.w3.org/2000/svg" width="123" height="85" viewBox="0 0 123 85">
  <path id="Trazado_47" data-name="Trazado 47" d="M3991.921,4825.381q0-20.07,6.51-28.97t22.511-8.9q16,0,22.29,8.791t6.29,28.967q0,20.18-6.345,29.081t-22.455,8.9q-16.113,0-22.455-8.9T3991.921,4825.381Zm30.676-16.53a3.454,3.454,0,0,0-3.752,0,4.655,4.655,0,0,0-1.1,2.432q-.773,3.317-.772,14.1t.717,13.931q.718,3.151,3.035,3.151t3.034-3.151a60.444,60.444,0,0,0,.717-11.443q0-8.293-.166-11.5a30.09,30.09,0,0,0-.607-5.087A4.666,4.666,0,0,0,4022.6,4808.851Z" transform="translate(-3984.897 -4779.249)" fill="none" stroke="#f2f2f7" stroke-width="2"/>
  <path id="Trazado_48" data-name="Trazado 48" d="M4106.258,4861.813H4055.72V4842.8l9.6-9.288q3.088-2.876,5.958-5.749l4.635-4.645a27.5,27.5,0,0,0,3.421-4.2,12.7,12.7,0,0,0,1.821-3.482,10.3,10.3,0,0,0,.276-2.377q0-2.874-1.656-3.648a15.306,15.306,0,0,0-5.848-.775,80.743,80.743,0,0,0-14.565,1.217l-2.317.441-1.1-18.907a71,71,0,0,1,24-4.09q12.522,0,19.64,5.693t7.118,15.813q0,10.115-3.311,15.866t-12.358,12.052l-7.393,5.2h22.621Z" transform="translate(-3984.698 -4779.251)" fill="none" stroke="#f2f2f7" stroke-width="2"/>
  <path id="Trazado_49" data-name="Trazado 49" d="M3984.921,4817.381q0-20.069,6.51-28.969t22.511-8.9q16,0,22.29,8.791t6.29,28.967q0,20.181-6.345,29.081t-22.455,8.9q-16.113,0-22.455-8.9T3984.921,4817.381Zm30.676-16.531a3.457,3.457,0,0,0-3.752,0,4.659,4.659,0,0,0-1.1,2.433q-.773,3.316-.772,14.1t.717,13.93q.718,3.152,3.035,3.151t3.034-3.151a60.44,60.44,0,0,0,.717-11.443q0-8.292-.166-11.5a30.091,30.091,0,0,0-.607-5.087A4.671,4.671,0,0,0,4015.6,4800.851Z" transform="translate(-3984.921 -4779.291)" fill="#f2f2f7"/>
  <path id="Trazado_50" data-name="Trazado 50" d="M4099.258,4853.813H4048.72V4834.8l9.6-9.288q3.088-2.875,5.958-5.749l4.635-4.644a27.518,27.518,0,0,0,3.421-4.2,12.711,12.711,0,0,0,1.821-3.482,10.3,10.3,0,0,0,.276-2.378q0-2.873-1.656-3.647a15.306,15.306,0,0,0-5.848-.775,80.741,80.741,0,0,0-14.565,1.217l-2.317.441-1.1-18.907a70.984,70.984,0,0,1,24-4.09q12.523,0,19.642,5.693t7.116,15.812q0,10.115-3.311,15.867t-12.358,12.051l-7.393,5.2h22.621Z" transform="translate(-3984.72 -4779.292)" fill="#f2f2f7"/>
</svg>
