<svg id="_02_small" data-name="02 small" xmlns="http://www.w3.org/2000/svg" width="81.687" height="56" viewBox="0 0 81.687 56">
  <path id="Trazado_47" data-name="Trazado 47" d="M3991.921,4812.439q0-13.211,4.285-19.07t14.818-5.858q10.531,0,14.672,5.787t4.14,19.067q0,13.284-4.177,19.142t-14.781,5.858q-10.607,0-14.781-5.858T3991.921,4812.439Zm20.193-10.882a2.275,2.275,0,0,0-2.469,0,3.063,3.063,0,0,0-.727,1.6,51.875,51.875,0,0,0-.508,9.281,53.508,53.508,0,0,0,.472,9.17q.472,2.073,2,2.074t2-2.074a39.8,39.8,0,0,0,.472-7.533q0-5.459-.109-7.569a19.789,19.789,0,0,0-.4-3.349A3.072,3.072,0,0,0,4012.114,4801.558Z" transform="translate(-3986.921 -4782.366)" fill="none" stroke="#f2f2f7" stroke-width="2"/>
  <path id="Trazado_48" data-name="Trazado 48" d="M4088.987,4836.346H4055.72v-12.519l6.319-6.114q2.032-1.893,3.922-3.785l3.051-3.057a18.1,18.1,0,0,0,2.252-2.766,8.374,8.374,0,0,0,1.2-2.292,6.8,6.8,0,0,0,.181-1.565q0-1.891-1.09-2.4a10.066,10.066,0,0,0-3.85-.51,53.148,53.148,0,0,0-9.588.8l-1.525.29-.727-12.445a46.734,46.734,0,0,1,15.8-2.692q8.243,0,12.928,3.747a12.588,12.588,0,0,1,4.686,10.409q0,6.658-2.18,10.443t-8.135,7.934l-4.866,3.42h14.891Z" transform="translate(-4008.591 -4782.292)" fill="none" stroke="#f2f2f7" stroke-width="2"/>
  <path id="Trazado_49" data-name="Trazado 49" d="M3984.921,4804.439q0-13.21,4.285-19.069t14.818-5.859q10.53,0,14.672,5.787t4.14,19.067q0,13.285-4.176,19.143t-14.782,5.858q-10.606,0-14.781-5.858T3984.921,4804.439Zm20.192-10.882a2.28,2.28,0,0,0-2.469,0,3.073,3.073,0,0,0-.726,1.6,51.882,51.882,0,0,0-.508,9.28,53.5,53.5,0,0,0,.472,9.17q.472,2.074,2,2.074t2-2.074a39.744,39.744,0,0,0,.473-7.533q0-5.459-.109-7.568a19.755,19.755,0,0,0-.4-3.349A3.075,3.075,0,0,0,4005.113,4793.558Z" transform="translate(-3984.921 -4779.366)" fill="#f2f2f7"/>
  <path id="Trazado_50" data-name="Trazado 50" d="M4081.987,4828.346H4048.72v-12.518l6.32-6.114q2.032-1.893,3.922-3.785l3.051-3.057a18.078,18.078,0,0,0,2.252-2.765,8.379,8.379,0,0,0,1.2-2.292,6.788,6.788,0,0,0,.182-1.565q0-1.892-1.09-2.4a10.062,10.062,0,0,0-3.849-.51,53.2,53.2,0,0,0-9.588.8l-1.525.291-.726-12.446a46.734,46.734,0,0,1,15.8-2.692q8.243,0,12.929,3.748a12.587,12.587,0,0,1,4.684,10.408q0,6.658-2.179,10.444t-8.135,7.933l-4.866,3.42h14.891Z" transform="translate(-4006.591 -4779.292)" fill="#f2f2f7"/>
</svg>
