<svg id="_02" data-name="02" xmlns="http://www.w3.org/2000/svg" width="122.618" height="84.568" viewBox="0 0 122.618 84.568">
  <path id="Trazado_47" data-name="Trazado 47" d="M3991.921,4825.187q0-19.967,6.49-28.821t22.44-8.855q15.948,0,22.22,8.746t6.27,28.818q0,20.077-6.325,28.932t-22.385,8.854q-16.062,0-22.385-8.854T3991.921,4825.187Zm30.58-16.446a3.452,3.452,0,0,0-3.74,0,4.634,4.634,0,0,0-1.1,2.42q-.771,3.3-.77,14.026t.715,13.859q.716,3.135,3.025,3.135t3.025-3.135a60.006,60.006,0,0,0,.715-11.385q0-8.25-.165-11.439a29.872,29.872,0,0,0-.6-5.061A4.642,4.642,0,0,0,4022.5,4808.741Z" transform="translate(-3984.921 -4779.292)" fill="none" stroke="#fff" stroke-width="2"/>
  <path id="Trazado_48" data-name="Trazado 48" d="M4106.1,4861.431h-50.38v-18.92l9.57-9.24q3.078-2.861,5.94-5.719l4.62-4.621a27.374,27.374,0,0,0,3.41-4.18,12.633,12.633,0,0,0,1.815-3.465,10.221,10.221,0,0,0,.275-2.365q0-2.859-1.65-3.629a15.282,15.282,0,0,0-5.83-.771,80.671,80.671,0,0,0-14.52,1.211l-2.31.439-1.1-18.81a70.9,70.9,0,0,1,23.925-4.069q12.483,0,19.579,5.664t7.1,15.731q0,10.063-3.3,15.785t-12.319,11.99l-7.37,5.17h22.55Z" transform="translate(-3984.921 -4779.292)" fill="none" stroke="#fff" stroke-width="2"/>
  <path id="Trazado_49" data-name="Trazado 49" d="M3984.921,4817.187q0-19.967,6.49-28.821t22.44-8.855q15.948,0,22.22,8.746t6.27,28.818q0,20.077-6.325,28.932t-22.385,8.854q-16.062,0-22.385-8.854T3984.921,4817.187Zm30.58-16.446a3.452,3.452,0,0,0-3.74,0,4.634,4.634,0,0,0-1.1,2.42q-.771,3.3-.77,14.026t.715,13.859q.716,3.135,3.025,3.135t3.025-3.135a60.006,60.006,0,0,0,.715-11.385q0-8.25-.165-11.439a29.872,29.872,0,0,0-.6-5.061A4.642,4.642,0,0,0,4015.5,4800.741Z" transform="translate(-3984.921 -4779.292)" fill="#fff"/>
  <path id="Trazado_50" data-name="Trazado 50" d="M4099.1,4853.431h-50.38v-18.92l9.57-9.24q3.078-2.861,5.94-5.719l4.62-4.621a27.374,27.374,0,0,0,3.41-4.18,12.633,12.633,0,0,0,1.815-3.465,10.221,10.221,0,0,0,.275-2.365q0-2.859-1.65-3.629a15.282,15.282,0,0,0-5.83-.771,80.671,80.671,0,0,0-14.52,1.211l-2.31.439-1.1-18.81a70.9,70.9,0,0,1,23.925-4.069q12.483,0,19.58,5.664t7.094,15.731q0,10.063-3.3,15.785t-12.319,11.99l-7.37,5.17h22.55Z" transform="translate(-3984.921 -4779.292)" fill="#fff"/>
</svg>
