<svg id="_03_gray" data-name="03 gray" xmlns="http://www.w3.org/2000/svg" width="123" height="84" viewBox="0 0 123 84">
  <path id="Trazado_51" data-name="Trazado 51" d="M4236.39,4825.012q0-19.874,6.489-28.687t22.44-8.813q15.948,0,22.22,8.7t6.271,28.685q0,19.983-6.326,28.8t-22.384,8.813q-16.062,0-22.386-8.813T4236.39,4825.012Zm30.579-16.369a3.466,3.466,0,0,0-3.74,0,4.6,4.6,0,0,0-1.1,2.409q-.771,3.284-.77,13.96t.715,13.795q.715,3.121,3.026,3.121t3.024-3.121a59.376,59.376,0,0,0,.715-11.332q0-8.213-.165-11.386a29.676,29.676,0,0,0-.6-5.038A4.609,4.609,0,0,0,4266.969,4808.643Z" transform="translate(-4229.39 -4779.511)" fill="none" stroke="#f2f2f7" stroke-width="2"/>
  <path id="Trazado_52" data-name="Trazado 52" d="M4320.208,4787.511q16.168,0,23.484,4.6t7.316,16.2q0,6.023-1.486,9.2a15.108,15.108,0,0,1-5.224,5.8,21.764,21.764,0,0,1,5.939,6.295q1.76,3.12,1.761,8.814,0,13.688-7.15,18.887t-22.111,5.2a103.973,103.973,0,0,1-19.8-2.08l-3.63-.767.66-19.161q12.648,1.1,18.04,1.095a26.863,26.863,0,0,0,7.15-.6,2.5,2.5,0,0,0,1.76-2.627,3.048,3.048,0,0,0-1.21-2.792,11.655,11.655,0,0,0-4.62-1.1h-15.51V4815.1h14.52q5.94,0,5.94-3.34t-7.59-3.339q-5.172,0-15.18.768l-2.86.218-.551-18.724Q4312.507,4787.513,4320.208,4787.511Z" transform="translate(-4229.998 -4779.511)" fill="none" stroke="#f2f2f7" stroke-width="2"/>
  <path id="Trazado_53" data-name="Trazado 53" d="M4229.39,4817.012q0-19.874,6.489-28.687t22.44-8.813q15.948,0,22.22,8.7t6.271,28.685q0,19.983-6.326,28.8t-22.384,8.813q-16.062,0-22.386-8.813T4229.39,4817.012Zm30.579-16.369a3.466,3.466,0,0,0-3.74,0,4.6,4.6,0,0,0-1.1,2.409q-.771,3.284-.77,13.96t.715,13.795q.715,3.121,3.026,3.121t3.024-3.121a59.376,59.376,0,0,0,.715-11.332q0-8.213-.165-11.386a29.676,29.676,0,0,0-.6-5.038A4.609,4.609,0,0,0,4259.969,4800.643Z" transform="translate(-4229.39 -4779.511)" fill="#f2f2f7"/>
  <path id="Trazado_54" data-name="Trazado 54" d="M4313.208,4779.511q16.168,0,23.484,4.6t7.316,16.2q0,6.022-1.486,9.2a15.1,15.1,0,0,1-5.224,5.8,21.776,21.776,0,0,1,5.939,6.295q1.76,3.121,1.761,8.814,0,13.688-7.15,18.887t-22.111,5.2a103.973,103.973,0,0,1-19.8-2.08l-3.63-.767.66-19.161q12.648,1.1,18.04,1.095a26.884,26.884,0,0,0,7.15-.6,2.5,2.5,0,0,0,1.76-2.627,3.048,3.048,0,0,0-1.21-2.792,11.662,11.662,0,0,0-4.62-1.1h-15.51V4807.1h14.52q5.94,0,5.94-3.34t-7.59-3.339q-5.172,0-15.18.768l-2.86.218-.551-18.724Q4305.507,4779.513,4313.208,4779.511Z" transform="translate(-4229.998 -4779.511)" fill="#f2f2f7"/>
</svg>
