<svg id="_03_small" data-name="03 small" xmlns="http://www.w3.org/2000/svg" width="82.666" height="56" viewBox="0 0 82.666 56">
  <path id="Trazado_51" data-name="Trazado 51" d="M4236.391,4812.512q0-13.25,4.326-19.125t14.96-5.875q10.633,0,14.813,5.8t4.18,19.123q0,13.322-4.217,19.2t-14.923,5.875q-10.708,0-14.924-5.875T4236.391,4812.512Zm20.386-10.913a2.311,2.311,0,0,0-2.494,0,3.068,3.068,0,0,0-.733,1.606,51.709,51.709,0,0,0-.513,9.307,53.324,53.324,0,0,0,.477,9.2q.477,2.081,2.017,2.081t2.016-2.081a39.55,39.55,0,0,0,.477-7.554q0-5.475-.11-7.591a19.765,19.765,0,0,0-.4-3.358A3.073,3.073,0,0,0,4256.777,4801.6Z" transform="translate(-4231.391 -4782.511)" fill="none" stroke="#f2f2f7" stroke-width="2"/>
  <path id="Trazado_52" data-name="Trazado 52" d="M4313.242,4787.511q10.778,0,15.656,3.066t4.877,10.8a14.94,14.94,0,0,1-.99,6.132,10.073,10.073,0,0,1-3.483,3.869,14.513,14.513,0,0,1,3.959,4.2,12.091,12.091,0,0,1,1.174,5.876q0,9.125-4.767,12.592t-14.741,3.466a69.311,69.311,0,0,1-13.2-1.386l-2.42-.512.44-12.774q8.432.732,12.027.73a17.9,17.9,0,0,0,4.767-.4,1.664,1.664,0,0,0,1.173-1.751,2.033,2.033,0,0,0-.807-1.862,7.771,7.771,0,0,0-3.081-.73h-10.34v-12.919h9.68q3.96,0,3.96-2.227t-5.06-2.226q-3.448,0-10.12.512l-1.907.146-.368-12.483A58.823,58.823,0,0,1,4313.242,4787.511Z" transform="translate(-4252.77 -4782.511)" fill="none" stroke="#f2f2f7" stroke-width="2"/>
  <path id="Trazado_53" data-name="Trazado 53" d="M4229.391,4804.512q0-13.249,4.326-19.125t14.96-5.875q10.633,0,14.814,5.8t4.18,19.124q0,13.321-4.217,19.2t-14.923,5.875q-10.709,0-14.924-5.875T4229.391,4804.512Zm20.386-10.913a2.31,2.31,0,0,0-2.493,0,3.064,3.064,0,0,0-.733,1.605,51.692,51.692,0,0,0-.514,9.307,53.257,53.257,0,0,0,.478,9.2q.477,2.081,2.017,2.081t2.016-2.081a39.6,39.6,0,0,0,.477-7.554q0-5.475-.11-7.59a19.765,19.765,0,0,0-.4-3.359A3.064,3.064,0,0,0,4249.776,4793.6Z" transform="translate(-4229.391 -4779.512)" fill="#f2f2f7"/>
  <path id="Trazado_54" data-name="Trazado 54" d="M4306.242,4779.512q10.779,0,15.656,3.066t4.877,10.8a14.938,14.938,0,0,1-.99,6.132,10.07,10.07,0,0,1-3.483,3.869,14.529,14.529,0,0,1,3.959,4.2,12.1,12.1,0,0,1,1.174,5.877q0,9.125-4.767,12.591t-14.741,3.467a69.309,69.309,0,0,1-13.2-1.387l-2.42-.511.44-12.774q8.432.732,12.027.73a17.9,17.9,0,0,0,4.767-.4,1.665,1.665,0,0,0,1.173-1.751,2.033,2.033,0,0,0-.807-1.862,7.771,7.771,0,0,0-3.08-.731h-10.34v-12.918h9.68q3.96,0,3.96-2.227t-5.06-2.227q-3.448,0-10.12.512l-1.907.145-.368-12.482A58.828,58.828,0,0,1,4306.242,4779.512Z" transform="translate(-4250.77 -4779.512)" fill="#f2f2f7"/>
</svg>
