<svg xmlns="http://www.w3.org/2000/svg" width="123.608" height="84.35" viewBox="0 0 123.608 84.35">
  <g id="_03" data-name="03" transform="translate(0)">
    <path id="Trazado_51" data-name="Trazado 51" d="M4236.39,4825.187q0-19.967,6.489-28.821t22.44-8.855q15.948,0,22.22,8.746t6.271,28.818q0,20.077-6.326,28.932t-22.384,8.854q-16.062,0-22.386-8.854T4236.39,4825.187Zm30.579-16.446a3.453,3.453,0,0,0-3.74,0,4.632,4.632,0,0,0-1.1,2.42q-.771,3.3-.77,14.026t.715,13.859q.715,3.135,3.026,3.135t3.024-3.135a59.928,59.928,0,0,0,.715-11.385q0-8.25-.165-11.439a29.948,29.948,0,0,0-.6-5.061A4.64,4.64,0,0,0,4266.969,4808.741Z" transform="translate(-4229.391 -4779.511)" fill="none" stroke="#fff" stroke-width="2"/>
    <path id="Trazado_52" data-name="Trazado 52" d="M4320.208,4787.511q16.168,0,23.484,4.621t7.316,16.279q0,6.051-1.486,9.241a15.153,15.153,0,0,1-5.224,5.83,21.824,21.824,0,0,1,5.939,6.324q1.76,3.135,1.761,8.855,0,13.752-7.15,18.975t-22.111,5.225a103.517,103.517,0,0,1-19.8-2.09l-3.63-.77.66-19.25q12.648,1.1,18.04,1.1a26.758,26.758,0,0,0,7.15-.6,2.51,2.51,0,0,0,1.76-2.64,3.068,3.068,0,0,0-1.21-2.805,11.617,11.617,0,0,0-4.62-1.1h-15.51v-19.468h14.52q5.94,0,5.94-3.356t-7.59-3.355q-5.172,0-15.18.771l-2.86.219-.551-18.811Q4312.507,4787.513,4320.208,4787.511Z" transform="translate(-4229.391 -4779.511)" fill="none" stroke="#fff" stroke-width="2"/>
    <path id="Trazado_53" data-name="Trazado 53" d="M4229.39,4817.187q0-19.967,6.489-28.821t22.44-8.855q15.948,0,22.22,8.746t6.271,28.818q0,20.077-6.326,28.932t-22.384,8.854q-16.062,0-22.386-8.854T4229.39,4817.187Zm30.579-16.446a3.453,3.453,0,0,0-3.74,0,4.632,4.632,0,0,0-1.1,2.42q-.771,3.3-.77,14.026t.715,13.859q.715,3.135,3.026,3.135t3.024-3.135a59.928,59.928,0,0,0,.715-11.385q0-8.25-.165-11.439a29.948,29.948,0,0,0-.6-5.061A4.64,4.64,0,0,0,4259.969,4800.741Z" transform="translate(-4229.391 -4779.511)" fill="#fff"/>
    <path id="Trazado_54" data-name="Trazado 54" d="M4313.208,4779.511q16.168,0,23.484,4.621t7.316,16.279q0,6.051-1.486,9.241a15.153,15.153,0,0,1-5.224,5.83,21.824,21.824,0,0,1,5.939,6.324q1.76,3.135,1.761,8.855,0,13.752-7.15,18.975t-22.111,5.225a103.517,103.517,0,0,1-19.8-2.09l-3.63-.77.66-19.25q12.648,1.1,18.04,1.1a26.758,26.758,0,0,0,7.15-.6,2.51,2.51,0,0,0,1.76-2.64,3.068,3.068,0,0,0-1.21-2.805,11.617,11.617,0,0,0-4.62-1.1h-15.51v-19.468h14.52q5.94,0,5.94-3.356t-7.59-3.355q-5.172,0-15.18.771l-2.86.219-.551-18.811Q4305.507,4779.513,4313.208,4779.511Z" transform="translate(-4229.391 -4779.511)" fill="#fff"/>
  </g>
</svg>
