<svg id="_04_small" data-name="04 small" xmlns="http://www.w3.org/2000/svg" width="84.752" height="56" viewBox="0 0 84.752 56">
  <path id="Trazado_88" data-name="Trazado 88" d="M4480.9,4812.533c0-8.832,1.461-15.206,4.316-19.124s7.835-5.91,14.874-5.91,11.952,1.926,14.741,5.778,4.184,10.225,4.184,19.122-1.395,15.272-4.184,19.19-7.769,5.91-14.873,5.91-12.085-1.992-14.874-5.91C4482.294,4827.739,4480.9,4821.364,4480.9,4812.533Zm20.252-10.956a1.794,1.794,0,0,0-1.261-.4,1.912,1.912,0,0,0-1.261.4,3.553,3.553,0,0,0-.73,1.594,52.158,52.158,0,0,0-.531,9.3,53.178,53.178,0,0,0,.464,9.229c.332,1.395,1,2.059,1.992,2.059s1.66-.664,1.992-2.059a38.906,38.906,0,0,0,.465-7.57c0-3.652-.067-6.175-.133-7.57a19.7,19.7,0,0,0-.4-3.386A2.23,2.23,0,0,0,4501.152,4801.577Z" transform="translate(-4475.898 -4782.5)" fill="none" stroke="#f2f2f7" stroke-width="2"/>
  <path id="Trazado_89" data-name="Trazado 89" d="M4561.688,4837.041V4831.2H4541.9v-11.819l6.574-30.479H4567.6l-9.429,28.553h3.585l1.461-8.234,15.073-.53v8.765h1.859V4831.2h-1.859v5.843h-16.6Z" transform="translate(-4496.394 -4782.971)" fill="none" stroke="#f2f2f7" stroke-width="2"/>
  <path id="Trazado_90" data-name="Trazado 90" d="M4473.9,4804.533c0-8.831,1.461-15.206,4.316-19.123s7.835-5.91,14.874-5.91,11.952,1.926,14.741,5.777,4.183,10.226,4.183,19.124-1.394,15.272-4.183,19.189-7.769,5.91-14.874,5.91-12.085-1.992-14.874-5.91C4475.294,4819.739,4473.9,4813.365,4473.9,4804.533Zm20.252-10.956a1.8,1.8,0,0,0-1.261-.4,1.915,1.915,0,0,0-1.262.4,3.553,3.553,0,0,0-.73,1.594,52.21,52.21,0,0,0-.531,9.3,53.115,53.115,0,0,0,.465,9.23c.332,1.395,1,2.059,1.992,2.059s1.66-.664,1.993-2.059a38.95,38.95,0,0,0,.465-7.57c0-3.652-.067-6.175-.134-7.57a19.662,19.662,0,0,0-.4-3.386A2.232,2.232,0,0,0,4494.152,4793.577Z" transform="translate(-4473.9 -4779.5)" fill="#f2f2f7"/>
  <path id="Trazado_91" data-name="Trazado 91" d="M4554.687,4829.041V4823.2H4534.9v-11.819l6.574-30.478H4560.6l-9.43,28.553h3.586l1.461-8.234,15.073-.53v8.765h1.859V4823.2h-1.859v5.843h-16.6Z" transform="translate(-4494.394 -4779.971)" fill="#f2f2f7"/>
</svg>
