<svg xmlns="http://www.w3.org/2000/svg" width="126.579" height="84.35" viewBox="0 0 126.579 84.35">
  <g id="_04" data-name="04" transform="translate(0)">
    <path id="Trazado_55" data-name="Trazado 55" d="M4480.857,4825.187q0-19.967,6.49-28.821t22.44-8.855q15.948,0,22.22,8.746t6.27,28.818q0,20.077-6.325,28.932t-22.385,8.854q-16.062,0-22.385-8.854T4480.857,4825.187Zm30.58-16.446a3.453,3.453,0,0,0-3.74,0,4.632,4.632,0,0,0-1.1,2.42q-.771,3.3-.77,14.026t.715,13.859q.716,3.135,3.025,3.135t3.025-3.135a60,60,0,0,0,.715-11.385q0-8.25-.165-11.439a29.948,29.948,0,0,0-.6-5.061A4.64,4.64,0,0,0,4511.437,4808.741Z" transform="translate(-4473.857 -4779.511)" fill="none" stroke="#fff" stroke-width="2"/>
    <path id="Trazado_56" data-name="Trazado 56" d="M4571.716,4861.431v-8.8H4541.9v-17.82l9.9-45.871h28.82l-14.19,43.009h5.389l2.2-12.429,22.661-.77v13.2h2.75v20.682h-2.75v8.8Z" transform="translate(-4473.857 -4779.511)" fill="none" stroke="#fff" stroke-width="2"/>
    <path id="Trazado_57" data-name="Trazado 57" d="M4473.857,4817.187q0-19.967,6.49-28.821t22.44-8.855q15.948,0,22.22,8.746t6.27,28.818q0,20.077-6.325,28.932t-22.385,8.854q-16.062,0-22.385-8.854T4473.857,4817.187Zm30.58-16.446a3.453,3.453,0,0,0-3.74,0,4.632,4.632,0,0,0-1.1,2.42q-.771,3.3-.77,14.026t.715,13.859q.716,3.135,3.025,3.135t3.025-3.135a60,60,0,0,0,.715-11.385q0-8.25-.165-11.439a29.948,29.948,0,0,0-.6-5.061A4.64,4.64,0,0,0,4504.437,4800.741Z" transform="translate(-4473.857 -4779.511)" fill="#fff"/>
    <path id="Trazado_58" data-name="Trazado 58" d="M4564.716,4853.431v-8.8H4534.9v-17.82l9.9-45.871h28.82l-14.19,43.009h5.389l2.2-12.429,22.661-.77v13.2h2.75v20.682h-2.75v8.8Z" transform="translate(-4473.857 -4779.511)" fill="#fff"/>
  </g>
</svg>
