<svg id="_05_small" data-name="05 small" xmlns="http://www.w3.org/2000/svg" width="83.954" height="55" viewBox="0 0 83.954 55">
  <path id="Trazado_92" data-name="Trazado 92" d="M4564.527,4948.987q0-13.248,4.307-19.124t14.891-5.876q10.583,0,14.745,5.8t4.16,19.124q0,13.321-4.2,19.2t-14.854,5.876q-10.656,0-14.853-5.876T4564.527,4948.987Zm20.292-10.913a2.3,2.3,0,0,0-2.481,0,3.07,3.07,0,0,0-.729,1.606,51.828,51.828,0,0,0-.512,9.306,53.576,53.576,0,0,0,.475,9.2q.472,2.08,2.006,2.08t2.008-2.08a39.832,39.832,0,0,0,.474-7.555q0-5.474-.109-7.591a19.831,19.831,0,0,0-.4-3.357A3.077,3.077,0,0,0,4584.819,4938.075Z" transform="translate(-4559.527 -4919.987)" fill="none" stroke="#f2f2f7" stroke-width="2"/>
  <path id="Trazado_93" data-name="Trazado 93" d="M4661.952,4925.438v14.6h-20.657l-.365,3.211a19.577,19.577,0,0,1,6.5-1.1q8.466,0,12.41,3.431t3.94,12.116q0,16.79-18.248,16.788a59.276,59.276,0,0,1-8.249-.693q-4.816-.693-7.883-1.423l-3.138-.73,1.241-11.9a115.554,115.554,0,0,0,16.423,1.46q3.722,0,3.722-2.006t-3.5-2.008a20.456,20.456,0,0,0-4.964.657l-.875.218-10.8-1.314,1.022-31.312Z" transform="translate(-4580.822 -4920.487)" fill="none" stroke="#f2f2f7" stroke-width="2"/>
  <path id="Trazado_96" data-name="Trazado 96" d="M4557.125,4941.715q0-13.247,4.306-19.123t14.892-5.877q10.583,0,14.744,5.8t4.161,19.125q0,13.321-4.2,19.2t-14.855,5.875q-10.658,0-14.854-5.875T4557.125,4941.715Zm20.292-10.912a2.294,2.294,0,0,0-2.482,0,3.069,3.069,0,0,0-.729,1.606,51.917,51.917,0,0,0-.511,9.306,53.47,53.47,0,0,0,.475,9.2q.472,2.081,2.006,2.081t2.007-2.081a39.767,39.767,0,0,0,.475-7.555q0-5.474-.109-7.591a19.794,19.794,0,0,0-.4-3.357A3.077,3.077,0,0,0,4577.417,4930.8Z" transform="translate(-4557.125 -4916.715)" fill="#f2f2f7"/>
  <path id="Trazado_97" data-name="Trazado 97" d="M4654.55,4918.164v14.6h-20.658l-.365,3.212a19.547,19.547,0,0,1,6.5-1.1q8.467,0,12.409,3.43t3.942,12.117q0,16.791-18.249,16.789a59.255,59.255,0,0,1-8.248-.693q-4.818-.694-7.884-1.423l-3.138-.731,1.241-11.9a115.476,115.476,0,0,0,16.423,1.46q3.722,0,3.723-2.007t-3.5-2.007a20.464,20.464,0,0,0-4.963.657l-.876.219-10.8-1.314,1.022-31.313Z" transform="translate(-4578.418 -4917.215)" fill="#f2f2f7"/>
</svg>
