<svg xmlns="http://www.w3.org/2000/svg" width="127.646" height="84" viewBox="0 0 127.646 84">
  <g id="_05" data-name="05" transform="translate(0 0)">
    <path id="Trazado_189" data-name="Trazado 189" d="M4564.5,4962.387c0-13.566,2.211-23.313,6.633-29.343s12.058-9.044,22.81-9.044c10.854,0,18.39,3.015,22.61,8.943s6.431,15.677,6.431,29.343-2.11,23.414-6.431,29.443-11.857,9.044-22.811,9.044c-10.853,0-18.49-3.015-22.811-9.044C4566.711,4985.7,4564.5,4975.853,4564.5,4962.387Zm31.152-16.782a2.722,2.722,0,0,0-1.91-.6,2.9,2.9,0,0,0-1.909.6,5.338,5.338,0,0,0-1.105,2.512c-.5,2.211-.8,7.034-.8,14.27s.2,11.958.7,14.068,1.508,3.215,3.117,3.215,2.613-1.105,3.115-3.215.7-6.029.7-11.556-.1-9.446-.2-11.657a27.452,27.452,0,0,0-.6-5.125A4.51,4.51,0,0,0,4595.652,4945.605Z" transform="translate(-4557.336 -4917.773)" fill="none" stroke="#fff" stroke-width="2"/>
    <path id="Trazado_190" data-name="Trazado 190" d="M4680.967,4925.4v22.409h-31.654l-.6,4.924a30.425,30.425,0,0,1,9.948-1.709c8.642,0,14.973,1.709,18.993,5.226s6.03,9.748,6.03,18.591c0,17.184-9.346,25.725-28.037,25.725a92.552,92.552,0,0,1-12.661-1.105,116.334,116.334,0,0,1-12.059-2.212l-4.823-1.1,1.909-18.289a174.712,174.712,0,0,0,25.223,2.21c3.819,0,5.728-1,5.728-3.115,0-2.01-1.809-3.115-5.326-3.115a30.115,30.115,0,0,0-7.637,1l-1.305.3-16.581-2.01,1.608-48.033h51.249v.3Z" transform="translate(-4557.035 -4917.769)" fill="none" stroke="#fff" stroke-width="2"/>
    <path id="Trazado_193" data-name="Trazado 193" d="M4557.1,4955.087c0-13.566,2.21-23.313,6.632-29.342s12.059-9.044,22.811-9.044c10.853,0,18.39,3.015,22.61,8.943s6.431,15.676,6.431,29.342-2.11,23.415-6.431,29.443-11.857,9.044-22.811,9.044c-10.853,0-18.49-3.015-22.811-9.044C4559.312,4978.4,4557.1,4968.653,4557.1,4955.087Zm31.152-16.781a2.72,2.72,0,0,0-1.91-.6,2.9,2.9,0,0,0-1.91.6,5.345,5.345,0,0,0-1.1,2.512c-.5,2.21-.8,7.034-.8,14.269s.2,11.958.7,14.068,1.507,3.217,3.115,3.217,2.612-1.106,3.115-3.217.7-6.03.7-11.557-.1-9.446-.2-11.657a27.512,27.512,0,0,0-.6-5.124A5.359,5.359,0,0,0,4588.253,4938.306Z" transform="translate(-4557.102 -4916.701)" fill="#fff"/>
    <path id="Trazado_194" data-name="Trazado 194" d="M4673.568,4918.2v22.409h-31.654l-.6,4.924a30.437,30.437,0,0,1,9.948-1.708c8.643,0,14.973,1.708,18.993,5.225s6.029,9.748,6.029,18.59c0,17.184-9.345,25.725-28.036,25.725a92.469,92.469,0,0,1-12.662-1.105,116.558,116.558,0,0,1-12.059-2.21l-4.824-1.105,1.91-18.29a174.737,174.737,0,0,0,25.223,2.212c3.818,0,5.728-1,5.728-3.115,0-2.01-1.809-3.116-5.326-3.116a30.151,30.151,0,0,0-7.637,1l-1.306.3-16.581-2.01,1.607-48.034h51.249v.3Z" transform="translate(-4556.801 -4916.695)" fill="#fff"/>
  </g>
</svg>
