<svg id="_06_small" data-name="06 small" xmlns="http://www.w3.org/2000/svg" width="84.247" height="56" viewBox="0 0 84.247 56">
  <path id="Trazado_94" data-name="Trazado 94" d="M4763,4948.988q0-13.249,4.306-19.124t14.892-5.877q10.582,0,14.744,5.8t4.161,19.124q0,13.323-4.2,19.2t-14.854,5.875q-10.658,0-14.854-5.875T4763,4948.988Zm20.292-10.913a2.3,2.3,0,0,0-2.481,0,3.062,3.062,0,0,0-.73,1.606,51.923,51.923,0,0,0-.511,9.307,53.523,53.523,0,0,0,.475,9.2q.473,2.081,2.006,2.081t2.008-2.081a39.826,39.826,0,0,0,.474-7.555q0-5.474-.109-7.591a19.838,19.838,0,0,0-.4-3.357A3.081,3.081,0,0,0,4783.291,4938.075Z" transform="translate(-4757.999 -4918.987)" fill="none" stroke="#f2f2f7" stroke-width="2"/>
  <path id="Trazado_95" data-name="Trazado 95" d="M4845.786,4937.344a5.63,5.63,0,0,0-4.088,1.242,5.821,5.821,0,0,0-1.459,3.722l.729-.292a14.231,14.231,0,0,1,5.329-1.022q8.32,0,12.263,3.979t3.941,12.409q0,8.43-4.891,12.518t-13.43,4.087q-10.074,0-14.818-6.131t-4.744-18.395q0-14.671,5.985-20.365a16.529,16.529,0,0,1,6.35-3.941,22.489,22.489,0,0,1,7.153-1.169,64.2,64.2,0,0,1,14.453,1.9l2.7.584-1.168,12.116A96.983,96.983,0,0,0,4845.786,4937.344Zm-1.46,16.57a9.8,9.8,0,0,0-4.161.876,10.358,10.358,0,0,0,.8,4.781q.8,1.423,3.212,1.424,3.43,0,3.43-3.541T4844.326,4953.914Z" transform="translate(-4779.254 -4918.987)" fill="none" stroke="#f2f2f7" stroke-width="2"/>
  <path id="Trazado_98" data-name="Trazado 98" d="M4755.6,4941.714q0-13.248,4.306-19.124t14.891-5.876q10.583,0,14.745,5.8t4.161,19.125q0,13.321-4.2,19.2t-14.854,5.876q-10.658,0-14.854-5.876T4755.6,4941.714Zm20.292-10.912a2.293,2.293,0,0,0-2.482,0,3.062,3.062,0,0,0-.729,1.606,51.841,51.841,0,0,0-.511,9.306,53.5,53.5,0,0,0,.474,9.2q.473,2.08,2.007,2.081t2.006-2.081a39.769,39.769,0,0,0,.475-7.554q0-5.475-.109-7.592a20.056,20.056,0,0,0-.4-3.357A3.084,3.084,0,0,0,4775.888,4930.8Z" transform="translate(-4755.596 -4916.714)" fill="#f2f2f7"/>
  <path id="Trazado_99" data-name="Trazado 99" d="M4838.383,4930.073a5.624,5.624,0,0,0-4.088,1.241,5.815,5.815,0,0,0-1.459,3.723l.73-.292a14.21,14.21,0,0,1,5.328-1.022q8.32,0,12.262,3.978t3.942,12.41q0,8.431-4.891,12.519t-13.431,4.086q-10.073,0-14.818-6.13t-4.744-18.395q0-14.672,5.986-20.366a16.543,16.543,0,0,1,6.35-3.941,22.5,22.5,0,0,1,7.153-1.168,64.214,64.214,0,0,1,14.452,1.9l2.7.584-1.167,12.117A96.776,96.776,0,0,0,4838.383,4930.073Zm-1.459,16.57a9.813,9.813,0,0,0-4.161.875,10.341,10.341,0,0,0,.8,4.781q.8,1.425,3.211,1.424,3.429,0,3.43-3.54T4836.924,4946.643Z" transform="translate(-4776.852 -4916.714)" fill="#f2f2f7"/>
</svg>
