<svg xmlns="http://www.w3.org/2000/svg" width="127.994" height="84" viewBox="0 0 127.994 84">
  <g id="_06" data-name="06" transform="translate(0.001 0)">
    <path id="Trazado_191" data-name="Trazado 191" d="M4763,4962.336c0-13.548,2.208-23.283,6.624-29.3S4781.667,4924,4792.4,4924c10.839,0,18.366,3.011,22.581,8.932s6.423,15.656,6.423,29.305-2.107,23.383-6.423,29.4-11.842,9.033-22.781,9.033c-10.839,0-18.466-3.011-22.781-9.033S4763,4975.785,4763,4962.336Zm31.11-16.76a2.717,2.717,0,0,0-1.906-.6,2.9,2.9,0,0,0-1.907.6,5.325,5.325,0,0,0-1.1,2.509c-.5,2.208-.8,7.025-.8,14.25s.2,11.943.7,14.05,1.505,3.211,3.112,3.211,2.609-1.1,3.111-3.211.7-6.021.7-11.541-.1-9.434-.2-11.642a27.467,27.467,0,0,0-.6-5.118A5.338,5.338,0,0,0,4794.111,4945.577Z" transform="translate(-4755.835 -4917.673)" fill="none" stroke="#fff" stroke-width="2"/>
    <path id="Trazado_192" data-name="Trazado 192" d="M4857.016,4944.474c-2.91,0-5.018.6-6.222,1.906a8.777,8.777,0,0,0-2.208,5.721l1.1-.4a22.55,22.55,0,0,1,8.128-1.605c8.531,0,14.752,2.007,18.767,6.122,4.014,4.015,6.021,10.437,6.021,18.968s-2.508,15.053-7.526,19.168c-5.018,4.215-11.842,6.222-20.573,6.222-10.337,0-17.863-3.111-22.681-9.434-4.817-6.222-7.226-15.656-7.226-28.2,0-14.953,3.011-25.391,9.133-31.211a25.484,25.484,0,0,1,9.734-6.022,34.247,34.247,0,0,1,10.939-1.806,100.591,100.591,0,0,1,22.179,2.91l4.115.9-1.806,18.566A153.483,153.483,0,0,0,4857.016,4944.474Zm-2.208,25.391a15.332,15.332,0,0,0-6.423,1.3c0,3.412.4,5.821,1.2,7.326.8,1.405,2.509,2.208,4.917,2.208,3.513,0,5.219-1.807,5.219-5.419C4859.826,4971.67,4858.12,4969.864,4854.808,4969.864Z" transform="translate(-4755.612 -4917.674)" fill="none" stroke="#fff" stroke-width="2"/>
    <path id="Trazado_195" data-name="Trazado 195" d="M4755.6,4955.037c0-13.547,2.208-23.283,6.624-29.3s12.043-9.033,22.781-9.033c10.838,0,18.365,3.011,22.58,8.932s6.423,15.656,6.423,29.305-2.106,23.383-6.423,29.4-11.841,9.033-22.781,9.033c-10.839,0-18.466-3.011-22.782-9.033S4755.6,4968.585,4755.6,4955.037Zm31.111-16.759a2.713,2.713,0,0,0-1.907-.6,2.889,2.889,0,0,0-1.907.6,5.335,5.335,0,0,0-1.1,2.509c-.5,2.208-.8,7.025-.8,14.25s.2,11.943.7,14.05,1.506,3.213,3.111,3.213,2.609-1.1,3.111-3.213.7-6.021.7-11.541-.1-9.433-.2-11.642a27.386,27.386,0,0,0-.6-5.118A5.343,5.343,0,0,0,4786.711,4938.278Z" transform="translate(-4755.601 -4916.601)" fill="#fff"/>
    <path id="Trazado_196" data-name="Trazado 196" d="M4849.616,4937.173c-2.91,0-5.018.6-6.223,1.907a8.778,8.778,0,0,0-2.208,5.721l1.1-.4a22.54,22.54,0,0,1,8.128-1.605c8.53,0,14.752,2.007,18.767,6.121,4.015,4.015,6.021,10.438,6.021,18.969s-2.509,15.053-7.527,19.168c-5.018,4.215-11.842,6.222-20.574,6.222-10.336,0-17.863-3.111-22.681-9.433-4.817-6.224-7.226-15.657-7.226-28.2,0-14.953,3.011-25.39,9.132-31.212a25.521,25.521,0,0,1,9.735-6.021,34.246,34.246,0,0,1,10.939-1.805,100.672,100.672,0,0,1,22.179,2.909l4.115.9-1.807,18.566A154.628,154.628,0,0,0,4849.616,4937.173Zm-2.208,25.391a15.316,15.316,0,0,0-6.423,1.305c0,3.412.4,5.82,1.2,7.326.8,1.4,2.509,2.208,4.917,2.208,3.513,0,5.219-1.807,5.219-5.42C4852.426,4964.371,4850.72,4962.564,4847.408,4962.564Z" transform="translate(-4755.378 -4916.601)" fill="#fff"/>
  </g>
</svg>
