<svg id="_07" data-name="07" xmlns="http://www.w3.org/2000/svg" width="125.06" height="84.149" viewBox="0 0 125.06 84.149">
  <path id="Trazado_185" data-name="Trazado 185" d="M4594.789,5094.255q0-20.522,6.669-29.622t23.065-9.1q16.39,0,22.837,8.989t6.445,29.623q0,20.635-6.5,29.734t-23.008,9.1q-16.508,0-23.005-9.1T4594.789,5094.255Zm31.43-16.9a3.55,3.55,0,0,0-3.844,0,4.767,4.767,0,0,0-1.131,2.487q-.792,3.393-.791,14.416t.735,14.245q.735,3.223,3.108,3.223t3.111-3.223q.734-3.22.734-11.7t-.168-11.757a30.844,30.844,0,0,0-.623-5.2A4.779,4.779,0,0,0,4626.219,5077.352Z" transform="translate(-4588.084 -5049.979)" fill="none" stroke="#fff" stroke-width="2"/>
  <path id="Trazado_186" data-name="Trazado 186" d="M4657.836,5080.673v-23.744h51.1v24.987l-19.9,50.99-25.327-5.2,18.768-44.208v-2.826Z" transform="translate(-4584.879 -5049.906)" fill="none" stroke="#fff" stroke-width="2"/>
  <path id="Trazado_197" data-name="Trazado 197" d="M4588,5087.8q0-20.522,6.671-29.623t23.065-9.1q16.389,0,22.837,8.988t6.445,29.624q0,20.635-6.5,29.735t-23.008,9.1q-16.51,0-23.007-9.1T4588,5087.8Zm31.431-16.9a3.55,3.55,0,0,0-3.844,0,4.762,4.762,0,0,0-1.131,2.487q-.792,3.392-.791,14.416t.735,14.245q.735,3.223,3.109,3.224t3.109-3.224q.734-3.22.734-11.7t-.169-11.758a30.794,30.794,0,0,0-.622-5.2A4.775,4.775,0,0,0,4619.43,5070.9Z" transform="translate(-4587.998 -5049.079)" fill="#fff"/>
  <path id="Trazado_198" data-name="Trazado 198" d="M4651.046,5074.221v-23.744h51.1v24.987l-19.9,50.991-25.327-5.2,18.768-44.206v-2.827Z" transform="translate(-4584.793 -5049.006)" fill="#fff"/>
</svg>
