<svg id="_08" data-name="08" xmlns="http://www.w3.org/2000/svg" width="129.018" height="84" viewBox="0 0 129.018 84">
  <path id="Trazado_187" data-name="Trazado 187" d="M4784.717,5094.256q0-20.522,6.671-29.622t23.065-9.1q16.392,0,22.838,8.989t6.445,29.623q0,20.635-6.5,29.735t-23.009,9.1q-16.507,0-23.007-9.1T4784.717,5094.256Zm31.432-16.9a3.548,3.548,0,0,0-3.843,0,4.757,4.757,0,0,0-1.131,2.487q-.793,3.393-.791,14.416t.734,14.245q.735,3.223,3.108,3.223t3.111-3.223q.735-3.22.733-11.7t-.168-11.758a30.9,30.9,0,0,0-.622-5.2A4.772,4.772,0,0,0,4816.149,5077.353Z" transform="translate(-4778.016 -5049.979)" fill="none" stroke="#fff" stroke-width="2"/>
  <path id="Trazado_188" data-name="Trazado 188" d="M4873.406,5055.53q21.14,0,26.457,10.176a24,24,0,0,1,2.035,10.686q0,6.614-1.753,10.459t-6.838,6.783q5.878,2.827,7.8,6.5t1.923,11.589q0,21.256-29.623,21.255t-29.622-21.48q0-7.349,2.149-11.023t7.687-6.953a16.452,16.452,0,0,1-6.67-6.729q-1.81-3.785-1.809-11.137Q4845.141,5055.534,4873.406,5055.53Zm3.45,57.267q1.072-1.072,1.072-4.354a8.756,8.756,0,0,0-2.938-6.217h-3.054a8.6,8.6,0,0,0-3.051,7.065q0,4.581,4.522,4.579A4.722,4.722,0,0,0,4876.856,5112.8Zm-6.332-37.141a9.1,9.1,0,0,0,1.412,9.5h3.054a7.889,7.889,0,0,0,2.148-5.653q0-5.086-3.844-5.087A2.942,2.942,0,0,0,4870.524,5075.656Z" transform="translate(-4775.012 -5049.979)" fill="none" stroke="#fff" stroke-width="2"/>
  <path id="Trazado_199" data-name="Trazado 199" d="M4777.929,5087.8q0-20.522,6.669-29.623t23.065-9.1q16.392,0,22.838,8.989t6.445,29.624q0,20.635-6.5,29.735t-23.009,9.1q-16.508,0-23.006-9.1T4777.929,5087.8Zm31.431-16.9a3.549,3.549,0,0,0-3.844,0,4.763,4.763,0,0,0-1.131,2.487q-.792,3.393-.791,14.416t.734,14.245q.735,3.223,3.108,3.224t3.111-3.224q.734-3.22.734-11.7t-.169-11.758a30.758,30.758,0,0,0-.622-5.2A4.77,4.77,0,0,0,4809.36,5070.9Z" transform="translate(-4777.93 -5049.079)" fill="#fff"/>
  <path id="Trazado_200" data-name="Trazado 200" d="M4866.617,5049.079q21.143,0,26.457,10.177a23.97,23.97,0,0,1,2.035,10.685q0,6.612-1.752,10.458t-6.84,6.783q5.878,2.828,7.8,6.5t1.922,11.589q0,21.257-29.623,21.255t-29.623-21.481q0-7.348,2.149-11.023t7.688-6.954a16.447,16.447,0,0,1-6.671-6.728q-1.81-3.787-1.808-11.137Q4838.352,5049.082,4866.617,5049.079Zm3.45,57.267q1.074-1.072,1.074-4.353a8.755,8.755,0,0,0-2.94-6.218h-3.053a8.6,8.6,0,0,0-3.053,7.065q0,4.581,4.522,4.581A4.721,4.721,0,0,0,4870.066,5106.346Zm-6.333-37.141a9.1,9.1,0,0,0,1.414,9.5h3.053a7.886,7.886,0,0,0,2.149-5.652q0-5.087-3.845-5.088A2.945,2.945,0,0,0,4863.734,5069.205Z" transform="translate(-4774.926 -5049.079)" fill="#fff"/>
</svg>
