<svg id="_100_" data-name="100%" xmlns="http://www.w3.org/2000/svg" width="248.268" height="84.48" viewBox="0 0 248.268 84.48">
  <g id="Grupo_113" data-name="Grupo 113" transform="translate(-3966.333 -4548.533)" style="isolation: isolate">
    <g id="Grupo_112" data-name="Grupo 112" style="isolation: isolate">
      <path id="Trazado_59" data-name="Trazado 59" d="M4013.083,4553.154v72.49h-24.97v-45.76l-15.18,6.05-6.6-17.821,25.74-14.959Z" fill="#fff"/>
      <path id="Trazado_60" data-name="Trazado 60" d="M4023.642,4589.4q0-19.965,6.489-28.821t22.44-8.854q15.95,0,22.221,8.745t6.27,28.819q0,20.077-6.326,28.931t-22.384,8.854q-16.062,0-22.386-8.854T4023.642,4589.4Zm30.579-16.446a3.458,3.458,0,0,0-3.74,0,4.644,4.644,0,0,0-1.1,2.421q-.77,3.3-.77,14.025t.716,13.86q.714,3.135,3.025,3.135t3.024-3.135a59.922,59.922,0,0,0,.715-11.385q0-8.25-.165-11.44a29.859,29.859,0,0,0-.6-5.06A4.634,4.634,0,0,0,4054.221,4572.953Z" fill="#fff"/>
      <path id="Trazado_61" data-name="Trazado 61" d="M4084.14,4589.4q0-19.965,6.49-28.821t22.44-8.854q15.948,0,22.22,8.745t6.271,28.819q0,20.077-6.326,28.931t-22.384,8.854q-16.062,0-22.386-8.854T4084.14,4589.4Zm30.58-16.446a3.458,3.458,0,0,0-3.74,0,4.636,4.636,0,0,0-1.1,2.421q-.771,3.3-.77,14.025t.715,13.86q.715,3.135,3.026,3.135t3.024-3.135a59.928,59.928,0,0,0,.715-11.385q0-8.25-.165-11.44a29.934,29.934,0,0,0-.6-5.06A4.644,4.644,0,0,0,4114.72,4572.953Z" fill="#fff"/>
      <path id="Trazado_62" data-name="Trazado 62" d="M4145.079,4571.8q0-10.725,3.521-15.181t12.484-4.455q8.966,0,12.32,4.4t3.355,15.179q0,10.783-3.409,15.236t-12.431,4.455q-9.021,0-12.43-4.455T4145.079,4571.8Zm17.49-6.82a1.742,1.742,0,0,0-3.3.054,30.328,30.328,0,0,0-.331,5.886,58.031,58.031,0,0,0,.22,6.324,4.746,4.746,0,0,0,.55,2.036,1.9,1.9,0,0,0,1.431.384,1.407,1.407,0,0,0,1.429-1.21,38.083,38.083,0,0,0,.33-6.764A37.028,37.028,0,0,0,4162.569,4564.979Zm5.72,67.155,17.38-83.6,4.84.991-17.489,83.49Zm14.63-24.806q0-10.723,3.52-15.179t12.485-4.455q8.964,0,12.32,4.4t3.356,15.18q0,10.781-3.411,15.235t-12.43,4.455q-9.021,0-12.43-4.455T4182.919,4607.328Zm17.49-6.819a1.743,1.743,0,0,0-3.3.055,30.537,30.537,0,0,0-.33,5.884,58.057,58.057,0,0,0,.22,6.326,4.756,4.756,0,0,0,.55,2.035,1.9,1.9,0,0,0,1.43.385,1.411,1.411,0,0,0,1.43-1.21,38.171,38.171,0,0,0,.33-6.765A37.106,37.106,0,0,0,4200.409,4600.509Z" fill="#fff"/>
    </g>
  </g>
</svg>
