<svg id="_90" data-name=" 90" xmlns="http://www.w3.org/2000/svg" width="117.809" height="75.35" viewBox="0 0 117.809 75.35">
  <g id="_90-2" data-name=" 90" transform="translate(-4189.253 -4224.724)" style="isolation: isolate">
    <g id="Grupo_116" data-name="Grupo 116" style="isolation: isolate">
      <path id="Trazado_71" data-name="Trazado 71" d="M4214.443,4279.944q4.291,0,6.161-1.871a8.767,8.767,0,0,0,2.2-5.609l-1.1.44a21.4,21.4,0,0,1-8.03,1.54q-12.54,0-18.48-6t-5.94-18.7q0-12.705,7.37-18.865t20.24-6.16q15.18,0,22.33,9.24t7.15,27.72q0,22.11-8.909,30.69a25.859,25.859,0,0,1-9.681,5.94,33.914,33.914,0,0,1-10.78,1.759,100.458,100.458,0,0,1-21.78-2.75l-4.07-.989,1.76-18.261A145.918,145.918,0,0,0,4214.443,4279.944Zm2.2-24.97a14.8,14.8,0,0,0,6.269-1.32q0-5.06-1.21-7.206t-4.84-2.144q-5.172,0-5.17,5.335T4216.644,4254.974Z" fill="#fff"/>
      <path id="Trazado_72" data-name="Trazado 72" d="M4249.642,4262.4q0-19.965,6.49-28.821t22.439-8.854q15.95,0,22.221,8.745t6.27,28.819q0,20.077-6.326,28.931t-22.384,8.854q-16.062,0-22.385-8.854T4249.642,4262.4Zm30.58-16.446a3.46,3.46,0,0,0-3.741,0,4.637,4.637,0,0,0-1.1,2.421q-.771,3.3-.771,14.025t.716,13.86q.714,3.135,3.025,3.135t3.025-3.135a60.012,60.012,0,0,0,.715-11.385q0-8.25-.165-11.44a29.919,29.919,0,0,0-.606-5.06A4.645,4.645,0,0,0,4280.222,4245.953Z" fill="#fff"/>
    </g>
  </g>
</svg>
