<svg id="Add_cart" data-name="Add cart" xmlns="http://www.w3.org/2000/svg" width="36" height="36" viewBox="0 0 36 36">
  <rect id="Rectángulo_244" data-name="Rectángulo 244" width="36" height="36" fill="#ff8c00"/>
  <path id="Trazado_6" data-name="Trazado 6" d="M6582.075,4374.158h4.648a.674.674,0,1,0,0-1.348h-4.648v-4.636a.676.676,0,0,0-1.352,0v4.636h-4.648a.67.67,0,0,0-.467,1.156.792.792,0,0,0,.483.208h4.648v4.636a.676.676,0,0,0,.209.481.743.743,0,0,0,.483.208.679.679,0,0,0,.676-.674v-4.668Z" transform="translate(-6563.399 -4355.5)" fill="#fff" stroke="#fff" stroke-width="0.3"/>
</svg>
