<svg id="Back_from_Cart" data-name="Back from Cart" xmlns="http://www.w3.org/2000/svg" width="28" height="28" viewBox="0 0 28 28">
  <rect id="Rectángulo_148" data-name="Rectángulo 148" width="28" height="28" fill="#ff8c00"/>
  <path id="Trazado_117" data-name="Trazado 117" d="M7211.322,4163.513h-9.3l3.45-3.381a.6.6,0,0,0,.175-.43.592.592,0,0,0-.611-.6.65.65,0,0,0-.437.171l-4.483,4.413a.625.625,0,0,0,.015.83h0l4.483,4.414a.612.612,0,0,0,.438.172.676.676,0,0,0,.437-.172.576.576,0,0,0,0-.846l-3.45-3.381h9.3a.626.626,0,0,0,.626-.616A.655.655,0,0,0,7211.322,4163.513Z" transform="translate(-7191.463 -4149.601)" fill="#fff" stroke="#fff" stroke-width="0.5"/>
</svg>
