<svg xmlns="http://www.w3.org/2000/svg" width="36.5" height="32.5" viewBox="0 0 36.5 32.5">
  <g id="Camera" transform="translate(0.5 0.5)">
    <path id="Trazado_302" data-name="Trazado 302" d="M310.719,7142.688a3.168,3.168,0,0,0-3.1-3.226H303.1l-1.78-3.714a1.03,1.03,0,0,0-.923-.6H288.01a1.029,1.029,0,0,0-.924.6l-1.778,3.714-4.516,0a3.173,3.173,0,0,0-3.092,3.232v19.391a3.169,3.169,0,0,0,3.1,3.231h26.836a3.172,3.172,0,0,0,3.1-3.234Z" transform="translate(-274.73 -7133.322)" fill="#202122"/>
    <path id="Trazado_303" data-name="Trazado 303" d="M304.517,7139.024a3.171,3.171,0,0,0-3.1-3.228H296.9l-1.78-3.713a1.031,1.031,0,0,0-.924-.6H281.808a1.03,1.03,0,0,0-.923.6l-1.778,3.714-4.516.007a3.171,3.171,0,0,0-3.092,3.231v19.39a3.171,3.171,0,0,0,3.1,3.232h26.836a3.172,3.172,0,0,0,3.1-3.234Z" transform="translate(-271.499 -7131.488)" fill="#fff" stroke="#202122" stroke-width="1"/>
    <path id="Trazado_304" data-name="Trazado 304" d="M298.38,7150.349a7,7,0,1,0,7,7,7.007,7.007,0,0,0-7-7Z" transform="translate(-282.38 -7140.347)" fill="none" stroke="#202122" stroke-width="1"/>
    <path id="Trazado_305" data-name="Trazado 305" d="M321.968,7148.177a1.5,1.5,0,1,0,1.5,1.5,1.5,1.5,0,0,0-1.5-1.5Z" transform="translate(-297.468 -7140.176)" fill="none" stroke="#202122" stroke-width="0.7"/>
  </g>
</svg>
