<svg id="Co-create-active" xmlns="http://www.w3.org/2000/svg" width="25" height="25" viewBox="0 0 25 25">
  <path id="Trazado_42" data-name="Trazado 42" d="M3721.964,5064.646a1.263,1.263,0,0,0-.37-.9l-3.273-3.271a.476.476,0,0,0-.163-.108,5.819,5.819,0,0,0-1.753-.949l-.347-.116-2.973-2.973a1.227,1.227,0,0,0-.288-.215,1.265,1.265,0,0,0-1.677-1.677,1.29,1.29,0,0,0-.216-.29,1.261,1.261,0,0,1-1.636-.546,1.27,1.27,0,0,0-1.79,0l-2.939,2.942a5.821,5.821,0,0,0-1.39,2.249l-.116.348-2.972,2.971a1.21,1.21,0,0,0-.217.29,9.551,9.551,0,0,1-1.965,1.892,1.267,1.267,0,0,0-.256,1.42,1.314,1.314,0,0,0-.289.215,1.268,1.268,0,0,0,0,1.791l2.939,2.941a5.906,5.906,0,0,0,2.473,1.462c.053.017.094.029.12.04l2.976,2.974a1.2,1.2,0,0,0,.288.216,9.474,9.474,0,0,1,1.893,1.966,1.271,1.271,0,0,0,1.42.255,1.266,1.266,0,0,0,2.005.29l3.107-3.105.378-.379a5.842,5.842,0,0,0,1.391-2.25l.115-.347,2.427-2.427a1.262,1.262,0,0,1,1.636-.545,1.266,1.266,0,0,1,.545-1.636,1.269,1.269,0,0,0,.257-1.42,1.286,1.286,0,0,0,.289-.216A1.262,1.262,0,0,0,3721.964,5064.646Zm-1.461.2-.034.033a.506.506,0,0,0-.516.116.5.5,0,0,0,0,.7l.4.395a.279.279,0,0,1,0,.393.283.283,0,0,1-.392,0l-.4-.4a.495.495,0,0,0-.7.7l.942.94a.28.28,0,0,1,.081.2.275.275,0,0,1-.081.2.279.279,0,0,1-.392,0l-.941-.941a.494.494,0,1,0-.7.7l.4.4a.277.277,0,0,1,0,.393.281.281,0,0,1-.392,0l-2.727-2.728a.493.493,0,0,0-.7,0l-.2.2-.611-.611a2.281,2.281,0,0,1-.557-2.352.492.492,0,0,0-.119-.507l-2.159-2.159,2.376-2.377a1.248,1.248,0,0,0,.176-.219l2.181,2.183a.5.5,0,0,0,.192.119l.456.151a4.872,4.872,0,0,1,1.866,1.153l2.94,2.94a.279.279,0,0,1,0,.392A.288.288,0,0,1,3720.5,5064.842Zm-10.178,11.9a.489.489,0,0,0-.116-.516.5.5,0,0,0-.7,0l-.4.4a.277.277,0,0,1-.392,0,.273.273,0,0,1-.082-.2.269.269,0,0,1,.082-.2l.4-.4a.495.495,0,0,0-.7-.7l-.941.942a.277.277,0,0,1-.392-.392l.941-.941a.494.494,0,1,0-.7-.7l-.4.4a.278.278,0,0,1-.474-.2.276.276,0,0,1,.082-.2l2.727-2.728a.5.5,0,0,0,0-.7l-.2-.2.61-.611a2.282,2.282,0,0,1,2.352-.558.488.488,0,0,0,.506-.119l2.16-2.159,2.378,2.377a1.268,1.268,0,0,0,.217.175l-1.635,1.635a.491.491,0,0,0-.119.193l-.153.457a4.833,4.833,0,0,1-1.152,1.864l-3.485,3.486a.278.278,0,1,1-.393-.393Zm-11.868-10.144a.508.508,0,0,0,.516-.116.5.5,0,0,0,0-.7l-.4-.4a.277.277,0,0,1,.393-.392l.4.4a.5.5,0,0,0,.349.146h0a.5.5,0,0,0,.35-.845l-.941-.941a.266.266,0,0,1-.082-.2.273.273,0,0,1,.082-.2.283.283,0,0,1,.391,0l.942.94a.488.488,0,0,0,.348.146h0a.489.489,0,0,0,.349-.146.494.494,0,0,0,0-.7l-.4-.4a.278.278,0,0,1,.393-.393l2.728,2.729a.507.507,0,0,0,.7,0l.2-.2.61.61a2.308,2.308,0,0,1,.559,2.35.491.491,0,0,0,.117.508l2.161,2.159-2.378,2.378a1.267,1.267,0,0,0-.175.217l-2.181-2.181a.478.478,0,0,0-.184-.115c-.039-.017-.1-.039-.188-.065a5.026,5.026,0,0,1-2.142-1.243l-2.939-2.94a.277.277,0,0,1,0-.392.28.28,0,0,1,.2-.082.272.272,0,0,1,.2.083Zm10.146-11.868a.494.494,0,0,0,.813.517l.4-.4a.277.277,0,0,1,.2-.082.278.278,0,0,1,.2.473l-.4.4a.494.494,0,0,0,.7.7l.941-.941a.278.278,0,0,1,.393,0,.272.272,0,0,1,.082.194.279.279,0,0,1-.082.2l-.942.941a.5.5,0,0,0-.144.35.5.5,0,0,0,.494.494h0a.494.494,0,0,0,.35-.145l.4-.4a.284.284,0,0,1,.392,0,.274.274,0,0,1,.081.2.269.269,0,0,1-.081.194l-2.727,2.728a.5.5,0,0,0,0,.7l.2.2-.611.61a2.306,2.306,0,0,1-2.351.559.493.493,0,0,0-.507.119l-2.16,2.16-2.377-2.378a1.348,1.348,0,0,0-.218-.174l2.181-2.181a.474.474,0,0,0,.115-.185,1.8,1.8,0,0,0,.065-.189,5.031,5.031,0,0,1,1.244-2.14l2.939-2.939a.284.284,0,0,1,.393,0,.277.277,0,0,1,0,.391Zm-2.521,10.525-.61-.61,1.409-1.41a3.248,3.248,0,0,0,3.063-.881l.611-.61,1.409,1.41a3.25,3.25,0,0,0,.881,3.063l.611.609-1.409,1.41a3.248,3.248,0,0,0-3.062.882l-.612.61-1.408-1.409A3.25,3.25,0,0,0,3706.083,5065.256Z" transform="translate(-3696.964 -5053.237)" fill="#fff"/>
</svg>
