<svg xmlns="http://www.w3.org/2000/svg" width="37.73" height="36.992" viewBox="0 0 37.73 36.992">
  <path id="Path_217" data-name="Path 217" d="M4938.235,4205.834l.576-.079a6.933,6.933,0,0,0,3.136-1.275l.466-.341,7.049,6.91-.537.46a16.83,16.83,0,0,1-9.975,4.05l-.714.047Zm-1.531,9.725a16.829,16.829,0,0,1-9.975-4.05l-.537-.46,7.047-6.91.463.341a6.974,6.974,0,0,0,3.141,1.275l.574.079v9.772Zm-11.562-5.606a16.177,16.177,0,0,1-4.132-9.778l-.046-.7h9.967l.082.564a6.665,6.665,0,0,0,1.3,3.076l.347.457-7.045,6.909Zm17.85-6.382.35-.457a6.552,6.552,0,0,0,1.322-3.246l0-1.346,10.022-1.431v1.984a16.292,16.292,0,0,1-4.17,10.878l-.47.527Zm-7.676-2.034v-3.921L4947,4186.155l4,3.92-11.689,11.461Zm-14.352-2.864.046-.7a16.164,16.164,0,0,1,4.132-9.779l.472-.529,7.045,6.913-.347.455a6.651,6.651,0,0,0-1.3,3.074l-.082.565Zm5.229-11.572.537-.463a17.016,17.016,0,0,1,11.1-4.086h2.021l-1.437,9.669-1.343.147a6.8,6.8,0,0,0-3.363,1.3l-.465.343Zm19.106-3.758,4-3.919,8.571,8.4-4,3.919Zm6.867-2.249,1.7-1.667a2.869,2.869,0,0,1,4,0,2.737,2.737,0,0,1,0,3.92l-1.7,1.668Z" transform="translate(-4920.963 -4178.614)" fill="#f2f2f7"/>
</svg>
