<svg xmlns="http://www.w3.org/2000/svg" width="18.5" height="18.5" viewBox="0 0 18.5 18.5">
  <g id="Comment_active" data-name="Comment active" transform="translate(0.25 0.25)">
    <path id="Trazado_165" data-name="Trazado 165" d="M16.058,0H1.963A2.009,2.009,0,0,0,0,2.015V13.268a2.009,2.009,0,0,0,1.963,2.015H3.794V17.66a.356.356,0,0,0,.2.317A.234.234,0,0,0,4.1,18a.4.4,0,0,0,.243-.091L7.5,15.328h8.537A2.009,2.009,0,0,0,18,13.313V2.06A1.987,1.987,0,0,0,16.058,0m.971,13.268a.984.984,0,0,1-.949.974H7.544a.987.987,0,0,0-.618.226l-2.1,1.7v-.883a1.012,1.012,0,0,0-1.015-1.042H1.985a.984.984,0,0,1-.949-.974V2.015a.984.984,0,0,1,.949-.974h14.1a.984.984,0,0,1,.949.974Zm-3.441-6.86a1.336,1.336,0,1,0,1.3,1.336,1.307,1.307,0,0,0-1.3-1.336m-4.566,0a1.336,1.336,0,1,0,1.3,1.336,1.307,1.307,0,0,0-1.3-1.336m-4.566,0a1.336,1.336,0,1,0,1.3,1.336,1.307,1.307,0,0,0-1.3-1.336" fill="#ff8c00" stroke="#f29135" stroke-width="0.5"/>
  </g>
</svg>
