<svg id="Confirmation" xmlns="http://www.w3.org/2000/svg" width="80" height="80" viewBox="0 0 80 80">
  <path id="Trazado_172" data-name="Trazado 172" d="M40.713,51.951l12.2-12.206a2.761,2.761,0,0,0-.155-4.212,2.545,2.545,0,0,0-1.876-.88,2.978,2.978,0,0,0-2.211.851L38.616,45.561l-4.771-4.771A3,3,0,0,0,29.6,45.032L36.5,51.924a3.116,3.116,0,0,0,2.121.9,2.969,2.969,0,0,0,2.1-.873" transform="translate(-1.354 -1.667)" fill="#e4e4ea"/>
  <path id="Trazado_173" data-name="Trazado 173" d="M40,0A40,40,0,1,0,80,40,40.045,40.045,0,0,0,40,0m0,76.389A36.39,36.39,0,0,1,40,3.61,35.814,35.814,0,0,1,65.706,14.3,36.351,36.351,0,0,1,40,76.389" fill="#e4e4ea"/>
</svg>
