<svg id="DESKTOP-08" xmlns="http://www.w3.org/2000/svg" width="149.764" height="97.451" viewBox="0 0 149.764 97.451">
  <path id="Trazado_187" data-name="Trazado 187" d="M4784.717,5100.531q0-23.848,7.752-34.423t26.8-10.578q19.048,0,26.539,10.446t7.489,34.424q0,23.979-7.555,34.554t-26.737,10.576q-19.183,0-26.736-10.576T4784.717,5100.531Zm36.526-19.643a4.123,4.123,0,0,0-4.466,0,5.529,5.529,0,0,0-1.314,2.891q-.921,3.942-.919,16.752t.854,16.554q.854,3.746,3.612,3.745t3.615-3.745q.854-3.741.853-13.6t-.2-13.663a35.9,35.9,0,0,0-.723-6.044A5.549,5.549,0,0,0,4821.243,5080.889Z" transform="translate(-4776.929 -5049.079)" fill="none" stroke="#fff" stroke-width="2"/>
  <path id="Trazado_188" data-name="Trazado 188" d="M4878.207,5055.53q24.565,0,30.744,11.825,2.364,4.73,2.364,12.417t-2.037,12.153q-2.035,4.468-7.946,7.883,6.831,3.286,9.064,7.555t2.234,13.467q0,24.7-34.424,24.7t-34.423-24.962q0-8.54,2.5-12.811t8.933-8.08q-5.65-3.416-7.751-7.818t-2.1-12.941Q4845.361,5055.533,4878.207,5055.53Zm4.009,66.547q1.245-1.245,1.246-5.059t-3.415-7.225H4876.5a9.99,9.99,0,0,0-3.546,8.211q0,5.323,5.255,5.321A5.489,5.489,0,0,0,4882.216,5122.077Zm-7.358-43.159a10.579,10.579,0,0,0,1.641,11.036h3.549a9.168,9.168,0,0,0,2.5-6.569q0-5.911-4.468-5.912A3.418,3.418,0,0,0,4874.857,5078.918Z" transform="translate(-4763.867 -5049.079)" fill="none" stroke="#fff" stroke-width="2"/>
  <path id="Trazado_199" data-name="Trazado 199" d="M4777.929,5094.08q0-23.848,7.75-34.423t26.8-10.578q19.048,0,26.539,10.445t7.489,34.425q0,23.979-7.555,34.554t-26.737,10.576q-19.184,0-26.735-10.576T4777.929,5094.08Zm36.524-19.643a4.126,4.126,0,0,0-4.467,0,5.533,5.533,0,0,0-1.314,2.89q-.921,3.942-.919,16.752t.853,16.553q.854,3.746,3.612,3.746t3.615-3.746q.853-3.742.853-13.6t-.2-13.664a35.743,35.743,0,0,0-.723-6.044A5.545,5.545,0,0,0,4814.454,5074.438Z" transform="translate(-4777.929 -5049.079)" fill="#fff"/>
  <path id="Trazado_200" data-name="Trazado 200" d="M4871.417,5049.079q24.57,0,30.745,11.826,2.366,4.729,2.364,12.417t-2.036,12.153q-2.037,4.467-7.949,7.882,6.831,3.286,9.066,7.556t2.233,13.467q0,24.7-34.424,24.7t-34.423-24.963q0-8.539,2.5-12.81t8.934-8.081q-5.651-3.416-7.752-7.818t-2.1-12.942Q4838.572,5049.082,4871.417,5049.079Zm4.009,66.547q1.248-1.246,1.248-5.058t-3.417-7.226h-3.547a9.988,9.988,0,0,0-3.548,8.21q0,5.324,5.255,5.324A5.484,5.484,0,0,0,4875.426,5115.626Zm-7.358-43.16a10.579,10.579,0,0,0,1.643,11.036h3.547a9.163,9.163,0,0,0,2.5-6.568q0-5.911-4.468-5.913A3.422,3.422,0,0,0,4868.067,5072.466Z" transform="translate(-4764.867 -5049.079)" fill="#fff"/>
</svg>
