<svg id="DESKTOP-Location" xmlns="http://www.w3.org/2000/svg" width="85" height="100" viewBox="0 0 85 100">
  <path id="Trazado_223" data-name="Trazado 223" d="M112,12.388A42.5,42.5,0,0,0,39.451,42.295c0,22.854,21.714,41.863,33.379,52.075,1.621,1.419,3.021,2.645,4.136,3.681a7.349,7.349,0,0,0,9.969,0c1.115-1.037,2.515-2.262,4.136-3.681,11.665-10.212,33.379-29.221,33.379-52.075A41.917,41.917,0,0,0,112,12.388ZM87.184,89.972c-1.657,1.45-3.087,2.7-4.267,3.8a1.425,1.425,0,0,1-1.933,0c-1.179-1.1-2.61-2.349-4.267-3.8C65.751,80.371,45.337,62.5,45.337,42.3a36.614,36.614,0,0,1,73.228,0C118.565,62.5,98.151,80.371,87.184,89.972Z" transform="translate(-39.451)" fill="#e4e4ea"/>
  <path id="Trazado_224" data-name="Trazado 224" d="M179.3,112.938a18.639,18.639,0,1,0,18.729,18.639A18.705,18.705,0,0,0,179.3,112.938Zm0,31.419a12.781,12.781,0,1,1,12.843-12.781A12.827,12.827,0,0,1,179.3,144.357Z" transform="translate(-136.799 -90.879)" fill="#e4e4ea"/>
</svg>
