<svg id="DESKTOP-Close-filters" xmlns="http://www.w3.org/2000/svg" width="100" height="100.001" viewBox="0 0 100 100.001">
  <circle id="Shadow" cx="48.276" cy="48.276" r="48.276" transform="translate(3.448 3.449)" fill="#fff"/>
  <g id="Button" fill="#161617" stroke="#fff" stroke-width="2">
    <circle cx="48.276" cy="48.276" r="48.276" stroke="none"/>
    <circle cx="48.276" cy="48.276" r="47.276" fill="none"/>
  </g>
  <path id="Trazado_78" data-name="Trazado 78" d="M5940.994,4391.664l10.645-10.678a1.823,1.823,0,0,0-2.573-2.582l-10.645,10.678-10.645-10.678a1.823,1.823,0,0,0-2.574,2.582l10.645,10.678L5925.2,4402.34a1.815,1.815,0,0,0,0,2.583,1.873,1.873,0,0,0,1.31.524,2.007,2.007,0,0,0,1.309-.524l10.645-10.679,10.645,10.679a1.87,1.87,0,0,0,1.308.524,1.919,1.919,0,0,0,1.309-.524,1.854,1.854,0,0,0,0-2.583l-10.687-10.721-.044.044Z" transform="translate(-5890.179 -4343.51)" fill="#fff"/>
</svg>
