<svg id="DESKTOP-03" xmlns="http://www.w3.org/2000/svg" width="152.843" height="104.227" viewBox="0 0 152.843 104.227">
  <path id="Trazado_51" data-name="Trazado 51" d="M4236.39,4834.17q0-24.727,8.036-35.693t27.791-10.966q19.75,0,27.519,10.831t7.766,35.69q0,24.864-7.834,35.83t-27.722,10.965q-19.891,0-27.724-10.965T4236.39,4834.17Zm37.871-20.367a4.279,4.279,0,0,0-4.633,0,5.748,5.748,0,0,0-1.362,3q-.954,4.086-.953,17.37t.886,17.164q.885,3.883,3.747,3.883t3.745-3.883q.886-3.883.886-14.1t-.205-14.167a36.986,36.986,0,0,0-.749-6.268A5.748,5.748,0,0,0,4274.261,4813.8Z" transform="translate(-4227.72 -4777.603)" fill="none" stroke="#fff" stroke-width="2"/>
  <path id="Trazado_52" data-name="Trazado 52" d="M4325.191,4787.511q20.023,0,29.083,5.722t9.061,20.161q0,7.493-1.84,11.444a18.775,18.775,0,0,1-6.47,7.22,27.014,27.014,0,0,1,7.354,7.832q2.18,3.882,2.182,10.966,0,17.031-8.854,23.5t-27.384,6.471a128.194,128.194,0,0,1-24.52-2.588l-4.5-.954.817-23.84q15.664,1.365,22.342,1.362t8.855-.748a3.108,3.108,0,0,0,2.179-3.27,3.8,3.8,0,0,0-1.5-3.474q-1.5-.954-5.722-1.364h-19.208v-24.11h17.982q7.355,0,7.355-4.156t-9.4-4.155q-6.406,0-18.8.955l-3.542.271-.683-23.3Q4315.654,4787.513,4325.191,4787.511Z" transform="translate(-4212.718 -4777.603)" fill="none" stroke="#fff" stroke-width="2"/>
  <path id="Trazado_53" data-name="Trazado 53" d="M4229.39,4826.171q0-24.728,8.036-35.693t27.791-10.967q19.751,0,27.519,10.831t7.766,35.69q0,24.864-7.834,35.83t-27.721,10.965q-19.892,0-27.724-10.965T4229.39,4826.171Zm37.871-20.367a4.276,4.276,0,0,0-4.632,0,5.732,5.732,0,0,0-1.362,3q-.954,4.087-.954,17.371t.886,17.163q.885,3.883,3.748,3.883t3.745-3.883q.886-3.882.885-14.1t-.2-14.166a37.145,37.145,0,0,0-.749-6.269A5.748,5.748,0,0,0,4267.261,4805.8Z" transform="translate(-4229.39 -4779.511)" fill="#fff"/>
  <path id="Trazado_54" data-name="Trazado 54" d="M4318.191,4779.511q20.024,0,29.083,5.723t9.06,20.161q0,7.493-1.84,11.444a18.763,18.763,0,0,1-6.47,7.22,27.048,27.048,0,0,1,7.355,7.832q2.18,3.883,2.181,10.967,0,17.03-8.855,23.5t-27.383,6.47a128.231,128.231,0,0,1-24.52-2.588l-4.5-.954.817-23.84q15.664,1.365,22.341,1.362t8.855-.748a3.108,3.108,0,0,0,2.18-3.27,3.8,3.8,0,0,0-1.5-3.474q-1.5-.955-5.722-1.364h-19.208v-24.11h17.982q7.356,0,7.356-4.156t-9.4-4.155q-6.406,0-18.8.955l-3.542.271-.683-23.3Q4308.654,4779.513,4318.191,4779.511Z" transform="translate(-4214.386 -4779.511)" fill="#fff"/>
</svg>
