<svg id="DESKTOP-06" xmlns="http://www.w3.org/2000/svg" width="149.871" height="98.299" viewBox="0 0 149.871 98.299">
  <path id="Trazado_191" data-name="Trazado 191" d="M4763,4968.941c0-15.882,2.588-27.294,7.765-34.353S4784.883,4924,4797.471,4924c12.706,0,21.53,3.529,26.471,10.471s7.53,18.354,7.53,34.354-2.471,27.411-7.53,34.47-13.882,10.589-26.706,10.589c-12.707,0-21.647-3.529-26.706-10.589S4763,4984.706,4763,4968.941Zm36.47-19.647a3.188,3.188,0,0,0-2.235-.706,3.4,3.4,0,0,0-2.235.706,6.248,6.248,0,0,0-1.294,2.941c-.588,2.589-.942,8.235-.942,16.706s.236,14,.824,16.471,1.765,3.765,3.648,3.765,3.059-1.294,3.647-3.765.823-7.059.823-13.529-.118-11.06-.235-13.647a32.2,32.2,0,0,0-.706-6A6.266,6.266,0,0,0,4799.471,4949.294Z" transform="translate(-4754.601 -4916.583)" fill="none" stroke="#fff" stroke-width="2"/>
  <path id="Trazado_192" data-name="Trazado 192" d="M4862.6,4948.018c-3.412,0-5.882.706-7.293,2.235-1.53,1.53-2.353,3.765-2.589,6.707l1.294-.471a26.439,26.439,0,0,1,9.529-1.882c10,0,17.294,2.353,22,7.176,4.706,4.706,7.059,12.235,7.059,22.235s-2.941,17.647-8.823,22.471c-5.882,4.941-13.882,7.294-24.118,7.294-12.118,0-20.941-3.647-26.588-11.059-5.647-7.293-8.47-18.353-8.47-33.059,0-17.529,3.529-29.765,10.706-36.588a29.872,29.872,0,0,1,11.411-7.059,40.145,40.145,0,0,1,12.824-2.118,117.915,117.915,0,0,1,26,3.412l4.824,1.059-2.118,21.765A179.911,179.911,0,0,0,4862.6,4948.018Zm-2.588,29.765a17.97,17.97,0,0,0-7.53,1.529c0,4,.471,6.824,1.412,8.588.941,1.647,2.941,2.588,5.765,2.588,4.118,0,6.119-2.118,6.119-6.353C4865.895,4979.9,4863.895,4977.783,4860.012,4977.783Z" transform="translate(-4743.729 -4916.601)" fill="none" stroke="#fff" stroke-width="2"/>
  <path id="Trazado_195" data-name="Trazado 195" d="M4755.6,4961.642c0-15.882,2.588-27.294,7.765-34.353s14.118-10.589,26.706-10.589c12.706,0,21.53,3.529,26.471,10.471s7.529,18.354,7.529,34.354-2.47,27.412-7.529,34.471-13.881,10.589-26.706,10.589c-12.707,0-21.648-3.529-26.707-10.589S4755.6,4977.524,4755.6,4961.642ZM4792.071,4942a3.178,3.178,0,0,0-2.235-.706,3.386,3.386,0,0,0-2.236.706,6.253,6.253,0,0,0-1.294,2.941c-.588,2.588-.941,8.235-.941,16.705s.237,14,.825,16.471,1.765,3.767,3.647,3.767,3.059-1.3,3.646-3.767.824-7.059.824-13.529-.118-11.059-.235-13.647a32.137,32.137,0,0,0-.706-6A6.265,6.265,0,0,0,4792.071,4942Z" transform="translate(-4755.601 -4916.583)" fill="#fff"/>
  <path id="Trazado_196" data-name="Trazado 196" d="M4855.2,4940.718c-3.412,0-5.882.706-7.294,2.235-1.529,1.529-2.353,3.765-2.588,6.706l1.294-.471a26.427,26.427,0,0,1,9.529-1.882c10,0,17.294,2.353,22,7.176,4.706,4.706,7.059,12.236,7.059,22.236s-2.941,17.647-8.824,22.47c-5.882,4.941-13.882,7.294-24.118,7.294-12.117,0-20.941-3.647-26.588-11.058-5.647-7.3-8.471-18.354-8.471-33.061,0-17.528,3.53-29.764,10.706-36.589a29.922,29.922,0,0,1,11.413-7.059,40.156,40.156,0,0,1,12.823-2.116,118,118,0,0,1,26,3.411l4.824,1.059-2.118,21.765A181.251,181.251,0,0,0,4855.2,4940.718Zm-2.588,29.765a17.953,17.953,0,0,0-7.529,1.53c0,4,.47,6.823,1.412,8.588.941,1.646,2.941,2.589,5.765,2.589,4.118,0,6.118-2.118,6.118-6.354C4858.495,4972.6,4856.5,4970.483,4852.612,4970.483Z" transform="translate(-4744.729 -4916.601)" fill="#fff"/>
</svg>
