<svg id="DESKTOP-Bamboo_Recycled_polyester" data-name="DESKTOP-Bamboo/Recycled polyester" xmlns="http://www.w3.org/2000/svg" width="80" height="75" viewBox="0 0 80 75">
  <path id="Path_244" data-name="Path 244" d="M4049.935,6165.1l10.434-16.856a.955.955,0,0,0,0-1.045l-10.434-17.692a1.1,1.1,0,0,0-.939-.522h-19.824a.826.826,0,0,0-.835.522L4017.9,6147.2a.948.948,0,0,0,0,1.045l1.686,2.723h-12.328a1.1,1.1,0,0,0-.94.523l-7.3,12.563a.954.954,0,0,0,0,1.047l7.3,12.563a1.1,1.1,0,0,0,.94.523h13.973l7,12.038a1.1,1.1,0,0,0,.94.524h14.607a.825.825,0,0,0,.834-.524l7.3-13.609a.95.95,0,0,0,0-1.046l-6.308-9.945H4049A1.246,1.246,0,0,0,4049.935,6165.1Z" transform="translate(-3989.54 -6122.525)"/>
  <path id="Path_245" data-name="Path 245" d="M4053,6167.331l10.51-16.856a.95.95,0,0,0,0-1.046L4053,6131.737a1.1,1.1,0,0,0-.945-.523h-19.968a.832.832,0,0,0-.842.523l-10.51,17.692a.943.943,0,0,0,0,1.046l1.7,2.724H4010.02a1.1,1.1,0,0,0-.945.523l-7.358,12.562a.949.949,0,0,0,0,1.048l7.358,12.561a1.1,1.1,0,0,0,.945.524h14.074l7.049,12.038a1.107,1.107,0,0,0,.948.524H4046.8a.832.832,0,0,0,.84-.524l7.358-13.609a.947.947,0,0,0,0-1.046l-6.354-9.945h3.411A1.255,1.255,0,0,0,4053,6167.331Z" transform="translate(-3989.09 -6121.769)"/>
  <path id="Path_246" data-name="Path 246" d="M4020.7,6146.843h-13.44l-6.937,11.976,6.831,11.794.105.182h13.859l7-12.054Z" transform="translate(-3989.053 -6116.771)" fill="#fff"/>
  <path id="Path_247" data-name="Path 247" d="M4037.67,6156.3h-13.858l-6.936,11.975,6.831,11.8.1.178h13.877l6.928-13.047Z" transform="translate(-3983.82 -6113.776)" fill="#fff"/>
  <path id="Path_248" data-name="Path 248" d="M4043.721,6130.29H4024.6l-10.1,17.153,10.1,16.3h19.213l10.1-16.3Z" transform="translate(-3984.774 -6122.081)" fill="#fff"/>
  <path id="Path_249" data-name="Path 249" d="M4040.053,6132.411h-13.663a.589.589,0,0,0-.5.279l-8.444,13.8a.676.676,0,0,0,.193.974.729.729,0,0,0,.339.055.894.894,0,0,0,.645-.365l8.191-13.358h13.235a.692.692,0,0,0,0-1.383Z" transform="translate(-3983.653 -6121.362)"/>
  <path id="Path_250" data-name="Path 250" d="M4017.457,6148.963h-8.407a.836.836,0,0,0-.519.225l-5.27,8.473a.679.679,0,0,0,.195.976l.091.053.047.095a1.3,1.3,0,0,0,.2.008.886.886,0,0,0,.644-.365l5.042-8.079h7.976a.693.693,0,0,0,0-1.386Z" transform="translate(-3988.218 -6116.01)"/>
  <path id="Path_251" data-name="Path 251" d="M4035.167,6158.421h-9.459a.752.752,0,0,0-.646.366l-5.247,8.539a.679.679,0,0,0,.194.978l.052.038a1.578,1.578,0,0,0,.287.016,1.331,1.331,0,0,0,.8-.422l4.993-8.129h9.03a.692.692,0,0,0,0-1.384Z" transform="translate(-3982.855 -6112.902)"/>
  <path id="Path_252" data-name="Path 252" d="M4054.173,6144.014h-9.313a.728.728,0,0,1,0-1.455h9.313a.728.728,0,0,1,0,1.455Z" transform="translate(-3974.896 -6118.091)"/>
  <path id="Path_253" data-name="Path 253" d="M4001.907,6156.7h-9.313a.727.727,0,0,1,0-1.454h9.313a.727.727,0,0,1,0,1.454Z" transform="translate(-3991.87 -6113.908)"/>
  <path id="Path_254" data-name="Path 254" d="M4023.3,6132.23a.722.722,0,0,1-.512-.213l-6.587-6.615a.731.731,0,0,1,0-1.029.723.723,0,0,1,1.024,0l6.585,6.615a.729.729,0,0,1,0,1.029A.72.72,0,0,1,4023.3,6132.23Z" transform="translate(-3984.029 -6124.161)"/>
  <path id="Path_255" data-name="Path 255" d="M4016.718,6182.593a.719.719,0,0,1-.512-.213.729.729,0,0,1,0-1.028l6.587-6.616a.719.719,0,0,1,1.022,0,.729.729,0,0,1,0,1.029l-6.585,6.615A.716.716,0,0,1,4016.718,6182.593Z" transform="translate(-3984.029 -6107.593)"/>
</svg>
