<svg xmlns="http://www.w3.org/2000/svg" width="49.5" height="70.541" viewBox="0 0 49.5 70.541">
  <g id="DESKTOP-Other" transform="translate(0.5 0.541)">
    <rect id="Rectangle_270" data-name="Rectangle 270" width="10.869" height="10.948" transform="translate(21.816 59.052)"/>
    <path id="Path_242" data-name="Path 242" d="M4022.411,6042.29a21.723,21.723,0,0,0-42.876,5.2H3990.4a10.909,10.909,0,1,1,21.738,1.862,11.317,11.317,0,0,1-11.466,9.085,4.856,4.856,0,0,0-4.838,4.873h0v11.55h10.87v-6.239A21.908,21.908,0,0,0,4022.411,6042.29Z" transform="translate(-3974.021 -6021.283)"/>
    <rect id="Rectangle_271" data-name="Rectangle 271" width="10.869" height="10.948" transform="translate(16.302 54.85)" fill="#fff" stroke="#000" stroke-miterlimit="10" stroke-width="1"/>
    <path id="Path_243" data-name="Path 243" d="M4020.415,6040.267a21.722,21.722,0,0,0-42.875,5.2h10.868a10.909,10.909,0,1,1,21.737,1.861,11.321,11.321,0,0,1-11.466,9.087,4.854,4.854,0,0,0-4.838,4.872h0v11.551h10.87V6066.6A21.91,21.91,0,0,0,4020.415,6040.267Z" transform="translate(-3977.54 -6023.462)" fill="#fff" stroke="#000" stroke-miterlimit="10" stroke-width="1"/>
  </g>
</svg>
