<svg id="DESKTOP-04" xmlns="http://www.w3.org/2000/svg" width="156.522" height="104.227" viewBox="0 0 156.522 104.227">
  <path id="Trazado_55" data-name="Trazado 55" d="M4480.856,4834.17q0-24.727,8.038-35.693t27.791-10.966q19.75,0,27.518,10.831t7.765,35.69q0,24.864-7.833,35.83t-27.723,10.965q-19.892,0-27.722-10.965T4480.856,4834.17Zm37.872-20.367a4.278,4.278,0,0,0-4.632,0,5.736,5.736,0,0,0-1.362,3q-.955,4.086-.954,17.37t.885,17.164q.886,3.883,3.746,3.883t3.747-3.883q.884-3.883.886-14.1t-.2-14.167a37.037,37.037,0,0,0-.749-6.268A5.748,5.748,0,0,0,4518.729,4813.8Z" transform="translate(-4472.188 -4777.603)" fill="none" stroke="#fff" stroke-width="2"/>
  <path id="Trazado_56" data-name="Trazado 56" d="M4578.824,4878.716v-10.9H4541.9v-22.069l12.263-56.809h35.691l-17.573,53.265h6.674l2.725-15.393,28.064-.954v16.347h3.406v25.613h-3.406v10.9Z" transform="translate(-4457.632 -4777.263)" fill="none" stroke="#fff" stroke-width="2"/>
  <path id="Trazado_57" data-name="Trazado 57" d="M4473.856,4826.171q0-24.728,8.038-35.693t27.791-10.967q19.75,0,27.518,10.831t7.765,35.69q0,24.864-7.832,35.83t-27.724,10.965q-19.891,0-27.722-10.965T4473.856,4826.171Zm37.872-20.367a4.275,4.275,0,0,0-4.632,0,5.736,5.736,0,0,0-1.362,3q-.955,4.087-.953,17.371t.885,17.163q.886,3.883,3.746,3.883t3.746-3.883q.885-3.882.887-14.1t-.205-14.166a37.094,37.094,0,0,0-.749-6.269A5.743,5.743,0,0,0,4511.729,4805.8Z" transform="translate(-4473.856 -4779.511)" fill="#fff"/>
  <path id="Trazado_58" data-name="Trazado 58" d="M4571.824,4870.716v-10.9H4534.9V4837.75l12.262-56.809h35.692l-17.574,53.265h6.674l2.724-15.393,28.064-.954v16.346h3.406v25.613h-3.406v10.9Z" transform="translate(-4459.302 -4779.169)" fill="#fff"/>
</svg>
