<svg id="DESKTOP-Cart-active" xmlns="http://www.w3.org/2000/svg" width="40.908" height="36" viewBox="0 0 40.908 36">
  <path id="Cart-unactive" d="M3806.364,5083.8a4.289,4.289,0,1,0,.014,8.578h.011a4.289,4.289,0,1,0-.025-8.578Zm1.417,5.558a1.909,1.909,0,0,1-1.344.586h-.093a1.937,1.937,0,0,1-1.355-.565,1.943,1.943,0,0,1,1.305-3.321h0a1.966,1.966,0,0,1,2.018,1.936A1.9,1.9,0,0,1,3807.78,5089.358Zm13.968-5.558a4.289,4.289,0,1,0,.016,8.578h.009a4.289,4.289,0,1,0-.025-8.578Zm.006,6.144h-.01a1.942,1.942,0,1,1,.007-3.884h0a1.942,1.942,0,1,1,0,3.884Zm8.635-27.255h0a1.077,1.077,0,0,0-.867-.434h-29.973l-1.3-5.02a1.147,1.147,0,0,0-1.112-.856h-6.117a1.216,1.216,0,1,0,0,2.433h5.227l1.308,5.061,4.618,17.649a1.175,1.175,0,0,0,1.139.856h21.607a1.24,1.24,0,0,0,1.15-.871l4.628-17.626A1.766,1.766,0,0,0,3830.389,5062.689Zm-6.456,17.161h-19.8l-3.953-15.337h27.849Z" transform="translate(-3789.803 -5056.378)" fill="#fff"/>
</svg>
