<svg id="DESKTOP-More-filters" xmlns="http://www.w3.org/2000/svg" width="100" height="100.001" viewBox="0 0 100 100.001">
  <circle id="Shadow" cx="48.276" cy="48.276" r="48.276" transform="translate(3.448 3.449)"/>
  <g id="Button" fill="#fff" stroke="#000" stroke-width="2">
    <circle cx="48.276" cy="48.276" r="48.276" stroke="none"/>
    <circle cx="48.276" cy="48.276" r="47.276" fill="none"/>
  </g>
  <path id="Filters" d="M1641.177,3661.976a2.423,2.423,0,0,0-2.16-1.276h-39.9a2.472,2.472,0,0,0-2.16,1.276,2.353,2.353,0,0,0,.135,2.484l15.391,22.758v10.138a1.139,1.139,0,0,0,.608,1.074,1.313,1.313,0,0,0,.675.2,1.623,1.623,0,0,0,.54-.134l10.6-4.565a1.327,1.327,0,0,0,.81-1.209v-5.571l15.392-22.758A2.236,2.236,0,0,0,1641.177,3661.976Zm-18.024,26.115v3.826l-7.966,3.425v-7.251Zm-3.24-16.179a1.276,1.276,0,1,0,0-2.551h-16.269l-4.118-6.041h39.288l-15.053,22.288h-9.181l-9.181-13.628h14.581l-.067-.068Z" transform="translate(-1570.81 -3626.217)"/>
</svg>
