<svg id="DESKTOP-100_" data-name="DESKTOP-100%" xmlns="http://www.w3.org/2000/svg" width="228.288" height="81.401" viewBox="0 0 228.288 81.401">
  <g id="_100_" data-name="100%" style="isolation: isolate">
    <path id="Trazado_59" data-name="Trazado 59" d="M41.8,0V64.809H19.472V23.9L5.9,29.307,0,13.374,23.013,0Z" transform="translate(5.576 9.131)" fill="none" stroke="#fff" stroke-width="1.5"/>
    <path id="Trazado_60" data-name="Trazado 60" d="M0,33.683Q0,15.833,5.8,7.916T25.864,0Q40.124,0,45.73,7.819t5.606,25.766q0,17.949-5.656,25.866T25.668,67.365q-14.36,0-20.014-7.916T0,33.683Zm27.339-14.7a2.548,2.548,0,0,0-1.671-.491A2.549,2.549,0,0,0,24,18.98a4.152,4.152,0,0,0-.983,2.165q-.688,2.949-.688,12.539t.64,12.392q.638,2.8,2.7,2.8t2.7-2.8A53.573,53.573,0,0,0,29.011,35.9q0-7.375-.147-10.228a26.679,26.679,0,0,0-.541-4.524A4.144,4.144,0,0,0,27.339,18.98Z" transform="translate(56.813 7.854)" fill="none" stroke="#fff" stroke-width="1.5"/>
    <path id="Trazado_61" data-name="Trazado 61" d="M0,33.683Q0,15.833,5.8,7.916T25.865,0Q40.123,0,45.73,7.819t5.607,25.766q0,17.949-5.656,25.866T25.669,67.365q-14.36,0-20.014-7.916T0,33.683Zm27.34-14.7a2.552,2.552,0,0,0-1.671-.491A2.549,2.549,0,0,0,24,18.98a4.146,4.146,0,0,0-.984,2.165q-.689,2.949-.688,12.539t.64,12.392q.639,2.8,2.705,2.8t2.7-2.8A53.579,53.579,0,0,0,29.012,35.9q0-7.375-.147-10.228a26.755,26.755,0,0,0-.541-4.524A4.152,4.152,0,0,0,27.34,18.98Z" transform="translate(110.9 7.854)" fill="none" stroke="#fff" stroke-width="1.5"/>
    <path id="Trazado_62" data-name="Trazado 62" d="M0,20.8Q0,11.212,3.148,7.229T14.309,3.245q8.016,0,11.014,3.935t3,13.571q0,9.641-3.047,13.622T14.162,38.355q-8.065,0-11.113-3.983T0,20.8Zm15.637-6.1a1.365,1.365,0,0,0-1.475-1.033,1.372,1.372,0,0,0-1.474,1.082,27.119,27.119,0,0,0-.3,5.262,51.9,51.9,0,0,0,.2,5.654,4.243,4.243,0,0,0,.492,1.82,1.7,1.7,0,0,0,1.28.344,1.258,1.258,0,0,0,1.277-1.082,34.065,34.065,0,0,0,.295-6.047A33.124,33.124,0,0,0,15.637,14.7Zm5.114,60.039L36.289,0l4.327.886L24.98,75.53Zm13.08-22.177q0-9.587,3.147-13.571T48.14,35.011q8.014,0,11.015,3.935t3,13.571q0,9.638-3.05,13.621T47.992,70.121q-8.065,0-11.113-3.983T33.831,52.565Zm15.637-6.1a1.558,1.558,0,0,0-2.95.049,27.3,27.3,0,0,0-.3,5.261,51.925,51.925,0,0,0,.2,5.655,4.253,4.253,0,0,0,.492,1.82,1.7,1.7,0,0,0,1.279.344,1.261,1.261,0,0,0,1.279-1.082,34.12,34.12,0,0,0,.295-6.048A33.165,33.165,0,0,0,49.468,46.469Z" transform="translate(165.383 5)" fill="none" stroke="#fff" stroke-width="1.5"/>
    <path id="Trazado_59-2" data-name="Trazado 59" d="M41.8,0V64.809H19.472V23.9L5.9,29.307,0,13.374,23.013,0Z" transform="translate(0 4.131)" fill="#fff"/>
    <path id="Trazado_60-2" data-name="Trazado 60" d="M0,33.683Q0,15.833,5.8,7.916T25.864,0Q40.124,0,45.73,7.819t5.606,25.766q0,17.949-5.656,25.866T25.668,67.365q-14.36,0-20.014-7.916T0,33.683Zm27.339-14.7a2.548,2.548,0,0,0-1.671-.491A2.549,2.549,0,0,0,24,18.98a4.152,4.152,0,0,0-.983,2.165q-.688,2.949-.688,12.539t.64,12.392q.638,2.8,2.7,2.8t2.7-2.8A53.573,53.573,0,0,0,29.011,35.9q0-7.375-.147-10.228a26.679,26.679,0,0,0-.541-4.524A4.144,4.144,0,0,0,27.339,18.98Z" transform="translate(51.236 2.854)" fill="#fff"/>
    <path id="Trazado_61-2" data-name="Trazado 61" d="M0,33.683Q0,15.833,5.8,7.916T25.865,0Q40.123,0,45.73,7.819t5.607,25.766q0,17.949-5.656,25.866T25.669,67.365q-14.36,0-20.014-7.916T0,33.683Zm27.34-14.7a2.552,2.552,0,0,0-1.671-.491A2.549,2.549,0,0,0,24,18.98a4.146,4.146,0,0,0-.984,2.165q-.689,2.949-.688,12.539t.64,12.392q.639,2.8,2.705,2.8t2.7-2.8A53.579,53.579,0,0,0,29.012,35.9q0-7.375-.147-10.228a26.755,26.755,0,0,0-.541-4.524A4.152,4.152,0,0,0,27.34,18.98Z" transform="translate(105.324 2.854)" fill="#fff"/>
    <path id="Trazado_62-2" data-name="Trazado 62" d="M0,20.8Q0,11.212,3.148,7.229T14.309,3.245q8.016,0,11.014,3.935t3,13.571q0,9.641-3.047,13.622T14.162,38.355q-8.065,0-11.113-3.983T0,20.8Zm15.637-6.1a1.365,1.365,0,0,0-1.475-1.033,1.372,1.372,0,0,0-1.474,1.082,27.119,27.119,0,0,0-.3,5.262,51.9,51.9,0,0,0,.2,5.654,4.243,4.243,0,0,0,.492,1.82,1.7,1.7,0,0,0,1.28.344,1.258,1.258,0,0,0,1.277-1.082,34.065,34.065,0,0,0,.295-6.047A33.124,33.124,0,0,0,15.637,14.7Zm5.114,60.039L36.289,0l4.327.886L24.98,75.53Zm13.08-22.177q0-9.587,3.147-13.571T48.14,35.011q8.014,0,11.015,3.935t3,13.571q0,9.638-3.05,13.621T47.992,70.121q-8.065,0-11.113-3.983T33.831,52.565Zm15.637-6.1a1.558,1.558,0,0,0-2.95.049,27.3,27.3,0,0,0-.3,5.261,51.925,51.925,0,0,0,.2,5.655,4.253,4.253,0,0,0,.492,1.82,1.7,1.7,0,0,0,1.279.344,1.261,1.261,0,0,0,1.279-1.082,34.12,34.12,0,0,0,.295-6.048A33.165,33.165,0,0,0,49.468,46.469Z" transform="translate(159.807)" fill="#fff"/>
  </g>
</svg>
