<svg id="DESKTOP-Fast" xmlns="http://www.w3.org/2000/svg" width="221.179" height="81.424" viewBox="0 0 221.179 81.424">
  <g id="Fast" style="isolation: isolate">
    <path id="Trazado_67" data-name="Trazado 67" d="M0,73.151V0H56.6V20.635H27.186V32.426H49.567V53.062H27.186V73.151Z" transform="translate(6.254 6)" fill="none" stroke="#fff" stroke-width="1.5"/>
    <path id="Trazado_68" data-name="Trazado 68" d="M59.527,20.625V42.889a7.8,7.8,0,0,0,2.812,1.289l-.352,16.64A99.5,99.5,0,0,1,49.45,62.223a18.522,18.522,0,0,1-6.211-1,9.363,9.363,0,0,1-3.75-2.051l-.938-1.054q-7.267,4.1-17.635,4.1T5.273,57.477Q0,52.732,0,42.186T5.976,28.065q5.976-3.573,18.866-4.043l8.437-.352V22.617q0-2.226-4.921-2.226A195.178,195.178,0,0,0,7.031,21.562l-3.867.352L2.578,4.1A110.97,110.97,0,0,1,30.818,0Q44.177,0,51.559,3.985,59.526,8.2,59.527,20.625Zm-30.7,23.553a7.186,7.186,0,0,0,4.453-1.758V38.083l-3.984.235q-3.049.235-3.047,3.046T28.826,44.177Z" transform="translate(61.514 18.451)" fill="none" stroke="#fff" stroke-width="1.5"/>
    <path id="Trazado_69" data-name="Trazado 69" d="M51.326,21.445q-14.531-1.639-19.8-1.641t-5.274.937q0,.7,9.2,1.7t13.416,5.273q4.22,4.279,4.218,14.589T46.7,57.419q-6.387,4.8-19.628,4.8a124.349,124.349,0,0,1-14.062-.761A68.743,68.743,0,0,1,3.4,59.88L.352,59.06l.587-17.7q14.526,1.994,20.212,1.992T26.834,42.3q0-.585-9.257-1.816T4.161,34.979Q0,30.7,0,21.562,0,9.61,6.855,4.805T26.248,0A96.638,96.638,0,0,1,49.1,2.343l3.164.7Z" transform="translate(125.484 18.451)" fill="none" stroke="#fff" stroke-width="1.5"/>
    <path id="Trazado_70" data-name="Trazado 70" d="M30.818,30.49V41.775q0,2.714.763,3.635t3.105.922l5.272-.109L40.31,65.1a88.072,88.072,0,0,1-15.468,1.952q-10.9,0-15.585-4.177T4.57,47.417V30.49H0V10.851H4.57V0H30.818V10.851H40.31V30.49Z" transform="translate(180.107 13.617)" fill="none" stroke="#fff" stroke-width="1.5"/>
    <path id="Trazado_67-2" data-name="Trazado 67" d="M0,73.144V0H56.6V20.633H27.186V32.422H49.567V53.056H27.186V73.144Z" fill="#fff"/>
    <path id="Trazado_68-2" data-name="Trazado 68" d="M59.527,20.625V42.889a7.8,7.8,0,0,0,2.812,1.289l-.352,16.64A99.5,99.5,0,0,1,49.45,62.223a18.522,18.522,0,0,1-6.211-1,9.363,9.363,0,0,1-3.75-2.051l-.938-1.054q-7.267,4.1-17.635,4.1T5.273,57.477Q0,52.732,0,42.186T5.976,28.065q5.976-3.573,18.866-4.043l8.437-.352V22.617q0-2.226-4.921-2.226A195.178,195.178,0,0,0,7.031,21.562l-3.867.352L2.578,4.1A110.97,110.97,0,0,1,30.818,0Q44.177,0,51.559,3.985,59.526,8.2,59.527,20.625Zm-30.7,23.553a7.186,7.186,0,0,0,4.453-1.758V38.083l-3.984.235q-3.049.235-3.047,3.046T28.826,44.177Z" transform="translate(55.256 12.443)" fill="#fff"/>
    <path id="Trazado_69-2" data-name="Trazado 69" d="M51.326,21.445q-14.531-1.639-19.8-1.641t-5.274.937q0,.7,9.2,1.7t13.416,5.273q4.22,4.279,4.218,14.589T46.7,57.419q-6.387,4.8-19.628,4.8a124.349,124.349,0,0,1-14.062-.761A68.743,68.743,0,0,1,3.4,59.88L.352,59.06l.587-17.7q14.526,1.994,20.212,1.992T26.834,42.3q0-.585-9.257-1.816T4.161,34.979Q0,30.7,0,21.562,0,9.61,6.855,4.805T26.248,0A96.638,96.638,0,0,1,49.1,2.343l3.164.7Z" transform="translate(119.225 12.443)" fill="#fff"/>
    <path id="Trazado_70-2" data-name="Trazado 70" d="M30.818,30.487V41.771q0,2.713.763,3.635t3.105.922l5.272-.109L40.31,65.1A88.067,88.067,0,0,1,24.842,67.05q-10.9,0-15.585-4.177T4.57,47.412V30.487H0V10.85H4.57V0H30.818V10.85H40.31V30.487Z" transform="translate(173.844 7.617)" fill="#fff"/>
  </g>
</svg>
