<svg id="DESKTOP-01_gray" data-name="DESKTOP-01 gray" xmlns="http://www.w3.org/2000/svg" width="281" height="201" viewBox="0 0 281 201">
  <path id="Trazado_43" data-name="Trazado 43" d="M3747.453,4878.01q0-47.96,15.437-69.23t53.373-21.269q37.933,0,52.852,21.007t14.913,69.223q0,48.229-15.044,69.5t-53.243,21.268q-38.2,0-53.244-21.268T3747.453,4878.01Zm72.735-39.5a8.151,8.151,0,0,0-8.9,0q-1.57,1.326-2.616,5.815-1.834,7.924-1.831,33.69t1.7,33.29q1.7,7.534,7.195,7.532t7.195-7.532q1.7-7.528,1.7-27.347t-.393-27.477a72.613,72.613,0,0,0-1.439-12.157Q3821.757,4839.828,3820.188,4838.5Z" transform="translate(-3731.469 -4768.506)" fill="none" stroke="#f2f2f7" stroke-width="2"/>
  <path id="Trazado_44" data-name="Trazado 44" d="M3922.338,4788.941v174.186h-59.394V4853.17l-36.1,14.541-15.7-42.82,61.221-35.95Z" transform="translate(-3642.338 -4766.532)" fill="none" stroke="#f2f2f7" stroke-width="2"/>
  <path id="Trazado_45" data-name="Trazado 45" d="M3740.453,4869.535q0-47.709,15.357-68.866t53.095-21.158q37.733,0,52.574,20.9t14.836,68.859q0,47.974-14.966,69.129t-52.965,21.157q-38,0-52.964-21.157T3740.453,4869.535Zm72.355-39.3a8.1,8.1,0,0,0-8.849,0q-1.562,1.315-2.6,5.781-1.824,7.885-1.822,33.515t1.692,33.114q1.69,7.492,7.157,7.492t7.157-7.492q1.69-7.491,1.693-27.2t-.39-27.333a72.444,72.444,0,0,0-1.431-12.093Q3814.368,4831.553,3812.808,4830.239Z" transform="translate(-3740.453 -4779.51)" fill="#f2f2f7"/>
  <path id="Trazado_46" data-name="Trazado 46" d="M3915.03,4780.941v174.041H3855.8V4845.117l-36,14.529-15.654-42.785,61.051-35.92Z" transform="translate(-3651.299 -4777.938)" fill="#f2f2f7"/>
</svg>
