<svg xmlns="http://www.w3.org/2000/svg" width="22.301" height="22.299" viewBox="0 0 22.301 22.299">
  <g id="DESKTOP-Create_new" data-name="DESKTOP-Create new" transform="translate(0.15 0.15)">
    <path id="Trazado_6" data-name="Trazado 6" d="M6587.639,4379.708h8.521a1.236,1.236,0,1,0,0-2.471h-8.521v-8.5a1.239,1.239,0,0,0-2.479,0v8.5h-8.521a1.228,1.228,0,0,0-.857,2.118,1.453,1.453,0,0,0,.886.384h8.521v8.5a1.239,1.239,0,0,0,.383.882,1.363,1.363,0,0,0,.885.382,1.246,1.246,0,0,0,1.24-1.235v-8.559Z" transform="translate(-6575.4 -4367.501)" fill="#fff" stroke="#fff" stroke-width="0.3"/>
  </g>
</svg>
