<svg id="DESKTOP-Size_chart_illustration" data-name="DESKTOP-Size chart illustration" xmlns="http://www.w3.org/2000/svg" xmlns:xlink="http://www.w3.org/1999/xlink" width="328" height="348" viewBox="0 0 328 348">
  <defs>
    <clipPath id="clip-path">
      <ellipse id="Shape" cx="164" cy="174" rx="164" ry="174" fill="#fff" stroke="#707070" stroke-width="1"/>
    </clipPath>
  </defs>
  <g id="Illustration" clip-path="url(#clip-path)">
    <g id="Illustration-2" data-name="Illustration" transform="translate(55.894 -135.343)">
      <path id="Trazado_118" data-name="Trazado 118" d="M359.994,474.656c-5.668,14.444-1.386,26.254-3.264,35.552-5.827,29.066-29.432,56.357-31.918,76.472-.777,5.97,5.1,30.71,2.809,40.915-1.223,5.449-8.968,24.783-15.814,45.332-6.036,18.162-11.336,37.24-10.8,48.53,1.1,24.046,2.691,22.276-.041,28.849l-29.636-21.673c3.791-25.56-6.241-100.561,1.873-129.931,3.386-12.153,14.432-29.5,17.409-46.929,3.018-17.429-3.346-69.2,0-103.459,3.018-30.667,10.845-87.415,17.732-103.464a45.311,45.311,0,0,1,22.75.738c13.414,3.588,27.6,12.153,37.627,22.71l.041.043c8.032,8.43,13.332,18.118,13.332,27.551C382.089,418.169,365.657,460.207,359.994,474.656Z" transform="translate(-269.931 -42.835)" fill="#e4e4ea" fill-rule="evenodd"/>
      <path id="Trazado_119" data-name="Trazado 119" d="M327.33,455.182c-5.668,14.444-1.386,26.254-3.264,35.552-5.827,29.066-29.432,56.357-31.918,76.472-.777,5.97,5.1,30.71,2.809,40.915-1.223,5.45-8.968,24.783-15.814,45.332,3.423-16.739,6.682-35.123,6.927-44.768.245-10.166-6.523-30.233-5.423-40.356.532-4.972,5.914-13.8,6.768-18.726.777-4.456-1.223-13.715,0-18.036,2.773-9.558,18.3-23.616,21.077-33.175,2.527-8.782-1.1-27.643,0-36.768,3.464-28.892,27.559-112.8,27.559-112.8l.041.044c8.032,8.43,13.332,18.119,13.332,27.551C349.426,398.695,332.994,440.733,327.33,455.182Z" transform="translate(-237.269 -23.361)" fill="#cecece" fill-rule="evenodd"/>
      <path id="Trazado_120" data-name="Trazado 120" d="M405.376,728.622c-3.791-25.555,6.209-100.556-1.877-129.9-3.4-12.182-14.445-29.495-17.441-46.924-3-17.467,3.359-69.224,0-103.469-3-30.681-10.832-87.415-17.727-103.464-7.15-1.8-14.982-1.379-22.745.728-24.154,6.472-50.982,29.109-50.982,50.3,0,22.295,16.427,64.319,22.1,78.758s1.373,26.278,3.25,35.586c5.814,29.037,29.427,56.352,31.918,76.462.759,5.975-5.091,30.686-2.818,40.91s27.768,69.759,26.65,93.853c-1.123,24.055-2.709,22.256.032,28.844Z" transform="translate(-182.459 -42.838)" fill="#e4e4ea" fill-rule="evenodd"/>
      <path id="Trazado_121" data-name="Trazado 121" d="M365.61,728.622c-3.791-25.555,6.209-100.556-1.877-129.9-3.4-12.182-14.445-29.495-17.441-46.924-3-17.467,3.359-69.224,0-103.469-3-30.681-10.832-87.415-17.727-103.464-7.15-1.8-14.982-1.379-22.745.728,4.15,5.016,15.127,20.111,20.036,43.514,3.177,15.283,16.827,71.519-4.223,133.422,3.609,1.914,12.418,4.408,8.736,20.8,3-3.178,6.645,1,8.741,4.673,1.841,3.183,8.482,37.12,10.25,44.783,9.459,41.026-1.768,126.415,0,137.256l3.632,7.808Z" transform="translate(-142.694 -42.838)" fill="#cecece" fill-rule="evenodd"/>
      <path id="Trazado_122" data-name="Trazado 122" d="M484.869,334.5s-6.2,56.053-9.945,74.263c-2.368,11.55-10.155,29.543-16.1,45.458-1.836,4.89-3.468,9.6-4.768,13.841a79.018,79.018,0,0,0-2,7.919c-3.832,20.544-7.745,83.648-7.745,83.648H311.651s-3.914-63.1-7.745-83.648c-3.3-17.52-19.286-49.745-22.873-67.217-3.75-18.21-9.945-74.263-9.945-74.263l29.041-38.629,18.164-14.531c.409.217.818.434,1.227.694,18.832,10.552,38.359,32.567,58.459,63.408,20.1-30.84,39.623-52.856,58.459-63.408.409-.26.814-.477,1.223-.694l15.473,17.419Z" transform="translate(-265.831 -281.337)" fill="#e4e4ea" fill-rule="evenodd"/>
      <path id="Trazado_143" data-name="Trazado 143" d="M286.764,341.479s-3.764-15.857,2.027-18.741,25.15-.362,30.25-2.166,7.623-9.732,7.623-9.732v20.906s-16.209-5.435-24.7-5.435C288.709,326.312,286.764,341.479,286.764,341.479Z" transform="translate(-214.516 -168.555)" fill="#cecece" fill-rule="evenodd"/>
      <path id="Trazado_144" data-name="Trazado 144" d="M334.5,341.479s3.764-15.857-2.023-18.741-25.154-.362-30.25-2.166-7.623-9.732-7.623-9.732v20.906s16.2-5.435,24.7-5.435C332.554,326.312,334.5,341.479,334.5,341.479Z" transform="translate(-182.456 -168.555)" fill="#cecece" fill-rule="evenodd"/>
      <path id="Trazado_145" data-name="Trazado 145" d="M286.536,323.289c4.077,3.781,14.268,5.406,19.109,4.866s16.523,1.35,17.564-8.381c-.491,7.837-2.8,12.973-18.336,12.973S286.536,323.289,286.536,323.289Z" transform="translate(-211.06 -134.411)" fill="#cecece" fill-rule="evenodd"/>
      <path id="Trazado_146" data-name="Trazado 146" d="M331.272,323.289c-4.077,3.781-14.268,5.406-19.109,4.866s-16.523,1.35-17.559-8.381c.486,7.837,2.8,12.973,18.332,12.973S331.272,323.289,331.272,323.289Z" transform="translate(-182.456 -134.411)" fill="#cecece" fill-rule="evenodd"/>
      <path id="Trazado_147" data-name="Trazado 147" d="M299.873,332.359a6.783,6.783,0,0,1,6.473,5.136,7.178,7.178,0,0,0,.277-1.891,6.758,6.758,0,1,0-13.5,0,7.186,7.186,0,0,0,.282,1.891A6.779,6.779,0,0,1,299.873,332.359Z" transform="translate(-187.724 -100.772)" fill="#cecece" fill-rule="evenodd"/>
      <path id="Trazado_148" data-name="Trazado 148" d="M328.075,359.491c-.9,4.717-8.4,28.806-12.841,42.907H301.7c5.873-14.227,21.4-43.9,22.3-48.573,1.018-5.45-1.018-14.617-8.155-31.357C324.243,330.3,329.339,352.7,328.075,359.491Z" transform="translate(-157.304 -124.109)" fill="#cecece" fill-rule="evenodd"/>
      <path id="Trazado_149" data-name="Trazado 149" d="M308.229,402.432c-5.868-14.227-21.4-43.9-22.3-48.617-1.023-5.406,1.018-14.574,8.15-31.356-8.4,7.87-13.491,30.276-12.227,37.066.9,4.717,8.4,28.806,12.841,42.907Z" transform="translate(-228.33 -124.144)" fill="#cecece" fill-rule="evenodd"/>
      <path id="Trazado_150" data-name="Trazado 150" d="M334.172,358.118c-1.836,4.89-3.468,9.6-4.768,13.841-10.2-21.321-21.4-61.247-23.159-65.481C307.754,309.327,324.427,341.079,334.172,358.118Z" transform="translate(-141.183 -185.237)" fill="#cecece" fill-rule="evenodd"/>
      <path id="Trazado_151" data-name="Trazado 151" d="M276.819,358.118c1.832,4.89,3.464,9.6,4.768,13.841,10.191-21.321,21.4-61.247,23.155-65.481C303.237,309.327,286.56,341.079,276.819,358.118Z" transform="translate(-245.512 -185.237)" fill="#cecece" fill-rule="evenodd"/>
      <path id="Trazado_156" data-name="Trazado 156" d="M464.126,469.877c-28.454,5.676-59.541,9.732-88.382,1.22-.859-4.673-1.877-10.552-2.854-17.342v-.13c-1.386-9.3-2.691-20.332-3.464-32.051-.164-2.551-.327-5.146-.409-7.788l-.123,2.985v.087c-1.018,21.928-5.382,39.753-7.95,54.24-32.8,5.807-62.223,6.077-87.322,0,2.568-23.66,7.7-67.343,21.645-108.349,2.123-6.226,7.382-23.7,7.382-23.7H435.876s6.886,18.167,8.641,24.4C451.162,387.705,464.126,446.218,464.126,469.877Z" transform="translate(-256.847 -60.742)" fill="#ff8c00" fill-rule="evenodd"/>
      <path id="Trazado_157" data-name="Trazado 157" d="M322.9,370.263v.087c-1.018,21.928-5.382,39.753-7.95,54.24L286.6,428.2c8.409-26.968,13.609-85.558,15.85-75.927C306.469,369.573,322.9,370.263,322.9,370.263Z" transform="translate(-210.848 -14.234)" fill="#f57b00" fill-rule="evenodd"/>
      <path id="Trazado_159" data-name="Trazado 159" d="M319.968,443.112c1.264-19.464-11.7-104.067-11.7-104.067h4.773s6.886,18.167,8.641,24.4c6.645,24.263,19.609,82.775,19.609,106.435l-23.268,3.988C319.327,465.952,319.482,450.944,319.968,443.112Z" transform="translate(-134.011 -60.742)" fill="#f57b00" fill-rule="evenodd"/>
    </g>
  </g>
  <g id="Line" fill="none" stroke="#202122" stroke-width="0.5">
    <ellipse cx="164" cy="174" rx="164" ry="174" stroke="none"/>
    <ellipse cx="164" cy="174" rx="163.75" ry="173.75" fill="none"/>
  </g>
</svg>
