<svg xmlns="http://www.w3.org/2000/svg" width="13" height="13" viewBox="0 0 13 13">
  <g id="DESKTOP-modal-More_cart_unactive" data-name="DESKTOP-modal-More cart unactive" transform="translate(0.5 0.5)">
    <path id="More_cart" data-name="More cart" d="M6582.075,4374.159h4.647a.674.674,0,1,0,0-1.349h-4.647v-4.635a.676.676,0,0,0-1.352,0v4.635h-4.648a.67.67,0,0,0-.677.675.681.681,0,0,0,.209.482.792.792,0,0,0,.483.207h4.647v4.637a.676.676,0,0,0,.209.482.741.741,0,0,0,.482.207.679.679,0,0,0,.677-.673v-4.668Z" transform="translate(-6575.399 -4367.5)" fill="#cecece" stroke="#cecece" stroke-width="1"/>
  </g>
</svg>
