<svg id="DESKTOP-Options" xmlns="http://www.w3.org/2000/svg" width="38" height="38" viewBox="0 0 38 38">
  <g id="Button" fill="none" stroke="#202122" stroke-linejoin="round" stroke-width="1.4">
    <rect width="38" height="38" stroke="none"/>
    <rect x="0.7" y="0.7" width="36.6" height="36.6" fill="none"/>
  </g>
  <path id="Trazado_6" data-name="Trazado 6" d="M6584.3,4376.377h6.2a.9.9,0,1,0,0-1.8h-6.2V4368.4a.9.9,0,0,0-1.8,0v6.181h-6.2a.892.892,0,0,0-.9.9.9.9,0,0,0,.278.643,1.062,1.062,0,0,0,.644.278h6.2v6.18a.9.9,0,0,0,.279.643.988.988,0,0,0,.644.277.905.905,0,0,0,.9-.9v-6.225Z" transform="translate(-6564.4 -4356.5)" fill="#202122"/>
</svg>
