<svg id="DESKTOP-New_post" data-name="DESKTOP-New post" xmlns="http://www.w3.org/2000/svg" width="62.001" height="56.001" viewBox="0 0 62.001 56.001">
  <path id="Trazado_296" data-name="Trazado 296" d="M4035.573,6046.761h0a20.19,20.19,0,0,1-2.857-.2,1.177,1.177,0,0,0-.905.237l-6.676,3.662-.038-6.367c0-.024,0-.047,0-.071a1.139,1.139,0,0,0-.424-.833,9.413,9.413,0,0,1-3.793-7.234c0-5.961,6.592-10.808,14.7-10.808,6,0,11.429,2.752,13.643,6.806a16.5,16.5,0,0,0-2.109,1.353,11.762,11.762,0,0,0-5.108,9.374,10.386,10.386,0,0,0,.4,2.845A18.94,18.94,0,0,1,4035.573,6046.761Z" transform="translate(-4018.344 -6021.136)"/>
  <path id="Trazado_297" data-name="Trazado 297" d="M4068.6,6061.76a2.2,2.2,0,0,0-.674,1.521c0,.041,0,.077,0,.117l-.06,11.249-10.656-6.327a1.712,1.712,0,0,0-1.407-.409,27.762,27.762,0,0,1-4.544.376c-10.557,0-19.5-5.936-22.394-14.061-.011-.039-.026-.08-.041-.116a16.832,16.832,0,0,1-.945-5.554c0-11.091,10.653-19.731,23.38-19.731s23.377,8.852,23.377,19.731A18.079,18.079,0,0,1,4068.6,6061.76Z" transform="translate(-4012.634 -6018.646)"/>
  <path id="Trazado_298" data-name="Trazado 298" d="M4034.284,6045.119h0a19.675,19.675,0,0,1-2.856-.207,1.194,1.194,0,0,0-.907.24l-6.674,3.659-.039-6.364c0-.023,0-.047,0-.07a1.137,1.137,0,0,0-.424-.833,9.415,9.415,0,0,1-3.793-7.235c0-5.959,6.593-10.811,14.695-10.811,6,0,11.429,2.753,13.644,6.807a16.933,16.933,0,0,0-2.11,1.353,11.765,11.765,0,0,0-5.108,9.376,10.363,10.363,0,0,0,.4,2.844A18.958,18.958,0,0,1,4034.284,6045.119Z" transform="translate(-4019.177 -6023.093)" fill="#fff"/>
  <path id="Trazado_299" data-name="Trazado 299" d="M4023.6,6049.654l-.042-7.053a.763.763,0,0,0-.276-.592,9.8,9.8,0,0,1-3.941-7.546c0-6.183,6.777-11.215,15.105-11.215,6.084,0,11.715,2.823,14.008,7.019l.192.353-.355.194a16.138,16.138,0,0,0-2.06,1.322,11.366,11.366,0,0,0-4.945,9.051,9.977,9.977,0,0,0,.383,2.736l.1.35-.344.135a20.065,20.065,0,0,1-9.894,1.06.792.792,0,0,0-.587.157Zm10.846-25.6c-7.876,0-14.282,4.668-14.282,10.406a9.02,9.02,0,0,0,3.645,6.924,1.534,1.534,0,0,1,.571,1.124l.037,5.767,6.067-3.324a1.552,1.552,0,0,1,1.168-.287,19.488,19.488,0,0,0,2.794.2h0a18.764,18.764,0,0,0,6.332-1.085,10.764,10.764,0,0,1-.318-2.6,12.157,12.157,0,0,1,5.268-9.7,16.954,16.954,0,0,1,1.8-1.182C4045.26,6026.553,4040.065,6024.056,4034.445,6024.056Z" transform="translate(-4019.34 -6023.247)"/>
  <path id="Trazado_300" data-name="Trazado 300" d="M4066.51,6059.559a2.213,2.213,0,0,0-.673,1.521c0,.04,0,.076,0,.115l-.062,11.249-10.655-6.327a1.715,1.715,0,0,0-1.408-.409,27.554,27.554,0,0,1-4.544.377c-10.558,0-19.5-5.936-22.394-14.061-.012-.04-.027-.078-.041-.116a16.845,16.845,0,0,1-.944-5.553c0-11.091,10.651-19.729,23.378-19.729s23.379,8.85,23.379,19.729A18.083,18.083,0,0,1,4066.51,6059.559Z" transform="translate(-4015.157 -6021.157)" fill="#fff"/>
  <path id="Trazado_301" data-name="Trazado 301" d="M4066.345,6073.317l-11.279-6.7a1.357,1.357,0,0,0-1.125-.357,27.918,27.918,0,0,1-4.612.382c-10.408,0-19.776-5.892-22.782-14.328l-.042-.122a17.246,17.246,0,0,1-.966-5.682c0-11.1,10.672-20.138,23.79-20.138s23.79,9.033,23.79,20.138a18.477,18.477,0,0,1-6.162,13.5h0a1.8,1.8,0,0,0-.547,1.245Zm-12.191-7.88a2.138,2.138,0,0,1,1.4.533l9.977,5.918.06-10.673a2.613,2.613,0,0,1,.8-1.792,17.687,17.687,0,0,0,5.906-12.909c0-10.657-10.3-19.328-22.965-19.328s-22.966,8.67-22.966,19.328a16.469,16.469,0,0,0,.922,5.42l.044.132c2.888,8.1,11.938,13.771,22,13.771a27.409,27.409,0,0,0,4.474-.37A2.031,2.031,0,0,1,4054.154,6065.437Z" transform="translate(-4015.32 -6021.312)"/>
  <rect id="Rectángulo_273" data-name="Rectángulo 273" width="23.862" height="0.809" transform="translate(21.786 20.194)"/>
  <rect id="Rectángulo_274" data-name="Rectángulo 274" width="23.862" height="0.809" transform="translate(21.786 24.755)"/>
  <rect id="Rectángulo_275" data-name="Rectángulo 275" width="23.862" height="0.809" transform="translate(21.786 29.319)"/>
</svg>
