<svg xmlns="http://www.w3.org/2000/svg" width="34.8" height="34.8" viewBox="0 0 34.8 34.8">
  <g id="DESKTOP-No_profile_pic_by_live" data-name="DESKTOP-No profile pic by live" transform="translate(0.399 0.4)">
    <path id="Trazado_182" data-name="Trazado 182" d="M276.424,186.917a17,17,0,1,0,17,17A17,17,0,0,0,276.424,186.917Z" transform="translate(-259.424 -186.917)" fill="#fff" stroke="#202122" stroke-miterlimit="10" stroke-width="0.8"/>
    <path id="Trazado_182-2" data-name="Trazado 182" d="M306.23,208.959a7.343,7.343,0,1,0,7.343,7.343A7.343,7.343,0,0,0,306.23,208.959Z" transform="translate(-289.23 -203.565)" fill="#fff" stroke="#202122" stroke-miterlimit="10" stroke-width="0.8"/>
    <path id="Trazado_182-3" data-name="Trazado 182" d="M300.135,284.305c-3.3-2.523-8.245-4.129-13.778-4.133s-10.483,1.605-13.782,4.128a16.992,16.992,0,0,0,27.56.005Z" transform="translate(-269.357 -257.353)" fill="#fff" stroke="#202122" stroke-miterlimit="10" stroke-width="0.8"/>
    <path id="Trazado_185" data-name="Trazado 185" d="M339.832,289.856a19.739,19.739,0,0,0,5.352-4.364c-.079-.056-.159-.118-.237-.167a23.162,23.162,0,0,0-11.529-4.046c-.219-.01-.432,0-.649,0C332.768,281.278,340.38,283.165,339.832,289.856Z" transform="translate(-314.291 -258.392)" fill="#202122"/>
    <path id="Trazado_186" data-name="Trazado 186" d="M313.215,214.913a7.275,7.275,0,0,1-10.762,8.645,7.294,7.294,0,1,0,10.762-8.645Z" transform="translate(-292.11 -208.062)" fill="#202122"/>
  </g>
</svg>
