<svg id="DESKTOP-Co-create-unactive" xmlns="http://www.w3.org/2000/svg" width="46" height="46" viewBox="0 0 46 46">
  <path id="Co-create-unactive" d="M3742.965,5074.229a2.321,2.321,0,0,0-.68-1.647l-6.023-6.02a.872.872,0,0,0-.3-.2,10.694,10.694,0,0,0-3.225-1.747l-.638-.213-5.47-5.47a2.277,2.277,0,0,0-.53-.4,2.328,2.328,0,0,0-3.084-3.085,2.408,2.408,0,0,0-.4-.532,2.32,2.32,0,0,1-3.011-1,2.338,2.338,0,0,0-3.293,0l-5.409,5.414a10.715,10.715,0,0,0-2.557,4.137l-.213.641-5.469,5.466a2.241,2.241,0,0,0-.4.533,17.613,17.613,0,0,1-3.616,3.481,2.33,2.33,0,0,0-.471,2.613,2.5,2.5,0,0,0-.532.4,2.333,2.333,0,0,0,0,3.294l5.408,5.412a10.865,10.865,0,0,0,4.551,2.691c.1.031.173.054.221.072l5.475,5.473a2.219,2.219,0,0,0,.53.4,2.33,2.33,0,0,0,3.086,3.086,2.394,2.394,0,0,0,.4.533,2.343,2.343,0,0,0,2.614.469,2.33,2.33,0,0,0,3.69.532l5.717-5.714.7-.7a10.743,10.743,0,0,0,2.56-4.141l.213-.637,4.465-4.465a2.323,2.323,0,0,1,3.01-1,2.335,2.335,0,0,0,.473-2.614,2.3,2.3,0,0,0,.531-.4,2.333,2.333,0,0,0,.473-2.612,2.4,2.4,0,0,0,.532-.4A2.323,2.323,0,0,0,3742.965,5074.229Zm-2.689.36-.062.061a.931.931,0,0,0-.949.214.912.912,0,0,0,0,1.288l.729.726a.512.512,0,0,1,0,.722.519.519,0,0,1-.72,0l-.729-.729a.91.91,0,0,0-1.287,1.288l1.732,1.729a.511.511,0,0,1,.149.361.5.5,0,0,1-.149.361.514.514,0,0,1-.721,0l-1.732-1.731a.908.908,0,1,0-1.284,1.286l.727.728a.511.511,0,0,1,0,.724.518.518,0,0,1-.721,0l-5.018-5.021a.908.908,0,0,0-1.285,0l-.36.361-1.124-1.124a4.193,4.193,0,0,1-1.025-4.328.908.908,0,0,0-.22-.934l-3.972-3.973,4.373-4.374a2.233,2.233,0,0,0,.323-.4l4.013,4.017a.939.939,0,0,0,.354.218l.839.277a8.98,8.98,0,0,1,3.434,2.122l5.409,5.411a.512.512,0,0,1,0,.72A.529.529,0,0,1,3740.276,5074.59Zm-18.727,21.9a.892.892,0,0,0,.055-.309.905.905,0,0,0-.269-.642.925.925,0,0,0-1.284,0l-.729.727a.511.511,0,0,1-.72,0,.5.5,0,0,1-.15-.361.5.5,0,0,1,.15-.36l.727-.728a.91.91,0,0,0-1.285-1.29l-1.732,1.734a.51.51,0,0,1-.722-.721l1.732-1.731a.91.91,0,1,0-1.284-1.289l-.728.729a.512.512,0,0,1-.723,0,.506.506,0,0,1,0-.719l5.019-5.02a.911.911,0,0,0,0-1.285l-.361-.36,1.123-1.125a4.2,4.2,0,0,1,4.328-1.025.9.9,0,0,0,.931-.218l3.975-3.973,4.375,4.375a2.315,2.315,0,0,0,.4.322l-3.01,3.008a.9.9,0,0,0-.219.356l-.281.84a8.9,8.9,0,0,1-2.119,3.43l-6.413,6.414a.511.511,0,1,1-.723-.723Zm-21.836-18.666a.933.933,0,0,0,.948-.212.913.913,0,0,0,0-1.288l-.728-.729a.51.51,0,0,1,.723-.72l.727.728a.913.913,0,0,0,.642.268h0a.923.923,0,0,0,.644-.268.914.914,0,0,0,0-1.287l-1.731-1.732a.488.488,0,0,1-.152-.359.5.5,0,0,1,.152-.361.52.52,0,0,1,.72,0l1.734,1.73a.9.9,0,0,0,.642.269h0a.9.9,0,0,0,.642-.268.91.91,0,0,0,0-1.284l-.729-.729a.511.511,0,0,1,.722-.723l5.019,5.021a.934.934,0,0,0,1.285,0l.362-.362,1.122,1.123a4.247,4.247,0,0,1,1.028,4.324.906.906,0,0,0,.216.935l3.976,3.972-4.375,4.375a2.324,2.324,0,0,0-.322.4l-4.014-4.013a.874.874,0,0,0-.339-.212c-.072-.031-.189-.07-.346-.119a9.245,9.245,0,0,1-3.941-2.286l-5.408-5.411a.508.508,0,0,1-.15-.362.5.5,0,0,1,.15-.359.516.516,0,0,1,.36-.151.5.5,0,0,1,.36.152Zm18.667-21.836a.908.908,0,0,0,1.5.951l.729-.73a.506.506,0,0,1,.363-.15.511.511,0,0,1,.359.871l-.727.729a.909.909,0,0,0,1.285,1.287l1.731-1.73a.51.51,0,0,1,.723,0,.5.5,0,0,1,.15.357.512.512,0,0,1-.15.361l-1.733,1.732a.912.912,0,0,0-.266.644.915.915,0,0,0,.909.909h0a.911.911,0,0,0,.644-.267l.728-.729a.521.521,0,0,1,.72,0,.5.5,0,0,1,.15.361.5.5,0,0,1-.15.358l-5.018,5.02a.911.911,0,0,0,0,1.284l.36.362-1.124,1.123a4.243,4.243,0,0,1-4.326,1.028.905.905,0,0,0-.932.218l-3.974,3.974-4.374-4.376a2.445,2.445,0,0,0-.4-.32l4.014-4.013a.867.867,0,0,0,.212-.34,3.108,3.108,0,0,0,.119-.349,9.26,9.26,0,0,1,2.289-3.937l5.409-5.409a.522.522,0,0,1,.721,0,.51.51,0,0,1,0,.719Zm-4.638,19.366-1.123-1.123,2.593-2.593a5.983,5.983,0,0,0,5.635-1.621l1.124-1.123,2.592,2.593a5.98,5.98,0,0,0,1.622,5.635l1.124,1.122-2.594,2.594a5.973,5.973,0,0,0-5.635,1.623l-1.126,1.123-2.591-2.592A5.98,5.98,0,0,0,3713.742,5075.352Z" transform="translate(-3696.964 -5053.237)" fill="#707070"/>
</svg>
