<svg id="DESKTOP-Add_cart" data-name="DESKTOP-Add cart" xmlns="http://www.w3.org/2000/svg" width="38" height="38" viewBox="0 0 38 38">
  <rect id="Rectángulo_244" data-name="Rectángulo 244" width="38" height="38" fill="#ff8c00"/>
  <path id="Trazado_6" data-name="Trazado 6" d="M6582.446,4374.528h4.906a.711.711,0,1,0,0-1.423h-4.906v-4.894a.714.714,0,0,0-1.427,0v4.894h-4.906a.707.707,0,0,0-.493,1.22.836.836,0,0,0,.51.221h4.906v4.894a.714.714,0,0,0,.221.508.784.784,0,0,0,.51.22.717.717,0,0,0,.713-.711v-4.928Z" transform="translate(-6562.732 -4354.834)" fill="#fff" stroke="#fff" stroke-width="0.3"/>
</svg>
