<svg id="DESKTOP-Facebook" xmlns="http://www.w3.org/2000/svg" width="37.079" height="37.079" viewBox="0 0 37.079 37.079">
  <path id="Trazado_28" data-name="Trazado 28" d="M37.079,18.539A18.539,18.539,0,1,0,15.643,36.853V23.9H10.935V18.539h4.707V14.455c0-4.646,2.768-7.213,7-7.213A28.509,28.509,0,0,1,26.8,7.6v4.562H24.457a2.679,2.679,0,0,0-3.021,2.9v3.478h5.142L25.756,23.9h-4.32V36.853A18.544,18.544,0,0,0,37.079,18.539Z" fill="#1877f2"/>
  <path id="Trazado_29" data-name="Trazado 29" d="M316.821,216.656l.822-5.359H312.5V207.82a2.679,2.679,0,0,1,3.021-2.9h2.338v-4.562a28.507,28.507,0,0,0-4.15-.362c-4.235,0-7,2.567-7,7.213V211.3H302v5.359h4.707v12.955a18.734,18.734,0,0,0,5.793,0V216.656Z" transform="translate(-291.064 -192.758)" fill="#fff"/>
</svg>
