<svg id="DESKTOP-02" xmlns="http://www.w3.org/2000/svg" width="151.619" height="104.496" viewBox="0 0 151.619 104.496">
  <path id="Trazado_47" data-name="Trazado 47" d="M3991.921,4834.17q0-24.727,8.037-35.693t27.791-10.966q19.75,0,27.519,10.831t7.765,35.69q0,24.864-7.833,35.83t-27.723,10.965q-19.892,0-27.722-10.965T3991.921,4834.17Zm37.872-20.367a4.278,4.278,0,0,0-4.632,0,5.74,5.74,0,0,0-1.362,3q-.955,4.086-.953,17.37t.885,17.164q.886,3.883,3.746,3.883t3.747-3.883q.884-3.883.885-14.1t-.2-14.167a37.029,37.029,0,0,0-.75-6.268A5.748,5.748,0,0,0,4029.792,4813.8Z" transform="translate(-3983.251 -4777.331)" fill="none" stroke="#fff" stroke-width="2"/>
  <path id="Trazado_48" data-name="Trazado 48" d="M4118.113,4879.109H4055.72v-23.431l11.852-11.443q3.812-3.543,7.356-7.083l5.722-5.722a33.916,33.916,0,0,0,4.223-5.177,15.636,15.636,0,0,0,2.248-4.291,12.655,12.655,0,0,0,.341-2.929q0-3.54-2.043-4.494t-7.22-.955a99.908,99.908,0,0,0-17.982,1.5l-2.861.543-1.363-23.295a87.8,87.8,0,0,1,29.63-5.039q15.46,0,24.248,7.015t8.787,19.482q0,12.463-4.087,19.549t-15.256,14.849l-9.127,6.4h27.927Z" transform="translate(-3968.038 -4777.384)" fill="none" stroke="#fff" stroke-width="2"/>
  <path id="Trazado_49" data-name="Trazado 49" d="M3984.921,4826.171q0-24.728,8.038-35.693t27.791-10.967q19.75,0,27.518,10.831t7.765,35.69q0,24.864-7.833,35.83t-27.723,10.965q-19.892,0-27.723-10.965T3984.921,4826.171Zm37.872-20.367a4.275,4.275,0,0,0-4.632,0,5.732,5.732,0,0,0-1.362,3q-.955,4.087-.954,17.371t.885,17.163q.886,3.883,3.747,3.883t3.746-3.883q.885-3.882.886-14.1t-.2-14.166a36.993,36.993,0,0,0-.749-6.269A5.747,5.747,0,0,0,4022.793,4805.8Z" transform="translate(-3984.921 -4779.239)" fill="#fff"/>
  <path id="Trazado_50" data-name="Trazado 50" d="M4111.113,4871.109H4048.72v-23.432l11.852-11.443q3.812-3.543,7.356-7.083l5.722-5.723a33.88,33.88,0,0,0,4.223-5.177,15.656,15.656,0,0,0,2.248-4.291,12.651,12.651,0,0,0,.341-2.929q0-3.541-2.044-4.494t-7.22-.955a99.964,99.964,0,0,0-17.982,1.5l-2.861.544-1.362-23.295a87.8,87.8,0,0,1,29.63-5.039q15.459,0,24.249,7.015t8.785,19.481q0,12.463-4.087,19.55t-15.256,14.849l-9.127,6.4h27.927Z" transform="translate(-3969.708 -4779.292)" fill="#fff"/>
</svg>
