<svg id="DESKTOP-Pledge" xmlns="http://www.w3.org/2000/svg" width="33" height="40" viewBox="0 0 33 40">
  <path id="Trazado_37" data-name="Trazado 37" d="M144.286,122.328a4.727,4.727,0,0,0-2.621.788,4.739,4.739,0,0,0-7.985-1.536,4.746,4.746,0,0,0-7.073,0,4.723,4.723,0,0,0-8.25,3.075v6.521A5.818,5.818,0,0,0,116,135.832a19.727,19.727,0,0,0,8.014,15.832,3.477,3.477,0,0,1,1.414,2.794v4.379A1.171,1.171,0,0,0,126.607,160h18.857a1.171,1.171,0,0,0,1.179-1.164v-4.191A46.006,46.006,0,0,0,149,140.11V126.985A4.684,4.684,0,0,0,144.286,122.328Zm-9.429,2.328a2.357,2.357,0,0,1,4.714,0v7.683a2.357,2.357,0,0,1-4.714,0Zm-7.071,0a2.357,2.357,0,0,1,4.714,0v5.355h-4.714Zm-7.071,0a2.357,2.357,0,0,1,4.714,0v5.355h-3.536a5.978,5.978,0,0,0-1.179.118Zm25.929,15.453a43.883,43.883,0,0,1-.577,7.081,68.18,68.18,0,0,1-1.78,7.267v3.214h-16.5v-3.214a5.8,5.8,0,0,0-2.357-4.656,17.406,17.406,0,0,1-7.071-13.969,3.518,3.518,0,0,1,3.536-3.494h10.489A5.886,5.886,0,0,1,126.607,137H124.25a1.164,1.164,0,1,0,0,2.328h1.179a4.709,4.709,0,0,1,4.624,3.742,1.178,1.178,0,0,0,1.386.914,1.164,1.164,0,0,0,.926-1.369,6.942,6.942,0,0,0-2.409-3.991,8.27,8.27,0,0,0,3.707-3.224,4.747,4.747,0,0,0,6.175.811,4.737,4.737,0,0,0,6.806,2.491Zm0-5.442a2.357,2.357,0,0,1-4.714,0v-7.683a2.357,2.357,0,0,1,4.714,0Z" transform="translate(-116 -120)" fill="#fff"/>
</svg>
