<svg id="DESKTOP-No-Image" xmlns="http://www.w3.org/2000/svg" width="160" height="144" viewBox="0 0 160 144">
  <path id="Trazado_169" data-name="Trazado 169" d="M36.283,50.1a16.469,16.469,0,1,0-16.469-16.47A16.488,16.488,0,0,0,36.283,50.1m0-31.915A15.446,15.446,0,1,1,20.838,33.628,15.463,15.463,0,0,1,36.283,18.183" transform="translate(0.468 0.406)" fill="#7d7f81"/>
  <path id="Trazado_170" data-name="Trazado 170" d="M142.815,8.418V0H0V126.844H18.216V144H160V8.418Zm-1.03-7.39V124.179L98.113,38.123a4.45,4.45,0,0,0-7.847-.224L61.652,87.893,42.144,68.409a4.46,4.46,0,0,0-6.9.756L1.03,124.519V1.028Zm-.322,124.788H1.438l34.681-56.1a3.428,3.428,0,0,1,5.3-.574L61.878,89.571,91.159,38.41a3.348,3.348,0,0,1,3.069-1.724,3.4,3.4,0,0,1,2.965,1.9Z" fill="#7d7f81"/>
</svg>
