<svg xmlns="http://www.w3.org/2000/svg" width="95.722" height="82.5" viewBox="0 0 95.722 82.5">
  <g id="DESKTOP-Calendar" transform="translate(0.722 0.5)">
    <path id="Trazado_326" data-name="Trazado 326" d="M4167.512,6033.72H4095.68c-.728,20.412-12.248,34.436-16.34,39.067a8.06,8.06,0,0,0-1.347,2.209h17.771v15.481h71.747v-2.153a2.28,2.28,0,0,0,.085-.428V6033.83c-.037.088-.074.171-.106.254C4167.492,6033.96,4167.507,6033.847,4167.512,6033.72Z" transform="translate(-4072.597 -6008.478)" fill="#202122"/>
    <path id="Trazado_327" data-name="Trazado 327" d="M4142.4,6030.36v-2.431a2.591,2.591,0,0,0-5.182,0v2.431H4124.1v-2.431a2.589,2.589,0,0,0-5.178,0v2.431h-12.945v-2.431a2.589,2.589,0,0,0-5.178,0v2.431h-15.537v13.286h72.669V6030.36Z" transform="translate(-4062.933 -6020.774)" fill="#202122"/>
    <path id="Trazado_328" data-name="Trazado 328" d="M4152.424,6088.795a7.648,7.648,0,0,1-4.893,1.8h-53.947v10.327h71.744v-2.153a2.422,2.422,0,0,0,.083-.428v-28.932C4160.479,6081.616,4153.592,6087.811,4152.424,6088.795Zm-3.288-3.957c.645-.542,15.3-13.254,16.192-40.7H4093.5c-.731,20.422-12.248,34.452-16.34,39.086a7.958,7.958,0,0,0-1.347,2.209H4147.5A2.54,2.54,0,0,0,4149.136,6084.838Zm.922-56.333v-2.432a2.559,2.559,0,1,0-5.119,0v2.432h-12.969v-2.432a2.558,2.558,0,1,0-5.117,0v2.432h-12.8v-2.432a2.56,2.56,0,1,0-5.119,0v2.432h-15.354v13.267h71.826V6028.5Z" transform="translate(-4075.812 -6023.494)" fill="#fff" stroke="#202122" stroke-miterlimit="10" stroke-width="1"/>
  </g>
</svg>
