<svg id="DESKTOP-Color_picker" data-name="DESKTOP-Color picker" xmlns="http://www.w3.org/2000/svg" width="40" height="41" viewBox="0 0 40 41">
  <path id="Path_215" data-name="Path 215" d="M4946.381,4199.079l-1.157.166v1.913a5.823,5.823,0,0,1-1.171,2.825l-.539.7-.709.523a6.166,6.166,0,0,1-2.805,1.137l-.883.124-.883-.124a6.173,6.173,0,0,1-2.8-1.137l-.713-.525-.534-.7a5.943,5.943,0,0,1-1.162-2.747l-.126-.863.126-.866a5.941,5.941,0,0,1,1.162-2.747l.531-.694.718-.528a6.083,6.083,0,0,1,3.006-1.162l.825-.091,1.039-.111.149-1.013,1.244-8.364.226-1.512h-2.8a17.617,17.617,0,0,0-11.485,4.226l-.666.57-.025-.025-.183.206-.212.182.027.025-.585.651a16.706,16.706,0,0,0-4.275,10.113l-.059.865h-.036l.018.272-.018.273h.036l.059.864a16.711,16.711,0,0,0,4.275,10.115l.583.651-.026.025.21.179.185.206.025-.024.664.571a17.433,17.433,0,0,0,10.326,4.19l.883.056v.037l.277-.018.279.018v-.037l.881-.056a17.431,17.431,0,0,0,10.326-4.188l.666-.571.026.023.182-.2.213-.182-.027-.025.584-.651a16.855,16.855,0,0,0,4.316-11.252v-2.745l-1.547.221Z" transform="translate(-4920.106 -4176.515)" fill="#7d7f81"/>
  <path id="Path_216" data-name="Path 216" d="M4950.517,4187.459l.5-.5,1.084-1.075a3.064,3.064,0,0,0,0-4.356,3.125,3.125,0,0,0-4.393,0l-1.084,1.075-.5.5-1.171-1.161-.848-.842-.85.842-2.693,2.672-.849.841.849.843,1.171,1.16-.5.5-9.729,9.652-.353.348v4.356h4.391l.351-.348,9.73-9.652.5-.5,1.169,1.16.85.842.849-.842,2.692-2.673.85-.841-.85-.843Z" transform="translate(-4913.012 -4177.371)" fill="#7d7f81"/>
  <path id="Path_217" data-name="Path 217" d="M4938.235,4205.834l.576-.079a6.933,6.933,0,0,0,3.136-1.275l.466-.341,7.049,6.91-.537.46a16.83,16.83,0,0,1-9.975,4.05l-.714.047Zm-1.531,9.725a16.829,16.829,0,0,1-9.975-4.05l-.537-.46,7.047-6.91.463.341a6.974,6.974,0,0,0,3.141,1.275l.574.079v9.772Zm-11.562-5.606a16.177,16.177,0,0,1-4.132-9.778l-.046-.7h9.967l.082.564a6.665,6.665,0,0,0,1.3,3.076l.347.457-7.045,6.909Zm17.85-6.382.35-.457a6.552,6.552,0,0,0,1.322-3.246l0-1.346,10.022-1.431v1.984a16.292,16.292,0,0,1-4.17,10.878l-.47.527Zm-7.676-2.034v-3.921L4947,4186.155l4,3.92-11.689,11.461Zm-14.352-2.864.046-.7a16.164,16.164,0,0,1,4.132-9.779l.472-.529,7.045,6.913-.347.455a6.651,6.651,0,0,0-1.3,3.074l-.082.565Zm5.229-11.572.537-.463a17.016,17.016,0,0,1,11.1-4.086h2.021l-1.437,9.669-1.343.147a6.8,6.8,0,0,0-3.363,1.3l-.465.343Zm19.106-3.758,4-3.919,8.571,8.4-4,3.919Zm6.867-2.249,1.7-1.667a2.869,2.869,0,0,1,4,0,2.737,2.737,0,0,1,0,3.92l-1.7,1.668Z" transform="translate(-4920.323 -4178.021)" fill="#f2f2f7"/>
  <path id="Path_218" data-name="Path 218" d="M4955.968,4179.471a2.163,2.163,0,0,1,1.521.621,2.076,2.076,0,0,1,0,2.98l-1.223,1.2-3.04-2.984,1.223-1.2a2.161,2.161,0,0,1,1.519-.621m-6.543,1.079,7.6,7.451-3.04,2.98-7.6-7.449,3.041-2.981m-10.186,2.846-1.247,8.389-.826.09a7.5,7.5,0,0,0-3.677,1.424l-6.109-5.992A16.178,16.178,0,0,1,4938,4183.4h1.244m7.9,3.863,3.041,2.983-10.98,10.769h-3.038v-2.982l10.978-10.77m-21.282,1.54,6.111,5.991a7.231,7.231,0,0,0-1.422,3.365h-8.64a15.517,15.517,0,0,1,3.951-9.356m28.262,9.193v1.219a15.522,15.522,0,0,1-3.988,10.412l-6.11-5.992a7.2,7.2,0,0,0,1.446-3.552v-.853l8.652-1.234m-23.573,2.273a7.229,7.229,0,0,0,1.422,3.366l-6.111,5.992a15.53,15.53,0,0,1-3.951-9.358h8.64m11.955,4.857,6.108,5.991a16.152,16.152,0,0,1-9.541,3.877v-8.475a7.51,7.51,0,0,0,3.433-1.394m-9.015,0a7.52,7.52,0,0,0,3.433,1.394v8.475a16.156,16.156,0,0,1-9.541-3.877l6.108-5.991m22.48-26.957a3.5,3.5,0,0,0-2.463,1l-1.221,1.2-.581.569-1.336-1.31-.943-.924-.943.924-3.04,2.982-.944.924.944.925,1.334,1.309-.578.569-10.98,10.769-.39.382v4.834h4.926l.391-.384,10.979-10.77.581-.569,1.333,1.309.943.924.942-.924,3.04-2.982.943-.923-.943-.927-1.332-1.306.58-.571,1.223-1.2a3.368,3.368,0,0,0,0-4.831,3.494,3.494,0,0,0-2.464-1Zm-15.188,3.923H4938a17.624,17.624,0,0,0-11.5,4.236l-.68.585-.024-.024-.169.19-.2.168.024.024-.6.667a16.75,16.75,0,0,0-4.281,10.135l-.059.887h-.034l.018.254-.018.253h.034l.059.885a16.745,16.745,0,0,0,4.281,10.136l.6.667-.024.023.2.169.171.19.024-.023.68.586a17.437,17.437,0,0,0,10.335,4.2l.9.058v.032l.258-.017.26.017v-.032l.9-.058a17.432,17.432,0,0,0,10.334-4.2l.681-.585.023.022.169-.188.2-.171-.024-.023.6-.667a16.891,16.891,0,0,0,4.321-11.274v-2.732l-1.527.218-8.651,1.236-1.141.162v1.9a5.865,5.865,0,0,1-1.179,2.844l-.543.706-.713.527a6.172,6.172,0,0,1-2.817,1.144l-.888.124-.887-.124a6.216,6.216,0,0,1-2.82-1.144l-.714-.528-.538-.7a5.968,5.968,0,0,1-1.168-2.764l-.125-.871.125-.872a5.965,5.965,0,0,1,1.168-2.763l.535-.7.721-.533a6.136,6.136,0,0,1,3.021-1.168l.827-.09,1.026-.109.148-1,1.245-8.39.222-1.5Z" transform="translate(-4920.483 -4178.165)" fill="#7d7f81"/>
</svg>
