<svg id="DESKTOP-OK" xmlns="http://www.w3.org/2000/svg" width="100" height="100" viewBox="0 0 100 100">
  <path id="Trazado_172" data-name="Trazado 172" d="M43.7,56.276,58.958,41.018a3.451,3.451,0,0,0-.194-5.265,3.181,3.181,0,0,0-2.345-1.1,3.723,3.723,0,0,0-2.764,1.063L41.082,48.289l-5.963-5.963a3.75,3.75,0,0,0-5.3,5.3l8.615,8.615a3.9,3.9,0,0,0,2.652,1.125,3.711,3.711,0,0,0,2.62-1.092" transform="translate(5.496 6.58)" fill="#e4e4ea"/>
  <path id="Trazado_173" data-name="Trazado 173" d="M50,0a50,50,0,1,0,50,50A50.056,50.056,0,0,0,50,0m0,95.486A45.487,45.487,0,0,1,50,4.512a44.767,44.767,0,0,1,32.133,13.36A45.439,45.439,0,0,1,50,95.486" fill="#e4e4ea"/>
</svg>
