<svg id="DESKTOP-02_small" data-name="DESKTOP-02 small" xmlns="http://www.w3.org/2000/svg" width="147.703" height="101" viewBox="0 0 147.703 101">
  <path id="Trazado_47" data-name="Trazado 47" d="M3991.921,4832.836q0-24.022,7.792-34.674t26.941-10.651q19.147,0,26.677,10.521t7.528,34.668q0,24.154-7.594,34.8t-26.875,10.652q-19.285,0-26.875-10.652T3991.921,4832.836Zm36.714-19.785a4.132,4.132,0,0,0-4.49,0,5.562,5.562,0,0,0-1.321,2.91q-.925,3.97-.924,16.875t.858,16.672q.859,3.771,3.632,3.771t3.631-3.771q.857-3.772.858-13.7t-.2-13.763a36,36,0,0,0-.727-6.089A5.582,5.582,0,0,0,4028.635,4813.051Z" transform="translate(-3982.829 -4778.155)" fill="none" stroke="#f2f2f7" stroke-width="2"/>
  <path id="Trazado_48" data-name="Trazado 48" d="M4116.206,4876.482H4055.72v-22.762l11.49-11.115q3.694-3.442,7.131-6.882l5.546-5.559a32.871,32.871,0,0,0,4.095-5.028,15.2,15.2,0,0,0,2.179-4.167,12.348,12.348,0,0,0,.33-2.847q0-3.438-1.981-4.365t-7-.928a96.679,96.679,0,0,0-17.432,1.457l-2.773.527-1.321-22.628a84.973,84.973,0,0,1,28.724-4.894q14.987,0,23.506,6.813t8.519,18.926q0,12.105-3.963,18.988t-14.79,14.424l-8.848,6.219h27.074Z" transform="translate(-3970.031 -4778.202)" fill="none" stroke="#f2f2f7" stroke-width="2"/>
  <path id="Trazado_49" data-name="Trazado 49" d="M3984.921,4824.835q0-24.018,7.792-34.672t26.941-10.652q19.146,0,26.677,10.521t7.527,34.668q0,24.155-7.593,34.8t-26.875,10.651q-19.284,0-26.875-10.651T3984.921,4824.835Zm36.713-19.785a4.148,4.148,0,0,0-4.49,0,5.591,5.591,0,0,0-1.32,2.913q-.925,3.967-.924,16.872t.858,16.673q.859,3.771,3.632,3.771t3.631-3.771q.858-3.772.859-13.7t-.2-13.761a35.894,35.894,0,0,0-.727-6.088A5.587,5.587,0,0,0,4021.635,4805.05Z" transform="translate(-3984.921 -4779.247)" fill="#f2f2f7"/>
  <path id="Trazado_50" data-name="Trazado 50" d="M4109.207,4868.48H4048.72v-22.76l11.49-11.116q3.7-3.442,7.131-6.881l5.547-5.559a32.907,32.907,0,0,0,4.094-5.027,15.236,15.236,0,0,0,2.179-4.169,12.344,12.344,0,0,0,.331-2.845q0-3.439-1.982-4.366t-7-.928a96.69,96.69,0,0,0-17.433,1.457l-2.773.528-1.321-22.629a84.974,84.974,0,0,1,28.725-4.895q14.986,0,23.508,6.813t8.516,18.924q0,12.105-3.961,18.99t-14.791,14.424l-8.848,6.219h27.074Z" transform="translate(-3972.12 -4779.292)" fill="#f2f2f7"/>
</svg>
