<svg id="DESKTOP-MasterCard" xmlns="http://www.w3.org/2000/svg" width="41.999" height="26" viewBox="0 0 41.999 26">
  <rect id="Rectangle_268" data-name="Rectangle 268" width="11.357" height="20.44" transform="translate(15.321 2.78)" fill="#ff5f00"/>
  <path id="_Path_" data-name=" Path " d="M31.2,28.154a12.984,12.984,0,0,1,4.957-10.222,12.991,12.991,0,1,0,0,20.44A12.984,12.984,0,0,1,31.2,28.154Z" transform="translate(-15.154 -15.152)" fill="#eb001b"/>
  <path id="Path_231" data-name="Path 231" d="M94.4,28.152a12.975,12.975,0,0,1-21,10.218,13.008,13.008,0,0,0,0-20.44,12.981,12.981,0,0,1,21,10.218Z" transform="translate(-52.402 -15.15)" fill="#f79e1b"/>
  <path id="Path_232" data-name="Path 232" d="M127.75,72.565v-.419h.169V72.06h-.429v.087h.184v.419Zm.833,0V72.06h-.13l-.151.361-.151-.361h-.115v.505h.094v-.379l.141.329h.1l.141-.329v.383Z" transform="translate(-86.992 -51.512)" fill="#f79e1b"/>
</svg>
