<svg id="DESKTOP-Back" xmlns="http://www.w3.org/2000/svg" width="25.456" height="25.456" viewBox="0 0 25.456 25.456">
  <path id="Trazado_6" data-name="Trazado 6" d="M6585.413,4377.487h6.973a1.011,1.011,0,1,0,0-2.021h-6.973v-6.954a1.014,1.014,0,0,0-2.027,0v6.954h-6.972a1,1,0,0,0-1.014,1.011,1.014,1.014,0,0,0,.313.723,1.191,1.191,0,0,0,.724.313h6.973v6.953a1.012,1.012,0,0,0,.313.723,1.114,1.114,0,0,0,.724.313,1.018,1.018,0,0,0,1.013-1.01v-7Z" transform="translate(-7737.799 1573.949) rotate(-45)" fill="#fff"/>
</svg>
