<svg id="DESKTOP-See_more" data-name="DESKTOP-See more" xmlns="http://www.w3.org/2000/svg" width="38" height="38" viewBox="0 0 38 38">
  <g id="Rectángulo_148" data-name="Rectángulo 148" fill="none" stroke="#fff" stroke-linejoin="round" stroke-width="1.2">
    <rect width="38" height="38" stroke="none"/>
    <rect x="0.6" y="0.6" width="36.8" height="36.8" fill="none"/>
  </g>
  <path id="Trazado_6" data-name="Trazado 6" d="M6584.459,4376.536h6.308a.915.915,0,1,0,0-1.829h-6.308v-6.292a.917.917,0,0,0-1.835,0v6.292h-6.309a.908.908,0,0,0-.633,1.568,1.073,1.073,0,0,0,.655.283h6.308v6.292a.917.917,0,0,0,.283.653,1.011,1.011,0,0,0,.656.283.922.922,0,0,0,.917-.915v-6.335Z" transform="translate(-6564.542 -4356.643)" fill="#fff"/>
</svg>
