<svg id="DESKTOP-Bamboo_Elastane" data-name="DESKTOP-Bamboo/Elastane" xmlns="http://www.w3.org/2000/svg" width="64" height="67" viewBox="0 0 64 67">
  <path id="Path_287" data-name="Path 287" d="M4238.642,6139.347a2.014,2.014,0,0,0-1.878-.251,80.314,80.314,0,0,1-28.12,5.247,79.125,79.125,0,0,1-23.925-3.812c-1.4-.446-2.815-.919-4.195-1.435a2.007,2.007,0,0,0-.627-.113c-.026,0-.05-.013-.076-.013s-.066.013-.1.014a2.076,2.076,0,0,0-.4.063,1.586,1.586,0,0,0-.165.044,1.99,1.99,0,0,0-.512.256,2.105,2.105,0,0,0-.871,1.712v40.4a2.106,2.106,0,0,0,.871,1.711,2.015,2.015,0,0,0,1.878.251,80.329,80.329,0,0,1,28.12-5.249,79.082,79.082,0,0,1,23.928,3.815c1.4.445,2.813.917,4.192,1.433a2.061,2.061,0,0,0,.628.113c.024,0,.049.013.076.013s.066-.013.1-.014a2.132,2.132,0,0,0,.4-.063,1.344,1.344,0,0,0,.166-.044,1.988,1.988,0,0,0,.512-.256,2.105,2.105,0,0,0,.869-1.711h0v-40.4A2.1,2.1,0,0,0,4238.642,6139.347Z" transform="translate(-4175.511 -6125.311)"/>
  <path id="Path_288" data-name="Path 288" d="M4236.943,6137.128a2.01,2.01,0,0,0-1.876-.253,80.306,80.306,0,0,1-28.12,5.247,79.114,79.114,0,0,1-23.927-3.812c-1.4-.446-2.813-.918-4.194-1.435a1.988,1.988,0,0,0-.626-.112c-.026,0-.051-.015-.077-.015s-.065.015-.1.017a2.059,2.059,0,0,0-.4.061c-.054.016-.109.024-.163.043a2.026,2.026,0,0,0-.513.259,2.1,2.1,0,0,0-.871,1.709h0v40.4a2.108,2.108,0,0,0,.871,1.711,2.017,2.017,0,0,0,1.877.25,80.33,80.33,0,0,1,28.121-5.248,79.146,79.146,0,0,1,23.928,3.814c1.4.446,2.812.918,4.192,1.434a2,2,0,0,0,.627.114c.025,0,.05.013.076.013a1.026,1.026,0,0,0,.1-.017,1.974,1.974,0,0,0,.4-.061c.055-.015.109-.024.164-.044a1.955,1.955,0,0,0,.513-.256,2.1,2.1,0,0,0,.872-1.711h0v-40.4A2.1,2.1,0,0,0,4236.943,6137.128Z" transform="translate(-4176.078 -6125.535)"/>
  <path id="Path_289" data-name="Path 289" d="M4235.835,6137.9a.713.713,0,0,0-.675-.094,78.742,78.742,0,0,1-52.354,1.623l-.489-.167c-1.592-.5-2.984-.979-4.262-1.458a.686.686,0,0,0-.4-.027l-.265.117a.731.731,0,0,0-.311.61v40.4a.746.746,0,0,0,.307.608.72.72,0,0,0,.417.136.7.7,0,0,0,.254-.048,78.733,78.733,0,0,1,52.353-1.622l.492.168c1.594.5,2.988.98,4.25,1.454a.7.7,0,0,0,.665-.082.726.726,0,0,0,.317-.614v-40.4A.718.718,0,0,0,4235.835,6137.9Z" transform="translate(-4175.742 -6125.193)" fill="#fff"/>
  <path id="Path_290" data-name="Path 290" d="M4223.235,6133.833a.6.6,0,0,0,.726-.405l.944-3.324a.593.593,0,0,0-.321-.7l-2.987-1.367a.59.59,0,0,0-.487,1.074l1.8.824-.643.309a38.9,38.9,0,0,1-35.259.058l-.647-.309,1.927-.881a.59.59,0,0,0,.29-.781.583.583,0,0,0-.778-.292l-2.985,1.367a.587.587,0,0,0-.323.7l.944,3.324a.582.582,0,0,0,.728.4.573.573,0,0,0,.35-.278.589.589,0,0,0,.052-.449l-.558-1.967.663.312a40.067,40.067,0,0,0,36.1-.135l.667-.321-.6,2.111a.6.6,0,0,0,.05.449A.594.594,0,0,0,4223.235,6133.833Z" transform="translate(-4173.778 -6127.984)"/>
  <path id="Path_291" data-name="Path 291" d="M4221.6,6180.676l2.987-1.365a.589.589,0,0,0,.321-.7l-.944-3.322a.593.593,0,0,0-.726-.406.578.578,0,0,0-.353.282.6.6,0,0,0-.05.448l.6,2.11-.667-.319a40.063,40.063,0,0,0-36.1-.137l-.663.313.558-1.966a.591.591,0,0,0-.4-.73.6.6,0,0,0-.726.407l-.943,3.321a.589.589,0,0,0,.323.7l2.985,1.365a.6.6,0,0,0,.778-.291.588.588,0,0,0,.016-.451.577.577,0,0,0-.306-.331l-1.929-.886.647-.307a38.912,38.912,0,0,1,35.26.06l.643.307-1.8.826a.577.577,0,0,0-.306.331.588.588,0,0,0,.793.742Z" transform="translate(-4173.778 -6113.728)"/>
  <path id="Path_292" data-name="Path 292" d="M4205.575,6148.428a72.9,72.9,0,0,1-24.5-3.992.508.508,0,0,1-.3-.642.483.483,0,0,1,.625-.307,71.956,71.956,0,0,0,24.171,3.935,72.945,72.945,0,0,0,23.1-3.558.485.485,0,0,1,.619.32.508.508,0,0,1-.314.635A73.963,73.963,0,0,1,4205.575,6148.428Z" transform="translate(-4174.518 -6124.389)"/>
  <path id="Path_293" data-name="Path 293" d="M4204.744,6149.826a79.769,79.769,0,0,1-19.437-2.3.5.5,0,0,1-.363-.61.493.493,0,0,1,.605-.365,78.76,78.76,0,0,0,19.194,2.275,80.023,80.023,0,0,0,17.364-1.841.5.5,0,0,1,.217.981A81.006,81.006,0,0,1,4204.744,6149.826Z" transform="translate(-4173.6 -6122.085)"/>
  <path id="Path_294" data-name="Path 294" d="M4228.826,6163.84a.48.48,0,0,1-.163-.028,72,72,0,0,0-24.172-3.934,72.962,72.962,0,0,0-23.1,3.558.49.49,0,0,1-.617-.32.507.507,0,0,1,.312-.635,73.955,73.955,0,0,1,23.4-3.609,72.9,72.9,0,0,1,24.5,3.992.505.505,0,0,1,.3.641A.493.493,0,0,1,4228.826,6163.84Z" transform="translate(-4174.518 -6116.861)"/>
  <path id="Path_295" data-name="Path 295" d="M4222.768,6160.343a.5.5,0,0,1-.12-.014,78.807,78.807,0,0,0-19.2-2.274,80.11,80.11,0,0,0-17.363,1.84.5.5,0,0,1-.6-.381.5.5,0,0,1,.38-.6,81.264,81.264,0,0,1,17.581-1.862,79.688,79.688,0,0,1,19.437,2.3.5.5,0,0,1-.122.988Z" transform="translate(-4173.446 -6118.74)"/>
</svg>
