<svg id="DESKTOP-Custom_option" data-name="DESKTOP-Custom option" xmlns="http://www.w3.org/2000/svg" width="70" height="62.999" viewBox="0 0 70 62.999">
  <path id="Path_296" data-name="Path 296" d="M4037.469,6049.465h0a22.673,22.673,0,0,1-3.225-.231,1.331,1.331,0,0,0-1.022.268l-7.539,4.118-.042-7.162c0-.027,0-.05,0-.079a1.284,1.284,0,0,0-.479-.939,10.577,10.577,0,0,1-4.282-8.136c0-6.708,7.443-12.161,16.591-12.161,6.776,0,12.9,3.1,15.4,7.655a18.621,18.621,0,0,0-2.382,1.523c-3.719,2.792-5.766,6.539-5.766,10.545a11.656,11.656,0,0,0,.448,3.2A21.443,21.443,0,0,1,4037.469,6049.465Z" transform="translate(-4018.017 -6020.639)"/>
  <path id="Path_297" data-name="Path 297" d="M4073.854,6065.876a2.484,2.484,0,0,0-.76,1.712c0,.044,0,.085,0,.129l-.067,12.657-12.03-7.119a1.941,1.941,0,0,0-1.59-.46,31.38,31.38,0,0,1-5.13.423c-11.919,0-22.016-6.677-25.283-15.818-.013-.044-.03-.088-.046-.132a18.866,18.866,0,0,1-1.067-6.247c0-12.479,12.028-22.2,26.4-22.2s26.394,9.958,26.394,22.2A20.3,20.3,0,0,1,4073.854,6065.876Z" transform="translate(-4010.667 -6017.375)"/>
  <path id="Path_298" data-name="Path 298" d="M4036.181,6047.82h0a22.247,22.247,0,0,1-3.225-.233,1.346,1.346,0,0,0-1.023.271l-7.536,4.116-.044-7.159c0-.026,0-.054,0-.08a1.283,1.283,0,0,0-.479-.938,10.575,10.575,0,0,1-4.283-8.139c0-6.7,7.444-12.162,16.591-12.162,6.776,0,12.9,3.1,15.4,7.659a19.1,19.1,0,0,0-2.382,1.521c-3.719,2.792-5.766,6.54-5.766,10.547a11.591,11.591,0,0,0,.449,3.2A21.459,21.459,0,0,1,4036.181,6047.82Z" transform="translate(-4019.124 -6023.04)" fill="#fff"/>
  <path id="Path_299" data-name="Path 299" d="M4024.149,6052.957l-.047-7.936a.858.858,0,0,0-.312-.667,11.019,11.019,0,0,1-4.449-8.49c0-6.955,7.65-12.616,17.054-12.616,6.87,0,13.227,3.175,15.815,7.9l.217.4-.4.219a18.466,18.466,0,0,0-2.326,1.484c-3.6,2.7-5.583,6.32-5.583,10.184a11.2,11.2,0,0,0,.432,3.078l.112.395-.388.151a22.724,22.724,0,0,1-11.171,1.192.9.9,0,0,0-.663.177Zm12.245-28.8c-8.891,0-16.124,5.251-16.124,11.706a10.134,10.134,0,0,0,4.115,7.79,1.729,1.729,0,0,1,.645,1.266l.041,6.488,6.851-3.742a1.768,1.768,0,0,1,1.318-.322,22.077,22.077,0,0,0,3.155.226h0a21.257,21.257,0,0,0,7.149-1.22,12.1,12.1,0,0,1-.359-2.922c0-4.154,2.113-8.027,5.948-10.906a19.1,19.1,0,0,1,2.03-1.331C4048.6,6026.968,4042.739,6024.159,4036.394,6024.159Z" transform="translate(-4019.34 -6023.249)"/>
  <path id="Path_300" data-name="Path 300" d="M4071.765,6063.676a2.48,2.48,0,0,0-.76,1.712c0,.045,0,.085,0,.129l-.07,12.655-12.03-7.118a1.934,1.934,0,0,0-1.59-.459,31.363,31.363,0,0,1-5.129.423c-11.92,0-22.017-6.677-25.283-15.818a1.238,1.238,0,0,0-.046-.131,18.881,18.881,0,0,1-1.065-6.247c0-12.479,12.025-22.2,26.395-22.2s26.4,9.956,26.4,22.2A20.311,20.311,0,0,1,4071.765,6063.676Z" transform="translate(-4013.786 -6020.475)" fill="#fff"/>
  <path id="Path_301" data-name="Path 301" d="M4071.61,6079.184l-12.733-7.533a1.534,1.534,0,0,0-1.271-.4,31.655,31.655,0,0,1-5.208.428c-11.75,0-22.328-6.627-25.722-16.118l-.047-.136a19.37,19.37,0,0,1-1.09-6.395c0-12.493,12.049-22.652,26.859-22.652s26.859,10.16,26.859,22.652a20.751,20.751,0,0,1-6.957,15.183h0a2.031,2.031,0,0,0-.617,1.4Zm-13.763-8.864a2.427,2.427,0,0,1,1.578.6l11.265,6.659.066-12.007a2.935,2.935,0,0,1,.9-2.016,19.868,19.868,0,0,0,6.668-14.523c0-11.988-11.631-21.743-25.928-21.743s-25.929,9.755-25.929,21.743a18.461,18.461,0,0,0,1.04,6.1l.05.15c3.259,9.114,13.477,15.492,24.839,15.492a31.015,31.015,0,0,0,5.051-.416A2.328,2.328,0,0,1,4057.846,6070.319Z" transform="translate(-4014.001 -6020.684)"/>
  <rect id="Rectangle_273" data-name="Rectangle 273" width="26.942" height="0.911" transform="translate(24.597 22.718)"/>
  <rect id="Rectangle_274" data-name="Rectangle 274" width="26.942" height="0.911" transform="translate(24.597 27.849)"/>
  <rect id="Rectangle_275" data-name="Rectangle 275" width="26.942" height="0.911" transform="translate(24.597 32.982)"/>
</svg>
