<svg xmlns="http://www.w3.org/2000/svg" width="18.806" height="16.263" viewBox="0 0 18.806 16.263">
  <g id="DESKTOP-Arrow-orange" transform="translate(0.5 0.5)">
    <path id="Arrow" d="M16.874,6.659H3.151L8.571,1.5a.887.887,0,0,0,.26-.625A.985.985,0,0,0,8.571.25.961.961,0,0,0,7.925,0a.845.845,0,0,0-.65.25l-7,6.733a.91.91,0,0,0,0,1.3h0l7,6.734a.839.839,0,0,0,.65.249.839.839,0,0,0,.646-.249.922.922,0,0,0,0-1.347L3.151,8.5H16.819a.983.983,0,0,0,.986-.948A.963.963,0,0,0,16.874,6.659Z" transform="translate(17.806 15.263) rotate(180)" fill="#ff8c00" stroke="#ff8c00" stroke-width="1"/>
  </g>
</svg>
