<svg id="DESKTOP-Vot_down" data-name="DESKTOP-Vot down" xmlns="http://www.w3.org/2000/svg" width="24" height="24" viewBox="0 0 24 24">
  <path id="Trazado_180" data-name="Trazado 180" d="M3267.646,4407.8a1.263,1.263,0,0,0,.381-.888l.014-.118a.625.625,0,0,0-.116-.533l-.118-.117a1.368,1.368,0,0,0-1.848-.058l-8.477,8.144.015-19.752h-2.718v19.752l-8.4-8.071a1.3,1.3,0,0,0-.913-.375,1.685,1.685,0,0,0-1.036.374,1.217,1.217,0,0,0-.375.878,1.248,1.248,0,0,0,.382.886l10.655,10.244a1.334,1.334,0,0,0,.867.313h0a1.5,1.5,0,0,0,.977-.391Z" transform="translate(-3244.059 -4394.473)" fill="#202122"/>
</svg>
