<svg xmlns="http://www.w3.org/2000/svg" width="18" height="18" viewBox="0 0 18 18">
  <g id="DESKTOP-vots_live" data-name="DESKTOP-vots live" transform="translate(0 0)">
    <path id="DESKTOP-vots_live-2" data-name="DESKTOP-vots live" d="M3261.75,4404.465a.943.943,0,0,0,.286-.666l.011-.089a.471.471,0,0,0-.087-.4l-.089-.088a1.027,1.027,0,0,0-1.386-.043l-6.357,6.108.011-14.813H3252.1v14.813l-6.3-6.053a.976.976,0,0,0-.685-.282,1.269,1.269,0,0,0-.777.28.912.912,0,0,0-.281.659.938.938,0,0,0,.286.665l7.991,7.683a1,1,0,0,0,.65.235h0a1.13,1.13,0,0,0,.732-.293Z" transform="translate(3262.059 4412.473) rotate(180)" fill="#fff"/>
  </g>
</svg>
