<svg id="DESKTOP-07" xmlns="http://www.w3.org/2000/svg" width="145.166" height="97.602" viewBox="0 0 145.166 97.602">
  <path id="Trazado_185" data-name="Trazado 185" d="M4594.789,5100.531q0-23.848,7.75-34.423t26.8-10.578q19.047,0,26.538,10.446t7.49,34.424q0,23.979-7.555,34.554t-26.737,10.576q-19.184,0-26.734-10.576T4594.789,5100.531Zm36.524-19.643a4.124,4.124,0,0,0-4.467,0,5.537,5.537,0,0,0-1.314,2.891q-.921,3.942-.919,16.752t.854,16.554q.853,3.746,3.612,3.745t3.615-3.745q.853-3.741.853-13.6t-.2-13.663a35.829,35.829,0,0,0-.724-6.044A5.553,5.553,0,0,0,4631.313,5080.889Z" transform="translate(-4586.999 -5049.079)" fill="none" stroke="#fff" stroke-width="2"/>
  <path id="Trazado_186" data-name="Trazado 186" d="M4657.836,5084.521V5056.93h59.385v29.036l-23.121,59.255-29.432-6.043,21.81-51.372v-3.284Z" transform="translate(-4573.055 -5048.769)" fill="none" stroke="#fff" stroke-width="2"/>
  <path id="Trazado_197" data-name="Trazado 197" d="M4588,5094.08q0-23.848,7.752-34.423t26.8-10.578q19.046,0,26.539,10.445t7.49,34.425q0,23.979-7.555,34.554t-26.737,10.576q-19.186,0-26.736-10.576T4588,5094.08Zm36.525-19.643a4.127,4.127,0,0,0-4.467,0,5.537,5.537,0,0,0-1.314,2.89q-.921,3.942-.919,16.752t.854,16.553q.853,3.746,3.613,3.746t3.613-3.746q.853-3.742.854-13.6t-.2-13.664a35.786,35.786,0,0,0-.723-6.044A5.549,5.549,0,0,0,4624.524,5074.438Z" transform="translate(-4587.999 -5049.079)" fill="#fff"/>
  <path id="Trazado_198" data-name="Trazado 198" d="M4651.046,5078.07v-27.592h59.386v29.037l-23.122,59.255-29.432-6.043,21.81-51.371v-3.285Z" transform="translate(-4574.055 -5048.769)" fill="#fff"/>
</svg>
