<svg id="DESKTOP-PayPal" xmlns="http://www.w3.org/2000/svg" width="109" height="26" viewBox="0 0 109 26">
  <path id="Path_106" data-name="Path 106" d="M356.37,221.2h-5.883a1.139,1.139,0,0,0-.865.646L347.2,236.057q0,.484.519.484h3.114q.519,0,.519-.484l.692-4.037c0-.323.346-.646.865-.646h1.9q5.969,0,6.748-5.329a4.009,4.009,0,0,0-.692-3.553,7.319,7.319,0,0,0-4.5-1.292m.692,5.329c-.346,1.938-1.9,1.938-3.46,1.938h-1.038l.692-3.714c0-.162.173-.323.519-.323h.346c1.038,0,2.076,0,2.6.646.346.161.346.646.346,1.453" transform="translate(-272.111 -214.417)" fill="#139ad6"/>
  <g id="Group_165" data-name="Group 165" transform="translate(32.7 6.783)">
    <path id="Path_107" data-name="Path 107" d="M160.37,221.2h-5.882a1.139,1.139,0,0,0-.865.646L151.2,236.057q0,.484.519.484h2.768a1.139,1.139,0,0,0,.865-.646l.692-3.876c0-.323.346-.646.865-.646h1.9q5.969,0,6.748-5.329a4.009,4.009,0,0,0-.692-3.553,6.97,6.97,0,0,0-4.5-1.292m.692,5.329c-.346,1.938-1.9,1.938-3.46,1.938h-.865l.692-3.714c0-.162.173-.323.519-.323h.346c1.038,0,2.076,0,2.6.646a1.634,1.634,0,0,1,.173,1.453" transform="translate(-151.2 -221.2)" fill="#263b80"/>
    <path id="Path_108" data-name="Path 108" d="M227.329,245.523h-2.768c-.173,0-.519.162-.519.323l-.173.807-.173-.323a4.233,4.233,0,0,0-3.287-1.13,6.508,6.508,0,0,0-6.4,5.329,4.579,4.579,0,0,0,1.038,4.037,4.528,4.528,0,0,0,3.633,1.292,5.709,5.709,0,0,0,3.979-1.453l-.173.807q0,.484.519.485h2.6a1.139,1.139,0,0,0,.865-.646l1.557-9.043c-.173-.161-.519-.484-.692-.484m-3.979,5.168a3.289,3.289,0,0,1-3.287,2.584,2.881,2.881,0,0,1-1.9-.646,3.268,3.268,0,0,1-.519-1.938,3.1,3.1,0,0,1,3.114-2.584,3.285,3.285,0,0,1,1.9.646,2.7,2.7,0,0,1,.692,1.938" transform="translate(-200.339 -240.355)" fill="#263b80"/>
  </g>
  <path id="Path_109" data-name="Path 109" d="M422.529,245.523h-2.768c-.173,0-.519.162-.519.323l-.173.807-.173-.323a4.233,4.233,0,0,0-3.287-1.13,6.508,6.508,0,0,0-6.4,5.329,4.579,4.579,0,0,0,1.038,4.037,4.528,4.528,0,0,0,3.633,1.292,5.708,5.708,0,0,0,3.979-1.453l-.173.807q0,.484.519.485h2.6a1.139,1.139,0,0,0,.865-.646l1.557-9.043c-.173-.161-.346-.484-.692-.484m-3.979,5.168a3.289,3.289,0,0,1-3.287,2.584,2.881,2.881,0,0,1-1.9-.646,3.267,3.267,0,0,1-.519-1.938,3.1,3.1,0,0,1,3.114-2.584,3.285,3.285,0,0,1,1.9.646,1.784,1.784,0,0,1,.692,1.938" transform="translate(-320.624 -233.572)" fill="#139ad6"/>
  <path id="Path_110" data-name="Path 110" d="M297.322,246.8h-2.941a.921.921,0,0,0-.692.323l-3.806,5.491-1.73-5.168a.8.8,0,0,0-.865-.484h-2.768c-.346,0-.519.323-.519.646l3.114,8.559-2.941,3.876c-.173.323,0,.807.346.807h2.768a.921.921,0,0,0,.692-.323l9.516-12.758c.519-.484.173-.969-.173-.969" transform="translate(-222.581 -234.85)" fill="#263b80"/>
  <path id="Path_111" data-name="Path 111" d="M477.622,222.072,475.2,236.607q0,.484.519.484h2.422a1.139,1.139,0,0,0,.865-.646l2.422-14.211q0-.484-.519-.484h-2.768c-.173-.162-.346,0-.519.323" transform="translate(-372.429 -214.805)" fill="#139ad6"/>
  <path id="Path_112" data-name="Path 112" d="M19.9,189.538c-1.211-1.292-3.46-1.938-6.575-1.938H4.671a1.46,1.46,0,0,0-1.211.969L0,209.724a.756.756,0,0,0,.692.807H6.056l1.384-7.913v.323a1.46,1.46,0,0,1,1.211-.969h2.6c5.017,0,8.824-1.938,10.035-7.267v-.485h0a5.384,5.384,0,0,0-1.384-4.683" transform="translate(0 -187.6)" fill="#263b80"/>
  <path id="Path_113" data-name="Path 113" d="M41.171,220.4h0v.484c-1.211,5.491-5.017,7.267-10.035,7.267h-2.6a1.46,1.46,0,0,0-1.211.969l-1.73,9.851a.612.612,0,0,0,.692.646h4.5c.519,0,1.038-.323,1.038-.807v-.162l.865-5.006v-.323c0-.484.519-.807,1.038-.807h.692c4.325,0,7.786-1.615,8.651-6.46.346-1.938.173-3.714-.865-4.845a1.744,1.744,0,0,0-1.038-.807" transform="translate(-20.063 -213.779)" fill="#139ad6"/>
  <path id="Path_114" data-name="Path 114" d="M46.857,216.084c-.173,0-.346-.161-.519-.161a.665.665,0,0,1-.519-.161,9.778,9.778,0,0,0-2.249-.161H36.822a.665.665,0,0,0-.519.161.881.881,0,0,0-.519.807l-1.384,8.4v.323a1.46,1.46,0,0,1,1.211-.969h2.6c5.017,0,8.824-1.938,10.035-7.267a.569.569,0,0,1,.173-.484,1.9,1.9,0,0,0-.865-.323,1.828,1.828,0,0,0-.692-.161" transform="translate(-26.96 -209.948)" fill="#232c65"/>
</svg>
