<svg id="DESKTOP-06_small" data-name="DESKTOP-06 small" xmlns="http://www.w3.org/2000/svg" width="152.359" height="101" viewBox="0 0 152.359 101">
  <path id="Trazado_94" data-name="Trazado 94" d="M4763,4969.443q0-24.089,7.829-34.771t27.075-10.686q19.241,0,26.807,10.553t7.566,34.77q0,24.224-7.632,34.9t-27.008,10.683q-19.378,0-27.008-10.683T4763,4969.443Zm36.9-19.842a4.169,4.169,0,0,0-4.512,0,5.556,5.556,0,0,0-1.328,2.92q-.929,3.981-.929,16.922t.862,16.721q.861,3.782,3.648,3.782t3.65-3.782q.861-3.781.862-13.736t-.2-13.8a36,36,0,0,0-.73-6.1A5.6,5.6,0,0,0,4799.895,4949.6Z" transform="translate(-4753.909 -4914.894)" fill="none" stroke="#f2f2f7" stroke-width="2"/>
  <path id="Trazado_95" data-name="Trazado 95" d="M4863.105,4948.273q-5.178,0-7.434,2.257t-2.653,6.768l1.326-.529a25.861,25.861,0,0,1,9.689-1.859q15.127,0,22.3,7.233t7.166,22.562q0,15.328-8.893,22.76t-24.418,7.432q-18.316,0-26.942-11.146t-8.625-33.444q0-26.675,10.883-37.027a30.045,30.045,0,0,1,11.545-7.165,40.891,40.891,0,0,1,13.006-2.126,116.708,116.708,0,0,1,26.278,3.452l4.91,1.063-2.124,22.029A176.346,176.346,0,0,0,4863.105,4948.273Zm-2.654,30.127a17.828,17.828,0,0,0-7.565,1.592q0,6.107,1.459,8.693t5.841,2.589q6.236,0,6.235-6.438T4860.451,4978.4Z" transform="translate(-4742.138 -4914.894)" fill="none" stroke="#f2f2f7" stroke-width="2"/>
  <path id="Trazado_98" data-name="Trazado 98" d="M4755.6,4962.169q0-24.088,7.829-34.771t27.074-10.685q19.242,0,26.808,10.551t7.566,34.772q0,24.221-7.633,34.9t-27.006,10.684q-19.378,0-27.009-10.684T4755.6,4962.169Zm36.895-19.84a4.165,4.165,0,0,0-4.513,0,5.561,5.561,0,0,0-1.326,2.92q-.933,3.983-.929,16.92t.861,16.723q.861,3.781,3.65,3.782t3.647-3.782q.863-3.781.863-13.735t-.2-13.8a36.435,36.435,0,0,0-.729-6.1A5.614,5.614,0,0,0,4792.491,4942.329Z" transform="translate(-4755.597 -4916.714)" fill="#f2f2f7"/>
  <path id="Trazado_99" data-name="Trazado 99" d="M4855.7,4941q-5.175,0-7.433,2.256t-2.652,6.769l1.327-.531a25.842,25.842,0,0,1,9.688-1.858q15.127,0,22.295,7.232t7.168,22.563q0,15.328-8.892,22.761t-24.42,7.43q-18.315,0-26.941-11.146t-8.626-33.445q0-26.675,10.884-37.028a30.08,30.08,0,0,1,11.545-7.165,40.909,40.909,0,0,1,13.006-2.125,116.728,116.728,0,0,1,26.276,3.451l4.91,1.063-2.122,22.03A176.079,176.079,0,0,0,4855.7,4941Zm-2.653,30.127a17.831,17.831,0,0,0-7.565,1.591q0,6.107,1.461,8.692t5.839,2.589q6.236,0,6.237-6.436T4853.049,4971.129Z" transform="translate(-4743.827 -4916.714)" fill="#f2f2f7"/>
</svg>
