<svg id="DESKTOP-3d-rotate" xmlns="http://www.w3.org/2000/svg" width="44" height="44.002" viewBox="0 0 44 44.002">
  <path id="Trazado_201" data-name="Trazado 201" d="M178.349,160.153l-10.138-3.65a1.2,1.2,0,0,0-.824,0l-10.138,3.65a1.217,1.217,0,0,0-.8,1.145v12.977a1.217,1.217,0,0,0,.8,1.145l10.138,3.65a1.224,1.224,0,0,0,.824,0l10.138-3.65a1.217,1.217,0,0,0,.8-1.145V161.3A1.217,1.217,0,0,0,178.349,160.153Zm-10.55-1.212,6.547,2.357-6.547,2.357-6.547-2.357Zm-8.922,4.088,7.705,2.774v10.391l-7.705-2.774Zm10.138,13.165V165.8l7.7-2.774V173.42Z" transform="translate(-145.799 -145.786)" fill="#161617"/>
  <path id="Trazado_202" data-name="Trazado 202" d="M122.917,89v2.822a21.755,21.755,0,0,0-15.584-6.488,21.992,21.992,0,0,0-21.06,28.355L88.9,112.9a19.25,19.25,0,0,1,18.429-24.813,19.024,19.024,0,0,1,13.456,5.5h-2.456v2.75h5.959a1.375,1.375,0,0,0,1.375-1.375V89Z" transform="translate(-85.333 -85.333)" fill="#161617"/>
  <path id="Trazado_203" data-name="Trazado 203" d="M153.173,206.692l-2.633.794A19.25,19.25,0,0,1,132.112,232.3a19.024,19.024,0,0,1-13.456-5.5h2.456v-2.75h-5.959a1.376,1.376,0,0,0-1.375,1.375v5.958h2.75V228.56a21.755,21.755,0,0,0,15.584,6.488,22,22,0,0,0,21.062-28.357Z" transform="translate(-110.112 -191.048)" fill="#161617"/>
</svg>
