<svg id="DESKTOP-Private" xmlns="http://www.w3.org/2000/svg" width="80" height="109" viewBox="0 0 80 109">
  <path id="DESKTOP-Private-2" data-name="DESKTOP-Private" d="M39.872,90.088A11.428,11.428,0,1,0,28.681,78.663,11.317,11.317,0,0,0,39.872,90.088m-.129-16.809a5.391,5.391,0,0,1,0,10.77A5.512,5.512,0,0,1,34.6,78.664a5.331,5.331,0,0,1,5.145-5.386m37.428-24.82a7.547,7.547,0,0,0-2.058-.919c-.259,0-.386-.131-.514-.131H72.411V33.224C72.411,14.838,57.879,0,39.872,0S7.33,14.838,7.33,33.224V47.408H5.145c-.259,0-.387,0-.514.131a7.547,7.547,0,0,0-2.058.919A5.948,5.948,0,0,0,0,53.317V91.271A17.645,17.645,0,0,0,17.364,109H62.636A17.641,17.641,0,0,0,80,91.271V53.449a8,8,0,0,0-2.828-4.99m-64.054-15.1h0c.13-14.97,12.092-27.184,26.627-27.184,14.661,0,26.494,12.213,26.494,27.184V47.539H12.991ZM73.7,91.139a11.511,11.511,0,0,1-11.446,11.687H17.106A11.51,11.51,0,0,1,5.661,91.139V53.449H73.442Z" fill="#e4e4ea"/>
</svg>
