<svg id="DESKTOP-_90" data-name="DESKTOP- 90" xmlns="http://www.w3.org/2000/svg" width="124.014" height="81.75" viewBox="0 0 124.014 81.75">
  <g id="_90" data-name=" 90" transform="translate(-4189.253 -4224.724)" style="isolation: isolate">
    <path id="Trazado_71" data-name="Trazado 71" d="M4214.326,4279.688q4.27,0,6.132-1.862a8.722,8.722,0,0,0,2.189-5.583l-1.095.438a21.3,21.3,0,0,1-7.993,1.533q-12.482,0-18.395-5.968t-5.912-18.612q0-12.647,7.336-18.778t20.146-6.131q15.109,0,22.226,9.2t7.117,27.592q0,22.007-8.867,30.547a25.741,25.741,0,0,1-9.637,5.913,33.764,33.764,0,0,1-10.729,1.751,99.986,99.986,0,0,1-21.68-2.737l-4.051-.984,1.752-18.176A145.241,145.241,0,0,0,4214.326,4279.688Zm2.19-24.854a14.72,14.72,0,0,0,6.24-1.314q0-5.036-1.2-7.172t-4.818-2.134q-5.148,0-5.146,5.31T4216.517,4254.834Z" transform="translate(6 6)" fill="none" stroke="#fff" stroke-width="1.5"/>
    <path id="Trazado_72" data-name="Trazado 72" d="M4249.642,4262.225q0-19.873,6.46-28.687t22.335-8.813q15.877,0,22.119,8.7t6.241,28.685q0,19.984-6.3,28.8t-22.28,8.813q-15.988,0-22.282-8.813T4249.642,4262.225Zm30.438-16.37a3.443,3.443,0,0,0-3.724,0,4.613,4.613,0,0,0-1.094,2.41q-.768,3.283-.768,13.96t.713,13.8q.711,3.122,3.011,3.121t3.01-3.121a59.744,59.744,0,0,0,.712-11.332q0-8.212-.164-11.387a29.786,29.786,0,0,0-.6-5.037A4.613,4.613,0,0,0,4280.08,4245.855Z" transform="translate(5.721 6)" fill="none" stroke="#fff" stroke-width="1.5"/>
    <path id="Trazado_71-2" data-name="Trazado 71" d="M4214.326,4279.688q4.27,0,6.132-1.862a8.722,8.722,0,0,0,2.189-5.583l-1.095.438a21.3,21.3,0,0,1-7.993,1.533q-12.482,0-18.395-5.968t-5.912-18.612q0-12.647,7.336-18.778t20.146-6.131q15.109,0,22.226,9.2t7.117,27.592q0,22.007-8.867,30.547a25.741,25.741,0,0,1-9.637,5.913,33.764,33.764,0,0,1-10.729,1.751,99.986,99.986,0,0,1-21.68-2.737l-4.051-.984,1.752-18.176A145.241,145.241,0,0,0,4214.326,4279.688Zm2.19-24.854a14.72,14.72,0,0,0,6.24-1.314q0-5.036-1.2-7.172t-4.818-2.134q-5.148,0-5.146,5.31T4216.517,4254.834Z" fill="#fff"/>
    <path id="Trazado_72-2" data-name="Trazado 72" d="M4249.642,4262.225q0-19.873,6.46-28.687t22.335-8.813q15.877,0,22.119,8.7t6.241,28.685q0,19.984-6.3,28.8t-22.28,8.813q-15.988,0-22.282-8.813T4249.642,4262.225Zm30.438-16.37a3.443,3.443,0,0,0-3.724,0,4.613,4.613,0,0,0-1.094,2.41q-.768,3.283-.768,13.96t.713,13.8q.711,3.122,3.011,3.121t3.01-3.121a59.744,59.744,0,0,0,.712-11.332q0-8.212-.164-11.387a29.786,29.786,0,0,0-.6-5.037A4.613,4.613,0,0,0,4280.08,4245.855Z" transform="translate(-0.279 0)" fill="#fff"/>
  </g>
</svg>
