<svg id="DESKTOP-YouTube_active" data-name="DESKTOP-YouTube active" xmlns="http://www.w3.org/2000/svg" width="32" height="22" viewBox="0 0 32 22">
  <path id="YouTube" d="M7210.276,6543.656a3.932,3.932,0,0,0-2.826-2.751c-2.46-.7-12.452-.7-12.452-.7s-9.991,0-12.453.7a3.925,3.925,0,0,0-2.822,2.751c-.725,2.4-.725,7.544-.725,7.544a37.056,37.056,0,0,0,.725,7.544,3.923,3.923,0,0,0,2.822,2.75c2.462.708,12.453.708,12.453.708s9.991,0,12.452-.708a3.931,3.931,0,0,0,2.826-2.75,43.1,43.1,0,0,0,.722-7.544A37.2,37.2,0,0,0,7210.276,6543.656Zm-18.607,12.2v-9.307L7200,6551.2Z" transform="translate(-7178.999 -6540.201)" fill="red"/>
  <path id="Shape" d="M7196.5,6559.486V6549.2l9,5.143Z" transform="translate(-7184 -6543.2)" fill="#fff"/>
</svg>
