<svg xmlns="http://www.w3.org/2000/svg" width="33.665" height="29" viewBox="0 0 33.665 29">
  <g id="DESKTOP-Arrow" transform="translate(0.5 0.5)">
    <path id="Arrow" d="M30.956,12.216H5.782l9.943-9.469A1.627,1.627,0,0,0,16.2,1.6,1.807,1.807,0,0,0,15.725.458,1.763,1.763,0,0,0,14.539,0a1.549,1.549,0,0,0-1.193.458L.5,12.81a1.669,1.669,0,0,0,0,2.379h0L13.345,27.543A1.539,1.539,0,0,0,14.539,28a1.539,1.539,0,0,0,1.186-.457,1.691,1.691,0,0,0,0-2.471L5.782,15.6H30.856a1.8,1.8,0,0,0,1.809-1.739A1.767,1.767,0,0,0,30.956,12.216Z" transform="translate(32.665 28) rotate(180)" fill="#fff" stroke="#fff" stroke-width="1"/>
  </g>
</svg>
