<svg id="DESKTOP-Profile_pic_-_TBo_-_Big" data-name="DESKTOP-Profile pic - TBo - Big" xmlns="http://www.w3.org/2000/svg" xmlns:xlink="http://www.w3.org/1999/xlink" width="160" height="160" viewBox="0 0 160 160">
  <defs>
    <clipPath id="clip-path">
      <circle id="Placeholder" cx="80" cy="80" r="80" transform="translate(162 419)" fill="#fff" stroke="#707070" stroke-width="1"/>
    </clipPath>
  </defs>
  <g id="DESKTOP-Profile_pic_-_TBo_-_Big-2" data-name="DESKTOP-Profile pic - TBo - Big" transform="translate(-162 -419)" clip-path="url(#clip-path)">
    <circle id="Background" cx="80" cy="80" r="80" transform="translate(162 419)" fill="#ff8c00"/>
    <g id="Logo" transform="translate(175.911 488.565)">
      <path id="Trazado_219" data-name="Trazado 219" d="M190.336,866c.219,0,.365.025.365.146v4.185c0,.121-.146.146-.365.146H165.988a.308.308,0,0,1-.267-.34v-3.819c0-.122.122-.316.267-.316H171.8v-9.365h-6.519v3.26c0,.17-.195.17-.341.17h-8.124c-.219,0-.389-.122-.389-.316v-7.176a.324.324,0,0,1,.292-.341h42.542c.267,0,.438.049.438.584v6.908c0,.17-.073.389-.292.389h-7.832c-.146,0-.267,0-.267-.292v-3.187h-6.981V866Z" transform="translate(-156.429 -851.019)" fill="#fff"/>
      <path id="Trazado_220" data-name="Trazado 220" d="M752.432,944.3c-.243,0-.389-.146-.389-.437v-4.208c0-.146.17-.267.438-.267H761.5a.338.338,0,0,1,.341.365v4.281c0,.195-.146.268-.511.268Z" transform="translate(-706.826 -931.552)" fill="#fff"/>
      <path id="Trazado_221" data-name="Trazado 221" d="M894.366,870.478c-.219,0-.389-.1-.389-.268v-3.7c0-.487.146-.681.438-.681h5.448v-9.194h-5.23c-.487,0-.608-.121-.608-.365v-3.381c0-.487.195-.657.438-.657h33.859c4.038,0,8.732,1.9,8.732,4.573,0,2.384-3.283,3.892-4.816,4.646.973.365,5.011.9,5.011,4.378,0,3.989-6.032,4.646-6.811,4.646ZM912.2,859.24h9.072c.706,0,1.8-.51,1.8-1.216s-1.459-1.313-2.457-1.313H912.2Zm0,6.738h8.2c1.483,0,2.676-.389,2.676-1.144,0-.851-1.435-1.435-2.481-1.435H912.2Z" transform="translate(-837.984 -851.019)" fill="#fff"/>
      <path id="Trazado_222" data-name="Trazado 222" d="M1504.686,855.724c-8.246,0-13.815-3.089-13.815-6.592,0-4.792,7.857-6.494,14.5-6.494h2.773c4.378,0,13.6,1.63,13.6,6.616,0,5.935-10.678,6.47-13.427,6.47Zm3.7-19.508a1.7,1.7,0,0,1,.438.122l5.205,2.992c.146.073.146.316-.1.438l-3.284,1.556a.294.294,0,0,1-.244-.024c-.583-.267-4.111-1.9-4.111-1.9s-3.5,1.63-4.086,1.9a.352.352,0,0,1-.268.024l-3.284-1.556c-.243-.122-.243-.365-.1-.438l5.23-2.992a1.553,1.553,0,0,1,.413-.122Zm-6.154,12.989c0,1.727,1.825,2.943,4.208,2.943,2.238,0,4.306-1.095,4.306-2.943,0-1.922-2.506-2.943-4.306-2.943C1504.394,846.263,1502.23,847.333,1502.23,849.206Z" transform="translate(-1389.564 -836.217)" fill="#fff"/>
    </g>
  </g>
</svg>
