<svg id="DESKTOP-Exit" xmlns="http://www.w3.org/2000/svg" width="58" height="58" viewBox="0 0 58 58">
  <circle id="Shadow" cx="28" cy="28" r="28" transform="translate(2 2)"/>
  <g id="Button" fill="#fff" stroke="#000" stroke-width="2">
    <circle cx="28" cy="28" r="28" stroke="none"/>
    <circle cx="28" cy="28" r="27" fill="none"/>
  </g>
  <path id="Trazado_213" data-name="Trazado 213" d="M3747.338,1831.415l-8.835-9.121a.828.828,0,0,0-1.165.006.959.959,0,0,0,0,1.318l7.431,7.6h-18.076a.938.938,0,0,0-.909.941.91.91,0,0,0,.851.857h18.134l-7.425,7.594a.889.889,0,0,0-.228.6,1.034,1.034,0,0,0,.244.611.917.917,0,0,0,.606.221.694.694,0,0,0,.525-.228l8.847-9.132A.927.927,0,0,0,3747.338,1831.415Zm-16.628,12.835H3718.2v-24.4h12.512a.8.8,0,1,0,0-1.6H3717.4a.8.8,0,0,0-.8.8v26a.8.8,0,0,0,.8.8h13.312a.8.8,0,1,0,0-1.6Z" transform="translate(-3702.598 -1803.25)"/>
</svg>
