<svg id="DESKTOP-Free" xmlns="http://www.w3.org/2000/svg" width="220.787" height="81.758" viewBox="0 0 220.787 81.758">
  <g id="Free" style="isolation: isolate">
    <path id="Trazado_63" data-name="Trazado 63" d="M0,73.581V0H53.045V20.756H25.479v11.86H46.455V53.374H25.479V73.581Z" transform="translate(5.994 6)" fill="none" stroke="#fff" stroke-width="1.5"/>
    <path id="Trazado_64" data-name="Trazado 64" d="M24.6,56.889H0V1.429H24.6V6.59Q31.517,0,36.24,0V22.844q-3.733,0-9.663,2.965L24.6,26.8Z" transform="translate(62.992 22.692)" fill="none" stroke="#fff" stroke-width="1.5"/>
    <path id="Trazado_65" data-name="Trazado 65" d="M24.6,36.351q.108,3.847,4.942,3.845,10.98,0,21.964-.659l4.283-.33.549,15.924a136.069,136.069,0,0,1-29.048,3.185q-14.441,0-20.866-6.644T0,30.147Q0,15.267,6.919,7.633T28.5,0Q43.16,0,50.3,6.261t7.14,19.219l-1.1,10.872Zm8.237-13.4a8.1,8.1,0,0,0-.934-4.5,3.7,3.7,0,0,0-3.24-1.319,3.545,3.545,0,0,0-3.185,1.319,9.042,9.042,0,0,0-.987,4.5Z" transform="translate(101.979 22.692)" fill="none" stroke="#fff" stroke-width="1.5"/>
    <path id="Trazado_66" data-name="Trazado 66" d="M24.6,36.351q.107,3.847,4.941,3.845,10.98,0,21.965-.659l4.283-.33.549,15.924a136.072,136.072,0,0,1-29.048,3.185q-14.441,0-20.866-6.644T0,30.147Q0,15.267,6.918,7.633T28.5,0Q43.16,0,50.3,6.261t7.138,19.219l-1.1,10.872Zm8.236-13.4a8.1,8.1,0,0,0-.934-4.5,3.7,3.7,0,0,0-3.24-1.319,3.545,3.545,0,0,0-3.185,1.319,9.061,9.061,0,0,0-.989,4.5Z" transform="translate(162.6 22.692)" fill="none" stroke="#fff" stroke-width="1.5"/>
    <path id="Trazado_63-2" data-name="Trazado 63" d="M0,73.581V0H53.045V20.756H25.479v11.86H46.455V53.374H25.479V73.581Z" fill="#fff"/>
    <path id="Trazado_64-2" data-name="Trazado 64" d="M24.6,56.889H0V1.429H24.6V6.59Q31.517,0,36.24,0V22.844q-3.733,0-9.663,2.965L24.6,26.8Z" transform="translate(56.998 16.692)" fill="#fff"/>
    <path id="Trazado_65-2" data-name="Trazado 65" d="M24.6,36.351q.108,3.847,4.942,3.845,10.98,0,21.964-.659l4.283-.33.549,15.924a136.069,136.069,0,0,1-29.048,3.185q-14.441,0-20.866-6.644T0,30.147Q0,15.267,6.919,7.633T28.5,0Q43.16,0,50.3,6.261t7.14,19.219l-1.1,10.872Zm8.237-13.4a8.1,8.1,0,0,0-.934-4.5,3.7,3.7,0,0,0-3.24-1.319,3.545,3.545,0,0,0-3.185,1.319,9.042,9.042,0,0,0-.987,4.5Z" transform="translate(95.984 16.692)" fill="#fff"/>
    <path id="Trazado_66-2" data-name="Trazado 66" d="M24.6,36.351q.107,3.847,4.941,3.845,10.98,0,21.965-.659l4.283-.33.549,15.924a136.072,136.072,0,0,1-29.048,3.185q-14.441,0-20.866-6.644T0,30.147Q0,15.267,6.918,7.633T28.5,0Q43.16,0,50.3,6.261t7.138,19.219l-1.1,10.872Zm8.236-13.4a8.1,8.1,0,0,0-.934-4.5,3.7,3.7,0,0,0-3.24-1.319,3.545,3.545,0,0,0-3.185,1.319,9.061,9.061,0,0,0-.989,4.5Z" transform="translate(156.605 16.692)" fill="#fff"/>
  </g>
</svg>
