<svg id="DESKTOP-05" xmlns="http://www.w3.org/2000/svg" width="149.464" height="98.3" viewBox="0 0 149.464 98.3">
  <path id="Trazado_189" data-name="Trazado 189" d="M4564.5,4969c0-15.9,2.592-27.33,7.775-34.4s14.136-10.6,26.74-10.6c12.723,0,21.558,3.534,26.505,10.484s7.54,18.377,7.54,34.4-2.474,27.447-7.54,34.516-13.9,10.6-26.741,10.6c-12.723,0-21.675-3.534-26.741-10.6C4567.092,4996.33,4564.5,4984.786,4564.5,4969Zm36.519-19.673a3.189,3.189,0,0,0-2.238-.707,3.4,3.4,0,0,0-2.238.707,6.257,6.257,0,0,0-1.3,2.945c-.589,2.592-.943,8.246-.943,16.728s.236,14.019.825,16.492,1.767,3.77,3.653,3.77,3.063-1.3,3.652-3.77.824-7.068.824-13.547-.118-11.074-.235-13.665a32.222,32.222,0,0,0-.707-6.008C4601.961,4950.742,4601.607,4949.8,4601.019,4949.328Z" transform="translate(-4556.101 -4916.701)" fill="none" stroke="#fff" stroke-width="2"/>
  <path id="Trazado_190" data-name="Trazado 190" d="M4690.42,4925.454v26.27h-37.107l-.707,5.772a35.673,35.673,0,0,1,11.662-2c10.131,0,17.553,2,22.265,6.127s7.068,11.427,7.068,21.793c0,20.144-10.956,30.157-32.867,30.157a108.513,108.513,0,0,1-14.843-1.3,136.476,136.476,0,0,1-14.136-2.593l-5.654-1.3,2.237-21.439a204.8,204.8,0,0,0,29.568,2.591c4.477,0,6.715-1.178,6.715-3.651,0-2.356-2.12-3.652-6.243-3.652a35.315,35.315,0,0,0-8.953,1.178l-1.53.353-19.437-2.356,1.886-56.309h60.078v.354Z" transform="translate(-4545.136 -4916.505)" fill="none" stroke="#fff" stroke-width="2"/>
  <path id="Trazado_193" data-name="Trazado 193" d="M4557.1,4961.7c0-15.9,2.591-27.33,7.775-34.4s14.136-10.6,26.741-10.6c12.723,0,21.558,3.534,26.505,10.484s7.539,18.377,7.539,34.4-2.474,27.448-7.539,34.516-13.9,10.6-26.741,10.6c-12.723,0-21.676-3.534-26.741-10.6C4559.692,4989.03,4557.1,4977.6,4557.1,4961.7Zm36.519-19.672a3.187,3.187,0,0,0-2.238-.707,3.394,3.394,0,0,0-2.239.707,6.263,6.263,0,0,0-1.3,2.945c-.589,2.591-.943,8.246-.943,16.728s.237,14.018.826,16.492,1.767,3.771,3.652,3.771,3.063-1.3,3.651-3.771.825-7.068.825-13.547-.118-11.073-.236-13.665a32.259,32.259,0,0,0-.707-6.007A6.28,6.28,0,0,0,4593.62,4942.028Z" transform="translate(-4557.101 -4916.701)" fill="#fff"/>
  <path id="Trazado_194" data-name="Trazado 194" d="M4683.021,4918.254v26.27h-37.107l-.707,5.772a35.671,35.671,0,0,1,11.662-2c10.131,0,17.552,2,22.265,6.125s7.068,11.427,7.068,21.793c0,20.144-10.955,30.157-32.866,30.157a108.422,108.422,0,0,1-14.843-1.3,136.607,136.607,0,0,1-14.136-2.591l-5.654-1.3,2.238-21.441a204.839,204.839,0,0,0,29.568,2.593c4.476,0,6.714-1.178,6.714-3.652,0-2.356-2.12-3.653-6.243-3.653a35.348,35.348,0,0,0-8.953,1.178l-1.531.354-19.437-2.356,1.884-56.309h60.079v.354Z" transform="translate(-4546.136 -4916.488)" fill="#fff"/>
</svg>
