<svg id="DESKTOP-Shop-unactive" xmlns="http://www.w3.org/2000/svg" width="34.364" height="42" viewBox="0 0 34.364 42">
  <path id="Shop-unactive" d="M3721.653,5091.847l-1.716-16.056,0-.022-.9-8.478a3.059,3.059,0,0,0-3.021-2.767h-4.1V5064a7.574,7.574,0,0,0-2.173-5.345,7.284,7.284,0,0,0-5.236-2.218A7.5,7.5,0,0,0,3697.1,5064v.525H3693a3.062,3.062,0,0,0-3.023,2.767l-2.624,24.556a6.037,6.037,0,0,0,1.454,4.613,5.781,5.781,0,0,0,4.333,1.976h22.72a5.784,5.784,0,0,0,4.335-1.976A6.034,6.034,0,0,0,3721.653,5091.847Zm-23.439-22.13a1.13,1.13,0,0,0,1.117-1.14v-1.771h10.354v1.771a1.117,1.117,0,1,0,2.233,0v-1.771h4.1a.812.812,0,0,1,.8.732l2.541,23.857H3689.65l2.551-23.857a.81.81,0,0,1,.8-.732h4.094v1.771A1.13,1.13,0,0,0,3698.214,5069.717Zm1.117-5.193V5064a5.178,5.178,0,1,1,10.354,0v.525Zm19.929,29.148a3.659,3.659,0,0,1-.724,1.267,3.564,3.564,0,0,1-2.673,1.216h-22.72a3.562,3.562,0,0,1-2.67-1.216,3.663,3.663,0,0,1-.725-1.267Z" transform="translate(-3687.322 -5056.436)" fill="#707070"/>
</svg>
