<svg id="DESKTOP-04_small" data-name="DESKTOP-04 small" xmlns="http://www.w3.org/2000/svg" width="153.277" height="101" viewBox="0 0 153.277 101">
  <path id="Trazado_88" data-name="Trazado 88" d="M4480.9,4833.016c0-16.058,2.656-27.647,7.847-34.77s14.247-10.746,27.044-10.746,21.731,3.5,26.8,10.506,7.606,18.591,7.606,34.768-2.535,27.768-7.606,34.891-14.125,10.745-27.042,10.745-21.974-3.622-27.044-10.745C4483.436,4860.662,4480.9,4849.072,4480.9,4833.016Zm36.822-19.92a3.259,3.259,0,0,0-2.293-.726,3.474,3.474,0,0,0-2.293.726,6.46,6.46,0,0,0-1.328,2.9c-.6,2.655-.966,8.329-.966,16.9s.242,14.246.844,16.781,1.811,3.743,3.623,3.743,3.018-1.208,3.622-3.743.846-7.123.846-13.764-.122-11.228-.242-13.763a35.841,35.841,0,0,0-.725-6.156A4.055,4.055,0,0,0,4517.722,4813.1Z" transform="translate(-4471.805 -4778.41)" fill="none" stroke="#f2f2f7" stroke-width="2"/>
  <path id="Trazado_89" data-name="Trazado 89" d="M4577.878,4876.429v-10.624H4541.9v-21.489l11.952-55.416h34.771l-17.145,51.914H4578l2.657-14.971,27.4-.964v15.936h3.38v24.991h-3.38v10.624h-30.182Z" transform="translate(-4459.162 -4778.119)" fill="none" stroke="#f2f2f7" stroke-width="2"/>
  <path id="Trazado_90" data-name="Trazado 90" d="M4473.9,4825.016c0-16.057,2.656-27.646,7.847-34.77s14.246-10.746,27.044-10.746,21.73,3.5,26.8,10.5,7.605,18.593,7.605,34.77-2.534,27.768-7.605,34.89-14.124,10.745-27.042,10.745-21.973-3.622-27.043-10.745C4476.436,4852.662,4473.9,4841.072,4473.9,4825.016Zm36.821-19.921a3.269,3.269,0,0,0-2.293-.724,3.483,3.483,0,0,0-2.294.724,6.46,6.46,0,0,0-1.328,2.9c-.6,2.655-.966,8.33-.966,16.9s.241,14.245.845,16.781,1.812,3.743,3.621,3.743,3.019-1.207,3.623-3.743.847-7.122.847-13.763-.123-11.228-.243-13.764a35.75,35.75,0,0,0-.725-6.156A4.062,4.062,0,0,0,4510.722,4805.095Z" transform="translate(-4473.9 -4779.5)" fill="#f2f2f7"/>
  <path id="Trazado_91" data-name="Trazado 91" d="M4570.876,4868.429V4857.8H4534.9v-21.49l11.952-55.414h34.771l-17.145,51.914H4571l2.656-14.971,27.406-.965v15.937h3.38v24.99h-3.38v10.625h-30.184Z" transform="translate(-4461.254 -4779.211)" fill="#f2f2f7"/>
</svg>
