<svg xmlns="http://www.w3.org/2000/svg" width="17" height="17" viewBox="0 0 17 17">
  <g id="DESKTOP-More_cart_unactive" data-name="DESKTOP-More cart unactive" transform="translate(0.5 0.5)">
    <path id="More_cart" data-name="More cart" d="M6584.3,4376.378h6.2a.9.9,0,1,0,0-1.8h-6.2V4368.4a.9.9,0,0,0-1.8,0v6.181h-6.2a.893.893,0,0,0-.9.9.907.907,0,0,0,.28.644,1.051,1.051,0,0,0,.644.276h6.2v6.183a.9.9,0,0,0,.279.643.984.984,0,0,0,.643.276.905.905,0,0,0,.9-.9v-6.225Z" transform="translate(-6575.399 -4367.5)" fill="#cecece" stroke="#cecece" stroke-width="1"/>
  </g>
</svg>
