<svg id="DESKTOP-Home-active" xmlns="http://www.w3.org/2000/svg" width="36" height="36" viewBox="0 0 36 36">
  <path id="Home-active" d="M3790.65,5070.655a.9.9,0,0,0-.116-.1l-16.917-14.085a1.214,1.214,0,0,0-1.3.012l-16.893,14.064a1.11,1.11,0,0,0-.31,1.526,1.081,1.081,0,0,0,1.506.313,1.106,1.106,0,0,0,.114-.087l2.245-1.888v20.784a1.059,1.059,0,0,0,1.023,1.09h9.3a1.071,1.071,0,0,0,1.065-1.042v-5.352a2.651,2.651,0,1,1,5.3,0v5.364a1.1,1.1,0,0,0,1.068,1.029h9.276a1.032,1.032,0,0,0,.718-.294,1.048,1.048,0,0,0,.326-.736.29.29,0,0,0,0-.055v-20.656l2.082,1.757a1.042,1.042,0,0,0,.612.206,1.132,1.132,0,0,0,.889-.439,1,1,0,0,0,.3-.7A.993.993,0,0,0,3790.65,5070.655Zm-17.6,10.475a4.849,4.849,0,0,0-4.74,4.809v4.182h-7.072v-21.515l11.815-9.863,11.858,9.952v21.426H3777.8v-4.184A4.824,4.824,0,0,0,3773.054,5081.13Z" transform="translate(-3754.929 -5056.283)" fill="#fff"/>
</svg>
