<svg id="DESKTOP-Back_from_Cart" data-name="DESKTOP-Back from Cart" xmlns="http://www.w3.org/2000/svg" width="38" height="38" viewBox="0 0 38 38">
  <rect id="Button" width="38" height="38" fill="#ff8c00"/>
  <path id="Trazado_117" data-name="Trazado 117" d="M7215.109,4164.983h-12.4l4.6-4.509a.794.794,0,0,0,.233-.573.788.788,0,0,0-.815-.8.864.864,0,0,0-.583.228l-5.979,5.884a.834.834,0,0,0,.02,1.107h0l5.978,5.885a.816.816,0,0,0,.583.23.9.9,0,0,0,.582-.23.768.768,0,0,0,0-1.128l-4.6-4.508h12.4a.834.834,0,0,0,.834-.821A.873.873,0,0,0,7215.109,4164.983Z" transform="translate(-7188.963 -4147.101)" fill="#fff" stroke="#fff" stroke-width="0.5"/>
</svg>
