<svg id="DESKTOP-Star-active" xmlns="http://www.w3.org/2000/svg" width="20" height="20" viewBox="0 0 20 20">
  <path id="Trazado_2" data-name="Trazado 2" d="M4178.939,5863.01a.533.533,0,0,0-.447-.4l-6.241-.917-2.805-5.893a.5.5,0,0,0-.494-.3h0a.515.515,0,0,0-.495.329l-2.759,5.915-6.24.963a.571.571,0,0,0-.45.4.649.649,0,0,0,.135.609l4.557,4.577-1.056,6.528a.634.634,0,0,0,.227.586.486.486,0,0,0,.313.095.492.492,0,0,0,.268-.071l5.59-3.074,5.589,3.051a.579.579,0,0,0,.247.072h0a.584.584,0,0,0,.56-.589c0-.069,0-.094-.021-.117l-1.1-6.48,4.533-4.625A.773.773,0,0,0,4178.939,5863.01Z" transform="translate(-4158.982 -5855.499)" fill="#ffc400"/>
</svg>
