<svg id="DESKTOP-01" xmlns="http://www.w3.org/2000/svg" width="146.441" height="104.227" viewBox="0 0 146.441 104.227">
  <path id="Trazado_43" data-name="Trazado 43" d="M3747.453,4834.17q0-24.727,8.038-35.693t27.791-10.966q19.75,0,27.518,10.831t7.765,35.69q0,24.864-7.833,35.83t-27.723,10.965q-19.892,0-27.723-10.965T3747.453,4834.17Zm37.872-20.367a4.278,4.278,0,0,0-4.632,0,5.728,5.728,0,0,0-1.362,3q-.955,4.086-.954,17.37t.885,17.164q.885,3.883,3.747,3.883t3.746-3.883q.885-3.883.886-14.1t-.2-14.167a37.138,37.138,0,0,0-.749-6.268A5.751,5.751,0,0,0,3785.325,4813.8Z" transform="translate(-3738.785 -4777.603)" fill="none" stroke="#fff" stroke-width="2"/>
  <path id="Trazado_44" data-name="Trazado 44" d="M3869.039,4788.94v89.775h-30.925v-56.672l-18.8,7.494-8.174-22.069,31.876-18.528Z" transform="translate(-3723.597 -4777.263)" fill="none" stroke="#fff" stroke-width="2"/>
  <path id="Trazado_45" data-name="Trazado 45" d="M3740.453,4826.171q0-24.728,8.038-35.693t27.791-10.967q19.75,0,27.518,10.831t7.765,35.69q0,24.864-7.833,35.83t-27.723,10.965q-19.892,0-27.723-10.965T3740.453,4826.171Zm37.872-20.367a4.275,4.275,0,0,0-4.632,0,5.725,5.725,0,0,0-1.362,3q-.955,4.087-.954,17.371t.885,17.163q.884,3.883,3.747,3.883t3.746-3.883q.884-3.882.886-14.1t-.2-14.166a37.145,37.145,0,0,0-.749-6.269A5.743,5.743,0,0,0,3778.324,4805.8Z" transform="translate(-3740.453 -4779.511)" fill="#fff"/>
  <path id="Trazado_46" data-name="Trazado 46" d="M3862.039,4780.94v89.775h-30.926v-56.671l-18.8,7.494-8.174-22.07,31.876-18.528Z" transform="translate(-3725.267 -4779.169)" fill="#fff"/>
</svg>
