<svg xmlns="http://www.w3.org/2000/svg" width="32.537" height="32.537" viewBox="0 0 32.537 32.537">
  <g id="DESKTOP-Send" transform="translate(0.713 0.711)">
    <path id="Send" d="M13.7,22a1.367,1.367,0,0,0,1.242-.947L21.9,2.024a1.7,1.7,0,0,0,0-1.142V.849A1.379,1.379,0,0,0,20.594,0a1.486,1.486,0,0,0-.523.1L1.016,7.084a1.559,1.559,0,0,0-.883.75A1.446,1.446,0,0,0,.787,9.727L8.24,13.676c.1.033.131.1.131.131l3.857,7.377a1.517,1.517,0,0,0,1.275.783l.2.033Zm-.131-1.893a.383.383,0,0,1-.327-.2l-3.367-6.4a.332.332,0,0,1,.1-.457L14.09,8.911h0a.67.67,0,1,0-.948-.947L8.959,12.142a.47.47,0,0,1-.458.1L2.095,8.813a.411.411,0,0,1-.2-.36.344.344,0,0,1,.261-.327L19.973,1.665a.312.312,0,0,1,.392.1.43.43,0,0,1,.1.392l-6.5,17.692a.425.425,0,0,1-.392.261Z" transform="translate(15.556) rotate(45)" fill="#fff" stroke="#fff" stroke-width="1"/>
  </g>
</svg>
