<svg xmlns="http://www.w3.org/2000/svg" width="17" height="17" viewBox="0 0 17 17">
  <g id="DESKTOP-More-white" transform="translate(0.5 0.5)">
    <path id="Trazado_6" data-name="Trazado 6" d="M6584.3,4376.377h6.2a.9.9,0,1,0,0-1.8h-6.2V4368.4a.9.9,0,0,0-1.8,0v6.181h-6.2a.893.893,0,0,0-.623,1.542,1.056,1.056,0,0,0,.643.278h6.2v6.181a.9.9,0,0,0,.278.642.987.987,0,0,0,.644.278.905.905,0,0,0,.9-.9v-6.225Z" transform="translate(-6575.399 -4367.5)" fill="#fff" stroke="#fff" stroke-width="1"/>
  </g>
</svg>
