<svg id="DESKTOP-Show_password" data-name="DESKTOP-Show password" xmlns="http://www.w3.org/2000/svg" width="20" height="14.117" viewBox="0 0 20 14.117">
  <path id="Trazado_214" data-name="Trazado 214" d="M4659.409,7137.517c-.07-.07-.236-.308-.353-.427a21.255,21.255,0,0,0-3.206-3.346,10.04,10.04,0,0,0-6.176-2.443,9.58,9.58,0,0,0-6.176,2.443,20.366,20.366,0,0,0-3.206,3.346,1.8,1.8,0,0,1-.353.427,1.469,1.469,0,0,0,0,1.685,1.646,1.646,0,0,0,.353.427,21.207,21.207,0,0,0,3.206,3.347,10.043,10.043,0,0,0,6.176,2.443,9.575,9.575,0,0,0,6.176-2.443,20.383,20.383,0,0,0,3.206-3.347,1.8,1.8,0,0,1,.353-.427A1.469,1.469,0,0,0,4659.409,7137.517Zm-9.781,4.509a3.63,3.63,0,1,1,3.606-3.631A3.618,3.618,0,0,1,4649.627,7142.025Z" transform="translate(-4639.674 -7131.301)" fill="#7d7f81"/>
</svg>
