<svg id="DESKTOP-Delete-filter" xmlns="http://www.w3.org/2000/svg" width="32" height="32" viewBox="0 0 32 32">
  <circle id="Elipse_1" data-name="Elipse 1" cx="16" cy="16" r="16" fill="#202122"/>
  <path id="Trazado_6" data-name="Trazado 6" d="M7.282,7.263h5.071a.735.735,0,1,0,0-1.47H7.282V.736a.737.737,0,0,0-1.475,0V5.793H.738a.731.731,0,0,0-.51,1.261.866.866,0,0,0,.527.227H5.825v5.057a.736.736,0,0,0,.228.526.81.81,0,0,0,.527.227.741.741,0,0,0,.737-.735V7.263Z" transform="translate(6.546 15.803) rotate(-45)" fill="#fff"/>
</svg>
