<svg xmlns="http://www.w3.org/2000/svg" width="291.001" height="201.002" viewBox="0 0 291.001 201.002">
  <g id="DESKTOP-02_gray" data-name="DESKTOP-02 gray" transform="translate(0.001)">
    <path id="Trazado_47" data-name="Trazado 47" d="M3991.92,4877.966q0-47.938,15.485-69.2t53.541-21.259q38.05,0,53.015,21t14.96,69.189q0,48.2-15.09,69.46t-53.409,21.258q-38.323,0-53.409-21.258T3991.92,4877.966Zm72.962-39.483a8.189,8.189,0,0,0-8.923,0q-1.574,1.323-2.624,5.809-1.839,7.924-1.837,33.675t1.705,33.274q1.708,7.526,7.218,7.528t7.217-7.528q1.7-7.527,1.706-27.333t-.393-27.465a72.279,72.279,0,0,0-1.444-12.151Q4066.453,4839.8,4064.882,4838.482Z" transform="translate(-3975.919 -4768.415)" fill="none" stroke="#f2f2f7" stroke-width="2"/>
    <path id="Trazado_48" data-name="Trazado 48" d="M4175.674,4965.182H4055.719v-45.4l22.786-22.171q7.329-6.866,14.143-13.723l11-11.087a65.692,65.692,0,0,0,8.119-10.03q3.664-5.539,4.32-8.313a24.685,24.685,0,0,0,.656-5.675q0-6.86-3.93-8.708t-13.88-1.85a190.561,190.561,0,0,0-34.572,2.906l-5.5,1.053-2.619-45.133a167.659,167.659,0,0,1,56.964-9.762q29.722,0,46.617,13.589t16.895,37.747q0,24.147-7.858,37.874t-29.332,28.77l-17.548,12.4h53.692Z" transform="translate(-3886.718 -4768.194)" fill="none" stroke="#f2f2f7" stroke-width="2"/>
    <path id="Trazado_49" data-name="Trazado 49" d="M3984.921,4869.966q0-47.936,15.484-69.194t53.542-21.261q38.049,0,53.015,21t14.96,69.189q0,48.2-15.09,69.462t-53.41,21.257q-38.323,0-53.409-21.257T3984.921,4869.966Zm72.962-39.484a8.189,8.189,0,0,0-8.923,0q-1.576,1.323-2.625,5.81-1.839,7.92-1.837,33.674t1.706,33.274q1.706,7.528,7.217,7.527t7.218-7.527q1.7-7.526,1.705-27.333t-.393-27.463a72.158,72.158,0,0,0-1.444-12.151Q4059.453,4831.8,4057.883,4830.482Z" transform="translate(-3984.921 -4779.509)" fill="#f2f2f7"/>
    <path id="Trazado_50" data-name="Trazado 50" d="M4168.675,4957.182H4048.72v-45.4l22.786-22.171q7.328-6.864,14.143-13.724l11-11.086a65.564,65.564,0,0,0,8.119-10.029q3.664-5.539,4.322-8.313a24.749,24.749,0,0,0,.655-5.677q0-6.858-3.929-8.707t-13.882-1.85a190.564,190.564,0,0,0-34.572,2.906l-5.5,1.054-2.619-45.134a167.614,167.614,0,0,1,56.965-9.763q29.723,0,46.621,13.59t16.891,37.745q0,24.147-7.858,37.877t-29.331,28.768l-17.548,12.4h53.692Z" transform="translate(-3896.72 -4779.292)" fill="#f2f2f7"/>
  </g>
</svg>
