<svg id="DESKTOP-03_gray" data-name="DESKTOP-03 gray" xmlns="http://www.w3.org/2000/svg" width="295" height="201" viewBox="0 0 295 201">
  <path id="Trazado_51" data-name="Trazado 51" d="M4236.39,4877.875q0-47.889,15.637-69.126t54.077-21.237q38.433,0,53.547,20.976t15.111,69.12q0,48.152-15.244,69.392t-53.942,21.235q-38.706,0-53.947-21.235T4236.39,4877.875Zm73.691-39.444a8.35,8.35,0,0,0-9.013,0q-1.591,1.323-2.651,5.8-1.856,7.913-1.856,33.64t1.724,33.24q1.723,7.521,7.292,7.521t7.288-7.521q1.724-7.518,1.723-27.3t-.4-27.437a71.558,71.558,0,0,0-1.457-12.139Q4311.668,4839.751,4310.081,4838.43Z" transform="translate(-4219.521 -4768.234)" fill="none" stroke="#f2f2f7" stroke-width="2"/>
  <path id="Trazado_52" data-name="Trazado 52" d="M4349.674,4787.511q38.963,0,56.592,11.082t17.63,39.045q0,14.514-3.581,22.163t-12.59,13.984q10.072,7.652,14.313,15.168t4.244,21.239q0,32.982-17.23,45.511t-53.285,12.53a250.6,250.6,0,0,1-47.712-5.012l-8.747-1.848,1.589-46.17q30.48,2.644,43.474,2.638t17.231-1.448q4.237-1.443,4.241-6.331t-2.915-6.729q-2.922-1.849-11.134-2.642h-37.376V4854h34.99q14.316,0,14.315-8.049t-18.291-8.047q-12.464,0-36.582,1.85l-6.892.526-1.328-45.118Q4331.114,4787.515,4349.674,4787.511Z" transform="translate(-4132.281 -4768.234)" fill="none" stroke="#f2f2f7" stroke-width="2"/>
  <path id="Trazado_53" data-name="Trazado 53" d="M4229.39,4869.875q0-47.889,15.637-69.126t54.077-21.237q38.433,0,53.547,20.976t15.111,69.12q0,48.154-15.245,69.392t-53.941,21.236q-38.708,0-53.947-21.236T4229.39,4869.875Zm73.691-39.444a8.357,8.357,0,0,0-9.014,0q-1.589,1.323-2.65,5.8-1.858,7.913-1.856,33.64t1.724,33.24q1.723,7.521,7.292,7.52t7.288-7.52q1.724-7.518,1.722-27.3t-.4-27.437a71.442,71.442,0,0,0-1.458-12.139Q4304.668,4831.752,4303.081,4830.43Z" transform="translate(-4229.39 -4779.511)" fill="#f2f2f7"/>
  <path id="Trazado_54" data-name="Trazado 54" d="M4342.674,4779.511q38.963,0,56.593,11.083t17.63,39.045q0,14.511-3.581,22.163t-12.59,13.982q10.072,7.654,14.312,15.168t4.245,21.24q0,32.984-17.23,45.511t-53.285,12.531a250.6,250.6,0,0,1-47.712-5.013l-8.748-1.847,1.59-46.171q30.48,2.644,43.473,2.638t17.232-1.448q4.236-1.444,4.241-6.331t-2.917-6.729q-2.921-1.849-11.134-2.643h-37.376V4846h34.991q14.314,0,14.314-8.049t-18.291-8.047q-12.464,0-36.582,1.85l-6.891.525-1.328-45.117Q4324.115,4779.516,4342.674,4779.511Z" transform="translate(-4142.15 -4779.511)" fill="#f2f2f7"/>
</svg>
