<svg id="DESKTOP-Profile_pic_-_TBo" data-name="DESKTOP-Profile pic - TBo" xmlns="http://www.w3.org/2000/svg" xmlns:xlink="http://www.w3.org/1999/xlink" width="56" height="56" viewBox="0 0 56 56">
  <defs>
    <clipPath id="clip-path">
      <circle id="Placeholder" cx="28" cy="28" r="28" transform="translate(162 419)" fill="#fff" stroke="#707070" stroke-width="1"/>
    </clipPath>
  </defs>
  <g id="DESKTOP-Profile_pic_-_TBo-2" data-name="DESKTOP-Profile pic - TBo" transform="translate(-162 -419)" clip-path="url(#clip-path)">
    <circle id="Background" cx="28" cy="28" r="28" transform="translate(162 419)" fill="#ff8c00"/>
    <g id="Logo" transform="translate(166.869 443.348)">
      <path id="Trazado_219" data-name="Trazado 219" d="M168.3,857.053c.077,0,.128.009.128.051v1.465c0,.042-.051.051-.128.051h-8.522a.108.108,0,0,1-.094-.119v-1.337c0-.043.043-.111.094-.111h2.035v-3.278h-2.282v1.141c0,.06-.068.06-.119.06h-2.843c-.077,0-.136-.043-.136-.111v-2.511a.113.113,0,0,1,.1-.119h14.89c.094,0,.153.017.153.2v2.418c0,.06-.026.136-.1.136h-2.741c-.051,0-.094,0-.094-.1v-1.115h-2.443v3.278Z" transform="translate(-156.429 -851.809)" fill="#fff"/>
      <path id="Trazado_220" data-name="Trazado 220" d="M752.179,941.1c-.085,0-.136-.051-.136-.153v-1.473c0-.051.06-.094.153-.094h3.158a.118.118,0,0,1,.119.128v1.5c0,.068-.051.094-.179.094Z" transform="translate(-736.217 -936.643)" fill="#fff"/>
      <path id="Trazado_221" data-name="Trazado 221" d="M894.113,858.62c-.077,0-.136-.034-.136-.094v-1.294c0-.17.051-.238.153-.238h1.907v-3.218h-1.83c-.17,0-.213-.042-.213-.128v-1.183c0-.17.068-.23.153-.23H906c1.413,0,3.056.664,3.056,1.6,0,.834-1.149,1.362-1.686,1.626.341.128,1.754.315,1.754,1.532,0,1.4-2.111,1.626-2.384,1.626Zm6.24-3.933h3.175c.247,0,.63-.179.63-.426s-.511-.46-.86-.46h-2.946Zm0,2.358h2.869c.519,0,.937-.136.937-.4,0-.3-.5-.5-.868-.5h-2.937Z" transform="translate(-874.38 -851.809)" fill="#fff"/>
      <path id="Trazado_222" data-name="Trazado 222" d="M1495.706,843.045c-2.886,0-4.836-1.081-4.836-2.307,0-1.677,2.75-2.273,5.074-2.273h.971c1.532,0,4.759.57,4.759,2.316,0,2.077-3.738,2.264-4.7,2.264Zm1.294-6.828a.6.6,0,0,1,.153.043l1.822,1.047c.051.025.051.111-.034.153l-1.149.545a.1.1,0,0,1-.085-.008l-1.439-.664s-1.226.57-1.43.664a.123.123,0,0,1-.094.008l-1.149-.545c-.085-.043-.085-.128-.034-.153l1.83-1.047a.544.544,0,0,1,.145-.043Zm-2.154,4.546c0,.6.639,1.03,1.473,1.03.783,0,1.507-.383,1.507-1.03,0-.673-.877-1.03-1.507-1.03C1495.6,839.733,1494.847,840.108,1494.847,840.763Z" transform="translate(-1455.413 -836.217)" fill="#fff"/>
    </g>
  </g>
</svg>
