<svg id="DESKTOP-03_small" data-name="DESKTOP-03 small" xmlns="http://www.w3.org/2000/svg" width="149.484" height="101" viewBox="0 0 149.484 101">
  <path id="Trazado_51" data-name="Trazado 51" d="M4236.391,4832.967q0-24.089,7.865-34.772t27.2-10.683q19.332,0,26.934,10.551t7.6,34.77q0,24.221-7.667,34.906t-27.132,10.683q-19.469,0-27.135-10.683T4236.391,4832.967Zm37.066-19.842a4.2,4.2,0,0,0-4.534,0,5.579,5.579,0,0,0-1.333,2.92q-.933,3.98-.933,16.922t.868,16.721q.866,3.784,3.667,3.783t3.665-3.783q.868-3.781.867-13.735t-.2-13.8a35.924,35.924,0,0,0-.733-6.106A5.591,5.591,0,0,0,4273.457,4813.125Z" transform="translate(-4227.301 -4778.422)" fill="none" stroke="#f2f2f7" stroke-width="2"/>
  <path id="Trazado_52" data-name="Trazado 52" d="M4324.643,4787.512q19.6,0,28.465,5.574t8.867,19.642q0,7.3-1.8,11.148a18.323,18.323,0,0,1-6.333,7.034,26.4,26.4,0,0,1,7.2,7.63q2.133,3.782,2.134,10.684,0,16.592-8.667,22.895t-26.8,6.3a126.022,126.022,0,0,1-24-2.521l-4.4-.931.8-23.226q15.33,1.332,21.867,1.328t8.667-.729a3.027,3.027,0,0,0,2.133-3.184,3.7,3.7,0,0,0-1.466-3.385q-1.469-.93-5.6-1.328h-18.8v-23.49h17.6q7.2,0,7.2-4.049t-9.2-4.048q-6.27,0-18.4.931l-3.467.265-.668-22.7Q4315.307,4787.513,4324.643,4787.512Z" transform="translate(-4214.691 -4778.422)" fill="none" stroke="#f2f2f7" stroke-width="2"/>
  <path id="Trazado_53" data-name="Trazado 53" d="M4229.391,4824.967q0-24.088,7.865-34.772t27.2-10.683q19.333,0,26.935,10.552t7.6,34.77q0,24.221-7.667,34.906t-27.132,10.682q-19.471,0-27.135-10.682T4229.391,4824.967Zm37.065-19.841a4.2,4.2,0,0,0-4.533,0,5.571,5.571,0,0,0-1.333,2.919q-.935,3.981-.935,16.922t.868,16.721q.867,3.784,3.668,3.783t3.665-3.783q.866-3.782.866-13.734t-.2-13.8a35.88,35.88,0,0,0-.733-6.107A5.571,5.571,0,0,0,4266.456,4805.126Z" transform="translate(-4229.391 -4779.512)" fill="#f2f2f7"/>
  <path id="Trazado_54" data-name="Trazado 54" d="M4317.642,4779.512q19.6,0,28.466,5.575t8.867,19.641q0,7.3-1.8,11.148a18.3,18.3,0,0,1-6.333,7.034,26.414,26.414,0,0,1,7.2,7.629q2.131,3.785,2.134,10.686,0,16.591-8.666,22.893t-26.8,6.3a126.013,126.013,0,0,1-24-2.521l-4.4-.929.8-23.225q15.331,1.33,21.867,1.327t8.667-.73a3.026,3.026,0,0,0,2.133-3.184,3.7,3.7,0,0,0-1.467-3.385q-1.469-.93-5.6-1.329h-18.8v-23.488h17.6q7.2,0,7.2-4.049t-9.2-4.049q-6.27,0-18.4.931l-3.467.264-.669-22.694Q4308.306,4779.516,4317.642,4779.512Z" transform="translate(-4216.783 -4779.512)" fill="#f2f2f7"/>
</svg>
