<svg id="DESKTOP-Bamboo_Merin_wool" data-name="DESKTOP-Bamboo/Merin wool" xmlns="http://www.w3.org/2000/svg" width="65" height="66" viewBox="0 0 65 66">
  <path id="Path_256" data-name="Path 256" d="M4146.985,6143.982a7.263,7.263,0,0,1,3.669-.822,1.02,1.02,0,0,0,1.012-1.026v-4.928a.96.96,0,0,0-.282-.686,1.338,1.338,0,0,0-.951-.342h-.008a14.534,14.534,0,0,0-4.06.575v-6.7a1.027,1.027,0,0,0-1.026-1.025h-4.933a1.027,1.027,0,0,0-1.027,1.026v8.357a7.562,7.562,0,0,1-2.684-.8c-.575-.264-1.176-.5-1.794-.715v-6.841a1.027,1.027,0,0,0-1.027-1.025h-4.933a1.028,1.028,0,0,0-1.027,1.026v6.267a14.243,14.243,0,0,0-4.272,1.294l-.206.091v-7.654a1.028,1.028,0,0,0-1.028-1.025h-4.929a1.027,1.027,0,0,0-1.027,1.025v7.654l-.182-.079a14.3,14.3,0,0,0-4.3-1.307v-6.269a1.026,1.026,0,0,0-1.026-1.025h-4.93a1.028,1.028,0,0,0-1.027,1.025v6.838c-.616.214-1.23.458-1.849.744a7.311,7.311,0,0,1-2.632.777v-8.359a1.027,1.027,0,0,0-1.026-1.025h-4.932a1.028,1.028,0,0,0-1.027,1.025v6.7a13.83,13.83,0,0,0-4.268-.577,1.031,1.031,0,0,0-1.033,1.027v4.928a1.032,1.032,0,0,0,1.046,1.026h0a7.5,7.5,0,0,1,3.7.854l.548.238v5.786a14.071,14.071,0,0,0-4.268-.58,1.032,1.032,0,0,0-1.033,1.028v4.93a1.033,1.033,0,0,0,1.049,1.027h0a7.529,7.529,0,0,1,3.7.858l.545.236v5.789a14.649,14.649,0,0,0-4.268-.577,1.03,1.03,0,0,0-1.031,1.027v4.928a1.031,1.031,0,0,0,1.044,1.026h0a7.348,7.348,0,0,1,3.69.848c.162.072.356.16.565.247v5.786a14.554,14.554,0,0,0-4.268-.578,1.03,1.03,0,0,0-1.033,1.026v4.93a1.032,1.032,0,0,0,1.048,1.025h0a7.579,7.579,0,0,1,3.71.862l.542.23v7.315a1.029,1.029,0,0,0,1.027,1.026h4.934a1.028,1.028,0,0,0,1.026-1.026v-6.152a13.765,13.765,0,0,0,4.481-.973v7.125a1.029,1.029,0,0,0,1.027,1.026h4.93a1.027,1.027,0,0,0,1.026-1.026V6183.3a9.634,9.634,0,0,1,1.434.564,15.674,15.674,0,0,0,3.049,1.071v6.492a1.028,1.028,0,0,0,1.027,1.026h4.929a1.028,1.028,0,0,0,1.028-1.026v-6.492a15.354,15.354,0,0,0,3.056-1.078,9.565,9.565,0,0,1,1.422-.556v8.125a1.028,1.028,0,0,0,1.027,1.026h4.933a1.028,1.028,0,0,0,1.027-1.026V6184.3a13.725,13.725,0,0,0,4.478.974v6.159a1.032,1.032,0,0,0,1.027,1.016h4.933a1.028,1.028,0,0,0,1.026-1.026v-7.314l.567-.244a7.434,7.434,0,0,1,3.722-.849,1.02,1.02,0,0,0,1.012-1.026v-4.93a1.025,1.025,0,0,0-1.02-1.025,15.457,15.457,0,0,0-4.281.574v-5.784c.209-.089.413-.179.62-.271a7.29,7.29,0,0,1,3.669-.821,1.019,1.019,0,0,0,1.012-1.026v-4.932a1.1,1.1,0,0,0-1.241-1.028,14.518,14.518,0,0,0-4.06.577v-5.787l.563-.245a7.661,7.661,0,0,1,3.726-.85,1.021,1.021,0,0,0,1.012-1.027v-4.931a1.027,1.027,0,0,0-1.02-1.026,16.034,16.034,0,0,0-4.281.575v-5.787Zm-42,27.034v5.738a18.732,18.732,0,0,0-1.842.742,7.426,7.426,0,0,1-2.639.776v-6.28A13.789,13.789,0,0,0,4104.985,6171.016Zm0-7.548a18.839,18.839,0,0,0-1.811.727,7.6,7.6,0,0,1-2.67.791V6158.7a13.667,13.667,0,0,0,4.481-.974Zm0-13.288a18.987,18.987,0,0,0-1.842.743,7.406,7.406,0,0,1-2.639.776v-6.278a13.675,13.675,0,0,0,4.481-.979Zm6.983,19.833a9.965,9.965,0,0,1,1.458.568,15.529,15.529,0,0,0,3.025,1.064v5.927l-.2-.085a14.267,14.267,0,0,0-4.287-1.307Zm4.483-11.654v5.925l-.182-.079a14.3,14.3,0,0,0-4.3-1.308v-6.171a9.731,9.731,0,0,1,1.434.561A15.729,15.729,0,0,0,4116.452,6158.36Zm-4.483-8.75v-6.169a10.024,10.024,0,0,1,1.456.565,15.337,15.337,0,0,0,3.027,1.07V6151l-.214-.093A14.288,14.288,0,0,0,4111.968,6149.61Zm15.949,13.288a14.378,14.378,0,0,0-4.282,1.3l-.2.088,0-5.924a15.624,15.624,0,0,0,3.09-1.093,9.6,9.6,0,0,1,1.391-.539Zm-4.481,8.749a15.543,15.543,0,0,0,3.06-1.083,9.733,9.733,0,0,1,1.418-.551v6.17a14.028,14.028,0,0,0-4.261,1.292l-.217.093Zm0-20.651v-5.92a15.75,15.75,0,0,0,3.064-1.086,9.557,9.557,0,0,1,1.414-.549v6.168a14.039,14.039,0,0,0-4.255,1.291Zm11.465,20.021a13.376,13.376,0,0,0,4.478.974v6.28a7.542,7.542,0,0,1-2.673-.793,18.394,18.394,0,0,0-1.805-.722Zm4.478-12.313v6.283a7.61,7.61,0,0,1-2.681-.8,18.389,18.389,0,0,0-1.8-.717v-5.74A13.689,13.689,0,0,0,4139.379,6158.7Zm-4.478-8.521v-5.738a13.37,13.37,0,0,0,4.478.974v6.28a7.564,7.564,0,0,1-2.675-.792A18.688,18.688,0,0,0,4134.9,6150.183Z" transform="translate(-4086.667 -6126.45)"/>
  <path id="Path_257" data-name="Path 257" d="M4138.569,6189.174h4.93a.371.371,0,0,0,.372-.371v-7.743l.919-.394a7.96,7.96,0,0,1,4.023-.923.368.368,0,0,0,.357-.371v-4.928a.371.371,0,0,0-.371-.37,14.164,14.164,0,0,0-4.293.609l-.635.2v-7.1l.3-.127c.242-.1.471-.2.672-.291a8.047,8.047,0,0,1,3.97-.894.368.368,0,0,0,.357-.37v-4.931c0-.277-.306-.372-.586-.372a13.885,13.885,0,0,0-4.078.609l-.635.194v-7.1l.919-.4a8.191,8.191,0,0,1,4.023-.921.369.369,0,0,0,.357-.373v-4.928a.371.371,0,0,0-.371-.372,14.078,14.078,0,0,0-4.293.609l-.635.2v-7.1l.972-.418a7.922,7.922,0,0,1,3.97-.895.369.369,0,0,0,.357-.371v-4.929c0-.276-.306-.374-.586-.372a13.885,13.885,0,0,0-4.078.609l-.635.194v-7.577a.371.371,0,0,0-.372-.37h-4.93a.372.372,0,0,0-.371.372v9.065l-.53-.042a8.088,8.088,0,0,1-3.084-.875,18.087,18.087,0,0,0-1.837-.726l-.338-.111v-7.312a.37.37,0,0,0-.37-.37h-4.932a.373.373,0,0,0-.371.372v6.839l-.428.057a13.677,13.677,0,0,0-4.235,1.261l-1.125.5v-8.655a.372.372,0,0,0-.373-.37h-4.93a.37.37,0,0,0-.371.37v8.645l-1.124-.483a13.639,13.639,0,0,0-4.237-1.264l-.429-.057v-6.841a.371.371,0,0,0-.372-.37h-4.928a.371.371,0,0,0-.372.37v7.307l-.335.113a19.518,19.518,0,0,0-1.87.741,7.957,7.957,0,0,1-3.055.863l-.532.042v-9.067a.37.37,0,0,0-.37-.37h-4.931a.371.371,0,0,0-.371.37v7.582l-.636-.2a13.471,13.471,0,0,0-4.286-.61.372.372,0,0,0-.377.37v4.929a.372.372,0,0,0,.371.371,8.2,8.2,0,0,1,3.987.908l.942.409v7.1l-.636-.2a13.582,13.582,0,0,0-4.286-.613.375.375,0,0,0-.377.373v4.929a.372.372,0,0,0,.371.373,8.07,8.07,0,0,1,3.987.912l.942.4v7.1l-.636-.194a13.785,13.785,0,0,0-4.286-.61.373.373,0,0,0-.376.371v4.927a.371.371,0,0,0,.371.37,8.237,8.237,0,0,1,3.978.906c.182.081.41.182.652.283l.3.127v7.105l-.636-.2a13.6,13.6,0,0,0-4.286-.614.373.373,0,0,0-.377.371v4.928a.372.372,0,0,0,.371.371,8.077,8.077,0,0,1,3.988.914l.94.4v7.746a.371.371,0,0,0,.37.371h4.932a.371.371,0,0,0,.37-.371v-6.782l.476-.017a13.117,13.117,0,0,0,4.633-1.022l.683-.287v8.107a.371.371,0,0,0,.372.371h4.928a.371.371,0,0,0,.372-.371v-8.988l.623.172a10.319,10.319,0,0,1,1.745.662,14.949,14.949,0,0,0,3.04,1.055l.382.086v7.013a.371.371,0,0,0,.371.371h4.93a.372.372,0,0,0,.373-.371v-7.013l.382-.086a14.58,14.58,0,0,0,3.041-1.059,10.259,10.259,0,0,1,1.743-.657l.622-.17v8.985a.374.374,0,0,0,.371.371h4.932a.371.371,0,0,0,.37-.371v-8.1l.682.287a13.1,13.1,0,0,0,4.632,1.021l.475.018v6.781A.372.372,0,0,0,4138.569,6189.174Zm-34.757-14.567-.335.113a18.374,18.374,0,0,0-1.864.741,8.125,8.125,0,0,1-3.061.864l-.532.039v-7.622l.476-.017a13.074,13.074,0,0,0,4.633-1.024l.683-.287Zm0-13.283-.335.112a18.274,18.274,0,0,0-1.836.729,8.206,8.206,0,0,1-3.088.876l-.532.043v-7.627l.476-.018a13.139,13.139,0,0,0,4.633-1.021l.683-.289Zm0-13.285-.335.112a18.161,18.161,0,0,0-1.864.743,8.111,8.111,0,0,1-3.061.861l-.532.041v-7.62l.476-.017a13.039,13.039,0,0,0,4.633-1.026l.683-.288Zm11.462,27.915-1.141-.495a13.552,13.552,0,0,0-4.22-1.262l-.429-.056v-7.607l.623.174a10.643,10.643,0,0,1,1.767.666,14.925,14.925,0,0,0,3.018,1.047l.382.089Zm0-13.285-1.124-.488a13.538,13.538,0,0,0-4.237-1.267l-.429-.055v-7.615l.624.177a10.645,10.645,0,0,1,1.742.66,14.951,14.951,0,0,0,3.042,1.056l.382.087Zm0-13.282-1.153-.506a13.7,13.7,0,0,0-4.208-1.254l-.429-.055v-7.609l.623.173a10.7,10.7,0,0,1,1.767.665,14.706,14.706,0,0,0,3.018,1.053l.382.087Zm5.674-7.444.38-.088a14.952,14.952,0,0,0,3.05-1.066,10.235,10.235,0,0,1,1.735-.651l.622-.171v7.606l-.43.054a13.483,13.483,0,0,0-4.224,1.264l-1.1.469-.036-.726Zm5.788,32.2-.43.056a13.442,13.442,0,0,0-4.23,1.263l-1.113.475-.015-.734v-6.691l.38-.088a14.746,14.746,0,0,0,3.048-1.065,10.631,10.631,0,0,1,1.735-.65l.624-.173Zm0-13.285-.43.057a13.731,13.731,0,0,0-4.232,1.262c-.161.072-.3.137-.442.2l-.684.293v-7.441l.38-.087a14.853,14.853,0,0,0,3.079-1.075,10.357,10.357,0,0,1,1.708-.64l.624-.174Zm5.67-20.014.685.293a12.762,12.762,0,0,0,4.628,1.022l.476.015v7.623l-.53-.041a8.142,8.142,0,0,1-3.077-.867,18.318,18.318,0,0,0-1.846-.735l-.337-.11Zm0,13.292.682.286a13.126,13.126,0,0,0,4.632,1.02l.475.017v7.626l-.531-.043a8.18,8.18,0,0,1-3.082-.874,18.384,18.384,0,0,0-1.84-.729l-.337-.112Zm5.259,22.19a8.2,8.2,0,0,1-3.077-.87,17.8,17.8,0,0,0-1.846-.733l-.337-.111v-7.2l.685.292a12.742,12.742,0,0,0,4.628,1.023l.476.015v7.624Z" transform="translate(-4087.048 -6127.077)"/>
  <path id="Path_258" data-name="Path 258" d="M4106.9,6137.867a13.157,13.157,0,0,0,3.526,1.131h0a14.579,14.579,0,0,0,2.285.18h.191a14.918,14.918,0,0,0,2.284-.175,13.162,13.162,0,0,0,3.519-1.13,10.378,10.378,0,0,1,2.369-.815l.131-.027v-3.595l-.192.026a13.02,13.02,0,0,0-3.756,1.158,11.876,11.876,0,0,1-1.783.686l-.041.005a11.31,11.31,0,0,1-5.252,0l-.059-.013a11.915,11.915,0,0,1-1.764-.675,12.944,12.944,0,0,0-3.759-1.166l-.189-.027v3.6l.13.028A10.325,10.325,0,0,1,4106.9,6137.867Z" transform="translate(-4081.728 -6125.044)" fill="#fff"/>
  <path id="Path_259" data-name="Path 259" d="M4111.093,6135.986h.088a12.368,12.368,0,0,0,1.651-.13l.137-.021v-7.944H4109.4v7.944l.137.021A9.31,9.31,0,0,0,4111.093,6135.986Z" transform="translate(-4080.105 -6126.814)" fill="#fff"/>
  <path id="Path_260" data-name="Path 260" d="M4109.577,6138.8l-.182-.018v20.333l.139.021a10.52,10.52,0,0,0,3.3,0l.139-.021v-20.332l-.179.016A17.433,17.433,0,0,1,4109.577,6138.8Z" transform="translate(-4080.105 -6123.482)" fill="#fff"/>
  <path id="Path_261" data-name="Path 261" d="M4103.621,6147.061c.111,0,.229,0,.341,0l.264.006v-19.179h-3.574v19.444l.193-.034A15.993,15.993,0,0,1,4103.621,6147.061Z" transform="translate(-4082.822 -6126.814)" fill="#fff"/>
  <path id="Path_262" data-name="Path 262" d="M4095.825,6145.758l-.157.009v3.562l.174-.007a12.557,12.557,0,0,0,5.015-1.279l.451-.2a9.108,9.108,0,0,1,4.006-.8,12.492,12.492,0,0,1,1.333.07,9.143,9.143,0,0,1,3.079.915,14.973,14.973,0,0,0,2.529.927l.209.056v-3.7l-.11-.039c-.351-.126-.68-.27-1.044-.434l-.085-.036a12.585,12.585,0,0,0-4.562-1.257l-.152-.015c-.37-.027-.773-.042-1.2-.042a13.2,13.2,0,0,0-3.562.428,15.152,15.152,0,0,0-2.352.883A9.058,9.058,0,0,1,4095.825,6145.758Z" transform="translate(-4084.407 -6121.99)" fill="#fff"/>
  <path id="Path_263" data-name="Path 263" d="M4092.166,6135.043l.144.064a7.9,7.9,0,0,0,2.993.844l.179.012v-8.072h-3.573v7.041l.14.061C4092.087,6135.008,4092.126,6135.024,4092.166,6135.043Z" transform="translate(-4085.461 -6126.814)" fill="#fff"/>
  <path id="Path_264" data-name="Path 264" d="M4103.691,6147.244a7.6,7.6,0,0,0-2.931.476l-.107.039v20.151l.193-.036a16.138,16.138,0,0,1,2.775-.241c.117,0,.228,0,.343,0l.263.007v-20.388l-.24-.007c-.1,0-.19,0-.29,0Z" transform="translate(-4082.822 -6120.888)" fill="#fff"/>
  <path id="Path_265" data-name="Path 265" d="M4130.043,6135.11l.416-.183v-7.035h-3.574v8.071l.18-.012A7.8,7.8,0,0,0,4130.043,6135.11Z" transform="translate(-4074.782 -6126.814)" fill="#fff"/>
  <path id="Path_266" data-name="Path 266" d="M4126.883,6138.977v20.382l.18-.014a7.913,7.913,0,0,0,2.967-.835l.428-.187,0-19.907-.211.058a14.129,14.129,0,0,1-3.207.5Z" transform="translate(-4074.783 -6123.598)" fill="#fff"/>
  <path id="Path_267" data-name="Path 267" d="M4127.8,6139.2c.1,0,.205,0,.308,0a12.4,12.4,0,0,0,4.427-.813h0c.354-.135.678-.279.987-.415l.2-.09a9.13,9.13,0,0,1,3.57-.961l.157-.009v-3.56l-.172.006a12.3,12.3,0,0,0-4.215.929c-.115.047-.235.1-.353.151l-.474.208a10.4,10.4,0,0,1-8.879-.006c-.375-.167-.777-.344-1.229-.515l-.224-.085v3.844l.094.046A12.581,12.581,0,0,0,4127.8,6139.2Z" transform="translate(-4076.41 -6125.067)" fill="#fff"/>
  <path id="Path_268" data-name="Path 268" d="M4091.6,6137.893l.188.083c.306.135.632.278.984.415a12.429,12.429,0,0,0,4.424.814c.1,0,.2,0,.307,0a13.093,13.093,0,0,0,5.813-1.266l.093-.047v-3.843l-.225.085c-.406.152-.778.317-1.14.475l-.076.032a10.405,10.405,0,0,1-8.917.005l-.192-.085c-.192-.085-.4-.175-.618-.265a12.031,12.031,0,0,0-4.207-.93l-.173-.006v3.56l.155.009A9.121,9.121,0,0,1,4091.6,6137.893Z" transform="translate(-4086.781 -6125.067)" fill="#fff"/>
  <path id="Path_269" data-name="Path 269" d="M4118.375,6147.248l-.235.007v20.387l.265-.007.341,0a16.024,16.024,0,0,1,2.774.242l.194.036v-20.147l-.107-.042a7.753,7.753,0,0,0-2.927-.478C4118.57,6147.243,4118.473,6147.246,4118.375,6147.248Z" transform="translate(-4077.388 -6120.888)" fill="#fff"/>
  <path id="Path_270" data-name="Path 270" d="M4114.314,6144.829c-.354.155-.687.3-1.048.433l-.108.041v3.7l.208-.056a14.445,14.445,0,0,0,2.5-.917,9.336,9.336,0,0,1,3.124-.925,12.5,12.5,0,0,1,1.325-.069,9.092,9.092,0,0,1,4.005.807l.193.085c.083.034.167.071.247.109a12.565,12.565,0,0,0,5.021,1.28l.174.007v-3.56l-.155-.01a9.147,9.147,0,0,1-3.578-.961,14.474,14.474,0,0,0-2.353-.883,13.483,13.483,0,0,0-3.383-.432c-.48,0-.951.014-1.367.043a12.473,12.473,0,0,0-4.715,1.266Zm.086.142Z" transform="translate(-4079.048 -6121.989)" fill="#fff"/>
  <path id="Path_271" data-name="Path 271" d="M4118.746,6147.061a15.882,15.882,0,0,1,2.774.244l.194.034v-19.447h-3.575v19.179l.265-.006C4118.514,6147.064,4118.621,6147.061,4118.746,6147.061Z" transform="translate(-4077.388 -6126.814)" fill="#fff"/>
  <path id="Path_272" data-name="Path 272" d="M4127.042,6159.243l-.159.006v19.185h3.577v-19.746l-.211.058A14.156,14.156,0,0,1,4127.042,6159.243Z" transform="translate(-4074.783 -6117.414)" fill="#fff"/>
  <path id="Path_273" data-name="Path 273" d="M4126.221,6165.069a14.465,14.465,0,0,0-2.352-.88h0a13.486,13.486,0,0,0-3.4-.434c-.462,0-.938.012-1.352.043a12.5,12.5,0,0,0-4.716,1.266c-.41.188-.762.338-1.134.475l-.11.037v3.708l.208-.055a14.7,14.7,0,0,0,2.5-.918,9.245,9.245,0,0,1,3.122-.927,10.835,10.835,0,0,1,1.325-.068q.144-.005.291,0a8.975,8.975,0,0,1,3.715.811l.142.063c.1.043.2.086.3.132a12.623,12.623,0,0,0,5.022,1.279l.174.008v-3.56l-.155-.01A9.161,9.161,0,0,1,4126.221,6165.069Z" transform="translate(-4079.048 -6115.704)" fill="#fff"/>
  <path id="Path_274" data-name="Path 274" d="M4118.68,6167.518c-.11,0-.207,0-.306.007l-.235.008v8.079h3.575v-7.577l-.107-.041A7.363,7.363,0,0,0,4118.68,6167.518Z" transform="translate(-4077.388 -6114.591)" fill="#fff"/>
  <path id="Path_275" data-name="Path 275" d="M4091.909,6138.415v19.91l.4.175a7.974,7.974,0,0,0,3,.848l.18.015v-20.387l-.16-.006a14.094,14.094,0,0,1-3.205-.5Z" transform="translate(-4085.461 -6123.599)" fill="#fff"/>
  <path id="Path_276" data-name="Path 276" d="M4121.077,6157.33l.131-.028v-3.6l-.192.029a12.924,12.924,0,0,0-3.756,1.162,11.784,11.784,0,0,1-1.771.678l-.053.012a9.446,9.446,0,0,1-2.628.311,9.944,9.944,0,0,1-2.635-.313l-.04.16h0l-.007-.172a11.747,11.747,0,0,1-1.764-.673,12.8,12.8,0,0,0-3.759-1.164l-.189-.028v3.6l.13.026a10.165,10.165,0,0,1,2.357.813,13.285,13.285,0,0,0,3.529,1.132,15.767,15.767,0,0,0,2.378.18,15.952,15.952,0,0,0,2.382-.181,13.075,13.075,0,0,0,3.52-1.127A10.367,10.367,0,0,1,4121.077,6157.33Z" transform="translate(-4081.728 -6118.818)" fill="#fff"/>
  <path id="Path_277" data-name="Path 277" d="M4134.422,6143.5a12.2,12.2,0,0,0-3.668.718l-.109.039v3.882l.242-.122a9.04,9.04,0,0,1,3.551-.96l.157-.011v-3.553Z" transform="translate(-4073.554 -6121.982)" fill="#fff"/>
  <path id="Path_278" data-name="Path 278" d="M4130.754,6164.494l-.109.039v3.881l.242-.122a8.973,8.973,0,0,1,3.55-.959l.158-.009v-3.557l-.172.007A12.16,12.16,0,0,0,4130.754,6164.494Z" transform="translate(-4073.554 -6115.692)" fill="#fff"/>
  <path id="Path_279" data-name="Path 279" d="M4133.058,6154.567h0c-.12.049-.24.1-.359.155l-.459.2a10.346,10.346,0,0,1-8.857.006c-.385-.171-.8-.354-1.255-.526l-.224-.083v3.845l.094.045a12.562,12.562,0,0,0,5.807,1.264c.107,0,.215,0,.323,0a12.244,12.244,0,0,0,4.409-.819c.431-.16.811-.331,1.182-.5a9.084,9.084,0,0,1,3.577-.967l.158-.009v-3.556l-.172.007A12.255,12.255,0,0,0,4133.058,6154.567Z" transform="translate(-4076.41 -6118.84)" fill="#fff"/>
  <path id="Path_280" data-name="Path 280" d="M4109.577,6159.076l-.182-.018v19.259h3.574v-19.258l-.179.017A17.657,17.657,0,0,1,4109.577,6159.076Z" transform="translate(-4080.105 -6117.297)" fill="#fff"/>
  <path id="Path_281" data-name="Path 281" d="M4092.118,6158.747l-.21-.059v19.748h3.574V6159.25l-.16-.006A14.179,14.179,0,0,1,4092.118,6158.747Z" transform="translate(-4085.46 -6117.414)" fill="#fff"/>
  <path id="Path_282" data-name="Path 282" d="M4111.221,6165.064a12.586,12.586,0,0,0-4.71-1.267c-.425-.033-.9-.049-1.37-.043a13.716,13.716,0,0,0-3.387.428,15.4,15.4,0,0,0-2.353.883,9.1,9.1,0,0,1-3.577.966l-.157.009v3.561l.174-.009a12.544,12.544,0,0,0,5.013-1.277l.451-.2a8.923,8.923,0,0,1,4.007-.8,9.762,9.762,0,0,1,1.334.07,9.1,9.1,0,0,1,3.109.928,14.869,14.869,0,0,0,2.5.915l.208.055v-3.708l-.109-.037C4111.96,6165.393,4111.589,6165.23,4111.221,6165.064Z" transform="translate(-4084.407 -6115.703)" fill="#fff"/>
  <path id="Path_283" data-name="Path 283" d="M4091.573,6148.02l.24.123v-3.879l-.109-.042a11.975,11.975,0,0,0-3.667-.723l-.173,0v3.554l.155.011A9.047,9.047,0,0,1,4091.573,6148.02Z" transform="translate(-4086.781 -6121.983)" fill="#fff"/>
  <path id="Path_284" data-name="Path 284" d="M4088.038,6163.773l-.173-.007v3.56l.155.009a8.959,8.959,0,0,1,3.552.957l.24.122v-3.878l-.109-.041A12.005,12.005,0,0,0,4088.038,6163.773Z" transform="translate(-4086.781 -6115.692)" fill="#fff"/>
  <path id="Path_285" data-name="Path 285" d="M4103.7,6167.518h0c-.094,0-.185,0-.276,0a7.567,7.567,0,0,0-2.657.479l-.107.04v7.58h3.574v-8.081l-.3-.008C4103.853,6167.52,4103.774,6167.518,4103.7,6167.518Z" transform="translate(-4082.822 -6114.591)" fill="#fff"/>
  <path id="Path_286" data-name="Path 286" d="M4103.405,6158.164v-3.845l-.223.083c-.439.166-.831.339-1.219.51a9.3,9.3,0,0,1-4.464,1.005,9.4,9.4,0,0,1-4.418-.988l-.175-.078c-.2-.092-.423-.189-.662-.286a12.029,12.029,0,0,0-4.207-.928l-.173-.008v3.559l.155.01a9.116,9.116,0,0,1,3.575.967c.355.161.741.333,1.167.49a12.247,12.247,0,0,0,4.426.825q.155,0,.313,0l.254,0a12.84,12.84,0,0,0,5.557-1.271Z" transform="translate(-4086.781 -6118.841)" fill="#fff"/>
</svg>
