<svg id="DESKTOP-Size_chart_modal" data-name="DESKTOP-Size chart modal" xmlns="http://www.w3.org/2000/svg" xmlns:xlink="http://www.w3.org/1999/xlink" width="273.75" height="265.359" viewBox="0 0 273.75 265.359">
  <defs>
    <clipPath id="clip-path">
      <ellipse id="Shape" cx="128.169" cy="128.32" rx="128.169" ry="128.32" fill="#fff" stroke="#707070" stroke-width="1"/>
    </clipPath>
  </defs>
  <g id="Illustration" transform="translate(17.412 8.719)" clip-path="url(#clip-path)">
    <g id="Illustration-2" data-name="Illustration" transform="translate(43.682 -99.811)">
      <path id="Trazado_118" data-name="Trazado 118" d="M340.317,440.284c-4.43,10.652-1.083,19.362-2.551,26.219-4.554,21.435-23,41.562-24.945,56.4-.607,4.4,3.982,22.648,2.2,30.174-.955,4.019-7.009,18.277-12.359,33.431-4.718,13.394-8.86,27.464-8.444,35.789.86,17.733,2.1,16.428-.032,21.275l-23.161-15.983c2.963-18.85-4.878-74.161,1.464-95.82,2.647-8.963,11.279-21.752,13.606-34.609,2.359-12.853-2.615-51.036,0-76.3,2.359-22.616,8.476-64.466,13.858-76.3a37.454,37.454,0,0,1,17.779.544,67.178,67.178,0,0,1,29.406,16.748l.032.032c6.277,6.217,10.419,13.362,10.419,20.318C357.585,398.626,344.743,429.628,340.317,440.284Z" transform="translate(-269.931 -121.829)" fill="#e4e4ea" fill-rule="evenodd"/>
      <path id="Trazado_119" data-name="Trazado 119" d="M316.8,427.26c-4.43,10.652-1.083,19.362-2.551,26.219-4.554,21.435-23,41.562-24.945,56.4-.607,4.4,3.982,22.648,2.2,30.174-.956,4.019-7.009,18.277-12.359,33.431,2.675-12.345,5.222-25.9,5.414-33.015.192-7.5-5.1-22.3-4.238-29.761.416-3.667,4.622-10.175,5.289-13.81.608-3.286-.956-10.115,0-13.3,2.167-7.049,14.305-17.416,16.472-24.465,1.975-6.477-.86-20.386,0-27.115,2.707-21.307,21.538-83.187,21.538-83.187l.032.032c6.277,6.217,10.419,13.362,10.419,20.318C334.071,385.6,321.229,416.6,316.8,427.26Z" transform="translate(-246.418 -108.805)" fill="#cecece" fill-rule="evenodd"/>
      <path id="Trazado_120" data-name="Trazado 120" d="M381.174,627.577c-2.963-18.846,4.852-74.157-1.467-95.8-2.654-8.984-11.289-21.752-13.63-34.605-2.341-12.882,2.625-51.05,0-76.305-2.341-22.627-8.465-64.466-13.854-76.3a37.271,37.271,0,0,0-17.776.537c-18.877,4.773-39.843,21.467-39.843,37.091,0,16.442,12.838,47.434,17.268,58.082s1.073,19.38,2.54,26.244c4.543,21.414,23,41.558,24.945,56.389.593,4.407-3.979,22.63-2.2,30.17s21.7,51.445,20.828,69.214c-.878,17.74-2.117,16.413.025,21.272Z" transform="translate(-206.96 -121.83)" fill="#e4e4ea" fill-rule="evenodd"/>
      <path id="Trazado_121" data-name="Trazado 121" d="M352.547,627.577c-2.963-18.846,4.852-74.157-1.467-95.8-2.654-8.984-11.289-21.752-13.63-34.605-2.341-12.882,2.625-51.05,0-76.305-2.341-22.627-8.465-64.466-13.854-76.3a37.272,37.272,0,0,0-17.776.537,74.3,74.3,0,0,1,15.659,32.091c2.483,11.271,13.151,52.743-3.3,98.4,2.82,1.412,9.7,3.251,6.828,15.339,2.345-2.344,5.194.736,6.831,3.446,1.439,2.347,6.629,27.375,8.011,33.026,7.392,30.255-1.382,93.227,0,101.222l2.838,5.758Z" transform="translate(-178.333 -121.83)" fill="#cecece" fill-rule="evenodd"/>
      <path id="Trazado_122" data-name="Trazado 122" d="M438.163,320.541s-4.842,41.338-7.772,54.767c-1.851,8.518-7.936,21.787-12.586,33.524-1.435,3.606-2.711,7.081-3.727,10.207a55.6,55.6,0,0,0-1.563,5.84c-2.995,15.151-6.053,61.688-6.053,61.688H302.789s-3.058-46.537-6.053-61.688c-2.583-12.921-15.073-36.686-17.875-49.571-2.931-13.43-7.773-54.767-7.773-54.767l22.7-28.488,14.2-10.716c.32.16.64.32.959.512,14.717,7.782,29.978,24.017,45.687,46.761,15.7-22.744,30.966-38.98,45.687-46.761.32-.192.636-.352.956-.512l12.092,12.846Z" transform="translate(-266.98 -281.337)" fill="#e4e4ea" fill-rule="evenodd"/>
      <path id="Trazado_143" data-name="Trazado 143" d="M286.5,333.436s-2.941-11.694,1.585-13.821,19.655-.267,23.641-1.6,5.957-7.177,5.957-7.177v15.418s-12.668-4.008-19.307-4.008C288.022,322.25,286.5,333.436,286.5,333.436Z" transform="translate(-230.038 -205.909)" fill="#cecece" fill-rule="evenodd"/>
      <path id="Trazado_144" data-name="Trazado 144" d="M325.783,333.436s2.941-11.694-1.581-13.821-19.659-.267-23.641-1.6-5.957-7.177-5.957-7.177v15.418s12.664-4.008,19.3-4.008C324.263,322.25,325.783,333.436,325.783,333.436Z" transform="translate(-206.958 -205.909)" fill="#cecece" fill-rule="evenodd"/>
      <path id="Trazado_145" data-name="Trazado 145" d="M286.536,322.366c3.187,2.788,11.151,3.987,14.934,3.588s12.913,1,13.726-6.181c-.384,5.779-2.192,9.567-14.33,9.567S286.536,322.366,286.536,322.366Z" transform="translate(-227.55 -183.074)" fill="#cecece" fill-rule="evenodd"/>
      <path id="Trazado_146" data-name="Trazado 146" d="M323.261,322.366c-3.187,2.788-11.151,3.987-14.934,3.588s-12.913,1-13.723-6.181c.38,5.779,2.188,9.567,14.327,9.567S323.261,322.366,323.261,322.366Z" transform="translate(-206.958 -183.074)" fill="#cecece" fill-rule="evenodd"/>
      <path id="Trazado_147" data-name="Trazado 147" d="M298.4,331.365a5.248,5.248,0,0,1,5.059,3.788,5.017,5.017,0,0,0,.217-1.394,5.278,5.278,0,0,0-10.554,0,5.022,5.022,0,0,0,.22,1.394A5.245,5.245,0,0,1,298.4,331.365Z" transform="translate(-210.751 -160.577)" fill="#cecece" fill-rule="evenodd"/>
      <path id="Trazado_148" data-name="Trazado 148" d="M322.312,349.772c-.7,3.478-6.565,21.243-10.035,31.643H301.7c4.59-10.492,16.728-32.375,17.428-35.821.8-4.019-.8-10.78-6.373-23.125C319.318,328.24,323.3,344.764,322.312,349.772Z" transform="translate(-188.851 -176.184)" fill="#cecece" fill-rule="evenodd"/>
      <path id="Trazado_149" data-name="Trazado 149" d="M302.425,381.437C297.839,370.945,285.7,349.062,285,345.583c-.8-3.987.8-10.748,6.369-23.124-6.561,5.8-10.544,22.328-9.556,27.335.7,3.478,6.561,21.243,10.036,31.643Z" transform="translate(-239.983 -176.207)" fill="#cecece" fill-rule="evenodd"/>
      <path id="Trazado_150" data-name="Trazado 150" d="M328.071,344.56c-1.435,3.606-2.711,7.081-3.727,10.207-7.968-15.723-16.728-45.168-18.1-48.291C307.424,308.579,320.454,332,328.071,344.56Z" transform="translate(-177.246 -217.066)" fill="#cecece" fill-rule="evenodd"/>
      <path id="Trazado_151" data-name="Trazado 151" d="M276.819,344.56c1.432,3.606,2.707,7.081,3.726,10.207,7.964-15.723,16.728-45.168,18.1-48.291C297.465,308.579,284.432,332,276.819,344.56Z" transform="translate(-252.352 -217.066)" fill="#cecece" fill-rule="evenodd"/>
      <path id="Trazado_156" data-name="Trazado 156" d="M422.5,435.53c-22.238,4.186-46.532,7.177-69.072.9-.671-3.446-1.467-7.782-2.231-12.789v-.1c-1.084-6.861-2.1-14.994-2.707-23.637-.128-1.881-.256-3.795-.32-5.744l-.1,2.2v.064c-.8,16.172-4.206,29.316-6.213,40-25.63,4.282-48.628,4.481-68.244,0,2.007-17.448,6.021-49.663,16.916-79.9,1.659-4.591,5.769-17.48,5.769-17.48h104.12s5.382,13.4,6.753,17.992C412.374,374.93,422.5,418.082,422.5,435.53Z" transform="translate(-260.512 -133.805)" fill="#ff8c00" fill-rule="evenodd"/>
      <path id="Trazado_157" data-name="Trazado 157" d="M314.965,365.261v.064c-.8,16.172-4.206,29.317-6.213,40l-22.156,2.66c6.572-19.888,10.636-63.1,12.387-55.994C302.127,364.753,314.965,365.261,314.965,365.261Z" transform="translate(-227.397 -102.701)" fill="#f57b00" fill-rule="evenodd"/>
      <path id="Trazado_159" data-name="Trazado 159" d="M317.412,415.791c.988-14.354-9.144-76.746-9.144-76.746H312s5.382,13.4,6.753,17.992c5.194,17.893,15.325,61.045,15.325,78.493l-18.184,2.941C316.911,432.635,317.032,421.567,317.412,415.791Z" transform="translate(-172.082 -133.805)" fill="#f57b00" fill-rule="evenodd"/>
    </g>
  </g>
  <g id="Line" transform="translate(17.412 8.719)" fill="none" stroke="#202122" stroke-width="0.5">
    <ellipse cx="128.169" cy="128.32" rx="128.169" ry="128.32" stroke="none"/>
    <ellipse cx="128.169" cy="128.32" rx="127.919" ry="128.07" fill="none"/>
  </g>
  <rect id="White" width="46.429" height="70.805" transform="translate(0 68.734)" fill="#fff"/>
  <rect id="White-2" data-name="White" width="46.429" height="69.644" transform="translate(216.307)" fill="#fff"/>
</svg>
