<svg id="DESKTOP-05_small" data-name="DESKTOP-05 small" xmlns="http://www.w3.org/2000/svg" width="154.617" height="101" viewBox="0 0 154.617 101">
  <path id="Trazado_92" data-name="Trazado 92" d="M4564.526,4970.283q0-24.533,7.977-35.415t27.575-10.881q19.6,0,27.3,10.746t7.7,35.415q0,24.669-7.771,35.55t-27.509,10.882q-19.733,0-27.506-10.882T4564.526,4970.283Zm37.578-20.208a4.25,4.25,0,0,0-4.6,0,5.69,5.69,0,0,0-1.35,2.975q-.948,4.055-.948,17.233t.88,17.032q.875,3.853,3.715,3.852t3.719-3.852q.877-3.853.878-13.991t-.2-14.058a36.686,36.686,0,0,0-.744-6.217A5.7,5.7,0,0,0,4602.1,4950.075Z" transform="translate(-4555.268 -4916.58)" fill="none" stroke="#f2f2f7" stroke-width="2"/>
  <path id="Trazado_93" data-name="Trazado 93" d="M4692.356,4925.438v27.033H4654.1l-.675,5.947a36.255,36.255,0,0,1,12.029-2.028q15.678,0,22.98,6.354t7.3,22.438q0,31.091-33.792,31.089a109.77,109.77,0,0,1-15.275-1.284q-8.919-1.283-14.6-2.636l-5.812-1.352,2.3-22.033a214,214,0,0,0,30.413,2.7q6.894,0,6.894-3.716t-6.488-3.718a37.91,37.91,0,0,0-9.193,1.217l-1.619.4-20.006-2.433,1.893-57.986Z" transform="translate(-4542.117 -4916.27)" fill="none" stroke="#f2f2f7" stroke-width="2"/>
  <path id="Trazado_96" data-name="Trazado 96" d="M4557.125,4963.011q0-24.532,7.975-35.413t27.577-10.883q19.6,0,27.3,10.745t7.705,35.417q0,24.668-7.772,35.55t-27.509,10.881q-19.737,0-27.508-10.881T4557.125,4963.011ZM4594.7,4942.8a4.248,4.248,0,0,0-4.6,0,5.693,5.693,0,0,0-1.351,2.974q-.946,4.056-.947,17.233t.88,17.032q.876,3.854,3.716,3.854t3.718-3.854q.879-3.851.879-13.99t-.2-14.058a36.625,36.625,0,0,0-.744-6.218A5.7,5.7,0,0,0,4594.7,4942.8Z" transform="translate(-4557.125 -4916.715)" fill="#f2f2f7"/>
  <path id="Trazado_97" data-name="Trazado 97" d="M4684.956,4918.164V4945.2H4646.7l-.675,5.948a36.2,36.2,0,0,1,12.029-2.028q15.68,0,22.979,6.353t7.3,22.438q0,31.094-33.794,31.09a109.727,109.727,0,0,1-15.274-1.283q-8.922-1.286-14.6-2.636l-5.812-1.354,2.3-22.032a213.84,213.84,0,0,0,30.413,2.7q6.892,0,6.895-3.716t-6.49-3.717a37.881,37.881,0,0,0-9.19,1.217l-1.622.4-20-2.434,1.893-57.988Z" transform="translate(-4543.971 -4916.406)" fill="#f2f2f7"/>
</svg>
