<svg id="DESKTOP-Size-Pants" xmlns="http://www.w3.org/2000/svg" xmlns:xlink="http://www.w3.org/1999/xlink" width="255.998" height="256.012" viewBox="0 0 255.998 256.012">
  <defs>
    <clipPath id="clip-path">
      <ellipse id="Circle" cx="127.999" cy="128" rx="127.999" ry="128" transform="translate(0 0)" fill="none"/>
    </clipPath>
  </defs>
  <g id="Illustration" clip-path="url(#clip-path)">
    <g id="Illustration-2" data-name="Illustration" transform="translate(60.403 -146.253)">
      <path id="Trazado_122" data-name="Trazado 122" d="M3182.764,1802.615s-3.882,33.312-6.28,44.15c-1.484,6.845-6.394,17.569-10.162,27.037-1.142,2.852-2.17,5.7-2.969,8.214-.457,1.483-.914,3.194-1.256,4.677-2.4,12.207-4.909,53.619-4.909,53.619h-83.7s-2.512-41.412-4.91-53.619c-2.055-10.381-12.218-29.547-14.5-40.043-2.4-10.838-6.28-44.15-6.28-44.15l18.269-22.93,11.418-8.67a6.533,6.533,0,0,1,.8.456c11.875,6.275,24.207,19.394,36.881,37.761,12.674-18.253,25.006-31.487,36.881-37.761a4.945,4.945,0,0,1,.8-.456l9.82,10.267Z" transform="translate(-3047.8 -1770.9)" fill="#e4e4ea" fill-rule="evenodd"/>
      <path id="Trazado_147" data-name="Trazado 147" d="M3107.439,1891.982a4.387,4.387,0,0,1,4.111,3.08,3.875,3.875,0,0,0,.114-1.141,4.282,4.282,0,0,0-8.564,0c0,.456.114.685.114,1.141A4.644,4.644,0,0,1,3107.439,1891.982Z" transform="translate(-3039.957 -1754.171)" fill="#cecece" fill-rule="evenodd"/>
      <path id="Trazado_148" data-name="Trazado 148" d="M3141.371,1896.418c-.571,2.852-5.366,19.736-8.107,28.064H3124.7c3.768-8.442,13.474-28.749,14.044-31.487.685-3.194-.685-8.67-5.138-18.6C3139.087,1878.963,3142.17,1892.311,3141.371,1896.418Z" transform="translate(-3036.893 -1756.325)" fill="#cecece" fill-rule="evenodd"/>
      <path id="Trazado_149" data-name="Trazado 149" d="M3091.182,1924.482c-3.768-8.442-13.474-28.749-14.044-31.487-.685-3.194.685-8.67,5.138-18.6-5.367,4.677-8.45,18.025-7.765,22.018.571,2.852,5.367,19.736,8.107,28.064Z" transform="translate(-3044.025 -1756.325)" fill="#cecece" fill-rule="evenodd"/>
      <path id="Trazado_143" data-name="Trazado 143" d="M3085,1863.353s-2.4-9.469,1.256-11.18,15.871-.228,19.069-1.255,4.8-5.818,4.8-5.818v12.435s-10.277-3.194-15.529-3.194C3086.252,1854.34,3085,1863.353,3085,1863.353Z" transform="translate(-3042.634 -1760.451)" fill="#cecece" fill-rule="evenodd"/>
      <path id="Trazado_144" data-name="Trazado 144" d="M3132.12,1863.353s2.4-9.469-1.256-11.18-15.872-.228-19.069-1.255-4.8-5.818-4.8-5.818v12.435s10.276-3.194,15.529-3.194C3130.864,1854.34,3132.12,1863.353,3132.12,1863.353Z" transform="translate(-3039.404 -1760.451)" fill="#cecece" fill-rule="evenodd"/>
      <path id="Trazado_145" data-name="Trazado 145" d="M3086.7,1869.768c2.626,2.282,9.021,3.194,11.989,2.852,3.083-.342,10.391.8,11.076-5.02-.342,4.677-1.827,7.758-11.532,7.758S3086.7,1869.768,3086.7,1869.768Z" transform="translate(-3042.283 -1757.283)" fill="#cecece" fill-rule="evenodd"/>
      <path id="Trazado_146" data-name="Trazado 146" d="M3130.065,1869.768c-2.626,2.282-9.021,3.194-11.989,2.852-3.083-.342-10.391.8-11.076-5.02.342,4.677,1.827,7.758,11.533,7.758S3130.065,1869.768,3130.065,1869.768Z" transform="translate(-3039.404 -1757.283)" fill="#cecece" fill-rule="evenodd"/>
      <path id="Trazado_150" data-name="Trazado 150" d="M3153.784,1864.888c-1.142,2.852-2.17,5.7-2.969,8.214-6.509-12.663-13.474-36.506-14.616-38.9C3137.228,1835.911,3147.618,1854.734,3153.784,1864.888Z" transform="translate(-3035.262 -1761.986)" fill="#cecece" fill-rule="evenodd"/>
      <path id="Trazado_151" data-name="Trazado 151" d="M3062.3,1864.888c1.142,2.852,2.169,5.7,2.969,8.214,6.509-12.663,13.474-36.506,14.615-38.9C3078.971,1835.911,3068.466,1854.734,3062.3,1864.888Z" transform="translate(-3045.743 -1761.986)" fill="#cecece" fill-rule="evenodd"/>
      <path id="Trazado_210" data-name="Trazado 210" d="M3182.241,2172.062c-3.2-18.367,5.824-70.959,1.37-88.528-1.827-7.3-5.823-17.911-7.193-28.292-1.37-10.5,2.169-41.184.914-61.6-.914-15.287-6.965-41.3-11.19-55.216l-6.965-24.071c-.228-.8,0-2.053-1.941-1.711-2.741.342-37.338,1.711-42.59,1.711-5.138,0-34.141-.912-37.566-1.255s-6.166-1.027-6.508-.684-.457.8-.685,1.825v.228h0c-.8,3.537-2.4,11.751-3.654,18.6-2.626,14.26-8.107,45.861-7.194,60.92v.114c-.342,10.952,1.142,24.528,2.512,36.506,1.142,10.724-.343,19.964-.914,24.755-.685,6.046-1.256,11.979-2.854,18.025-1.028,3.993-2.969,7.415-3.654,10.5-2.4,10.5-.114,29.889,1.827,47.116,1.37,12.321,2.74,23.843,2.169,30.232a1.069,1.069,0,0,0,.571,1.027l19.525,11.636a1.031,1.031,0,0,0,.571.114.42.42,0,0,0,.342-.114,1.029,1.029,0,0,0,.685-.685c0-.115.114-.228.114-.344l1.713,1.027a1.032,1.032,0,0,0,.571.114.419.419,0,0,0,.342-.114,1.03,1.03,0,0,0,.686-.685c1.027-2.966.914-3.537.228-7.643-.342-2.054-.8-5.134-1.37-9.925-.685-5.248.914-14.717,4.8-28.863,1.6-5.818,3.425-11.636,4.91-16.314,1.713-5.59,2.969-9.583,3.312-11.408.685-3.993-.8-10.61-2.055-16.428-.685-3.422,2.512-6.617,2.512-7.872.343-5.589-.228-12.549,3.426-19.965,3.882-8.1,8.335-17.454,9.706-26.581a25.571,25.571,0,0,0-.229-7.187c-.457-3.993-.914-8.556.8-13.918a275.168,275.168,0,0,0,8.564-29.547,269.823,269.823,0,0,0,8.563,29.205c2.969,8.784-.228,15.629.571,21.219,2.4,17.455,12.332,34.681,13.017,46.774.228,3.537-.571,17.911.457,24.185,1.028,6.161,14.615,42.552,12.9,56.813-1.713,14.146-2.626,13.119-1.142,17.112" transform="translate(-3047.048 -1750.985)" fill="#ff8c00" fill-rule="evenodd"/>
      <path id="Trazado_211" data-name="Trazado 211" d="M3115.082,1959.086s-10.39-.456-12.9-10.609c-1.142-4.563-1.713,16.884-3.882,34-.685,3.879-1.37,7.644-1.941,11.18h0a111.344,111.344,0,0,0-1.484,12.435c-.343,5.476,2.74,16.428,1.484,21.79-1.37,5.818-10.619,14.831-11.989,20.649-.685,2.624,1.028,7.986.685,10.724-.343,2.966-3.426,8.442-3.54,11.408-.343,6.046,4.8,17.683,5.024,23.729.228,5.7-5.252,29.889-6.737,39.929,3.54-12.435,11.761-37.3,12.332-40.614,1.027-6.16.228-20.649.457-24.185.685-11.979,10.619-29.319,13.131-46.774.8-5.59-2.284-12.321.685-21.219C3114.626,1973.118,3114.4,1972.206,3115.082,1959.086Z" transform="translate(-3043.261 -1745.981)" fill="#f57b00" fill-rule="evenodd"/>
      <path id="Trazado_212" data-name="Trazado 212" d="M3172.564,2082.725c-1.827-7.3-5.709-17.911-7.194-28.406-1.37-10.5,1.827-41.982.571-62.517-1.028-18.253-14.159-67.536-18.155-77.233-.343-.913-.229-1.483-.685-1.939s-2.055-.114-2.74-.114l-11.761.57.913,1.141c5.938,7.758,18.955,33.084,20.667,42.781,1.6,9.241,8.792,42.895-6.166,79.173,2.169,1.255,7.65,2.966,4.91,12.549,1.941-1.825,4.225.8,5.367,2.966,1.028,1.939,4.339,22.36,5.252,26.924,4.91,24.641-4.452,75.065-3.54,81.569l2.055,4.791,8.335-5.02C3168.682,2144.786,3177.017,2100.408,3172.564,2082.725Z" transform="translate(-3035.772 -1750.975)" fill="#f57b00" fill-rule="evenodd"/>
    </g>
  </g>
  <ellipse id="Line" cx="127.657" cy="127.772" rx="127.657" ry="127.772" transform="translate(0.355 0.25)" fill="none" stroke="#202122" stroke-miterlimit="3.497" stroke-width="0.437"/>
</svg>
