<svg xmlns="http://www.w3.org/2000/svg" width="39.501" height="35.385" viewBox="0 0 39.501 35.385">
  <g id="DESKTOP-Quick-pre-order" transform="translate(0.25 0.25)">
    <path id="Trazado_33" data-name="Trazado 33" d="M5502.484,4562.463h5.731l-1.972,1.982a.862.862,0,0,0-.238.592.918.918,0,0,0,.238.6.834.834,0,0,0,.582.237.713.713,0,0,0,.583-.239l3.4-3.447a.859.859,0,0,0,.244-.6.847.847,0,0,0-.244-.6l-3.4-3.447a.766.766,0,0,0-.583-.239.712.712,0,0,0-.582.239.877.877,0,0,0,0,1.232l1.972,1.982h-5.709a.879.879,0,0,0-.855.89A.863.863,0,0,0,5502.484,4562.463Z" transform="translate(-5483.203 -4546.521)" fill="#fff" stroke="#fff" stroke-width="0.5"/>
    <path id="Trazado_34" data-name="Trazado 34" d="M5531.349,4558.141h0a1.022,1.022,0,0,0-.82-.411h-28.577l-1.232-4.867a1.091,1.091,0,0,0-1.06-.82h-5.831a1.178,1.178,0,0,0,0,2.355h4.984l1.244,4.907,4.4,17.11a1.12,1.12,0,0,0,1.085.82h20.6a1.183,1.183,0,0,0,1.1-.844l4.413-17.087A1.741,1.741,0,0,0,5531.349,4558.141Zm-6.158,16.627h-18.885l-3.771-14.867h26.557Z" transform="translate(-5492.664 -4552.042)" fill="#fff" stroke="#fff" stroke-width="0.5"/>
    <path id="Trazado_35" data-name="Trazado 35" d="M5502.442,4564.982a4.046,4.046,0,0,0-2.895,1.232,4.169,4.169,0,0,0,2.907,7.089h.01a4.157,4.157,0,0,0-.022-8.314Zm1.348,5.387a1.815,1.815,0,0,1-1.281.568h-.089a1.849,1.849,0,0,1-1.292-.547,1.9,1.9,0,0,1-.546-1.328,1.85,1.85,0,0,1,1.793-1.892h0a1.886,1.886,0,0,1,1.922,1.851v.027a1.86,1.86,0,0,1-.5,1.321Z" transform="translate(-5486.67 -4538.42)" fill="#fff" stroke="#fff" stroke-width="0.5"/>
    <path id="Trazado_36" data-name="Trazado 36" d="M5509.586,4564.982a4.048,4.048,0,0,0-2.894,1.232,4.169,4.169,0,0,0,2.909,7.089h.014a4.157,4.157,0,0,0-.026-8.314Zm0,5.953h-.009a1.847,1.847,0,0,1-1.307-.547,1.889,1.889,0,0,1,1.311-3.219h0a1.882,1.882,0,0,1,0,3.765Z" transform="translate(-5479.15 -4538.42)" fill="#fff" stroke="#fff" stroke-width="0.5"/>
  </g>
</svg>
