<svg xmlns="http://www.w3.org/2000/svg" xmlns:xlink="http://www.w3.org/1999/xlink" width="256.438" height="256.438" viewBox="0 0 256.438 256.438">
  <defs>
    <clipPath id="clip-path">
      <ellipse id="Circle" cx="128" cy="128" rx="128" ry="128" transform="translate(0)" fill="none"/>
    </clipPath>
  </defs>
  <g id="DESKTOP-Size-Tee" transform="translate(0.219 0.219)">
    <g id="Illustration" clip-path="url(#clip-path)">
      <g id="Illustration-2" data-name="Illustration" transform="translate(20.264 -48.343)">
        <path id="Trazado_204" data-name="Trazado 204" d="M2916.4,2189.2c-.458-3.429-1.145-7.657-1.947-15.2a96.508,96.508,0,0,1,1.26-27.2v-.229c4.351-33.829-1.6-50.971-2.862-54.057,4.351-37.029-1.26-77.943-6.87-96.571-5.152-23.429-24.73-27.886-33.889-30.057-9.846-2.286-36.407-10.629-40.3-13.6-1.946-1.486-2.175-8.914-2.061-16.114,2.977-4.457,4.465-10.4,5.61-15.543a4.371,4.371,0,0,0,1.946,1.371h.458c1.259.114,2.977-3.771,3.549-5.829s1.374-9.143.458-11.771c-.343-1.143-.916-1.372-1.488-1.257-.916-.229-2.061,1.028-2.519,1.714a2.482,2.482,0,0,1-.8.686c.229-3.428.343-6.743.8-10.171a39.724,39.724,0,0,0-1.832-20c-4.923-13.943-23.929-14.857-26.676-14.971h-.458c-2.633.114-21.753,1.029-26.676,14.971a42.449,42.449,0,0,0-1.832,20,98.73,98.73,0,0,1,.8,10.171,5,5,0,0,1-.8-.686c-.458-.686-1.6-1.943-2.519-1.714-.572-.115-1.145.114-1.488,1.257-.8,2.628-.114,9.714.458,11.771s2.4,5.943,3.549,5.829h.458c.687,0,1.488-.8,1.946-1.371,1.145,5.257,2.633,11.086,5.608,15.543.229,7.2-.114,14.629-2.061,16.114-3.892,2.971-30.454,11.314-40.3,13.6-9.159,2.171-28.736,6.629-33.889,30.057-5.61,18.629-11.22,59.428-6.869,96.571-1.26,3.2-7.213,20.229-2.862,54.057v.229a107.436,107.436,0,0,1,1.259,27.2c-.8,7.657-1.373,11.886-1.945,15.2-.345,2.743-.688,5.028-.917,7.885v.457c.116,1.143,1.489,11.086,4.007,14.971,2.862,4.343,11.105,7.772,15.685,8.572a28.135,28.135,0,0,0,3.551.228c2.518,0,5.608-.457,6.181-2.629.8-2.628-2.633-4.114-3.892-4.685-6.985-3.086-10.3-5.6-10.992-8.229-.687-2.857.688-11.2,2.175-13.029,1.03.571,1.03,1.029,1.03,2.743v1.371c.115,2.057,1.489,7.885,5.954,10.286a3.663,3.663,0,0,0,4.007-.343,3.607,3.607,0,0,0,1.259-3.771,37.067,37.067,0,0,0-2.4-6.171,65.839,65.839,0,0,0-1.832-10.057,31.73,31.73,0,0,0-7.9-12.686c-2.29-2.171,3.091-24.229,5.724-33.143,1.031-3.429,1.947-6.743,2.748-9.6,2.4-9.028,2.633-16.343,2.748-24.115.115-4-.343-8.571,0-9.943.229-.8.344-1.828.573-3.085V2094c1.946-5.029,6.869-18.172,8.586-26.743,1.946-9.371,3.091-18.857,5.839-22.286a1.8,1.8,0,0,0,.8-.8c.115,0,.115-.114.229-.114.458,1.029,1.03,2.171,1.488,3.2,2.29,6.629,5.839,14.514,8.7,21.828,1.145,3.086,2.29,6.057,3.091,8.572.458,1.6.916,3.314,1.374,4.914,2.519,12.8,5.152,52.114,5.152,52.114h88.042s2.633-39.314,5.152-52.114c.458-1.6.8-3.314,1.374-4.914.8-2.629,1.946-5.6,3.091-8.572,2.977-7.2,6.411-15.2,8.7-21.828.458-1.143,1.031-2.171,1.489-3.2.114,0,.114.114.229.114.115.229.229.343.458.343,2.977,2.972,4.121,12.8,6.182,22.629,1.832,8.571,6.641,21.714,8.587,26.743v.229c.229,1.257.343,2.286.572,3.086.344,1.371-.114,5.943,0,9.943.115,7.771.344,15.086,2.748,24.114q1.2,4.286,2.748,9.6c2.633,8.914,8.129,30.971,5.725,33.143a30.97,30.97,0,0,0-7.9,12.686,57.739,57.739,0,0,0-1.832,10.057,25.651,25.651,0,0,0-2.405,6.172,3.641,3.641,0,0,0,5.268,4.114c4.58-2.4,5.839-8.229,5.953-10.286v-1.371c0-1.714,0-2.286,1.03-2.743,1.488,1.828,2.862,10.286,2.175,13.029-.687,2.628-4.122,5.143-10.991,8.229-1.259.571-4.694,2.057-3.893,4.686.687,2.171,3.664,2.629,6.183,2.629a28.067,28.067,0,0,0,3.549-.229c4.58-.8,12.823-4.229,15.685-8.572,2.633-3.885,3.893-13.828,4.007-14.971v-.457A22.068,22.068,0,0,0,2916.4,2189.2Z" transform="translate(-2700.699 -1856.514)" fill="#e4e4ea"/>
        <path id="Trazado_205" data-name="Trazado 205" d="M2797.292,1948.2c14.884,0,21.3-15.543,21.181-17.371v-4.114c.115-.229-8.358,14.171-19.921,14.171-10.991,0-21.066-14.514-20.951-14.286v3.429C2777.829,1931.515,2782.523,1948.2,2797.292,1948.2Z" transform="translate(-2689.556 -1847.057)" fill="#cecece"/>
        <path id="Trazado_206" data-name="Trazado 206" d="M2814.1,1859.4a47.511,47.511,0,0,0-14.311-2.4,51.371,51.371,0,0,0-14.311,2.4c-20.15,6.514-18.09,15.429-17.746,24.229a98.118,98.118,0,0,0,2.748,19.886,3.165,3.165,0,0,1,.114,1.029,29.387,29.387,0,0,1,2.4,10.857c1.145.229,2.862-1.828,2.748-3.2-.229-2.286-.687-5.143-1.145-10.629-.229-2.286.344-6.514.573-10.971.573-11.771,2.633-11.886,10.762-13.828a15.635,15.635,0,0,1,11.22,1.028,4.734,4.734,0,0,0,5.267,0c2.748-1.486,6.64-2.057,11.22-1.028,4.122,1.028,6.64,1.486,8.243,3.2s6.869,0,6.641,9.6c-.115,4.457-3.435,9.6-3.549,12-.458,5.486-.916,8.457-1.145,10.629-.114,1.371,1.6,3.314,2.748,3.2a29.377,29.377,0,0,1,2.4-10.857,3.159,3.159,0,0,0,.115-1.029,96.789,96.789,0,0,0,2.748-19.886C2832.186,1874.829,2834.247,1865.914,2814.1,1859.4Z" transform="translate(-2691.019 -1857)" fill="#cecece"/>
        <path id="Trazado_118" data-name="Trazado 118" d="M2790.549,2194.385c-3.778,9.029-.916,16.343-2.175,22.172-3.893,18.057-19.463,35.2-21.066,47.657-.458,3.771,3.435,19.086,1.832,25.486-.8,3.428-5.954,15.428-10.533,28.228-4.007,11.314-7.556,23.2-7.1,30.286.8,14.971,1.832,13.828,0,18.057l-19.692-13.486c2.519-16-4.121-62.743,1.261-81.029,2.174-7.657,9.616-18.4,11.563-29.257,2.061-10.857-2.175-43.085,0-64.457,2.061-19.085,7.213-54.514,11.792-64.457a32.17,32.17,0,0,1,15.113.457,55.264,55.264,0,0,1,24.845,14.171h0c5.381,5.257,8.816,11.314,8.816,17.143C2805.089,2159.185,2794.327,2185.471,2790.549,2194.385Z" transform="translate(-2696.322 -1820.442)" fill="#e4e4ea" fill-rule="evenodd"/>
        <path id="Trazado_119" data-name="Trazado 119" d="M2787.043,2192.471c-3.778,9.029-.916,16.343-2.175,22.172-3.893,18.057-19.463,35.2-21.066,47.657-.458,3.771,3.435,19.085,1.832,25.486-.8,3.428-5.954,15.428-10.533,28.229,2.29-10.4,4.351-21.943,4.58-27.886.115-6.286-4.351-18.857-3.549-25.143.344-3.086,3.893-8.572,4.465-11.657.458-2.743-.8-8.571,0-11.2,1.832-5.943,12.136-14.743,13.968-20.686,1.717-5.486-.8-17.257,0-22.857,2.29-18.057,18.2-70.286,18.2-70.286h0c5.381,5.257,8.816,11.314,8.816,17.143C2801.583,2157.271,2790.821,2183.557,2787.043,2192.471Z" transform="translate(-2692.816 -1818.529)" fill="#cecece" fill-rule="evenodd"/>
        <path id="Trazado_120" data-name="Trazado 120" d="M2869.088,2352.691c-2.519-15.886,4.122-62.743-1.26-81.029-2.29-7.657-9.617-18.4-11.563-29.257s2.175-43.086,0-64.457c-1.947-19.086-7.213-54.514-11.792-64.458a30.752,30.752,0,0,0-15.113.458c-16.029,4.114-33.66,18.171-33.66,31.314,0,13.829,10.876,40.114,14.655,49.143,3.778,8.915.916,16.343,2.061,22.172,3.778,18.057,19.463,35.2,21.066,47.657.458,3.771-3.435,19.086-1.832,25.486,1.488,6.286,18.318,43.428,17.631,58.514-.8,14.971-1.832,13.828,0,18.057Z" transform="translate(-2686.934 -1820.463)" fill="#e4e4ea" fill-rule="evenodd"/>
        <path id="Trazado_121" data-name="Trazado 121" d="M2864.828,2352.691c-2.519-15.886,4.122-62.743-1.26-81.029-2.29-7.657-9.617-18.4-11.563-29.257s2.175-43.086,0-64.457c-1.947-19.086-7.213-54.514-11.792-64.458a30.752,30.752,0,0,0-15.113.458,62.638,62.638,0,0,1,13.281,27.086c2.061,9.6,11.22,44.571-2.748,83.2,2.4,1.143,8.243,2.743,5.724,12.914,1.946-1.943,4.351.571,5.725,2.857,1.145,1.943,5.61,23.2,6.755,27.886,6.3,25.6-1.145,78.742,0,85.486l2.4,4.914Z" transform="translate(-2682.674 -1820.463)" fill="#cecece" fill-rule="evenodd"/>
        <path id="Trazado_156" data-name="Trazado 156" d="M2866.639,2182.085c-18.776,3.543-39.384,6.057-58.5.8-.572-2.857-1.26-6.629-1.832-10.857v-.114c-.916-5.829-1.832-12.686-2.29-20-.115-1.6-.229-3.2-.229-4.8l-.115,1.829v.114c-.687,13.714-3.549,24.8-5.266,33.829-21.639,3.657-41.1,3.771-57.7,0,1.717-14.743,5.038-42.057,14.311-67.543,1.488-3.885,4.923-14.743,4.923-14.743h88.042s4.58,11.314,5.725,15.2C2858.052,2130.771,2866.639,2167.229,2866.639,2182.085Z" transform="translate(-2694.903 -1822.2)" fill="#e4e4ea" fill-rule="evenodd"/>
        <path id="Trazado_157" data-name="Trazado 157" d="M2798.743,2144.37h0c-.687,13.714-3.549,24.8-5.267,33.943L2774.7,2180.6c5.61-16.8,8.93-53.372,10.533-47.314C2787.866,2143.912,2798.743,2144.37,2798.743,2144.37Z" transform="translate(-2689.977 -1817.627)" fill="#cecece" fill-rule="evenodd"/>
        <path id="Trazado_159" data-name="Trazado 159" d="M2839.371,2165.4c.8-12.114-7.671-64.8-7.671-64.8h3.091s4.58,11.314,5.725,15.2c4.351,15.086,12.937,51.543,12.937,66.4L2838,2184.6C2838.913,2179.572,2839.028,2170.2,2839.371,2165.4Z" transform="translate(-2681.717 -1822.2)" fill="#cecece" fill-rule="evenodd"/>
        <path id="Trazado_207" data-name="Trazado 207" d="M2907.179,1983.577c-5.381-24.228-25.3-28.8-34.919-31.086-6.412-1.486-19.234-5.372-28.394-8.571a1.517,1.517,0,0,0-1.374.228,56.844,56.844,0,0,1-33.2,10.629,57.651,57.651,0,0,1-33.431-10.743,1.877,1.877,0,0,0-1.374-.228c-9.044,3.2-22.211,7.2-28.737,8.686-9.617,2.171-29.538,6.857-34.919,31.086-3.206,10.514-6.984,30.286-8.129,54.514a1.466,1.466,0,0,0,.458,1.143,33.873,33.873,0,0,0,8.93,5.371c5.381,2.286,14.655,5.029,27.707,4.571a1.359,1.359,0,0,0,1.374-1.143c.916-4.686,1.946-10.4,3.549-13.143.229.343.344.8.573,1.143,1.6,4.571,3.778,9.714,5.839,14.857,1.03,2.4,1.946,4.686,2.862,6.971,1.374,3.543,2.4,6.286,3.091,8.572a40.7,40.7,0,0,1,1.145,4l.229.686c2.519,12.572,1.221,58.022,1.221,58.479a1.419,1.419,0,0,0,1.489,1.372,244.69,244.69,0,0,0,48.444,5.184,226.784,226.784,0,0,0,47.347-5.184,1.493,1.493,0,0,0,1.488-1.372c0-.343-1.3-45.793,1.221-58.364l.229-.8a40.839,40.839,0,0,1,1.145-4c.687-2.286,1.718-5.029,3.091-8.572.916-2.286,1.946-4.572,2.862-6.971,2.061-5.029,4.236-10.286,5.839-14.857.229-.343.344-.8.572-1.143,1.6,2.743,2.633,8.457,3.549,13.143a1.359,1.359,0,0,0,1.374,1.143c21.524.572,32.63-6.971,35.492-9.257a1.453,1.453,0,0,0,.687-.114,1.241,1.241,0,0,0,.8-1.372C2914.163,2013.977,2910.385,1994.091,2907.179,1983.577Z" transform="translate(-2700.409 -1844.606)" fill="#ff8c00"/>
        <path id="Trazado_208" data-name="Trazado 208" d="M2748.3,2012.157c-15.571-9.371-10.19,7.314-10.19,7.314,1.374,6.286,5.5,15.771,9.159,24.686-3.32-13.257-6.64-24.229-6.64-24.229,23.814,5.486,48.315-2.286,50.719-9.485C2777.613,2019.014,2756.547,2017.072,2748.3,2012.157Z" transform="translate(-2695.408 -1835.243)" fill="#f57b00"/>
        <path id="Trazado_209" data-name="Trazado 209" d="M2865.064,1978.4a1.653,1.653,0,0,1,.115-.686l-.115-.114-1.832,9.714c-2.519,10.857-6.984,23.086-14.769,29.371-7.442,5.943-29.309,6.857-43.163-1.714,2.519,7.2,27.02,14.971,50.719,9.486,0,0-13.4,33.6-15.342,41.6-1.946,7.886-5.038,52.114-5.038,52.114l-.553,8.678,7.073-.714a1.639,1.639,0,0,0,1.533-1.485c0-.343-1.3-45.793,1.22-58.365l.229-.8a40.657,40.657,0,0,1,1.145-4c.687-2.286,1.717-5.029,3.091-8.572.916-2.286,1.946-4.572,2.862-6.972,2.061-5.029,4.236-10.286,5.839-14.857.229-.343.344-.8.573-1.143,1.6,2.743,2.633,8.457,3.549,13.143a1.361,1.361,0,0,0,1.374,1.143c3.091.457,7.213-.114,11.678-.571C2865.98,2020.571,2865.064,1984.229,2865.064,1978.4Z" transform="translate(-2685.542 -1839.771)" fill="#f57b00"/>
      </g>
    </g>
    <ellipse id="Line" cx="128" cy="128" rx="128" ry="128" fill="none" stroke="#202122" stroke-miterlimit="3.497" stroke-width="0.437"/>
  </g>
</svg>
