<svg id="DESKTOP-Visa" xmlns="http://www.w3.org/2000/svg" width="42" height="26" viewBox="0 0 42 26">
  <rect id="Rectangle_265" data-name="Rectangle 265" width="42" height="3.742" transform="translate(0 22.258)" fill="#fea200"/>
  <rect id="Rectangle_266" data-name="Rectangle 266" width="42" height="3.744" fill="#002463"/>
  <path id="Path_229" data-name="Path 229" d="M498.374,229.739l-4.339,10.289h-2.829l-2.135-8.212a1.123,1.123,0,0,0-.637-.9,11.235,11.235,0,0,0-2.637-.878l.06-.3h4.556a1.247,1.247,0,0,1,1.236,1.048l1.128,5.954,2.785-7Zm11.091,6.93c.012-2.716-3.778-2.866-3.752-4.079.009-.368.363-.762,1.135-.863a5.079,5.079,0,0,1,2.642.46l.467-2.182a7.258,7.258,0,0,0-2.5-.455c-2.646,0-4.509,1.4-4.524,3.4-.017,1.48,1.329,2.306,2.341,2.8,1.045.5,1.4.828,1.39,1.279-.005.69-.834.994-1.6,1.007a5.617,5.617,0,0,1-2.751-.651l-.486,2.255a8.179,8.179,0,0,0,2.977.548c2.814,0,4.655-1.382,4.664-3.52m6.991,3.359h2.475l-2.163-10.289h-2.285a1.215,1.215,0,0,0-1.139.755l-4.017,9.534h2.811l.56-1.537h3.433Zm-2.99-3.646,1.41-3.863.81,3.863ZM502.2,229.739l-2.214,10.289h-2.678l2.213-10.289Z" transform="translate(-481.563 -221.872)" fill="#002463"/>
</svg>
