<svg id="DESKTOP-01_small" data-name="DESKTOP-01 small" xmlns="http://www.w3.org/2000/svg" width="142.863" height="101" viewBox="0 0 142.863 101">
  <path id="Trazado_43" data-name="Trazado 43" d="M3747.453,4832.967q0-24.089,7.763-34.772t26.843-10.683q19.076,0,26.579,10.55t7.5,34.771q0,24.223-7.566,34.906t-26.776,10.683q-19.213,0-26.776-10.683T3747.453,4832.967Zm36.58-19.842a4.105,4.105,0,0,0-4.474,0,5.6,5.6,0,0,0-1.315,2.92q-.923,3.98-.921,16.922t.855,16.721q.854,3.785,3.619,3.783t3.618-3.783q.854-3.782.855-13.736t-.2-13.8a36.492,36.492,0,0,0-.724-6.106A5.622,5.622,0,0,0,3784.032,4813.125Z" transform="translate(-3738.364 -4778.421)" fill="none" stroke="#f2f2f7" stroke-width="2"/>
  <path id="Trazado_44" data-name="Trazado 44" d="M3867.063,4788.941v87.49h-29.87V4821.2l-18.157,7.3L3811.142,4807l30.788-18.058Z" transform="translate(-3725.2 -4778.14)" fill="none" stroke="#f2f2f7" stroke-width="2"/>
  <path id="Trazado_45" data-name="Trazado 45" d="M3740.454,4824.968q0-24.091,7.763-34.773t26.842-10.684q19.076,0,26.579,10.552t7.5,34.77q0,24.224-7.565,34.905T3774.8,4870.42q-19.213,0-26.776-10.683T3740.454,4824.968Zm36.578-19.843a4.1,4.1,0,0,0-4.474,0,5.607,5.607,0,0,0-1.315,2.92q-.923,3.98-.921,16.923t.855,16.72q.855,3.784,3.619,3.782t3.618-3.782q.855-3.782.855-13.735t-.2-13.8a36.536,36.536,0,0,0-.724-6.106A5.611,5.611,0,0,0,3777.032,4805.125Z" transform="translate(-3740.454 -4779.511)" fill="#f2f2f7"/>
  <path id="Trazado_46" data-name="Trazado 46" d="M3860.064,4780.941v87.489h-29.87V4813.2l-18.157,7.3L3804.143,4799l30.789-18.057Z" transform="translate(-3727.29 -4779.229)" fill="#f2f2f7"/>
</svg>
