<svg id="DESKTOP-Viewers" xmlns="http://www.w3.org/2000/svg" width="22" height="15" viewBox="0 0 22 15">
  <path id="Trazado_79" data-name="Trazado 79" d="M5489.5,4563.8c-.193-.286-4.84-6.93-10.821-6.93s-10.631,6.644-10.823,6.93a1,1,0,0,0,0,1.139c.192.286,4.84,6.931,10.823,6.931s10.627-6.646,10.821-6.931A1,1,0,0,0,5489.5,4563.8Zm-10.821,6.052c-4,0-7.526-3.976-8.719-5.484,1.192-1.506,4.71-5.48,8.719-5.48s7.521,3.976,8.718,5.483C5486.208,4565.88,5482.688,4569.854,5478.683,4569.854Z" transform="translate(-5467.681 -4556.872)" fill="#fff"/>
  <path id="Trazado_81" data-name="Trazado 81" d="M5474.51,4559.01a3.029,3.029,0,1,0,3.045,3.029A3.041,3.041,0,0,0,5474.51,4559.01Z" transform="translate(-5463.507 -4554.539)" fill="#fff"/>
</svg>
