<svg id="DESKTOP-Add-to-cart" xmlns="http://www.w3.org/2000/svg" width="33" height="30" viewBox="0 0 33 30">
  <path id="Trazado_33" data-name="Trazado 33" d="M3836.375,5067.811h4.85l-1.669,1.705a.745.745,0,0,0-.2.508.8.8,0,0,0,.2.513.7.7,0,0,0,.493.2.609.609,0,0,0,.494-.205l2.876-2.963a.744.744,0,0,0,.206-.519.729.729,0,0,0-.206-.52l-2.876-2.963a.645.645,0,0,0-.494-.206.609.609,0,0,0-.493.206.765.765,0,0,0,0,1.063l1.669,1.7H3836.4a.748.748,0,0,0-.725.764A.735.735,0,0,0,3836.375,5067.811Z" transform="translate(-3820.046 -5054.091)" fill="#fff"/>
  <path id="Trazado_34" data-name="Trazado 34" d="M3856.284,5061.639l0,0a.868.868,0,0,0-.7-.36h-24.178l-1.047-4.185a.929.929,0,0,0-.9-.711h-4.934a1.015,1.015,0,0,0,0,2.028h4.218l1.053,4.215,3.727,14.709a.955.955,0,0,0,.918.713h17.43a1,1,0,0,0,.929-.725l3.734-14.69A1.516,1.516,0,0,0,3856.284,5061.639Zm-5.207,14.3h-15.973l-3.19-12.783h22.464Z" transform="translate(-3823.545 -5056.38)" fill="#fff"/>
  <path id="Trazado_35" data-name="Trazado 35" d="M3834.688,5073.592a3.4,3.4,0,0,0-2.449,1.052,3.608,3.608,0,0,0-1.009,2.529,3.527,3.527,0,0,0,3.469,3.566h.009a3.575,3.575,0,0,0-.02-7.147Zm1.142,4.631a1.533,1.533,0,0,1-1.084.49h-.076a1.548,1.548,0,0,1-1.093-.47,1.64,1.64,0,0,1-.463-1.143,1.576,1.576,0,0,1,1.518-1.625h0a1.64,1.64,0,0,1,1.2,2.749Z" transform="translate(-3821.329 -5050.74)" fill="#fff"/>
  <path id="Trazado_36" data-name="Trazado 36" d="M3844.317,5073.592a3.4,3.4,0,0,0-2.449,1.052,3.6,3.6,0,0,0-1.008,2.529,3.527,3.527,0,0,0,3.469,3.566h.009a3.575,3.575,0,0,0-.021-7.147Zm0,5.121h-.009a1.548,1.548,0,0,1-1.106-.47,1.632,1.632,0,0,1-.461-1.143,1.6,1.6,0,0,1,1.575-1.624h0a1.619,1.619,0,0,1,0,3.237Z" transform="translate(-3818.55 -5050.74)" fill="#fff"/>
</svg>
