<svg id="DESKTOP-Empty" xmlns="http://www.w3.org/2000/svg" width="113" height="90" viewBox="0 0 113 90">
  <path id="DESKTOP-Empty-2" data-name="DESKTOP-Empty" d="M98.422,13.637a2.835,2.835,0,0,0-2.765-1.16c-.04-.01-.08-.027-.12-.032L52.409,6.1a2.842,2.842,0,0,0-1.4.145L16.466,18.931l-.044.021c-.036.015-.071.038-.109.052a2.961,2.961,0,0,0-.527.3c-.05.036-.1.073-.147.113a2.787,2.787,0,0,0-.475.486c-.008.011-.019.017-.027.029L.552,39.921a2.868,2.868,0,0,0,1.6,4.469L14.8,47.664V79.013a2.869,2.869,0,0,0,2.026,2.743L63.173,95.943c.015.008.032,0,.048.01a2.967,2.967,0,0,0,.767.115l.021,0h0a2.857,2.857,0,0,0,.807-.128c.084-.027.162-.063.248-.1a2.867,2.867,0,0,0,.334-.13L98.655,77.224a2.868,2.868,0,0,0,1.473-2.508V43.373l11.249-5.409a2.871,2.871,0,0,0,1.1-4.232ZM52.3,11.882,85.96,16.833l-22.33,10.4L28.268,20.707ZM18.7,24.771l40.519,7.481-11.909,17.9L7.662,39.9Zm1.828,52.121V49.143L47.845,56.21a2.962,2.962,0,0,0,.715.092,2.862,2.862,0,0,0,2.381-1.277L61.147,39.689V89.325ZM94.4,73.027l-27.533,15.3V43.044l5.027,10.7a2.863,2.863,0,0,0,1.629,1.478,2.762,2.762,0,0,0,.958.166,2.914,2.914,0,0,0,1.238-.279L94.4,46.131l0,26.9ZM75.85,48.69,67.823,31.606,95.11,18.895l10.749,15.362Z" transform="translate(0 -6.071)" fill="#e4e4ea"/>
</svg>
