<svg id="DESKTOP-Send_small" data-name="DESKTOP-Send small" xmlns="http://www.w3.org/2000/svg" width="38" height="38" viewBox="0 0 38 38">
  <rect id="Rectángulo_221" data-name="Rectángulo 221" width="38" height="38" fill="#ff8c00"/>
  <path id="Trazado_77" data-name="Trazado 77" d="M9.679,15.546a.966.966,0,0,0,.878-.669L15.476,1.43a1.2,1.2,0,0,0,0-.807V.6a.974.974,0,0,0-.924-.6,1.047,1.047,0,0,0-.369.069L.718,5.005a1.1,1.1,0,0,0-.624.53A1.022,1.022,0,0,0,.556,6.873L5.822,9.664c.069.023.092.069.092.092L8.64,14.969a1.072,1.072,0,0,0,.9.553l.139.023Zm-.093-1.338a.272.272,0,0,1-.231-.138L6.977,9.549a.234.234,0,0,1,.069-.323L9.956,6.3h0a.473.473,0,0,0-.67-.669L6.33,8.58a.333.333,0,0,1-.323.07L1.48,6.228a.29.29,0,0,1-.138-.254.243.243,0,0,1,.185-.231L14.114,1.177a.22.22,0,0,1,.277.069.3.3,0,0,1,.069.277l-4.6,12.5a.3.3,0,0,1-.277.184Z" transform="translate(17.038 7.772) rotate(45)" fill="#fff"/>
</svg>
