<svg id="Drop-down" xmlns="http://www.w3.org/2000/svg" width="12" height="7" viewBox="0 0 12 7">
  <path id="Drop-down-2" data-name="Drop-down" d="M6.661,5.272,1.776.318A1.038,1.038,0,0,0,1.019,0,.926.926,0,0,0,.313.318,1.069,1.069,0,0,0,0,1.086.95.95,0,0,0,.313,1.8l3.422,3.47a.968.968,0,0,1,.314.742.855.855,0,0,1-.209.609.359.359,0,0,1-.078.106L.183,10.41a1.151,1.151,0,0,0-.156.583.952.952,0,0,0,.313.715A1.081,1.081,0,0,0,1.1,12a1.131,1.131,0,0,0,.732-.265l.026-.026,4.858-4.98a.142.142,0,0,0,.079-.106A.994.994,0,0,0,7,6.013a1.093,1.093,0,0,0-.339-.742" transform="translate(12) rotate(90)"/>
</svg>
