<svg xmlns="http://www.w3.org/2000/svg" width="56.801" height="56.801" viewBox="0 0 56.801 56.801">
  <g id="DESKTOP-No_profile_pic" data-name="DESKTOP-No profile pic" transform="translate(0.4 0.4)">
    <path id="Trazado_182" data-name="Trazado 182" d="M287.424,186.917a28,28,0,1,0,28,28A28,28,0,0,0,287.424,186.917Z" transform="translate(-259.424 -186.917)" fill="#fff" stroke="#202122" stroke-miterlimit="10" stroke-width="0.8"/>
    <path id="Trazado_182-2" data-name="Trazado 182" d="M310.981,208.959a12.1,12.1,0,1,0,12.1,12.1A12.1,12.1,0,0,0,310.981,208.959Z" transform="translate(-282.982 -200.075)" fill="#fff" stroke="#202122" stroke-miterlimit="10" stroke-width="0.8"/>
    <path id="Path_182" data-name="Path 182" d="M317.968,286.98c-5.433-4.156-13.58-6.8-22.694-6.808s-17.266,2.644-22.7,6.8a27.988,27.988,0,0,0,45.393.009Z" transform="translate(-267.275 -242.587)" fill="#fff" stroke="#202122" stroke-miterlimit="10" stroke-width="0.8"/>
    <path id="Trazado_185" data-name="Trazado 185" d="M344.4,295.409a32.511,32.511,0,0,0,8.815-7.189c-.131-.093-.261-.2-.391-.275-5.446-3.442-11.466-6.307-18.99-6.664-.36-.017-.712,0-1.07,0C332.768,281.28,345.306,284.389,344.4,295.409Z" transform="translate(-302.335 -243.587)" fill="#202122"/>
    <path id="Trazado_186" data-name="Trazado 186" d="M320.179,214.913a11.982,11.982,0,0,1-17.726,14.239,12.014,12.014,0,1,0,17.726-14.239Z" transform="translate(-285.416 -203.63)" fill="#202122"/>
  </g>
</svg>
