<svg id="Fast" xmlns="http://www.w3.org/2000/svg" width="206.909" height="75.129" viewBox="0 0 206.909 75.129">
  <g id="Fast-2" data-name="Fast" transform="translate(-3950.013 -4332.944)" style="isolation: isolate">
    <g id="Grupo_115" data-name="Grupo 115" style="isolation: isolate">
      <path id="Trazado_67" data-name="Trazado 67" d="M3950.013,4406.644v-73.7h53.13v20.79h-27.61v11.879h21.01V4386.4h-21.01v20.24Z" fill="#fff"/>
      <path id="Trazado_68" data-name="Trazado 68" d="M4059.9,4369.024v20.9a7.323,7.323,0,0,0,2.64,1.21l-.33,15.62a93.405,93.405,0,0,1-11.77,1.319,17.387,17.387,0,0,1-5.83-.934,8.789,8.789,0,0,1-3.52-1.925l-.88-.99q-6.822,3.849-16.555,3.849t-14.685-4.455q-4.95-4.454-4.95-14.354t5.61-13.255q5.61-3.354,17.71-3.795l7.92-.33v-.99q0-2.09-4.62-2.09a183.22,183.22,0,0,0-20.02,1.1l-3.63.33-.55-16.72a104.17,104.17,0,0,1,26.51-3.851q12.54,0,19.47,3.741Q4059.9,4357.364,4059.9,4369.024Zm-28.82,22.11a6.746,6.746,0,0,0,4.18-1.65v-4.071l-3.74.221q-2.862.22-2.86,2.859T4031.083,4391.134Z" fill="#fff"/>
      <path id="Trazado_69" data-name="Trazado 69" d="M4114.463,4369.794q-13.641-1.539-18.59-1.54t-4.951.88q0,.659,8.636,1.6t12.594,4.95q3.962,4.017,3.96,13.695t-5.995,14.19q-6,4.51-18.425,4.509a116.73,116.73,0,0,1-13.2-.714,64.531,64.531,0,0,1-9.02-1.485l-2.86-.77.551-16.611a164.9,164.9,0,0,0,18.974,1.87q5.334,0,5.335-.989,0-.549-8.69-1.705t-12.594-5.17q-3.907-4.016-3.906-12.6,0-11.22,6.435-15.73t18.205-4.511a90.717,90.717,0,0,1,21.451,2.2l2.97.661Z" fill="#fff"/>
      <path id="Trazado_70" data-name="Trazado 70" d="M4148.012,4371v11.44q0,2.751.716,3.685t2.915.935l4.949-.111.33,19.141a76.855,76.855,0,0,1-14.52,1.979q-10.23,0-14.63-4.234t-4.4-15.676V4371h-4.29v-19.91h4.29v-11h24.64v11h8.91V4371Z" fill="#fff"/>
    </g>
  </g>
</svg>
