<svg id="Filter-2-rpws-unactive" xmlns="http://www.w3.org/2000/svg" width="20" height="20" viewBox="0 0 20 20">
  <path id="Trazado_10" data-name="Trazado 10" d="M3776.539,5718.632H3772.4a2.215,2.215,0,0,0-2.2,2.207v4.155a2.216,2.216,0,0,0,2.2,2.207h4.141a2.215,2.215,0,0,0,2.2-2.207v-4.155A2.247,2.247,0,0,0,3776.539,5718.632Zm0-11.432H3772.4a2.215,2.215,0,0,0-2.2,2.206v4.155a2.216,2.216,0,0,0,2.2,2.207h4.141a2.216,2.216,0,0,0,2.2-2.207v-4.178A2.21,2.21,0,0,0,3776.539,5707.2Zm11.485,11.432h-4.163a2.215,2.215,0,0,0-2.2,2.207v4.155a2.216,2.216,0,0,0,2.2,2.207H3788a2.215,2.215,0,0,0,2.2-2.207v-4.155A2.2,2.2,0,0,0,3788.024,5718.632Zm0-11.432h-4.163a2.215,2.215,0,0,0-2.2,2.206v4.155a2.216,2.216,0,0,0,2.2,2.207H3788a2.216,2.216,0,0,0,2.2-2.207v-4.178A2.175,2.175,0,0,0,3788.024,5707.2Z" transform="translate(-3770.2 -5707.201)" fill="#cecece"/>
</svg>
