<svg id="Free" xmlns="http://www.w3.org/2000/svg" width="214.389" height="75.129" viewBox="0 0 214.389 75.129">
  <g id="Free-2" data-name="Free" transform="translate(-4093.013 -4444.944)" style="isolation: isolate">
    <g id="Grupo_114" data-name="Grupo 114" style="isolation: isolate">
      <path id="Trazado_63" data-name="Trazado 63" d="M4093.013,4518.644v-73.7h53.131v20.79h-27.611v11.879h21.01V4498.4h-21.01v20.24Z" fill="#fff"/>
      <path id="Trazado_64" data-name="Trazado 64" d="M4174.743,4518.644H4150.1v-55.55h24.64v5.17q6.928-6.6,11.659-6.6v22.881q-3.739,0-9.679,2.97l-1.98.99Z" fill="#fff"/>
      <path id="Trazado_65" data-name="Trazado 65" d="M4213.792,4498.073q.108,3.853,4.95,3.851,11,0,22-.66l4.29-.33.55,15.95a136.3,136.3,0,0,1-29.1,3.189q-14.464,0-20.9-6.654t-6.435-21.56q0-14.9,6.93-22.55t21.615-7.646q14.685,0,21.835,6.271t7.151,19.25l-1.1,10.889Zm8.25-13.419a8.114,8.114,0,0,0-.935-4.51,3.706,3.706,0,0,0-3.245-1.321,3.553,3.553,0,0,0-3.19,1.321,9.061,9.061,0,0,0-.989,4.51Z" fill="#fff"/>
      <path id="Trazado_66" data-name="Trazado 66" d="M4274.511,4498.073q.108,3.853,4.95,3.851,11,0,22-.66l4.29-.33.55,15.95a136.291,136.291,0,0,1-29.095,3.189q-14.465,0-20.9-6.654t-6.435-21.56q0-14.9,6.93-22.55t21.615-7.646q14.685,0,21.835,6.271t7.15,19.25l-1.1,10.889Zm8.25-13.419a8.114,8.114,0,0,0-.935-4.51,3.706,3.706,0,0,0-3.245-1.321,3.553,3.553,0,0,0-3.19,1.321,9.075,9.075,0,0,0-.99,4.51Z" fill="#fff"/>
    </g>
  </g>
</svg>
