<svg id="Home-active" xmlns="http://www.w3.org/2000/svg" width="22" height="22" viewBox="0 0 22 22">
  <path id="Trazado_39" data-name="Trazado 39" d="M3776.759,5065.064a.624.624,0,0,0-.071-.063l-10.338-8.608a.741.741,0,0,0-.8.008l-10.324,8.6a.666.666,0,0,0-.285.426.674.674,0,0,0,.1.507.661.661,0,0,0,.92.191.684.684,0,0,0,.069-.053l1.372-1.154v12.7a.646.646,0,0,0,.625.665h5.683a.655.655,0,0,0,.651-.636v-3.271a1.62,1.62,0,1,1,3.239,0v3.278a.673.673,0,0,0,.653.628h5.669a.628.628,0,0,0,.438-.18.643.643,0,0,0,.2-.45.187.187,0,0,0,0-.033v-12.624l1.272,1.074a.64.64,0,0,0,.374.125.691.691,0,0,0,.543-.269.615.615,0,0,0,.01-.861Zm-10.753,6.4a2.963,2.963,0,0,0-2.9,2.938v2.556h-4.322v-13.147l7.22-6.027,7.247,6.081v13.094h-4.348V5074.4A2.949,2.949,0,0,0,3766.006,5071.466Z" transform="translate(-3754.929 -5056.281)" fill="#fff"/>
</svg>
