<svg xmlns="http://www.w3.org/2000/svg" width="14" height="13" viewBox="0 0 14 13">
  <g id="Home-star-active" transform="translate(0)">
    <path id="Trazado_2" data-name="Trazado 2" d="M4172.952,5860.382a.367.367,0,0,0-.313-.26l-4.369-.595-1.964-3.831a.35.35,0,0,0-.345-.2h0a.362.362,0,0,0-.347.214l-1.932,3.845-4.368.625a.392.392,0,0,0-.315.259.4.4,0,0,0,.095.4l3.19,2.975-.739,4.243a.4.4,0,0,0,.159.381.357.357,0,0,0,.22.062.362.362,0,0,0,.187-.046l3.913-2,3.913,1.983a.422.422,0,0,0,.173.047h0a.393.393,0,0,0,.392-.383c0-.045,0-.061-.015-.076l-.77-4.212,3.173-3.006A.472.472,0,0,0,4172.952,5860.382Z" transform="translate(-4158.982 -5855.5)" fill="#ffc400"/>
  </g>
</svg>
