<svg xmlns="http://www.w3.org/2000/svg" width="28.5" height="26.5" viewBox="0 0 28.5 26.5">
  <g id="Image" transform="translate(0.5 0.5)">
    <path id="Trazado_184" data-name="Trazado 184" d="M221,379.521v20.765H198.561V402.9H223.64V379.521Z" transform="translate(-195.64 -376.904)" fill="#7d7f81"/>
    <path id="Trazado_169" data-name="Trazado 169" d="M202.456,387.474a2.816,2.816,0,1,0-2.837-2.817h0a2.83,2.83,0,0,0,2.837,2.816m0-5.457a2.641,2.641,0,1,1-2.661,2.641,2.651,2.651,0,0,1,2.661-2.641" transform="translate(-195.888 -377.461)" fill="none" stroke="#7d7f81" stroke-width="1"/>
    <path id="Trazado_183" data-name="Trazado 183" d="M219.54,402.183l-7.524-14.714a.769.769,0,0,0-1.026-.344.758.758,0,0,0-.326.306l-4.93,8.548-3.362-3.332a.771.771,0,0,0-1.084,0,.725.725,0,0,0-.1.131l-5.9,9.465" transform="translate(-194.873 -378.71)" fill="none" stroke="#7d7f81" stroke-width="1"/>
    <rect id="Rectángulo_254" data-name="Rectángulo 254" width="25.079" height="23.383" fill="none" stroke="#7d7f81" stroke-width="1"/>
  </g>
</svg>
