<svg id="Instagram_selected" data-name="Instagram selected" xmlns="http://www.w3.org/2000/svg" width="24" height="24.002" viewBox="0 0 24 24.002">
  <path id="Trazado_320" data-name="Trazado 320" d="M6793.736,6487.291a4.959,4.959,0,0,0-1.308-2.071,5.924,5.924,0,0,0-2.084-1.319,8.544,8.544,0,0,0-2.888-.555,46.536,46.536,0,0,0-5.02-.115q-.711-.021-1.421-.021c-1.208,0-2.411.044-3.6.135a9.954,9.954,0,0,0-2.907.557,4.963,4.963,0,0,0-2.073,1.308,5.967,5.967,0,0,0-1.319,2.085,8.546,8.546,0,0,0-.554,2.888l-.029.59c-.047.9-.086,1.682-.086,4.437a47.679,47.679,0,0,0,.115,5.013,9.972,9.972,0,0,0,.556,2.906,4.975,4.975,0,0,0,1.309,2.073,6.908,6.908,0,0,0,2.092,1.321,8.5,8.5,0,0,0,2.882.552l.589.03c.9.044,1.682.084,4.437.084a48.315,48.315,0,0,0,5.012-.113,9.919,9.919,0,0,0,2.907-.556,4.988,4.988,0,0,0,2.071-1.309,5.916,5.916,0,0,0,1.319-2.086,8.512,8.512,0,0,0,.556-2.888l.031-.666c.045-.892.083-1.661.083-4.361a48.018,48.018,0,0,0-.112-5.012v-.009A9.927,9.927,0,0,0,6793.736,6487.291Zm-1.1,12.9a6.956,6.956,0,0,1-.476,2.368,5.7,5.7,0,0,1-1.026,1.457,3.112,3.112,0,0,1-1.475,1.037,5.014,5.014,0,0,1-2.38.47l-.651.031c-.871.044-1.622.082-4.309.082q-.7.022-1.411.022c-1.188,0-2.39-.046-3.582-.136a6.991,6.991,0,0,1-2.36-.473,5.716,5.716,0,0,1-1.456-1.027,3.088,3.088,0,0,1-1.036-1.475,4.938,4.938,0,0,1-.471-2.381l-.033-.66c-.044-.871-.083-1.622-.083-4.3a47.6,47.6,0,0,1,.116-4.993,6.859,6.859,0,0,1,.475-2.36,5.7,5.7,0,0,1,1.025-1.457,3.1,3.1,0,0,1,1.474-1.035,5.046,5.046,0,0,1,2.38-.472,47.382,47.382,0,0,1,4.968-.115,48.273,48.273,0,0,1,4.984.116,6.882,6.882,0,0,1,2.36.476,5.629,5.629,0,0,1,1.458,1.026,3.1,3.1,0,0,1,1.036,1.473,5.949,5.949,0,0,1,.471,2.369l.031.662c.044.872.082,1.623.082,4.31A47.217,47.217,0,0,1,6792.631,6500.195Z" transform="translate(-6770.427 -6483.208)" fill="#fff"/>
  <path id="Trazado_321" data-name="Trazado 321" d="M6788.616,6487.38a1.174,1.174,0,1,0,1.174,1.176A1.177,1.177,0,0,0,6788.616,6487.38Z" transform="translate(-6770.097 -6483.126)" fill="#fff"/>
  <path id="Trazado_322" data-name="Trazado 322" d="M6782.351,6489h-.092a6.033,6.033,0,0,0,.055,12.065h.057a6.033,6.033,0,0,0-.02-12.066Zm-.092,10.4h0a4.313,4.313,0,1,1,4.313-4.313A4.318,4.318,0,0,1,6782.258,6499.4Z" transform="translate(-6770.313 -6483.094)" fill="#fff"/>
</svg>
