<svg id="Live_-_cart" data-name="Live - cart" xmlns="http://www.w3.org/2000/svg" width="25" height="22" viewBox="0 0 25 22">
  <path id="Trazado_38" data-name="Trazado 38" d="M3799.923,5073.137a2.621,2.621,0,1,0,.009,5.242h.007a2.621,2.621,0,1,0-.016-5.242Zm.866,3.4a1.164,1.164,0,0,1-.821.359h-.057a1.184,1.184,0,0,1-.828-.345,1.188,1.188,0,0,1,.8-2.03h0a1.2,1.2,0,0,1,1.233,1.183A1.162,1.162,0,0,1,3800.789,5076.533Zm8.536-3.4a2.621,2.621,0,1,0,.01,5.242h.006a2.621,2.621,0,1,0-.016-5.242Zm0,3.755h-.006a1.187,1.187,0,1,1,0-2.374h0a1.187,1.187,0,1,1,0,2.374Zm5.277-16.656h0a.66.66,0,0,0-.53-.265h-18.317l-.793-3.067a.7.7,0,0,0-.679-.523h-3.738a.743.743,0,1,0,0,1.486h3.194l.8,3.092,2.823,10.786a.718.718,0,0,0,.7.523h13.205a.758.758,0,0,0,.7-.532l2.828-10.772A1.079,1.079,0,0,0,3814.606,5060.236Zm-3.946,10.488h-12.1l-2.416-9.373h17.019Z" transform="translate(-3789.803 -5056.379)" fill="#7d7f81"/>
</svg>
