<svg id="Live_-_shop_active" data-name="Live - shop active" xmlns="http://www.w3.org/2000/svg" width="20" height="24" viewBox="0 0 20 24">
  <path id="Live_-_shop_active-2" data-name="Live - shop active" d="M3913.985,3977.933h.008l-1.527-14.052a1.849,1.849,0,0,0-1.84-1.657h-2.262v-.2a4.369,4.369,0,1,0-8.737,0v.2h-2.259a1.851,1.851,0,0,0-1.842,1.657l-1.512,13.921a3.465,3.465,0,0,0,3.06,3.825,3.377,3.377,0,0,0,.372.021h13.092a3.469,3.469,0,0,0,3.454-3.475C3913.993,3978.094,3913.99,3978.014,3913.985,3977.933Zm-13.61-12.565h0a.746.746,0,0,0,.74-.744v-.906h5.768v.906a.743.743,0,1,0,1.485,0v-.906h2.261a.364.364,0,0,1,.363.326l1.452,13.414h-16.9l1.458-13.414a.364.364,0,0,1,.363-.326h2.26v.906A.746.746,0,0,0,3900.375,3965.368Zm.743-3.142v-.2a2.887,2.887,0,0,1,2.865-2.909H3904a2.891,2.891,0,0,1,2.884,2.871v.236Zm11.242,16.723a1.959,1.959,0,0,1-1.812,1.208h-13.1a1.959,1.959,0,0,1-1.811-1.208Z" transform="translate(-3893.994 -3957.649)" fill="#ff8c00"/>
</svg>
