<svg id="Live_-_comments" data-name="Live - comments" xmlns="http://www.w3.org/2000/svg" width="22" height="22" viewBox="0 0 22 22">
  <path id="Trazado_314" data-name="Trazado 314" d="M3907.6,3968.768h.054a1.829,1.829,0,0,0,1.8-1.8,1.792,1.792,0,0,0-1.74-1.814h-.039a1.835,1.835,0,0,0-1.842,1.763,1.808,1.808,0,0,0,1.762,1.855Z" transform="translate(-3896.669 -3957.471)" fill="#fff"/>
  <path id="Trazado_315" data-name="Trazado 315" d="M3912.906,3968.771h.054a1.827,1.827,0,0,0,1.8-1.8,1.785,1.785,0,0,0-1.738-1.816h-.065a1.828,1.828,0,0,0-1.817,1.765,1.807,1.807,0,0,0,1.762,1.855Z" transform="translate(-3896.494 -3957.471)" fill="#fff"/>
  <path id="Trazado_316" data-name="Trazado 316" d="M3904.165,3966.969h0a1.793,1.793,0,0,0-1.771-1.811h-.021a1.862,1.862,0,0,0-1.267.5,1.807,1.807,0,0,0,1.2,3.125h.008A1.859,1.859,0,0,0,3904.165,3966.969Z" transform="translate(-3896.843 -3957.471)" fill="#fff"/>
  <path id="Trazado_317" data-name="Trazado 317" d="M3918.284,3958.524a2.551,2.551,0,0,0-1.787-.809h-17.036a2.556,2.556,0,0,0-2.5,2.573v13.57a2.585,2.585,0,0,0,2.521,2.579h2.054v2.724a.574.574,0,0,0,.321.509.437.437,0,0,0,.193.044.65.65,0,0,0,.387-.138l3.763-3.087h10.255a2.553,2.553,0,0,0,2.5-2.572v-13.558A2.545,2.545,0,0,0,3918.284,3958.524Zm-15.58,16.8a1.392,1.392,0,0,0-1-.432h-2.19a1.033,1.033,0,0,1-1.012-1.018V3960.3a1.029,1.029,0,0,1,.981-1.029h17a1.035,1.035,0,0,1,1.012,1.016v13.571a1.041,1.041,0,0,1-.981,1.032h-10.313a1.345,1.345,0,0,0-.83.3l-2.3,1.861v-.742A1.371,1.371,0,0,0,3902.7,3975.32Z" transform="translate(-3896.96 -3957.715)" fill="#fff"/>
</svg>
