<svg id="More_options" data-name="More options" xmlns="http://www.w3.org/2000/svg" width="28" height="28" viewBox="0 0 28 28">
  <g id="Rectángulo_148" data-name="Rectángulo 148" fill="none" stroke="#fff" stroke-linejoin="round" stroke-width="1.6">
    <rect width="28" height="28" stroke="none"/>
    <rect x="0.8" y="0.8" width="26.4" height="26.4" fill="none"/>
  </g>
  <path id="Trazado_6" data-name="Trazado 6" d="M6582.075,4374.158h4.648a.674.674,0,1,0,0-1.348h-4.648v-4.636a.676.676,0,0,0-1.352,0v4.636h-4.648a.67.67,0,0,0-.467,1.156.792.792,0,0,0,.483.208h4.648v4.636a.676.676,0,0,0,.209.481.743.743,0,0,0,.483.208.679.679,0,0,0,.676-.674v-4.668Z" transform="translate(-6567.399 -4359.5)" fill="#fff" stroke="#fff" stroke-width="0.3"/>
</svg>
