<svg xmlns="http://www.w3.org/2000/svg" width="11.668" height="11.668" viewBox="0 0 11.668 11.668">
  <g id="More_cart" data-name="More cart" transform="translate(0.148 0.15)">
    <path id="Trazado_6" data-name="Trazado 6" d="M6581.724,4373.808h4.4a.638.638,0,1,0,0-1.277h-4.4v-4.392a.64.64,0,0,0-1.281,0v4.392h-4.4a.635.635,0,0,0-.442,1.1.75.75,0,0,0,.458.2h4.4v4.392a.64.64,0,0,0,.2.456.7.7,0,0,0,.458.2.643.643,0,0,0,.64-.638v-4.423Z" transform="translate(-6575.399 -4367.501)" fill="#ff8c00" stroke="#ff8c00" stroke-width="0.3"/>
  </g>
</svg>
