<svg xmlns="http://www.w3.org/2000/svg" width="12.3" height="12.299" viewBox="0 0 12.3 12.299">
  <g id="More_cart_unactive" data-name="More cart unactive" transform="translate(0.15 0.15)">
    <path id="Trazado_6" data-name="Trazado 6" d="M6582.075,4374.158h4.648a.674.674,0,1,0,0-1.348h-4.648v-4.636a.676.676,0,0,0-1.352,0v4.636h-4.647a.67.67,0,0,0-.467,1.156.792.792,0,0,0,.483.208h4.648v4.636a.675.675,0,0,0,.208.481.744.744,0,0,0,.483.208.679.679,0,0,0,.676-.674v-4.668Z" transform="translate(-6575.4 -4367.501)" fill="#383636" stroke="#383636" stroke-width="0.3"/>
  </g>
</svg>
