<svg id="More-filters" xmlns="http://www.w3.org/2000/svg" width="58" height="58" viewBox="0 0 58 58">
  <circle id="Shadow" cx="28" cy="28" r="28" transform="translate(2 2)"/>
  <g id="Button" fill="#fff" stroke="#000" stroke-width="2">
    <circle cx="28" cy="28" r="28" stroke="none"/>
    <circle cx="28" cy="28" r="27" fill="none"/>
  </g>
  <path id="Filters" d="M1622.485,3661.44a1.4,1.4,0,0,0-1.253-.74h-23.14a1.434,1.434,0,0,0-1.253.74,1.366,1.366,0,0,0,.078,1.441l8.927,13.2v5.88a.66.66,0,0,0,.352.623.762.762,0,0,0,.392.117.939.939,0,0,0,.313-.078l6.147-2.648a.77.77,0,0,0,.47-.7v-3.231l8.927-13.2A1.3,1.3,0,0,0,1622.485,3661.44Zm-10.454,15.146v2.219l-4.62,1.986v-4.206Zm-1.879-9.384a.74.74,0,1,0,0-1.48h-9.436l-2.388-3.5h22.787l-8.731,12.927h-5.325l-5.325-7.9h8.457l-.039-.039Z" transform="translate(-1581.672 -3640.7)"/>
</svg>
