<svg xmlns="http://www.w3.org/2000/svg" width="12.301" height="12.299" viewBox="0 0 12.301 12.299">
  <g id="More_cart" data-name="More cart" transform="translate(0.15 0.15)">
    <path id="Trazado_6" data-name="Trazado 6" d="M6582.075,4374.159h4.647a.674.674,0,1,0,0-1.348h-4.647v-4.635a.676.676,0,0,0-1.352,0v4.635h-4.647a.669.669,0,0,0-.467,1.156.793.793,0,0,0,.482.208h4.647v4.636a.678.678,0,0,0,.209.481.746.746,0,0,0,.483.208.679.679,0,0,0,.676-.673v-4.669Z" transform="translate(-6575.399 -4367.501)" fill="#ff8c00" stroke="#ff8c00" stroke-width="0.3"/>
  </g>
</svg>
