<svg id="New_post" data-name="New post" xmlns="http://www.w3.org/2000/svg" width="70" height="63.396" viewBox="0 0 70 63.396">
  <path id="Trazado_296" data-name="Trazado 296" d="M4037.469,6049.618h0a22.692,22.692,0,0,1-3.226-.231,1.326,1.326,0,0,0-1.022.268l-7.538,4.146-.042-7.208c0-.027,0-.052,0-.08a1.3,1.3,0,0,0-.479-.944,10.664,10.664,0,0,1-4.283-8.189c0-6.749,7.443-12.237,16.592-12.237,6.776,0,12.9,3.116,15.4,7.705a18.471,18.471,0,0,0-2.381,1.532c-3.719,2.81-5.767,6.58-5.767,10.612a11.782,11.782,0,0,0,.448,3.22A21.332,21.332,0,0,1,4037.469,6049.618Z" transform="translate(-4018.017 -6020.608)"/>
  <path id="Trazado_297" data-name="Trazado 297" d="M4073.854,6066.111a2.5,2.5,0,0,0-.76,1.723c0,.044,0,.086,0,.131l-.067,12.735-12.031-7.163a1.932,1.932,0,0,0-1.59-.463,31.158,31.158,0,0,1-5.129.427c-11.919,0-22.016-6.72-25.284-15.919-.012-.044-.029-.089-.046-.132a19.092,19.092,0,0,1-1.067-6.287c0-12.557,12.027-22.338,26.4-22.338s26.394,10.021,26.394,22.338A20.489,20.489,0,0,1,4073.854,6066.111Z" transform="translate(-4010.667 -6017.304)"/>
  <path id="Trazado_298" data-name="Trazado 298" d="M4036.18,6047.975h0a22.178,22.178,0,0,1-3.225-.234,1.344,1.344,0,0,0-1.023.272l-7.535,4.143-.044-7.206c0-.026,0-.054,0-.079a1.292,1.292,0,0,0-.479-.944,10.667,10.667,0,0,1-4.283-8.191c0-6.746,7.444-12.239,16.591-12.239,6.777,0,12.9,3.118,15.4,7.706a19.3,19.3,0,0,0-2.383,1.533c-3.719,2.81-5.766,6.581-5.766,10.614a11.777,11.777,0,0,0,.448,3.22A21.345,21.345,0,0,1,4036.18,6047.975Z" transform="translate(-4019.124 -6023.038)" fill="#fff"/>
  <path id="Trazado_299" data-name="Trazado 299" d="M4024.149,6053.143l-.047-7.985a.863.863,0,0,0-.312-.67,11.11,11.11,0,0,1-4.449-8.544c0-7,7.651-12.7,17.054-12.7,6.869,0,13.226,3.2,15.815,7.947l.217.4-.4.219a18.211,18.211,0,0,0-2.326,1.5c-3.6,2.72-5.583,6.36-5.583,10.247a11.318,11.318,0,0,0,.432,3.1l.112.4-.389.153a22.6,22.6,0,0,1-11.17,1.2.9.9,0,0,0-.663.177Zm12.245-28.979c-8.892,0-16.125,5.284-16.125,11.78a10.223,10.223,0,0,0,4.115,7.84,1.74,1.74,0,0,1,.644,1.272l.041,6.529,6.851-3.764a1.744,1.744,0,0,1,1.318-.325,21.936,21.936,0,0,0,3.155.228h0a21.135,21.135,0,0,0,7.149-1.229,12.215,12.215,0,0,1-.359-2.939c0-4.18,2.113-8.077,5.948-10.976a19.124,19.124,0,0,1,2.031-1.339C4048.6,6026.99,4042.739,6024.164,4036.394,6024.164Z" transform="translate(-4019.34 -6023.248)"/>
  <path id="Trazado_300" data-name="Trazado 300" d="M4071.764,6063.91a2.509,2.509,0,0,0-.76,1.723c0,.043,0,.085,0,.13l-.07,12.734-12.03-7.163a1.934,1.934,0,0,0-1.59-.463,31.069,31.069,0,0,1-5.13.427c-11.92,0-22.018-6.72-25.283-15.919-.013-.045-.03-.088-.047-.132a19.123,19.123,0,0,1-1.065-6.287c0-12.556,12.025-22.335,26.395-22.335s26.4,10.019,26.4,22.335A20.494,20.494,0,0,1,4071.764,6063.91Z" transform="translate(-4013.786 -6020.435)" fill="#fff"/>
  <path id="Trazado_301" data-name="Trazado 301" d="M4071.61,6079.519l-12.734-7.582a1.535,1.535,0,0,0-1.271-.4,31.432,31.432,0,0,1-5.207.433c-11.75,0-22.328-6.67-25.722-16.221l-.047-.138a19.577,19.577,0,0,1-1.091-6.433c0-12.572,12.049-22.8,26.859-22.8s26.859,10.226,26.859,22.8a20.942,20.942,0,0,1-6.957,15.279h0a2.042,2.042,0,0,0-.617,1.41Zm-13.764-8.921a2.418,2.418,0,0,1,1.578.6l11.264,6.7.067-12.084a2.961,2.961,0,0,1,.9-2.029,20.047,20.047,0,0,0,6.668-14.614c0-12.065-11.631-21.882-25.928-21.882s-25.929,9.817-25.929,21.882a18.7,18.7,0,0,0,1.04,6.137l.05.15c3.26,9.171,13.478,15.591,24.839,15.591a30.817,30.817,0,0,0,5.052-.419A2.265,2.265,0,0,1,4057.846,6070.6Z" transform="translate(-4014.001 -6020.645)"/>
  <rect id="Rectángulo_273" data-name="Rectángulo 273" width="26.942" height="0.916" transform="translate(24.597 22.862)"/>
  <rect id="Rectángulo_274" data-name="Rectángulo 274" width="26.942" height="0.916" transform="translate(24.597 28.026)"/>
  <rect id="Rectángulo_275" data-name="Rectángulo 275" width="26.942" height="0.916" transform="translate(24.597 33.192)"/>
</svg>
