<svg xmlns="http://www.w3.org/2000/svg" width="68.5" height="64.5" viewBox="0 0 68.5 64.5">
  <g id="New_image_video" data-name="New image/video" transform="translate(0.5 0.5)">
    <path id="Trazado_184" data-name="Trazado 184" d="M4938.7,4182.2v51.2h-55v6.4h61.631v-57.6Z" transform="translate(-4877.333 -4175.801)" fill="#202122"/>
    <path id="Trazado_169" data-name="Trazado 169" d="M4891.374,4197.786a6.877,6.877,0,0,0,6.881-6.893,6.876,6.876,0,1,0-13.752,0h0a6.718,6.718,0,0,0,6.871,6.893" transform="translate(-4875.172 -4173.168)" fill="none" stroke="#202122" stroke-width="1"/>
    <path id="Trazado_183" data-name="Trazado 183" d="M4940.622,4226l-18.417-37.015a1.7,1.7,0,0,0-2.453-.738c-.247.248-.738.492-.738.738l-12.03,20.924-8.352-8.123a1.921,1.921,0,0,0-2.7,0l-.24.248L4881.2,4226" transform="translate(-4879.976 -4168.498)" fill="none" stroke="#202122" stroke-width="1"/>
    <rect id="Rectángulo_254" data-name="Rectángulo 254" width="61.632" height="57.6" fill="none" stroke="#202122" stroke-width="1"/>
  </g>
</svg>
