<svg xmlns="http://www.w3.org/2000/svg" width="20.301" height="20.3" viewBox="0 0 20.301 20.3">
  <g id="New" transform="translate(0.15 0.15)">
    <path id="Trazado_6" data-name="Trazado 6" d="M6586.526,4378.6h7.747a1.123,1.123,0,1,0,0-2.246h-7.747v-7.727a1.127,1.127,0,0,0-2.253,0v7.727h-7.747a1.115,1.115,0,0,0-.777,1.925,1.306,1.306,0,0,0,.8.348h7.747v7.727a1.123,1.123,0,0,0,.349.8,1.234,1.234,0,0,0,.8.347,1.129,1.129,0,0,0,1.126-1.123V4378.6Z" transform="translate(-6575.399 -4367.5)" fill="#fff" stroke="#fff" stroke-width="0.3"/>
  </g>
</svg>
