<svg xmlns="http://www.w3.org/2000/svg" width="46.8" height="46.8" viewBox="0 0 46.8 46.8">
  <g id="No_profile_pic_-_live" data-name="No profile pic - live" transform="translate(0.399 0.4)">
    <path id="Trazado_182" data-name="Trazado 182" d="M282.424,186.917a23,23,0,1,0,23,23A23,23,0,0,0,282.424,186.917Z" transform="translate(-259.424 -186.917)" fill="#fff" stroke="#202122" stroke-miterlimit="10" stroke-width="0.8"/>
    <path id="Trazado_182-2" data-name="Trazado 182" d="M308.821,208.959a9.935,9.935,0,1,0,9.935,9.935A9.935,9.935,0,0,0,308.821,208.959Z" transform="translate(-285.822 -201.662)" fill="#fff" stroke="#202122" stroke-miterlimit="10" stroke-width="0.8"/>
    <path id="Trazado_182-3" data-name="Trazado 182" d="M309.862,285.764c-4.463-3.414-11.155-5.587-18.641-5.592s-14.183,2.172-18.646,5.585a22.99,22.99,0,0,0,37.287.007Z" transform="translate(-268.222 -249.298)" fill="#fff" stroke="#202122" stroke-miterlimit="10" stroke-width="0.8"/>
    <path id="Trazado_185" data-name="Trazado 185" d="M342.325,292.885a26.705,26.705,0,0,0,7.241-5.9c-.107-.076-.215-.16-.321-.226-4.473-2.827-9.419-5.181-15.6-5.474-.3-.014-.585,0-.879,0C332.768,281.279,343.067,283.833,342.325,292.885Z" transform="translate(-307.77 -250.316)" fill="#202122"/>
    <path id="Trazado_186" data-name="Trazado 186" d="M317.014,214.913a9.842,9.842,0,0,1-14.561,11.7,9.869,9.869,0,1,0,14.561-11.7Z" transform="translate(-288.459 -205.645)" fill="#202122"/>
  </g>
</svg>
