<svg id="No-Image" xmlns="http://www.w3.org/2000/svg" width="80" height="72" viewBox="0 0 80 72">
  <path id="Trazado_169" data-name="Trazado 169" d="M28.048,33.628a8.235,8.235,0,1,0-8.234-8.235,8.244,8.244,0,0,0,8.234,8.235m0-15.957a7.723,7.723,0,1,1-7.723,7.723,7.731,7.731,0,0,1,7.723-7.723" transform="translate(-9.673 -8.376)" fill="#7d7f81"/>
  <path id="Trazado_170" data-name="Trazado 170" d="M71.408,4.209V0H0V63.422H9.108V72H80V4.209ZM70.893.514V62.089L49.057,19.062a2.225,2.225,0,0,0-3.924-.112l-14.307,25L21.072,34.2a2.23,2.23,0,0,0-3.449.378L.515,62.259V.514Zm-.161,62.394H.719l17.34-28.052a1.714,1.714,0,0,1,2.649-.287l10.23,10.217L45.579,19.205a1.674,1.674,0,0,1,1.534-.862,1.7,1.7,0,0,1,1.482.948Z" fill="#7d7f81"/>
</svg>
