<svg xmlns="http://www.w3.org/2000/svg" width="26" height="26" viewBox="0 0 26 26">
  <path id="Path_234" data-name="Path 234" d="M92.066,92.361v-4.12H88.929l-1.615-1.786-1.623,1.786H75.349V79.919H72.011l4.14-9.37h3.993l1.425,3.21v-3.21h4.942l.858,2.419.864-2.419h3.831V66.361h-26v26ZM89.458,87.2h2.608l-3.45-3.659,3.45-3.617H89.5l-2.131,2.328-2.11-2.328H82.649l3.43,3.638L82.649,87.2h2.536l2.141-2.349L89.458,87.2Zm.61-3.656,2,2.126V81.435l-2,2.108ZM78.439,85.515V84.382h4.106V82.74H78.439V81.607h4.21V79.923h-6.2V87.2h6.2V85.515ZM90.1,78.867h1.965V71.591H89.01l-1.632,4.532-1.622-4.532H82.648v7.276h1.964V73.774l1.871,5.093H88.23l1.871-5.1v5.1Zm-9.688,0h2.235l-3.212-7.276H76.879l-3.212,7.276H75.85l.6-1.455H79.8l.613,1.455Zm-1.3-3.087H77.139l.988-2.38.987,2.38Z" transform="translate(-66.066 -66.361)" fill="#0068b6"/>
</svg>
