<svg id="Pledge" xmlns="http://www.w3.org/2000/svg" width="18" height="22" viewBox="0 0 18 22">
  <path id="Trazado_37" data-name="Trazado 37" d="M131.429,121.281a2.563,2.563,0,0,0-1.43.433,2.575,2.575,0,0,0-4.355-.845,2.574,2.574,0,0,0-3.858,0,2.572,2.572,0,0,0-4.5,1.691v3.587a3.209,3.209,0,0,0-1.286,2.56,10.88,10.88,0,0,0,4.371,8.707,1.918,1.918,0,0,1,.771,1.537v2.408a.642.642,0,0,0,.643.64h10.286a.642.642,0,0,0,.643-.64v-2.305A25.5,25.5,0,0,0,134,131.06v-7.219A2.566,2.566,0,0,0,131.429,121.281Zm-5.143,1.281a1.286,1.286,0,0,1,2.571,0v4.226a1.286,1.286,0,0,1-2.571,0Zm-3.857,0a1.286,1.286,0,0,1,2.571,0v2.945h-2.571Zm-3.857,0a1.286,1.286,0,0,1,2.571,0v2.945h-1.929a3.234,3.234,0,0,0-.643.065Zm14.143,8.5a24.334,24.334,0,0,1-.315,3.894,37.754,37.754,0,0,1-.971,4v1.768h-9v-1.768a3.2,3.2,0,0,0-1.286-2.561,9.6,9.6,0,0,1-3.857-7.683,1.927,1.927,0,0,1,1.929-1.922h5.721a3.217,3.217,0,0,1-3.15,2.562H120.5a.64.64,0,1,0,0,1.281h.643a2.574,2.574,0,0,1,2.522,2.058.643.643,0,0,0,1.261-.25,3.823,3.823,0,0,0-1.314-2.2,4.523,4.523,0,0,0,2.022-1.773,2.573,2.573,0,0,0,3.368.446,2.573,2.573,0,0,0,3.712,1.37Zm0-2.993a1.286,1.286,0,0,1-2.571,0v-4.226a1.286,1.286,0,0,1,2.571,0Z" transform="translate(-116 -120)" fill="#fff"/>
</svg>
