<svg id="Pledge_market" data-name="Pledge market" xmlns="http://www.w3.org/2000/svg" width="15" height="18" viewBox="0 0 15 18">
  <path id="Trazado_37" data-name="Trazado 37" d="M128.857,121.048a2.164,2.164,0,0,0-1.191.355,2.164,2.164,0,0,0-3.629-.691,2.172,2.172,0,0,0-3.215,0,2.159,2.159,0,0,0-1.607-.712,2.122,2.122,0,0,0-2.143,2.1v2.935A2.61,2.61,0,0,0,116,127.124a8.849,8.849,0,0,0,3.643,7.124,1.56,1.56,0,0,1,.643,1.257v1.97a.53.53,0,0,0,.536.524h8.571a.53.53,0,0,0,.536-.524V135.59A20.516,20.516,0,0,0,131,129.049v-5.906A2.119,2.119,0,0,0,128.857,121.048Zm-4.286,1.048a1.072,1.072,0,0,1,2.143,0v3.457a1.072,1.072,0,0,1-2.143,0Zm-3.214,0a1.072,1.072,0,0,1,2.143,0v2.41h-2.143Zm-3.214,0a1.072,1.072,0,0,1,2.143,0v2.41h-1.607a2.743,2.743,0,0,0-.536.053Zm11.786,6.954a19.558,19.558,0,0,1-.262,3.186,30.43,30.43,0,0,1-.809,3.27v1.447h-7.5v-1.447a2.6,2.6,0,0,0-1.071-2.1,7.807,7.807,0,0,1-3.214-6.286,1.591,1.591,0,0,1,1.607-1.572h4.768a2.669,2.669,0,0,1-2.625,2.1H119.75a.524.524,0,1,0,0,1.048h.536a2.135,2.135,0,0,1,2.1,1.684.535.535,0,0,0,.63.411.524.524,0,0,0,.421-.616,3.119,3.119,0,0,0-1.1-1.8,3.748,3.748,0,0,0,1.685-1.451,2.174,2.174,0,0,0,2.807.365,2.164,2.164,0,0,0,3.094,1.121Zm0-2.449a1.072,1.072,0,0,1-2.143,0v-3.457a1.072,1.072,0,0,1,2.143,0Z" transform="translate(-116 -120)" fill="#fff"/>
</svg>
