<svg id="New_room" data-name="New room" xmlns="http://www.w3.org/2000/svg" width="26" height="26" viewBox="0 0 26 26">
  <rect id="Rectángulo_244" data-name="Rectángulo 244" width="26" height="26" fill="#ff8c00"/>
  <path id="Trazado_6" data-name="Trazado 6" d="M6580.963,4373.049h3.873a.561.561,0,1,0,0-1.123h-3.873v-3.864a.563.563,0,0,0-1.127,0v3.864h-3.873a.557.557,0,0,0-.389.962.659.659,0,0,0,.4.174h3.874v3.863a.561.561,0,0,0,.174.4.616.616,0,0,0,.4.173.565.565,0,0,0,.563-.561v-3.891Z" transform="translate(-6567.399 -4359.501)" fill="#fff" stroke="#fff" stroke-width="0.3"/>
</svg>
