<svg xmlns="http://www.w3.org/2000/svg" width="36.5" height="34.5" viewBox="0 0 36.5 34.5">
  <g id="DESKTOP-Image" transform="translate(0.5 0.5)">
    <path id="Path_184" data-name="Path 184" d="M227.411,379.521v27.155h-28.85V410.1h32.245V379.521Z" transform="translate(-194.806 -376.099)" fill="#7d7f81"/>
    <path id="Trazado_169" data-name="Trazado 169" d="M203.267,389.207a3.683,3.683,0,1,0-3.648-3.684h0a3.67,3.67,0,0,0,3.648,3.683m0-7.136a3.454,3.454,0,1,1-3.422,3.453,3.437,3.437,0,0,1,3.422-3.453" transform="translate(-194.822 -376.113)" fill="none" stroke="#7d7f81" stroke-width="1"/>
    <path id="Path_183" data-name="Path 183" d="M226.469,406.84,216.795,387.6a.98.98,0,0,0-1.739-.05l-6.338,11.178L204.4,394.37a.979.979,0,0,0-1.393,0,.944.944,0,0,0-.135.171l-7.58,12.378" transform="translate(-194.755 -376.145)" fill="none" stroke="#7d7f81" stroke-width="1"/>
    <rect id="Rectangle_254" data-name="Rectangle 254" width="32.245" height="30.577" fill="none" stroke="#7d7f81" stroke-width="1"/>
  </g>
</svg>
