<svg id="Private" xmlns="http://www.w3.org/2000/svg" width="22" height="30" viewBox="0 0 22 30">
  <path id="Trazado_166" data-name="Trazado 166" d="M10.965,24.795A3.145,3.145,0,1,0,7.887,21.65a3.114,3.114,0,0,0,3.078,3.145m-.035-4.626a1.484,1.484,0,0,1,0,2.964,1.516,1.516,0,0,1-1.415-1.482,1.467,1.467,0,0,1,1.415-1.482m10.293-6.831a2.075,2.075,0,0,0-.566-.253c-.071,0-.106-.036-.141-.036h-.6v-3.9A9.035,9.035,0,0,0,10.965,0,9.036,9.036,0,0,0,2.016,9.144v3.9h-.6c-.071,0-.106,0-.141.036a2.075,2.075,0,0,0-.566.253A1.637,1.637,0,0,0,0,14.675V25.121A4.855,4.855,0,0,0,4.775,30h12.45A4.853,4.853,0,0,0,22,25.121V14.711a2.2,2.2,0,0,0-.778-1.373M3.607,9.181h0A7.465,7.465,0,0,1,10.93,1.7a7.388,7.388,0,0,1,7.286,7.482v3.9H3.572Zm16.66,15.9A3.167,3.167,0,0,1,17.12,28.3H4.7a3.167,3.167,0,0,1-3.148-3.216V14.711H20.2Z" fill="#fff"/>
</svg>
