<svg id="Profile_pic_-_TBo" data-name="Profile pic - TBo" xmlns="http://www.w3.org/2000/svg" xmlns:xlink="http://www.w3.org/1999/xlink" width="46" height="46" viewBox="0 0 46 46">
  <defs>
    <clipPath id="clip-path">
      <circle id="Placeholder" cx="23" cy="23" r="23" transform="translate(162 419)" fill="#fff" stroke="#707070" stroke-width="1"/>
    </clipPath>
  </defs>
  <g id="Profile_pic_-_TBo-2" data-name="Profile pic - TBo" transform="translate(-162 -419)" clip-path="url(#clip-path)">
    <circle id="Background" cx="23" cy="23" r="23" transform="translate(162 419)" fill="#ff8c00"/>
    <g id="Logo" transform="translate(9.571 -397.217)">
      <path id="Trazado_219" data-name="Trazado 219" d="M166.177,856.193c.063,0,.1.007.1.042v1.2c0,.035-.042.042-.1.042h-7a.088.088,0,0,1-.077-.1v-1.1c0-.035.035-.091.077-.091h1.671V853.5h-1.874v.937c0,.049-.056.049-.1.049h-2.336c-.063,0-.112-.035-.112-.091v-2.063a.093.093,0,0,1,.084-.1h12.231c.077,0,.126.014.126.168v1.986c0,.049-.021.112-.084.112h-2.252c-.042,0-.077,0-.077-.084V853.5H164.45v2.692Z" transform="translate(0 -15.668)" fill="#fff"/>
      <path id="Trazado_220" data-name="Trazado 220" d="M752.155,940.8c-.07,0-.112-.042-.112-.126v-1.21c0-.042.049-.077.126-.077h2.594a.1.1,0,0,1,.1.1v1.231c0,.056-.042.077-.147.077Z" transform="translate(-582.614 -100.915)" fill="#fff"/>
      <path id="Trazado_221" data-name="Trazado 221" d="M894.089,857.48c-.063,0-.112-.028-.112-.077V856.34c0-.14.042-.2.126-.2h1.566V853.5h-1.5c-.14,0-.175-.035-.175-.1v-.972c0-.14.056-.189.126-.189h9.734c1.161,0,2.51.546,2.51,1.315,0,.685-.944,1.119-1.385,1.336.28.1,1.441.259,1.441,1.259,0,1.147-1.734,1.336-1.958,1.336Zm5.126-3.231h2.608c.2,0,.518-.147.518-.349s-.42-.378-.706-.378h-2.42Zm0,1.937h2.357c.427,0,.769-.112.769-.329,0-.245-.413-.412-.713-.412h-2.413Z" transform="translate(-721.45 -15.668)" fill="#fff"/>
      <path id="Trazado_222" data-name="Trazado 222" d="M1494.843,841.825c-2.371,0-3.972-.888-3.972-1.9,0-1.378,2.259-1.867,4.168-1.867h.8c1.259,0,3.909.469,3.909,1.9,0,1.706-3.07,1.86-3.86,1.86Zm1.063-5.608a.488.488,0,0,1,.126.035l1.5.86c.042.021.042.091-.028.126l-.944.447a.084.084,0,0,1-.07-.007l-1.182-.545s-1.007.469-1.175.545a.1.1,0,0,1-.077.007l-.944-.447c-.07-.035-.07-.1-.028-.126l1.5-.86a.447.447,0,0,1,.119-.035Zm-1.769,3.734c0,.5.525.846,1.21.846.643,0,1.238-.315,1.238-.846,0-.552-.72-.846-1.238-.846C1494.759,839.105,1494.137,839.413,1494.137,839.951Z" transform="translate(-1305.316 0)" fill="#fff"/>
    </g>
  </g>
</svg>
