<svg id="Profile_pic_-_TBo_-_Big" data-name="Profile pic - TBo - Big" xmlns="http://www.w3.org/2000/svg" xmlns:xlink="http://www.w3.org/1999/xlink" width="80" height="80" viewBox="0 0 80 80">
  <defs>
    <clipPath id="clip-path">
      <circle id="Placeholder" cx="40" cy="40" r="40" transform="translate(162 419)" fill="#fff" stroke="#707070" stroke-width="1"/>
    </clipPath>
  </defs>
  <g id="Profile_pic_-_TBo_-_Big-2" data-name="Profile pic - TBo - Big" transform="translate(-162 -419)" clip-path="url(#clip-path)">
    <circle id="Background" cx="40" cy="40" r="40" transform="translate(162 419)" fill="#ff8c00"/>
    <g id="Logo" transform="translate(168.956 453.783)">
      <path id="Trazado_219" data-name="Trazado 219" d="M173.383,859.118c.109,0,.182.012.182.073v2.092c0,.061-.073.073-.182.073H161.209a.154.154,0,0,1-.134-.17v-1.91c0-.061.061-.158.134-.158h2.907v-4.682h-3.259v1.63c0,.085-.1.085-.17.085h-4.062c-.109,0-.195-.061-.195-.158v-3.588a.162.162,0,0,1,.146-.17h21.271c.134,0,.219.024.219.292v3.454c0,.085-.036.194-.146.194H174c-.073,0-.134,0-.134-.146v-1.593h-3.49v4.682Z" transform="translate(-156.429 -851.627)" fill="#fff"/>
      <path id="Trazado_220" data-name="Trazado 220" d="M752.238,941.841c-.122,0-.195-.073-.195-.219v-2.1c0-.073.085-.134.219-.134h4.512a.169.169,0,0,1,.17.182v2.14c0,.1-.073.134-.255.134Z" transform="translate(-729.434 -935.468)" fill="#fff"/>
      <path id="Trazado_221" data-name="Trazado 221" d="M894.172,861.356c-.11,0-.195-.049-.195-.134v-1.848c0-.243.073-.341.219-.341h2.724v-4.6h-2.615c-.243,0-.3-.061-.3-.182v-1.69c0-.244.1-.328.219-.328h16.929c2.019,0,4.366.949,4.366,2.286,0,1.192-1.642,1.946-2.408,2.323.487.182,2.505.45,2.505,2.189,0,1.995-3.016,2.323-3.405,2.323Zm8.915-5.619h4.536c.353,0,.9-.255.9-.608s-.73-.657-1.228-.657h-4.208Zm0,3.369h4.1c.742,0,1.338-.194,1.338-.572,0-.426-.718-.717-1.24-.717h-4.2Z" transform="translate(-865.981 -851.627)" fill="#fff"/>
      <path id="Trazado_222" data-name="Trazado 222" d="M1497.779,845.971c-4.123,0-6.908-1.544-6.908-3.3,0-2.4,3.928-3.247,7.248-3.247h1.386c2.189,0,6.8.815,6.8,3.308,0,2.968-5.339,3.235-6.713,3.235Zm1.849-9.754a.849.849,0,0,1,.219.061l2.6,1.5c.073.036.073.158-.048.219l-1.642.778a.147.147,0,0,1-.122-.012c-.292-.134-2.055-.948-2.055-.948s-1.751.815-2.043.948a.176.176,0,0,1-.134.012l-1.642-.778c-.121-.061-.121-.183-.049-.219l2.615-1.5a.777.777,0,0,1,.207-.061Zm-3.077,6.494c0,.863.912,1.472,2.1,1.472,1.119,0,2.153-.547,2.153-1.472,0-.961-1.253-1.472-2.153-1.472C1497.633,841.24,1496.55,841.775,1496.55,842.711Z" transform="translate(-1440.217 -836.217)" fill="#fff"/>
    </g>
  </g>
</svg>
