<svg id="Quick-pre-order-big" xmlns="http://www.w3.org/2000/svg" width="26" height="24" viewBox="0 0 26 24">
  <path id="Trazado_33" data-name="Trazado 33" d="M5502.206,4560.848h3.821l-1.315,1.363a.6.6,0,0,0-.159.407.638.638,0,0,0,.159.41.549.549,0,0,0,.388.164.472.472,0,0,0,.389-.165l2.266-2.373a.6.6,0,0,0,.163-.415.592.592,0,0,0-.163-.415l-2.266-2.372a.5.5,0,0,0-.389-.165.469.469,0,0,0-.388.165.617.617,0,0,0,0,.848l1.315,1.363h-3.806a.6.6,0,0,0-.571.613A.585.585,0,0,0,5502.206,4560.848Z" transform="translate(-5489.351 -4549.88)" fill="#fff"/>
  <path id="Trazado_34" data-name="Trazado 34" d="M5518.454,4556.239h0a.674.674,0,0,0-.547-.283h-19.051l-.822-3.348a.732.732,0,0,0-.706-.565h-3.888a.811.811,0,0,0,0,1.621h3.323l.829,3.376,2.936,11.771a.75.75,0,0,0,.724.564h13.735a.793.793,0,0,0,.73-.58l2.941-11.755A1.224,1.224,0,0,0,5518.454,4556.239Zm-4.105,11.438h-12.59l-2.514-10.229h17.7Z" transform="translate(-5492.664 -4552.042)" fill="#fff"/>
  <path id="Trazado_35" data-name="Trazado 35" d="M5501.08,4564.983a2.661,2.661,0,0,0-1.93.847,2.937,2.937,0,0,0,.04,4.06,2.734,2.734,0,0,0,1.9.819h.006a2.862,2.862,0,0,0-.015-5.72Zm.9,3.706a1.192,1.192,0,0,1-.854.391h-.06a1.214,1.214,0,0,1-.861-.376,1.326,1.326,0,0,1-.364-.914,1.255,1.255,0,0,1,1.194-1.3h0a1.277,1.277,0,0,1,1.283,1.272v.02a1.308,1.308,0,0,1-.337.908Z" transform="translate(-5490.565 -4546.708)" fill="#fff"/>
  <path id="Trazado_36" data-name="Trazado 36" d="M5508.225,4564.983a2.665,2.665,0,0,0-1.931.847,2.939,2.939,0,0,0,.041,4.06,2.739,2.739,0,0,0,1.9.819h.01a2.861,2.861,0,0,0-.017-5.72Zm0,4.095h-.006a1.213,1.213,0,0,1-.872-.376,1.328,1.328,0,0,1,.008-1.837,1.232,1.232,0,0,1,.866-.377h0a1.3,1.3,0,0,1,0,2.59Z" transform="translate(-5487.933 -4546.708)" fill="#fff"/>
</svg>
