<svg id="Quick-to-cart" xmlns="http://www.w3.org/2000/svg" width="18" height="18" viewBox="0 0 18 18">
  <g id="Grupo_126" data-name="Grupo 126" transform="translate(-4)">
    <g id="Grupo_125" data-name="Grupo 125" transform="translate(4)">
      <g id="Grupo_120" data-name="Grupo 120" transform="translate(4.28 5.765)">
        <g id="Grupo_119" data-name="Grupo 119" transform="translate(0 0)">
          <path id="Trazado_79" data-name="Trazado 79" d="M5477.043,4559.861c-.083-.123-2.077-2.989-4.643-2.989s-4.562,2.866-4.644,2.989a.432.432,0,0,0,0,.491c.082.124,2.076,2.99,4.644,2.99s4.56-2.866,4.643-2.99A.434.434,0,0,0,5477.043,4559.861Zm-4.643,2.61c-1.715,0-3.229-1.715-3.741-2.366.511-.65,2.021-2.364,3.741-2.364s3.227,1.715,3.74,2.365C5475.629,4560.758,5474.119,4562.472,5472.4,4562.472Z" transform="translate(-5467.68 -4556.872)" fill="#fff"/>
        </g>
      </g>
      <g id="Grupo_122" data-name="Grupo 122">
        <g id="Grupo_121" data-name="Grupo 121">
          <path id="Trazado_80" data-name="Trazado 80" d="M5480.034,4554.854a9,9,0,0,0-13.089,12.344l-2.119,2.12a.527.527,0,1,0,.746.745l2.12-2.119a9,9,0,0,0,12.343-13.09Zm-6.362,14.309a7.945,7.945,0,1,1,7.944-7.945A7.954,7.954,0,0,1,5473.672,4569.162Z" transform="translate(-5464.671 -4552.217)" fill="#fff"/>
        </g>
      </g>
      <g id="Grupo_124" data-name="Grupo 124" transform="translate(7.693 7.693)">
        <g id="Grupo_123" data-name="Grupo 123" transform="translate(0 0)">
          <path id="Trazado_81" data-name="Trazado 81" d="M5472.771,4559.009a1.307,1.307,0,1,0,1.306,1.307A1.309,1.309,0,0,0,5472.771,4559.009Z" transform="translate(-5471.463 -4559.009)" fill="#fff"/>
        </g>
      </g>
    </g>
  </g>
</svg>
