<svg id="Quick-pre-order" xmlns="http://www.w3.org/2000/svg" width="18.999" height="16.994" viewBox="0 0 18.999 16.994">
  <path id="Trazado_33" data-name="Trazado 33" d="M5502.056,4559.808h2.792l-.961.966a.419.419,0,0,0-.116.288.448.448,0,0,0,.116.29.408.408,0,0,0,.284.116.348.348,0,0,0,.284-.117l1.656-1.679a.419.419,0,0,0,.119-.294.413.413,0,0,0-.119-.294l-1.656-1.679a.375.375,0,0,0-.284-.117.348.348,0,0,0-.284.117.427.427,0,0,0,0,.6l.961.965h-2.781a.429.429,0,0,0-.417.434A.42.42,0,0,0,5502.056,4559.808Z" transform="translate(-5492.663 -4552.042)" fill="#fff"/>
  <path id="Trazado_34" data-name="Trazado 34" d="M5511.509,4555.013h0a.5.5,0,0,0-.4-.2h-13.921l-.6-2.371a.532.532,0,0,0-.516-.4h-2.841a.574.574,0,0,0,0,1.148h2.428l.606,2.39,2.145,8.335a.546.546,0,0,0,.529.4h10.036a.576.576,0,0,0,.534-.411l2.149-8.324A.847.847,0,0,0,5511.509,4555.013Zm-3,8.1h-9.2l-1.837-7.243h12.937Z" transform="translate(-5492.663 -4552.042)" fill="#fff"/>
  <path id="Trazado_35" data-name="Trazado 35" d="M5500.346,4564.982a1.973,1.973,0,0,0-1.41.6,2.032,2.032,0,0,0,1.416,3.454h0a2.025,2.025,0,0,0-.011-4.05Zm.657,2.624a.884.884,0,0,1-.624.277h-.044a.9.9,0,0,1-.629-.267.923.923,0,0,1-.266-.647.9.9,0,0,1,.873-.921h0a.919.919,0,0,1,.937.9v.014a.908.908,0,0,1-.246.643Z" transform="translate(-5492.663 -4552.042)" fill="#fff"/>
  <path id="Trazado_36" data-name="Trazado 36" d="M5507.49,4564.982a1.975,1.975,0,0,0-1.41.6,2.032,2.032,0,0,0,1.417,3.454h.007a2.025,2.025,0,0,0-.013-4.05Zm0,2.9h0a.9.9,0,0,1-.637-.267.92.92,0,0,1,.639-1.568h0a.917.917,0,0,1,0,1.834Z" transform="translate(-5492.663 -4552.042)" fill="#fff"/>
</svg>
