<svg id="Quick-to-cart-1row" xmlns="http://www.w3.org/2000/svg" width="24" height="24.001" viewBox="0 0 24 24.001">
  <g id="Grupo_126" data-name="Grupo 126" transform="translate(-4)">
    <g id="Grupo_125" data-name="Grupo 125" transform="translate(4)">
      <g id="Grupo_120" data-name="Grupo 120" transform="translate(5.707 7.687)">
        <g id="Grupo_119" data-name="Grupo 119" transform="translate(0 0)">
          <path id="Trazado_79" data-name="Trazado 79" d="M5480.165,4560.858c-.11-.164-2.769-3.986-6.191-3.986s-6.082,3.822-6.19,3.986a.574.574,0,0,0,0,.655c.108.165,2.768,3.987,6.19,3.987s6.081-3.822,6.191-3.987A.576.576,0,0,0,5480.165,4560.858Zm-6.191,3.48c-2.286,0-4.3-2.287-4.987-3.154.682-.867,2.693-3.152,4.987-3.152s4.3,2.287,4.987,3.153C5478.279,4562.053,5476.266,4564.338,5473.974,4564.338Z" transform="translate(-5467.681 -4556.872)" fill="#fff"/>
        </g>
      </g>
      <g id="Grupo_122" data-name="Grupo 122">
        <g id="Grupo_121" data-name="Grupo 121">
          <path id="Trazado_80" data-name="Trazado 80" d="M5485.156,4555.733a12,12,0,0,0-17.453,16.458l-2.825,2.827a.7.7,0,1,0,.994.993l2.826-2.825a12,12,0,0,0,16.458-17.454Zm-8.483,19.079a10.594,10.594,0,1,1,10.593-10.593A10.6,10.6,0,0,1,5476.673,4574.812Z" transform="translate(-5464.672 -4552.217)" fill="#fff"/>
        </g>
      </g>
      <g id="Grupo_124" data-name="Grupo 124" transform="translate(10.257 10.258)">
        <g id="Grupo_123" data-name="Grupo 123" transform="translate(0 0)">
          <path id="Trazado_81" data-name="Trazado 81" d="M5473.207,4559.009a1.742,1.742,0,1,0,1.741,1.742A1.744,1.744,0,0,0,5473.207,4559.009Z" transform="translate(-5471.464 -4559.009)" fill="#fff"/>
        </g>
      </g>
    </g>
  </g>
</svg>
