<svg id="Request_sent" data-name="Request sent" xmlns="http://www.w3.org/2000/svg" width="32" height="32" viewBox="0 0 32 32">
  <path id="Trazado_172" data-name="Trazado 172" d="M33.536,41.571l4.881-4.883A1.1,1.1,0,0,0,38.355,35a1.018,1.018,0,0,0-.75-.352,1.191,1.191,0,0,0-.884.34L32.7,39.015l-1.908-1.908a1.2,1.2,0,0,0-1.7,1.7l2.757,2.757a1.246,1.246,0,0,0,.849.36,1.188,1.188,0,0,0,.838-.349" transform="translate(-17.792 -21.457)" fill="#fff"/>
  <path id="Trazado_173" data-name="Trazado 173" d="M16,0A16,16,0,1,0,32,16,16.018,16.018,0,0,0,16,0m0,30.555A14.556,14.556,0,0,1,16,1.444,14.325,14.325,0,0,1,26.283,5.719,14.54,14.54,0,0,1,16,30.555" fill="#fff"/>
</svg>
