<svg id="Send" xmlns="http://www.w3.org/2000/svg" width="54" height="54" viewBox="0 0 54 54">
  <rect id="Rectángulo_221" data-name="Rectángulo 221" width="54" height="54" fill="#ff8c00"/>
  <path id="Trazado_77" data-name="Trazado 77" d="M1118.9,5084a1.118,1.118,0,0,0,1.016-.774l5.7-15.57a1.392,1.392,0,0,0,0-.935v-.027a1.128,1.128,0,0,0-1.07-.694,1.216,1.216,0,0,0-.428.08l-15.591,5.715a1.276,1.276,0,0,0-.722.614,1.183,1.183,0,0,0,.535,1.549l6.1,3.231c.08.027.107.08.107.107l3.156,6.036a1.242,1.242,0,0,0,1.043.641l.161.027Zm-.107-1.549a.314.314,0,0,1-.267-.16l-2.755-5.234a.271.271,0,0,1,.08-.374l3.37-3.392h0a.548.548,0,1,0-.776-.775l-3.423,3.418a.385.385,0,0,1-.375.081l-5.242-2.8a.336.336,0,0,1-.16-.294.282.282,0,0,1,.214-.267l14.574-5.287a.255.255,0,0,1,.321.08.351.351,0,0,1,.08.321l-5.322,14.475a.348.348,0,0,1-.321.213Z" transform="translate(2823.675 -4350.459) rotate(45)" fill="#fff"/>
</svg>
