<svg xmlns="http://www.w3.org/2000/svg" width="31.828" height="31.828" viewBox="0 0 31.828 31.828">
  <g id="Send-contact" transform="translate(0.357 0.357)">
    <path id="Trazado_100" data-name="Trazado 100" d="M1121.389,5088a1.367,1.367,0,0,0,1.242-.947l6.962-19.03a1.7,1.7,0,0,0,0-1.142v-.033a1.379,1.379,0,0,0-1.308-.849,1.488,1.488,0,0,0-.523.1l-19.056,6.985a1.56,1.56,0,0,0-.883.75,1.446,1.446,0,0,0,.654,1.894l7.452,3.949c.1.034.131.1.131.131l3.857,7.377a1.518,1.518,0,0,0,1.275.783l.2.033Zm-.131-1.893a.384.384,0,0,1-.327-.2l-3.367-6.4a.331.331,0,0,1,.1-.457l4.118-4.146h0a.67.67,0,0,0-.948-.947l-4.184,4.178a.471.471,0,0,1-.458.1l-6.406-3.427a.412.412,0,0,1-.2-.36.344.344,0,0,1,.262-.327l17.813-6.462a.311.311,0,0,1,.392.1.428.428,0,0,1,.1.392l-6.5,17.692a.425.425,0,0,1-.392.261Z" transform="translate(2814.503 -4365.459) rotate(45)" fill="#fff" stroke="#fff" stroke-width="0.5"/>
  </g>
</svg>
