<svg id="Shop-unactive" xmlns="http://www.w3.org/2000/svg" width="18" height="22" viewBox="0 0 18 22">
  <path id="Trazado_40" data-name="Trazado 40" d="M3705.3,5074.984l-.9-8.41,0-.011-.474-4.441a1.6,1.6,0,0,0-1.583-1.449H3700.2v-.275a3.968,3.968,0,0,0-1.138-2.8,3.815,3.815,0,0,0-2.743-1.162,3.927,3.927,0,0,0-3.882,3.962v.275H3690.3a1.6,1.6,0,0,0-1.584,1.449l-1.374,12.863a3.161,3.161,0,0,0,.761,2.417,3.028,3.028,0,0,0,2.27,1.035h11.9a3.031,3.031,0,0,0,2.271-1.035A3.162,3.162,0,0,0,3705.3,5074.984Zm-12.277-11.592a.591.591,0,0,0,.585-.6v-.928h5.424v.928a.585.585,0,1,0,1.17,0v-.928h2.145a.425.425,0,0,1,.42.384l1.331,12.5h-15.561l1.336-12.5a.425.425,0,0,1,.421-.384h2.144v.928A.592.592,0,0,0,3693.027,5063.392Zm.585-2.72v-.275a2.712,2.712,0,1,1,5.424,0v.275Zm10.439,15.269a1.924,1.924,0,0,1-.379.663,1.867,1.867,0,0,1-1.4.637h-11.9a1.867,1.867,0,0,1-1.4-.637,1.924,1.924,0,0,1-.379-.663Z" transform="translate(-3687.322 -5056.435)" fill="#707070"/>
</svg>
