<svg xmlns="http://www.w3.org/2000/svg" width="17" height="12" viewBox="0 0 17 12">
  <g id="Show_password" data-name="Show password" transform="translate(0 0)">
    <path id="Trazado_214" data-name="Trazado 214" d="M4656.448,7136.584c-.06-.06-.2-.262-.3-.363a18.063,18.063,0,0,0-2.725-2.844,8.537,8.537,0,0,0-5.25-2.077,8.141,8.141,0,0,0-5.25,2.077,17.329,17.329,0,0,0-2.725,2.844,1.537,1.537,0,0,1-.3.363,1.249,1.249,0,0,0,0,1.432,1.409,1.409,0,0,0,.3.363,18.036,18.036,0,0,0,2.725,2.844,8.538,8.538,0,0,0,5.25,2.077,8.139,8.139,0,0,0,5.25-2.077,17.349,17.349,0,0,0,2.725-2.844,1.536,1.536,0,0,1,.3-.363A1.248,1.248,0,0,0,4656.448,7136.584Zm-8.314,3.832a3.086,3.086,0,1,1,3.065-3.086A3.075,3.075,0,0,1,4648.134,7140.416Z" transform="translate(-4639.674 -7131.3)" fill="#7d7f81"/>
  </g>
</svg>
