<svg id="Size_chart_illustration" data-name="Size chart illustration" xmlns="http://www.w3.org/2000/svg" xmlns:xlink="http://www.w3.org/1999/xlink" width="220.488" height="220.489" viewBox="0 0 220.488 220.489">
  <defs>
    <clipPath id="clip-path">
      <circle id="Shape" cx="110.244" cy="110.244" r="110.244" fill="#fff" stroke="#707070" stroke-width="1"/>
    </clipPath>
  </defs>
  <g id="Illustration" clip-path="url(#clip-path)">
    <g id="Illustration-2" data-name="Illustration" transform="translate(-82.377 -292.233)">
      <path id="Trazado_118" data-name="Trazado 118" d="M330.473,426.683c-3.81,9.151-.932,16.634-2.194,22.526-3.917,18.416-19.785,35.707-21.456,48.452-.522,3.783,3.425,19.458,1.888,25.923-.822,3.453-6.029,15.7-10.63,28.722-4.058,11.507-7.621,23.595-7.263,30.748.739,15.235,1.809,14.114-.028,18.278L270.869,587.6c2.548-16.194-4.2-63.714,1.259-82.322,2.276-7.7,9.7-18.688,11.7-29.734,2.029-11.043-2.249-43.847,0-65.551,2.029-19.43,7.29-55.385,11.92-65.554a32.253,32.253,0,0,1,15.293.467A57.8,57.8,0,0,1,336.337,359.3l.028.028c5.4,5.341,8.962,11.48,8.962,17.456C345.326,390.893,334.28,417.528,330.473,426.683Z" transform="translate(-149.981 53.395)" fill="#e4e4ea" fill-rule="evenodd"/>
      <path id="Trazado_119" data-name="Trazado 119" d="M311.536,416.211c-3.81,9.151-.932,16.634-2.194,22.526-3.917,18.416-19.785,35.707-21.456,48.452-.522,3.783,3.425,19.458,1.888,25.923-.822,3.453-6.029,15.7-10.63,28.722,2.3-10.606,4.492-22.253,4.657-28.365.165-6.441-4.385-19.155-3.645-25.569.358-3.15,3.975-8.742,4.55-11.865.523-2.823-.822-8.69,0-11.428,1.864-6.056,12.3-14.963,14.169-21.019,1.7-5.564-.739-17.515,0-23.3,2.328-18.306,18.526-71.469,18.526-71.469l.028.028c5.4,5.341,8.962,11.48,8.962,17.456C326.389,380.421,315.343,407.057,311.536,416.211Z" transform="translate(-131.045 63.867)" fill="#cecece" fill-rule="evenodd"/>
      <path id="Trazado_120" data-name="Trazado 120" d="M369.067,587.593c-2.548-16.191,4.174-63.711-1.262-82.3-2.283-7.718-9.711-18.688-11.724-29.73-2.014-11.067,2.258-43.859,0-65.557-2.014-19.439-7.281-55.385-11.917-65.554a32.1,32.1,0,0,0-15.29.461c-16.237,4.1-34.271,18.443-34.271,31.866,0,14.126,11.043,40.752,14.853,49.9s.923,16.65,2.185,22.547c3.908,18.4,19.782,35.7,21.456,48.446.51,3.786-3.422,19.442-1.894,25.92s18.666,44.2,17.915,59.464c-.755,15.241-1.821,14.1.021,18.275Z" transform="translate(-99.268 53.394)" fill="#e4e4ea" fill-rule="evenodd"/>
      <path id="Trazado_121" data-name="Trazado 121" d="M346.012,587.593c-2.548-16.191,4.174-63.711-1.262-82.3-2.283-7.718-9.711-18.688-11.724-29.73-2.014-11.067,2.258-43.859,0-65.557-2.014-19.439-7.281-55.385-11.917-65.554a32.1,32.1,0,0,0-15.29.461,63.807,63.807,0,0,1,13.469,27.57c2.136,9.683,11.312,45.314-2.839,84.535,2.426,1.213,8.348,2.793,5.873,13.179,2.017-2.014,4.467.633,5.876,2.961,1.238,2.017,5.7,23.519,6.89,28.374,6.359,25.993-1.189,80.1,0,86.964l2.441,4.947Z" transform="translate(-76.213 53.394)" fill="#cecece" fill-rule="evenodd"/>
      <path id="Trazado_122" data-name="Trazado 122" d="M414.8,315.018s-4.165,35.515-6.685,47.052c-1.592,7.318-6.826,18.718-10.826,28.8-1.234,3.1-2.331,6.084-3.205,8.769a47.727,47.727,0,0,0-1.344,5.017c-2.576,13.017-5.207,53-5.207,53H298.356s-2.631-39.982-5.207-53c-2.221-11.1-12.965-31.518-15.376-42.588-2.521-11.538-6.686-47.052-6.686-47.052l19.522-24.475,12.21-9.206c.275.138.55.275.825.44,12.659,6.686,25.786,20.634,39.3,40.174,13.509-19.54,26.635-33.489,39.3-40.174.275-.165.547-.3.822-.44l10.4,11.037Z" transform="translate(-147.604 -74.855)" fill="#e4e4ea" fill-rule="evenodd"/>
      <path id="Trazado_143" data-name="Trazado 143" d="M286.37,330.253s-2.53-10.047,1.363-11.874,16.906-.229,20.335-1.372,5.124-6.166,5.124-6.166v13.246s-10.9-3.444-16.607-3.444C287.677,320.643,286.37,330.253,286.37,330.253Z" transform="translate(-117.854 -14.208)" fill="#cecece" fill-rule="evenodd"/>
      <path id="Trazado_144" data-name="Trazado 144" d="M321.423,330.253s2.53-10.047-1.36-11.874-16.909-.229-20.335-1.372-5.124-6.166-5.124-6.166v13.246s10.893-3.444,16.6-3.444C320.115,320.643,321.423,330.253,321.423,330.253Z" transform="translate(-99.266 -14.208)" fill="#cecece" fill-rule="evenodd"/>
      <path id="Trazado_145" data-name="Trazado 145" d="M286.536,322c2.741,2.4,9.591,3.425,12.845,3.083s11.107.856,11.807-5.31c-.33,4.965-1.885,8.219-12.326,8.219S286.536,322,286.536,322Z" transform="translate(-115.85 4.152)" fill="#cecece" fill-rule="evenodd"/>
      <path id="Trazado_146" data-name="Trazado 146" d="M319.253,322c-2.741,2.4-9.591,3.425-12.845,3.083s-11.107.856-11.8-5.31c.327,4.965,1.882,8.219,12.323,8.219S319.253,322,319.253,322Z" transform="translate(-99.266 4.152)" fill="#cecece" fill-rule="evenodd"/>
      <path id="Trazado_147" data-name="Trazado 147" d="M297.659,330.972a4.513,4.513,0,0,1,4.351,3.254,4.306,4.306,0,0,0,.186-1.2,4.54,4.54,0,0,0-9.078,0,4.311,4.311,0,0,0,.189,1.2A4.51,4.51,0,0,1,297.659,330.972Z" transform="translate(-102.32 22.24)" fill="#cecece" fill-rule="evenodd"/>
      <path id="Trazado_148" data-name="Trazado 148" d="M319.429,345.925c-.6,2.988-5.647,18.251-8.632,27.185h-9.1c3.948-9.014,14.389-27.815,14.99-30.775.684-3.453-.684-9.261-5.482-19.867C316.853,327.427,320.279,341.623,319.429,345.925Z" transform="translate(-84.684 9.691)" fill="#cecece" fill-rule="evenodd"/>
      <path id="Trazado_149" data-name="Trazado 149" d="M299.522,373.129c-3.945-9.014-14.385-27.815-14.987-30.8-.688-3.425.684-9.234,5.479-19.867-5.644,4.987-9.069,19.183-8.22,23.485.6,2.988,5.644,18.251,8.632,27.185Z" transform="translate(-125.862 9.673)" fill="#cecece" fill-rule="evenodd"/>
      <path id="Trazado_150" data-name="Trazado 150" d="M325.018,339.2c-1.234,3.1-2.331,6.083-3.205,8.769-6.854-13.508-14.388-38.805-15.568-41.488C307.259,308.283,318.467,328.4,325.018,339.2Z" transform="translate(-75.337 -23.179)" fill="#cecece" fill-rule="evenodd"/>
      <path id="Trazado_151" data-name="Trazado 151" d="M276.819,339.2c1.231,3.1,2.328,6.083,3.205,8.769,6.851-13.508,14.389-38.805,15.565-41.488C294.578,308.283,283.367,328.4,276.819,339.2Z" transform="translate(-135.824 -23.179)" fill="#cecece" fill-rule="evenodd"/>
      <path id="Trazado_156" data-name="Trazado 156" d="M401.683,421.939c-19.128,3.6-40.025,6.166-59.412.773-.577-2.961-1.262-6.685-1.919-10.988v-.082c-.932-5.894-1.809-12.882-2.328-20.307-.11-1.616-.22-3.26-.275-4.935l-.082,1.891v.055c-.684,13.894-3.618,25.187-5.344,34.366-22.046,3.679-41.827,3.85-58.7,0,1.726-14.991,5.179-42.668,14.551-68.649,1.427-3.945,4.962-15.018,4.962-15.018h89.558s4.629,11.51,5.809,15.458C392.969,369.875,401.683,406.948,401.683,421.939Z" transform="translate(-142.396 43.766)" fill="#ff8c00" fill-rule="evenodd"/>
      <path id="Trazado_157" data-name="Trazado 157" d="M311,363.282v.055c-.684,13.893-3.618,25.187-5.344,34.366L286.6,399.988c5.653-17.087,9.148-54.208,10.655-48.107C299.955,362.845,311,363.282,311,363.282Z" transform="translate(-115.727 68.775)" fill="#f57b00" fill-rule="evenodd"/>
      <path id="Trazado_159" data-name="Trazado 159" d="M316.133,404.981c.849-12.332-7.865-65.936-7.865-65.936h3.208s4.629,11.51,5.809,15.458c4.467,15.372,13.182,52.445,13.182,67.436l-15.641,2.527C315.7,419.452,315.806,409.943,316.133,404.981Z" transform="translate(-71.179 43.766)" fill="#f57b00" fill-rule="evenodd"/>
    </g>
  </g>
  <g id="Line" fill="none" stroke="#202122" stroke-width="0.5">
    <circle cx="110.244" cy="110.244" r="110.244" stroke="none"/>
    <circle cx="110.244" cy="110.244" r="109.994" fill="none"/>
  </g>
</svg>
