<svg xmlns="http://www.w3.org/2000/svg" xmlns:xlink="http://www.w3.org/1999/xlink" width="220.437" height="220.437" viewBox="0 0 220.437 220.437">
  <defs>
    <clipPath id="clip-path">
      <ellipse id="Circle" cx="110" cy="110" rx="110" ry="110" transform="translate(0 0)" fill="none"/>
    </clipPath>
  </defs>
  <g id="Size-Tee" transform="translate(0.219 0.219)">
    <g id="Illustration" clip-path="url(#clip-path)">
      <g id="Illustration-2" data-name="Illustration" transform="translate(17.414 -41.545)">
        <path id="Trazado_204" data-name="Trazado 204" d="M2886.066,2142.962c-.394-2.947-.984-6.581-1.673-13.063a82.93,82.93,0,0,1,1.083-23.375v-.2c3.739-29.072-1.377-43.8-2.46-46.455,3.739-31.821-1.083-66.982-5.9-82.991-4.427-20.134-21.252-23.964-29.123-25.83-8.461-1.964-31.288-9.134-34.633-11.687-1.672-1.277-1.869-7.661-1.771-13.848,2.558-3.83,3.837-8.937,4.821-13.357a3.754,3.754,0,0,0,1.673,1.179h.393c1.083.1,2.558-3.241,3.05-5.009s1.181-7.857.394-10.116c-.3-.982-.787-1.178-1.279-1.08-.787-.2-1.771.884-2.165,1.473a2.13,2.13,0,0,1-.688.589c.2-2.946.3-5.795.688-8.741a34.128,34.128,0,0,0-1.574-17.187c-4.231-11.982-20.563-12.768-22.925-12.866h-.394c-2.263.1-18.694.884-22.925,12.866a36.474,36.474,0,0,0-1.574,17.187,84.853,84.853,0,0,1,.688,8.741,4.28,4.28,0,0,1-.688-.589c-.394-.589-1.377-1.67-2.165-1.473-.492-.1-.984.1-1.279,1.08-.688,2.259-.1,8.348.394,10.116s2.066,5.107,3.05,5.009h.394c.59,0,1.279-.688,1.673-1.179.984,4.518,2.263,9.527,4.82,13.357.2,6.188-.1,12.572-1.771,13.848-3.344,2.554-26.172,9.723-34.633,11.687-7.871,1.866-24.7,5.7-29.123,25.83-4.821,16.009-9.642,51.072-5.9,82.991-1.082,2.75-6.2,17.384-2.46,46.455v.2a92.314,92.314,0,0,1,1.082,23.375c-.688,6.581-1.18,10.214-1.672,13.063-.3,2.357-.592,4.321-.788,6.777v.393c.1.982,1.28,9.527,3.444,12.866,2.46,3.732,9.544,6.678,13.479,7.366a24.136,24.136,0,0,0,3.051.2c2.164,0,4.82-.393,5.312-2.259.689-2.259-2.263-3.536-3.344-4.027-6-2.652-8.855-4.813-9.447-7.072-.59-2.455.591-9.625,1.87-11.2.885.491.885.884.885,2.357v1.178c.1,1.768,1.279,6.777,5.116,8.84a3.148,3.148,0,0,0,3.444-.295,3.1,3.1,0,0,0,1.083-3.241,31.864,31.864,0,0,0-2.066-5.3,56.578,56.578,0,0,0-1.574-8.643,27.271,27.271,0,0,0-6.789-10.9c-1.968-1.866,2.657-20.821,4.919-28.482.886-2.947,1.673-5.795,2.362-8.25,2.066-7.759,2.263-14.045,2.361-20.723.1-3.438-.3-7.366,0-8.545.2-.687.3-1.571.492-2.652v-.2c1.673-4.322,5.9-15.616,7.379-22.982,1.673-8.054,2.656-16.205,5.018-19.152a1.546,1.546,0,0,0,.688-.688c.1,0,.1-.1.2-.1.394.884.886,1.866,1.279,2.75,1.968,5.7,5.018,12.473,7.478,18.759.984,2.652,1.968,5.205,2.656,7.366.394,1.375.787,2.848,1.181,4.223,2.165,11,4.427,44.785,4.427,44.785h75.662s2.263-33.785,4.427-44.785c.394-1.375.689-2.848,1.181-4.223.689-2.259,1.673-4.812,2.656-7.366,2.558-6.187,5.51-13.063,7.478-18.759.394-.982.885-1.866,1.279-2.75.1,0,.1.1.2.1.1.2.2.295.394.295,2.558,2.554,3.542,11,5.313,19.446,1.574,7.366,5.707,18.661,7.379,22.982v.2c.2,1.081.3,1.964.492,2.652.3,1.179-.1,5.107,0,8.545.1,6.678.3,12.964,2.361,20.723q1.033,3.683,2.361,8.25c2.263,7.661,6.986,26.616,4.919,28.482a26.614,26.614,0,0,0-6.789,10.9,49.584,49.584,0,0,0-1.574,8.643,22.057,22.057,0,0,0-2.067,5.3,3.129,3.129,0,0,0,4.527,3.535c3.936-2.062,5.018-7.071,5.115-8.839v-1.178c0-1.473,0-1.964.885-2.357,1.279,1.572,2.46,8.839,1.869,11.2-.59,2.259-3.542,4.42-9.445,7.072-1.082.491-4.034,1.768-3.345,4.027.59,1.866,3.148,2.259,5.313,2.259a24.152,24.152,0,0,0,3.05-.2c3.936-.687,11.02-3.634,13.479-7.366,2.263-3.339,3.345-11.884,3.444-12.866v-.393A18.966,18.966,0,0,0,2886.066,2142.962Z" transform="translate(-2700.699 -1857.061)" fill="#e4e4ea"/>
        <path id="Trazado_205" data-name="Trazado 205" d="M2794.523,1945.162c12.791,0,18.3-13.357,18.2-14.928V1926.7c.1-.2-7.183,12.179-17.12,12.179-9.445,0-18.1-12.473-18.005-12.277v2.947C2777.8,1930.823,2781.831,1945.162,2794.523,1945.162Z" transform="translate(-2701.937 -1858.243)" fill="#cecece"/>
        <path id="Trazado_206" data-name="Trazado 206" d="M2807.545,1859.062a40.834,40.834,0,0,0-12.3-2.062,44.159,44.159,0,0,0-12.3,2.062c-17.316,5.6-15.546,13.259-15.25,20.822a84.331,84.331,0,0,0,2.362,17.089,2.714,2.714,0,0,1,.1.884,25.252,25.252,0,0,1,2.066,9.33c.984.2,2.46-1.571,2.361-2.75-.2-1.964-.59-4.42-.984-9.134-.2-1.964.3-5.6.492-9.429.492-10.116,2.263-10.214,9.249-11.884a13.436,13.436,0,0,1,9.642.884,4.068,4.068,0,0,0,4.526,0,13.9,13.9,0,0,1,9.642-.884c3.542.884,5.707,1.277,7.084,2.75s5.9,0,5.707,8.25c-.1,3.83-2.952,8.25-3.05,10.313-.394,4.714-.787,7.268-.984,9.134-.1,1.179,1.377,2.848,2.361,2.75a25.247,25.247,0,0,1,2.066-9.33,2.715,2.715,0,0,0,.1-.884,83.185,83.185,0,0,0,2.361-17.089C2823.09,1872.321,2824.861,1864.661,2807.545,1859.062Z" transform="translate(-2701.775 -1857)" fill="#cecece"/>
        <path id="Trazado_118" data-name="Trazado 118" d="M2782.161,2182.927c-3.247,7.759-.787,14.045-1.869,19.054-3.345,15.518-16.726,30.25-18.1,40.955-.393,3.241,2.952,16.4,1.574,21.9-.689,2.947-5.116,13.259-9.052,24.259-3.444,9.723-6.494,19.938-6.1,26.027.689,12.866,1.574,11.884,0,15.518l-16.923-11.589c2.165-13.75-3.542-53.92,1.083-69.634,1.868-6.58,8.264-15.812,9.937-25.143,1.771-9.33-1.869-37.027,0-55.393,1.771-16.4,6.2-46.848,10.134-55.393a27.645,27.645,0,0,1,12.987.393,47.49,47.49,0,0,1,21.351,12.179h0c4.624,4.518,7.576,9.723,7.576,14.732C2794.657,2152.677,2785.408,2175.266,2782.161,2182.927Z" transform="translate(-2701.185 -1861.57)" fill="#e4e4ea" fill-rule="evenodd"/>
        <path id="Trazado_119" data-name="Trazado 119" d="M2782.551,2183.166c-3.247,7.759-.787,14.045-1.869,19.054-3.345,15.518-16.726,30.25-18.1,40.955-.393,3.241,2.952,16.4,1.574,21.9-.689,2.947-5.116,13.259-9.052,24.259,1.968-8.938,3.739-18.857,3.936-23.964.1-5.4-3.739-16.205-3.05-21.607.3-2.652,3.345-7.366,3.837-10.018.394-2.357-.689-7.366,0-9.625,1.574-5.107,10.429-12.669,12-17.777,1.476-4.714-.689-14.83,0-19.643,1.968-15.518,15.644-60.4,15.644-60.4h0c4.624,4.518,7.576,9.723,7.576,14.732C2795.046,2152.916,2785.8,2175.505,2782.551,2183.166Z" transform="translate(-2701.575 -1861.809)" fill="#cecece" fill-rule="evenodd"/>
        <path id="Trazado_120" data-name="Trazado 120" d="M2858.768,2318.951c-2.165-13.652,3.542-53.919-1.083-69.634-1.968-6.581-8.265-15.813-9.937-25.143s1.869-37.027,0-55.393c-1.673-16.4-6.2-46.848-10.134-55.393a26.431,26.431,0,0,0-12.988.393c-13.774,3.536-28.927,15.616-28.927,26.911,0,11.884,9.347,34.473,12.594,42.232,3.247,7.661.787,14.045,1.771,19.054,3.247,15.518,16.726,30.25,18.1,40.955.394,3.241-2.952,16.4-1.574,21.9,1.279,5.4,15.742,37.322,15.152,50.286-.689,12.866-1.574,11.884,0,15.518Z" transform="translate(-2702.229 -1861.567)" fill="#e4e4ea" fill-rule="evenodd"/>
        <path id="Trazado_121" data-name="Trazado 121" d="M2859.241,2318.951c-2.165-13.652,3.542-53.919-1.083-69.634-1.968-6.581-8.265-15.813-9.937-25.143s1.869-37.027,0-55.393c-1.673-16.4-6.2-46.848-10.134-55.393a26.431,26.431,0,0,0-12.988.393,53.829,53.829,0,0,1,11.413,23.277c1.771,8.25,9.642,38.3-2.361,71.5,2.066.982,7.084,2.357,4.919,11.1,1.673-1.67,3.739.491,4.919,2.456.984,1.669,4.821,19.937,5.8,23.964,5.411,22-.984,67.67,0,73.465l2.066,4.223Z" transform="translate(-2702.702 -1861.567)" fill="#cecece" fill-rule="evenodd"/>
        <path id="Trazado_156" data-name="Trazado 156" d="M2848.929,2170.626c-16.136,3.045-33.846,5.206-50.277.688-.492-2.455-1.082-5.7-1.574-9.33v-.1c-.787-5.009-1.574-10.9-1.968-17.187-.1-1.375-.2-2.75-.2-4.125l-.1,1.571v.1c-.59,11.786-3.05,21.312-4.526,29.071-18.6,3.143-35.322,3.241-49.589,0,1.476-12.67,4.329-36.143,12.3-58.045,1.279-3.339,4.231-12.669,4.231-12.669h75.662s3.936,9.723,4.919,13.062C2841.55,2126.529,2848.929,2157.859,2848.929,2170.626Z" transform="translate(-2701.343 -1861.35)" fill="#e4e4ea" fill-rule="evenodd"/>
        <path id="Trazado_157" data-name="Trazado 157" d="M2795.362,2142.716h0c-.59,11.786-3.05,21.313-4.526,29.17l-16.136,1.964c4.821-14.437,7.674-45.866,9.052-40.661C2786.015,2142.324,2795.362,2142.716,2795.362,2142.716Z" transform="translate(-2701.891 -1861.922)" fill="#cecece" fill-rule="evenodd"/>
        <path id="Trazado_159" data-name="Trazado 159" d="M2838.292,2156.287c.689-10.411-6.592-55.687-6.592-55.687h2.656s3.936,9.723,4.919,13.062c3.739,12.964,11.118,44.295,11.118,57.063l-13.283,2.062C2837.9,2168.466,2838,2160.412,2838.292,2156.287Z" transform="translate(-2702.808 -1861.35)" fill="#cecece" fill-rule="evenodd"/>
        <path id="Trazado_207" data-name="Trazado 207" d="M2878.424,1977.978c-4.624-20.821-21.744-24.75-30.009-26.714-5.51-1.277-16.53-4.616-24.4-7.366a1.3,1.3,0,0,0-1.181.2,48.851,48.851,0,0,1-28.533,9.134,49.545,49.545,0,0,1-28.73-9.232,1.613,1.613,0,0,0-1.181-.2c-7.773,2.75-19.087,6.188-24.7,7.464-8.265,1.866-25.385,5.893-30.009,26.714-2.755,9.036-6,26.027-6.986,46.848a1.26,1.26,0,0,0,.394.982,29.119,29.119,0,0,0,7.674,4.616c4.625,1.964,12.594,4.321,23.811,3.928a1.168,1.168,0,0,0,1.18-.982c.787-4.027,1.673-8.937,3.05-11.295.2.295.3.688.492.982,1.378,3.929,3.247,8.348,5.018,12.768.885,2.063,1.672,4.027,2.46,5.991,1.181,3.045,2.066,5.4,2.656,7.366a35.129,35.129,0,0,1,.984,3.438l.2.589c2.165,10.8,1.049,49.862,1.049,50.255a1.219,1.219,0,0,0,1.279,1.179,210.287,210.287,0,0,0,41.632,4.455,194.9,194.9,0,0,0,40.689-4.455,1.283,1.283,0,0,0,1.279-1.179c0-.295-1.115-39.353,1.049-50.157l.2-.687a35.062,35.062,0,0,1,.984-3.437c.59-1.964,1.476-4.321,2.656-7.366.787-1.964,1.673-3.929,2.46-5.991,1.771-4.321,3.64-8.839,5.018-12.768.2-.295.3-.687.492-.982,1.377,2.357,2.263,7.268,3.05,11.295a1.168,1.168,0,0,0,1.181.982c18.5.491,28.041-5.991,30.5-7.955a1.252,1.252,0,0,0,.59-.1,1.066,1.066,0,0,0,.688-1.179C2884.426,2004.1,2881.179,1987.014,2878.424,1977.978Z" transform="translate(-2700.731 -1858.549)" fill="#ff8c00"/>
        <path id="Trazado_208" data-name="Trazado 208" d="M2746.744,2011.755c-13.381-8.054-8.757,6.286-8.757,6.286,1.181,5.4,4.723,13.554,7.871,21.214-2.853-11.393-5.707-20.822-5.707-20.822,20.465,4.714,41.521-1.964,43.587-8.152C2771.932,2017.648,2753.828,2015.979,2746.744,2011.755Z" transform="translate(-2701.287 -1859.72)" fill="#f57b00"/>
        <path id="Trazado_209" data-name="Trazado 209" d="M2856.659,1978.288a1.42,1.42,0,0,1,.1-.589l-.1-.1-1.574,8.348c-2.165,9.33-6,19.839-12.692,25.241-6.4,5.107-25.188,5.893-37.093-1.473,2.165,6.187,23.22,12.866,43.587,8.152,0,0-11.512,28.875-13.185,35.75-1.673,6.777-4.329,44.786-4.329,44.786l-.476,7.458,6.079-.614a1.409,1.409,0,0,0,1.317-1.276c0-.294-1.116-39.354,1.049-50.157l.2-.687a35,35,0,0,1,.984-3.438c.59-1.964,1.476-4.321,2.656-7.366.787-1.964,1.673-3.929,2.46-5.991,1.771-4.321,3.64-8.839,5.018-12.768.2-.295.3-.687.492-.982,1.377,2.357,2.263,7.268,3.05,11.295a1.17,1.17,0,0,0,1.181.982c2.656.393,6.2-.1,10.036-.491C2857.447,2014.529,2856.659,1983.3,2856.659,1978.288Z" transform="translate(-2702.383 -1859.154)" fill="#f57b00"/>
      </g>
    </g>
    <ellipse id="Line" cx="110" cy="110" rx="110" ry="110" fill="none" stroke="#202122" stroke-miterlimit="3.497" stroke-width="0.437"/>
  </g>
</svg>
