<svg xmlns="http://www.w3.org/2000/svg" xmlns:xlink="http://www.w3.org/1999/xlink" width="219.999" height="220.045" viewBox="0 0 219.999 220.045">
  <defs>
    <clipPath id="clip-path">
      <ellipse id="Circle" cx="110" cy="110" rx="110" ry="110" transform="translate(0 0)" fill="none"/>
    </clipPath>
  </defs>
  <g id="Size-Pants" transform="translate(0 0.004)">
    <g id="Illustration" clip-path="url(#clip-path)">
      <g id="Illustration-2" data-name="Illustration" transform="translate(51.909 -125.686)">
        <path id="Trazado_122" data-name="Trazado 122" d="M3163.785,1798.155s-3.336,28.627-5.4,37.941c-1.276,5.882-5.5,15.1-8.733,23.235-.981,2.451-1.865,4.9-2.551,7.059-.393,1.274-.785,2.745-1.08,4.02-2.061,10.49-4.219,46.078-4.219,46.078h-71.927s-2.159-35.588-4.219-46.078c-1.766-8.922-10.5-25.392-12.462-34.412-2.061-9.314-5.4-37.941-5.4-37.941l15.7-19.706,9.813-7.451a5.635,5.635,0,0,1,.687.392c10.2,5.392,20.8,16.667,31.695,32.451,10.892-15.686,21.49-27.059,31.695-32.451a4.259,4.259,0,0,1,.687-.392l8.439,8.824Z" transform="translate(-3047.8 -1770.9)" fill="#e4e4ea" fill-rule="evenodd"/>
        <path id="Trazado_147" data-name="Trazado 147" d="M3106.829,1891.661a3.771,3.771,0,0,1,3.533,2.647,3.331,3.331,0,0,0,.1-.98,3.68,3.68,0,0,0-7.36,0c0,.392.1.588.1.98A3.991,3.991,0,0,1,3106.829,1891.661Z" transform="translate(-3048.836 -1773.229)" fill="#cecece" fill-rule="evenodd"/>
        <path id="Trazado_148" data-name="Trazado 148" d="M3139.027,1893.322c-.491,2.451-4.612,16.961-6.967,24.118H3124.7c3.238-7.255,11.579-24.706,12.07-27.059.589-2.745-.589-7.451-4.416-15.98C3137.064,1878.322,3139.713,1889.792,3139.027,1893.322Z" transform="translate(-3049.241 -1772.929)" fill="#cecece" fill-rule="evenodd"/>
        <path id="Trazado_149" data-name="Trazado 149" d="M3088.825,1917.439c-3.238-7.255-11.579-24.706-12.07-27.059-.589-2.745.589-7.451,4.416-15.98-4.612,4.02-7.261,15.49-6.673,18.922.49,2.451,4.612,16.961,6.967,24.118Z" transform="translate(-3048.299 -1772.929)" fill="#cecece" fill-rule="evenodd"/>
        <path id="Trazado_143" data-name="Trazado 143" d="M3084.887,1860.786s-2.06-8.137,1.08-9.608,13.639-.2,16.387-1.078,4.121-5,4.121-5v10.686s-8.831-2.745-13.345-2.745C3085.967,1853.041,3084.887,1860.786,3084.887,1860.786Z" transform="translate(-3048.483 -1772.355)" fill="#cecece" fill-rule="evenodd"/>
        <path id="Trazado_144" data-name="Trazado 144" d="M3128.588,1860.786s2.061-8.137-1.08-9.608-13.639-.2-16.387-1.078-4.121-5-4.121-5v10.686s8.831-2.745,13.345-2.745C3127.508,1853.041,3128.588,1860.786,3128.588,1860.786Z" transform="translate(-3048.909 -1772.355)" fill="#cecece" fill-rule="evenodd"/>
        <path id="Trazado_145" data-name="Trazado 145" d="M3086.7,1869.463c2.257,1.961,7.752,2.745,10.3,2.451,2.649-.294,8.93.686,9.518-4.314-.294,4.02-1.57,6.667-9.911,6.667S3086.7,1869.463,3086.7,1869.463Z" transform="translate(-3048.529 -1772.796)" fill="#cecece" fill-rule="evenodd"/>
        <path id="Trazado_146" data-name="Trazado 146" d="M3126.822,1869.463c-2.257,1.961-7.752,2.745-10.3,2.451-2.649-.294-8.929.686-9.518-4.314.294,4.02,1.57,6.667,9.911,6.667S3126.822,1869.463,3126.822,1869.463Z" transform="translate(-3048.909 -1772.796)" fill="#cecece" fill-rule="evenodd"/>
        <path id="Trazado_150" data-name="Trazado 150" d="M3151.312,1860.573c-.981,2.451-1.865,4.9-2.551,7.059-5.593-10.882-11.579-31.373-12.56-33.432C3137.083,1835.671,3146.012,1851.847,3151.312,1860.573Z" transform="translate(-3049.457 -1772.141)" fill="#cecece" fill-rule="evenodd"/>
        <path id="Trazado_151" data-name="Trazado 151" d="M3062.3,1860.573c.981,2.451,1.864,4.9,2.551,7.059,5.594-10.882,11.579-31.373,12.56-33.432C3076.626,1835.671,3067.6,1851.847,3062.3,1860.573Z" transform="translate(-3048.072 -1772.141)" fill="#cecece" fill-rule="evenodd"/>
        <path id="Trazado_210" data-name="Trazado 210" d="M3164.081,2135.536c-2.748-15.785,5-60.98,1.177-76.079-1.57-6.274-5-15.392-6.182-24.314-1.178-9.02,1.864-35.392.785-52.941-.785-13.137-5.985-35.49-9.616-47.451l-5.986-20.686c-.2-.686,0-1.765-1.668-1.47-2.355.294-32.087,1.47-36.6,1.47-4.416,0-29.34-.784-32.283-1.078s-5.3-.882-5.593-.588-.392.686-.589,1.569v.2h0c-.687,3.039-2.061,10.1-3.14,15.98-2.257,12.255-6.967,39.412-6.182,52.353v.1c-.294,9.412.981,21.078,2.159,31.373.981,9.216-.294,17.157-.785,21.275a105.834,105.834,0,0,1-2.453,15.49c-.883,3.431-2.551,6.373-3.14,9.02-2.061,9.02-.1,25.686,1.57,40.49,1.177,10.588,2.355,20.49,1.864,25.98a.919.919,0,0,0,.491.882l16.78,10a.885.885,0,0,0,.49.1.36.36,0,0,0,.294-.1.884.884,0,0,0,.589-.588c0-.1.1-.2.1-.3l1.472.882a.886.886,0,0,0,.491.1.361.361,0,0,0,.294-.1.884.884,0,0,0,.589-.588c.883-2.549.785-3.039.2-6.569-.294-1.765-.687-4.412-1.177-8.529-.589-4.51.785-12.647,4.121-24.8,1.374-5,2.944-10,4.219-14.02,1.472-4.8,2.552-8.235,2.846-9.8.589-3.431-.687-9.118-1.766-14.118-.589-2.941,2.159-5.686,2.159-6.765.294-4.8-.2-10.784,2.944-17.157,3.336-6.961,7.163-15,8.341-22.843a21.962,21.962,0,0,0-.2-6.177c-.393-3.431-.785-7.353.687-11.961a236.437,236.437,0,0,0,7.359-25.392,231.838,231.838,0,0,0,7.36,25.1c2.551,7.549-.2,13.431.49,18.235,2.061,15,10.6,29.8,11.186,40.2.2,3.039-.49,15.392.393,20.784.883,5.294,12.56,36.569,11.088,48.823-1.472,12.157-2.257,11.275-.981,14.706" transform="translate(-3047.899 -1773.673)" fill="#ff8c00" fill-rule="evenodd"/>
        <path id="Trazado_211" data-name="Trazado 211" d="M3110.121,1957.507s-8.929-.392-11.088-9.118c-.981-3.922-1.472,14.51-3.336,29.216-.589,3.333-1.177,6.569-1.668,9.608h0a95.706,95.706,0,0,0-1.276,10.686c-.294,4.706,2.355,14.118,1.276,18.725-1.177,5-9.126,12.745-10.3,17.745-.589,2.255.883,6.863.589,9.216-.294,2.549-2.944,7.255-3.042,9.8-.294,5.2,4.121,15.2,4.317,20.392.2,4.9-4.514,25.686-5.789,34.314,3.042-10.687,10.107-32.059,10.6-34.9.883-5.294.2-17.745.392-20.784.589-10.294,9.126-25.2,11.285-40.2.687-4.8-1.963-10.588.589-18.235C3109.729,1969.566,3109.532,1968.781,3110.121,1957.507Z" transform="translate(-3048.4 -1774.37)" fill="#f57b00" fill-rule="evenodd"/>
        <path id="Trazado_212" data-name="Trazado 212" d="M3166.944,2058.772c-1.57-6.274-4.906-15.392-6.182-24.411-1.177-9.02,1.57-36.078.49-53.726-.883-15.686-12.168-58.039-15.6-66.372-.294-.785-.2-1.275-.589-1.667s-1.766-.1-2.355-.1l-10.107.49.785.98c5.1,6.667,16.289,28.431,17.761,36.765,1.374,7.941,7.556,36.863-5.3,68.039,1.864,1.078,6.574,2.549,4.219,10.784,1.668-1.569,3.631.686,4.612,2.549.883,1.667,3.729,19.216,4.514,23.137,4.219,21.176-3.826,64.509-3.042,70.1l1.766,4.118,7.163-4.314C3163.608,2112.106,3170.771,2073.969,3166.944,2058.772Z" transform="translate(-3049.389 -1773.675)" fill="#f57b00" fill-rule="evenodd"/>
      </g>
    </g>
    <ellipse id="Line" cx="109.705" cy="109.804" rx="109.705" ry="109.804" transform="translate(0.307 0.214)" fill="none" stroke="#202122" stroke-miterlimit="3.497" stroke-width="0.437"/>
  </g>
</svg>
