<svg id="Star-active" xmlns="http://www.w3.org/2000/svg" width="22" height="21" viewBox="0 0 22 21">
  <path id="Trazado_2" data-name="Trazado 2" d="M4180.935,5863.387a.58.58,0,0,0-.492-.419l-6.864-.961-3.086-6.187a.548.548,0,0,0-.542-.32h0a.569.569,0,0,0-.545.346l-3.035,6.21-6.864,1.011a.621.621,0,0,0-.5.418.66.66,0,0,0,.149.64l5.013,4.806-1.162,6.854a.653.653,0,0,0,.25.616.547.547,0,0,0,.345.1.553.553,0,0,0,.293-.074l6.148-3.228,6.15,3.2a.659.659,0,0,0,.271.076h0a.628.628,0,0,0,.617-.62c0-.073,0-.1-.024-.123l-1.209-6.8,4.985-4.856A.78.78,0,0,0,4180.935,5863.387Z" transform="translate(-4158.981 -5855.5)" fill="#ffc400"/>
</svg>
