<svg id="Viewers" xmlns="http://www.w3.org/2000/svg" width="16" height="11" viewBox="0 0 16 11">
  <path id="Trazado_79" data-name="Trazado 79" d="M5483.551,4561.954c-.141-.209-3.521-5.082-7.87-5.082s-7.731,4.873-7.871,5.082a.738.738,0,0,0,0,.835c.14.209,3.52,5.083,7.871,5.083s7.729-4.874,7.87-5.083A.741.741,0,0,0,5483.551,4561.954Zm-7.87,4.438c-2.906,0-5.473-2.916-6.341-4.021.867-1.1,3.425-4.019,6.341-4.019s5.47,2.916,6.34,4.021C5481.153,4563.478,5478.594,4566.392,5475.681,4566.392Z" transform="translate(-5467.68 -4556.872)" fill="#fff"/>
  <path id="Trazado_81" data-name="Trazado 81" d="M5473.679,4559.009a2.221,2.221,0,1,0,2.215,2.222A2.222,2.222,0,0,0,5473.679,4559.009Z" transform="translate(-5465.678 -4555.73)" fill="#fff"/>
</svg>
