<svg id="Vot_live" data-name="Vot live" xmlns="http://www.w3.org/2000/svg" width="13" height="13" viewBox="0 0 13 13">
  <path id="Trazado_187" data-name="Trazado 187" d="M3042.353,3973.79a.835.835,0,0,0-.254-.592l-5.619-5.4a.881.881,0,0,0-.576-.213h0a.958.958,0,0,0-.631.251l-5.649,5.427a.836.836,0,0,0-.253.587.522.522,0,0,0,.146.511l.076.07h0a.9.9,0,0,0,1.155-.011l4.184-4.019-.008,10.184h1.778V3970.4l4.137,3.976a.857.857,0,0,0,.6.245,1.073,1.073,0,0,0,.654-.236A.818.818,0,0,0,3042.353,3973.79Z" transform="translate(-3029.353 -3967.582)" fill="#fff"/>
</svg>
