<svg id="Vot-down_active" data-name="Vot-down active" xmlns="http://www.w3.org/2000/svg" width="16" height="16" viewBox="0 0 16 16">
  <path id="Trazado_188" data-name="Trazado 188" d="M3082.135,3976.592a1.026,1.026,0,0,0,.312-.722.643.643,0,0,0-.18-.629l-.093-.087h0a1.1,1.1,0,0,0-1.421.016l-5.151,4.944.011-12.533h-2.189v12.533l-5.092-4.892a1.051,1.051,0,0,0-.74-.3,1.309,1.309,0,0,0-.805.291,1,1,0,0,0-.323.731,1.027,1.027,0,0,0,.312.727l6.917,6.649a1.081,1.081,0,0,0,.71.262h0a1.186,1.186,0,0,0,.776-.309Z" transform="translate(-3066.465 -3967.581)" fill="#ff8c00"/>
</svg>
