<svg id="Vot-down" xmlns="http://www.w3.org/2000/svg" width="16" height="16" viewBox="0 0 16 16">
  <path id="Trazado_164" data-name="Trazado 164" d="M16,9.28h0l-.295.27A1.2,1.2,0,0,0,14.074,9.5L9.224,14.168,9.234,2h-2.4V14.168L2.046,9.556a1.16,1.16,0,0,0-.813-.331H1.222a1.392,1.392,0,0,0-.859.314A1.112,1.112,0,0,0,0,10.354a1.129,1.129,0,0,0,.345.807l6.791,6.546A1.2,1.2,0,0,0,7.924,18h.006a1.286,1.286,0,0,0,.84-.338L15.6,11.085a1.133,1.133,0,0,0,.344-.8.737.737,0,0,0-.216-.712Z" transform="translate(0 -2)"/>
</svg>
