<svg id="YouTube" xmlns="http://www.w3.org/2000/svg" width="26" height="18" viewBox="0 0 26 18">
  <path id="YouTube-2" data-name="YouTube" d="M7204.412,6543.028a3.2,3.2,0,0,0-2.3-2.25c-2-.577-10.117-.577-10.117-.577s-8.118,0-10.118.577a3.2,3.2,0,0,0-2.293,2.25,30.2,30.2,0,0,0-.589,6.172,30.524,30.524,0,0,0,.589,6.173,3.2,3.2,0,0,0,2.293,2.25c2,.578,10.118.578,10.118.578s8.118,0,10.117-.578a3.2,3.2,0,0,0,2.3-2.25,35.478,35.478,0,0,0,.587-6.173A30.635,30.635,0,0,0,7204.412,6543.028Zm-15.119,9.979v-7.614l6.765,3.806Z" transform="translate(-7178.999 -6540.201)" fill="#7d7f81"/>
</svg>
